<?xml version="1.0" standalone="no"?>
<!DOCTYPE svg PUBLIC "-//W3C//DTD SVG 1.1//EN" "http://www.w3.org/Graphics/SVG/1.1/DTD/svg11.dtd" >
<svg xmlns="http://www.w3.org/2000/svg" xmlns:xlink="http://www.w3.org/1999/xlink" version="1.1">
<metadata>
Created by FontForge 20170731 at Sat May 16 09:35:57 2020
 By Aleksey,,,
Copyright (c) 2003 by Bitstream, Inc. All Rights Reserved.
DejaVu changes are in public domain
Changes by Saber Rastikerdar are in public domain.
Non-Arabic (Latin) glyphs and data are imported from Roboto font under the Apache License, Version 2.0.
</metadata>
<defs>
<font id="Vazir" horiz-adv-x="0" >
  <font-face 
    font-family="Vazir"
    font-weight="400"
    font-stretch="normal"
    units-per-em="2048"
    panose-1="2 11 6 3 3 8 4 2 2 4"
    ascent="1638"
    descent="-410"
    x-height="1082"
    cap-height="1456"
    bbox="-985 -1096 3070 2341"
    underline-thickness="100"
    underline-position="-600"
    unicode-range="U+0002-FFFD"
  />
<missing-glyph horiz-adv-x="908" 
d="M808 0h-708v1456h708v-1456zM754 84v1287l-274 -643zM154 1359v-1263l268 632zM194 54h515l-258 606zM451 796l258 606h-515z" />
    <glyph glyph-name="uni0622" unicode="&#x627;&#x653;" horiz-adv-x="465" 
d="M0 0zM129 1416q-83 0 -176 -111l-101 91q114 161 243 162q42 0 117.5 -25.5t117.5 -25.5q71 0 178 54l66 -122q-112 -69 -218 -69q-41 0 -114.5 23t-112.5 23zM148 1228.27h169v-1227.37h-169v1227.37z" />
    <glyph glyph-name="uni0623" unicode="&#x627;&#x654;" horiz-adv-x="465" 
d="M22 2zM22 1246zM125 1382q-37 31 -53.5 69.5t-16.5 94.5q0 93 59.5 150.5t141.5 57.5q36 0 70 -10.5t66 -30.5l1 -119q-62 37 -123 37q-27 0 -48.5 -9.5t-36.5 -32t-15 -56.5q1 -22 9.5 -39.5t28 -32.5t50.5 -27q6 -2 10.5 -3t9.5 -1h2.5t2.5 0.5t3 0.5q25 5 71 14.5
t62 12.5v-116l-397 -96v113zM148 1168.82h169v-1165.96h-169v1165.96z" />
    <glyph glyph-name="uni0624" unicode="&#x648;&#x654;" horiz-adv-x="880" 
d="M98 0zM210 843zM313 979q-37 31 -53.5 69.5t-16.5 94.5q0 93 59.5 150.5t141.5 57.5q36 0 70 -10.5t66 -30.5l1 -119q-62 37 -123 37q-27 0 -48.5 -9.5t-36.5 -32t-15 -56.5q1 -22 9.5 -39.5t28 -32.5t50.5 -27q6 -2 10.5 -3t9.5 -1h2.5t2.5 0.5t3 0.5q25 5 71 14.5
t62 12.5v-116l-397 -96v113zM616 13q-118 -15 -159 -15q-359 0 -359 298q0 174 93.5 299t236.5 125q88 0 157.5 -47t111.5 -126.5t63.5 -176.5t21.5 -204q0 -281 -155 -458.5t-459 -235.5l-60 154q213 40 340.5 139.5t167.5 247.5zM616 199q-21 336 -196 336
q-68 0 -112.5 -67.5t-44.5 -156.5q0 -139 195 -139q69 0 158 27z" />
    <glyph glyph-name="uni0625" unicode="&#x627;&#x655;" horiz-adv-x="465" 
d="M7 0zM7 -165zM110 -492q-37 31 -53.5 69.5t-16.5 94.5q0 93 59.5 150.5t141.5 57.5q36 0 70 -10.5t66 -30.5l1 -119q-62 37 -123 37q-27 0 -48.5 -9.5t-36.5 -32t-15 -56.5q1 -22 9.5 -39.5t28 -32.5t50.5 -27q6 -2 10.5 -3t9.5 -1h2.5t2.5 0.5t3 0.5q25 5 71 14.5
t62 12.5v-116l-397 -96v113zM149 1366h169v-1365h-169v1365z" />
    <glyph glyph-name="uni0626" unicode="&#x64a;&#x654;" horiz-adv-x="1477" 
d="M98 0zM384 651zM487 787q-37 31 -53.5 69.5t-16.5 94.5q0 93 59.5 150.5t141.5 57.5q36 0 70 -10.5t66 -30.5l1 -119q-62 37 -123 37q-27 0 -48.5 -9.5t-36.5 -32t-15 -56.5q1 -22 9.5 -39.5t28 -32.5t50.5 -27q6 -2 10.5 -3t9.5 -1h2.5t2.5 0.5t3 0.5q25 5 71 14.5
t62 12.5v-116l-397 -96v113zM361 475q-92 -225 -92 -393q0 -408 455 -410q121 0 231.5 32t186 99t75.5 155q0 58 -99 58h-144q-121 0 -183.5 63t-62.5 184q0 99 38.5 183t102.5 140.5t148 88.5t175 32q104 0 180 -32l-32 -165q-68 21 -148 21q-64 0 -120.5 -22.5t-94 -59
t-59 -82t-21.5 -91.5t17.5 -65t69.5 -19h180q103 0 159 -53.5t56 -140.5q0 -235 -180 -366t-480 -131q-621 0 -621 578q0 204 108 459z" />
    <glyph glyph-name="uni06C0" unicode="&#x647;&#x654;" horiz-adv-x="922" 
d="M98 4zM169 1248q59 -13 118 -13q157 0 219 50q46 37 46 78q0 23 -35 24l-100 2q-119 3 -119 123q0 123 107.5 191t268.5 70l-9 -130q-118 -2 -176.5 -33t-66.5 -94l109 -4q69 -2 106 -36.5t37 -101.5q0 -79 -72 -159q-99 -108 -322 -108q-59 0 -130 11zM447 635
q-182 -160 -182 -286q0 -85 47 -127t148 -42q102 0 149.5 42t47.5 128q0 116 -210 285zM369 932q455 -333 455 -588q0 -149 -98 -243.5t-265 -96.5q-174 0 -268.5 88.5t-94.5 251.5q0 204 219 419l-45 39z" />
    <glyph glyph-name="uniFBA5.fina" unicode="&#xfeea;&#x654;" horiz-adv-x="1038" arabic-form="final" 
d="M98 0zM313 1179q59 -13 118 -13q157 0 219 50q46 37 46 78q0 23 -35 24l-100 2q-119 3 -119 123q0 123 107.5 191t268.5 70l-9 -130q-118 -2 -176.5 -33t-66.5 -94l109 -4q69 -2 106 -36.5t37 -101.5q0 -79 -72 -159q-99 -108 -322 -108q-59 0 -130 11zM98 412
q0 295 507 452l-7 45l159 33l82 -589q11 -83 59 -128t129 -45h31v-180h-35q-269 0 -322 237q-122 -105 -270 -105q-146 0 -239.5 70.5t-93.5 209.5zM631 703q-181 -67 -270 -134.5t-89 -144.5q0 -61 39.5 -92.5t113.5 -31.5q90 0 163 50.5t73 131.5q0 30 -4 57z" />
    <glyph glyph-name="uniFDF2" unicode="&#x627;&#xfedf;&#xfee0;&#xfeea;" horiz-adv-x="2513" arabic-form="isolated" 
d="M98 0zM1259 1543v362h88v-362h-88zM1340 1450q3 -80 3 -82q8 -102 70 -102q67 0 67 101q0 36 -17 118l88 14q18 -61 18 -122q0 -201 -147 -203q-34 0 -65 15.5t-44 41.5q-14 -54 -55 -77.5t-94 -23.5q-70 0 -104 45t-34 133q0 18 1.5 35.5t4.5 33.5t7 31l78 -13
q-9 -40 -9 -83q0 -84 68 -84q21 0 36 4.5t24.5 16.5t15 24.5t8 37t3 44.5t0.5 56v39h77zM98 412q0 295 507 452l-7 45l159 33l82 -589q11 -83 59 -128t129 -45h31v-180h-35q-269 0 -322 237q-122 -105 -270 -105q-146 0 -239.5 70.5t-93.5 209.5zM631 703
q-181 -67 -270 -134.5t-89 -144.5q0 -61 39.5 -92.5t113.5 -31.5q90 0 163 50.5t73 131.5q0 30 -4 57zM1310 123q-35 -69 -94 -96t-155 -27h-41v180h43q46 0 76.5 11t48 27.5t26.5 51.5t11 68t2 91v620h169v-620q0 -58 2 -90.5t9.5 -67.5t23 -52t42.5 -28t68 -11h42v-180
h-39q-90 0 -144 27.5t-90 95.5zM1546 0v180h30q93 0 126 54t33 169v799h169v-797q0 -203 -74.5 -304t-254.5 -101h-29zM2195 1366h169v-1365h-169v1365z" />
    <glyph glyph-name="uniFE70" unicode="&#x20;&#x64b;" horiz-adv-x="791" arabic-form="isolated" 
d="M166 1076zM166 1076v104l455 186v-103zM166 1288v104l455 186v-103z" />
    <glyph glyph-name="uniFE71" unicode="&#x640;&#x64b;" horiz-adv-x="791" arabic-form="medial" 
d="M0 0zM486 0v180h326v-180h-326zM228 0v180h326v-180h-326zM-20 0v180h326v-180h-326zM190 1103v104l455 186v-103zM190 1315v104l455 186v-103z" />
    <glyph glyph-name="uniFE72" unicode="&#x20;&#x64c;" horiz-adv-x="791" arabic-form="isolated" 
d="M98 1079zM319 1497q0 72 46 117t117 45q72 0 117 -44.5t45 -118.5q0 -57 -27 -121q23 -4 43 -4v-76q-38 2 -76 9q-47 -113 -117.5 -169t-164.5 -56q-97 0 -149.5 83t-54.5 226l79 14q2 -112 34.5 -178.5t91.5 -66.5q111 0 200 159q-89 31 -136.5 73t-47.5 108zM539 1391
q27 63 27 104q0 36 -23.5 60t-56.5 24q-38 0 -62.5 -23.5t-24.5 -62.5q0 -65 140 -102z" />
    <glyph glyph-name="uniFE74" unicode="&#x20;&#x64d;" horiz-adv-x="791" arabic-form="isolated" 
d="M174 0zM174 -440v104l456 186v-104zM174 -228v104l456 186v-104z" />
    <glyph glyph-name="uniFE76" unicode="&#x20;&#x64e;" horiz-adv-x="791" arabic-form="isolated" 
d="M156 1343zM156 1343v104l456 186v-104z" />
    <glyph glyph-name="uniFE77" unicode="&#x640;&#x64e;" horiz-adv-x="791" arabic-form="medial" 
d="M0 0zM486 0v180h326v-180h-326zM228 0v180h326v-180h-326zM-20 0v180h326v-180h-326zM165 1349v104l456 186v-104z" />
    <glyph glyph-name="uniFE78" unicode="&#x20;&#x64f;" horiz-adv-x="791" arabic-form="isolated" 
d="M152 1118zM595 1262q-41 0 -80 6q-97 -135 -363 -150v78q216 20 286 94q-75 14 -130.5 59.5t-55.5 111.5q0 73 46 117.5t117 44.5q72 0 117.5 -45t45.5 -118q0 -56 -26 -119q26 -4 43 -4v-75zM472 1355q27 63 27 104q0 36 -23 59.5t-57 23.5q-39 0 -63 -23t-24 -62
q0 -65 140 -102z" />
    <glyph glyph-name="uniFE79" unicode="&#x640;&#x64f;" horiz-adv-x="791" arabic-form="medial" 
d="M0 0zM486 0v180h326v-180h-326zM228 0v180h326v-180h-326zM-20 0v180h326v-180h-326zM595 1181q-41 0 -80 6q-97 -135 -363 -150v78q216 20 286 94q-75 14 -130.5 59.5t-55.5 111.5q0 73 46 117.5t117 44.5q72 0 117.5 -45t45.5 -118q0 -56 -26 -119q26 -4 43 -4v-75z
M472 1274q27 63 27 104q0 36 -23 59.5t-57 23.5q-39 0 -63 -23t-24 -62q0 -65 140 -102z" />
    <glyph glyph-name="uniFE7A" unicode="&#x20;&#x650;" horiz-adv-x="791" arabic-form="isolated" 
d="M176 -44zM176 -334v104l455 186v-103z" />
    <glyph glyph-name="uniFE7B" unicode="&#x640;&#x650;" horiz-adv-x="791" arabic-form="medial" 
d="M0 0zM486 0v180h326v-180h-326zM228 0v180h326v-180h-326zM-20 0v180h326v-180h-326zM182 -452v104l455 186v-103z" />
    <glyph glyph-name="uniFE7C" unicode="&#x20;&#x651;" horiz-adv-x="791" arabic-form="isolated" 
d="M112 1249zM426 1569q3 -80 3 -82q8 -102 70 -102q67 0 67 101q0 36 -17 118l88 14q18 -61 18 -122q0 -201 -147 -203q-34 0 -65 15.5t-44 41.5q-14 -54 -55 -77.5t-94 -23.5q-70 0 -104 45t-34 133q0 18 1.5 35.5t4.5 33.5t7 31l78 -13q-9 -40 -9 -83q0 -84 68 -84
q21 0 36 4.5t24.5 16.5t15 24.5t8 37t3 44.5t0.5 56v39h77z" />
    <glyph glyph-name="uniFE7D" unicode="&#x640;&#x651;" horiz-adv-x="791" arabic-form="medial" 
d="M0 0zM486 0v180h326v-180h-326zM228 0v180h326v-180h-326zM-20 0v180h326v-180h-326zM437 1568q3 -80 3 -82q8 -102 70 -102q67 0 67 101q0 36 -17 118l88 14q18 -61 18 -122q0 -201 -147 -203q-34 0 -65 15.5t-44 41.5q-14 -54 -55 -77.5t-94 -23.5q-70 0 -104 45
t-34 133q0 18 1.5 35.5t4.5 33.5t7 31l78 -13q-9 -40 -9 -83q0 -84 68 -84q21 0 36 4.5t24.5 16.5t15 24.5t8 37t3 44.5t0.5 56v39h77z" />
    <glyph glyph-name="uniFE7E" unicode="&#x20;&#x652;" horiz-adv-x="791" arabic-form="isolated" 
d="M240 1279zM319 1452q0 -39 27.5 -66t66.5 -27t66 27t27 66t-27 66.5t-66 27.5t-66.5 -27.5t-27.5 -66.5zM240 1452q0 71 51 122t122 51t122 -51t51 -122t-51 -122t-122 -51t-122 51t-51 122z" />
    <glyph glyph-name="uniFE7F" unicode="&#x640;&#x652;" horiz-adv-x="791" arabic-form="medial" 
d="M0 0zM486 0v180h326v-180h-326zM228 0v180h326v-180h-326zM-20 0v180h326v-180h-326zM309 1462q0 -39 27.5 -66t66.5 -27t66 27t27 66t-27 66.5t-66 27.5t-66.5 -27.5t-27.5 -66.5zM230 1462q0 71 51 122t122 51t122 -51t51 -122t-51 -122t-122 -51t-122 51t-51 122z" />
    <glyph glyph-name="uniFEF5" unicode="&#xfedf;&#xfe82;" horiz-adv-x="1212" arabic-form="isolated" 
d="M0 3zM225 1466q-83 0 -176 -111l-101 91q114 161 243 162q42 0 117.5 -25.5t117.5 -25.5q71 0 178 54l66 -122q-112 -69 -218 -69q-41 0 -114.5 23t-112.5 23zM175 196q117 -15 224 -15q56 0 104 3q-119 411 -393 1040l149 81q269 -650 403 -1087q81 26 130.5 69.5
t76 120t26.5 190.5v768h169v-769q0 -312 -164 -453t-504 -141q-130 0 -221 16v177z" />
    <glyph glyph-name="uniFEF6" unicode="&#xfee0;&#xfe82;" horiz-adv-x="1273" arabic-form="final" 
d="M0 0zM225 1466q-83 0 -176 -111l-101 91q114 161 243 162q42 0 117.5 -25.5t117.5 -25.5q71 0 178 54l66 -122q-112 -69 -218 -69q-41 0 -114.5 23t-112.5 23zM259 1305q269 -650 403 -1087q81 26 130.5 69.5t76 120t26.5 190.5v768h169v-819q0 -188 44.5 -277.5
t148.5 -89.5h36v-180h-39q-121 0 -192.5 56.5t-105.5 172.5q-167 -226 -560 -226q-130 0 -221 16v177q114 -15 223 -15q56 0 105 3q-122 413 -393 1040z" />
    <glyph glyph-name="uniFEF7" unicode="&#xfedf;&#xfe84;" horiz-adv-x="1212" arabic-form="isolated" 
d="M0 3zM-15 1362zM88 1498q-37 31 -53.5 69.5t-16.5 94.5q0 93 59.5 150.5t141.5 57.5q36 0 70 -10.5t66 -30.5l1 -119q-62 37 -123 37q-27 0 -48.5 -9.5t-36.5 -32t-15 -56.5q1 -22 9.5 -39.5t28 -32.5t50.5 -27q6 -2 10.5 -3t9.5 -1h2.5t2.5 0.5t3 0.5q25 5 71 14.5
t62 12.5v-116l-397 -96v113zM175 196q117 -15 224 -15q56 0 104 3q-119 411 -393 1040l149 81q269 -650 403 -1087q81 26 130.5 69.5t76 120t26.5 190.5v768h169v-769q0 -312 -164 -453t-504 -141q-130 0 -221 16v177z" />
    <glyph glyph-name="uniFEF8" unicode="&#xfee0;&#xfe84;" horiz-adv-x="1273" arabic-form="final" 
d="M0 0zM259 1305q269 -650 403 -1087q81 26 130.5 69.5t76 120t26.5 190.5v768h169v-819q0 -188 44.5 -277.5t148.5 -89.5h36v-180h-39q-121 0 -192.5 56.5t-105.5 172.5q-167 -226 -560 -226q-130 0 -221 16v177q114 -15 223 -15q56 0 105 3q-122 413 -393 1040zM-15 1362
zM88 1498q-37 31 -53.5 69.5t-16.5 94.5q0 93 59.5 150.5t141.5 57.5q36 0 70 -10.5t66 -30.5l1 -119q-62 37 -123 37q-27 0 -48.5 -9.5t-36.5 -32t-15 -56.5q1 -22 9.5 -39.5t28 -32.5t50.5 -27q6 -2 10.5 -3t9.5 -1h2.5t2.5 0.5t3 0.5q25 5 71 14.5t62 12.5v-116l-397 -96
v113z" />
    <glyph glyph-name="uniFEF9" unicode="&#xfedf;&#xfe88;" horiz-adv-x="1212" arabic-form="isolated" 
d="M77 0zM77 -177zM180 -504q-37 31 -53.5 69.5t-16.5 94.5q0 93 59.5 150.5t141.5 57.5q36 0 70 -10.5t66 -30.5l1 -119q-62 37 -123 37q-27 0 -48.5 -9.5t-36.5 -32t-15 -56.5q1 -22 9.5 -39.5t28 -32.5t50.5 -27q6 -2 10.5 -3t9.5 -1h2.5t2.5 0.5t3 0.5q25 5 71 14.5
t62 12.5v-116l-397 -96v113zM175 196q117 -15 224 -15q56 0 104 3q-119 411 -393 1040l149 81q269 -650 403 -1087q81 26 130.5 69.5t76 120t26.5 190.5v768h169v-769q0 -312 -164 -453t-504 -141q-130 0 -221 16v177z" />
    <glyph glyph-name="uniFEFA" unicode="&#xfee0;&#xfe88;" horiz-adv-x="1273" arabic-form="final" 
d="M77 0zM77 -177zM180 -504q-37 31 -53.5 69.5t-16.5 94.5q0 93 59.5 150.5t141.5 57.5q36 0 70 -10.5t66 -30.5l1 -119q-62 37 -123 37q-27 0 -48.5 -9.5t-36.5 -32t-15 -56.5q1 -22 9.5 -39.5t28 -32.5t50.5 -27q6 -2 10.5 -3t9.5 -1h2.5t2.5 0.5t3 0.5q25 5 71 14.5
t62 12.5v-116l-397 -96v113zM259 1305q269 -650 403 -1087q81 26 130.5 69.5t76 120t26.5 190.5v768h169v-819q0 -188 44.5 -277.5t148.5 -89.5h36v-180h-39q-121 0 -192.5 56.5t-105.5 172.5q-167 -226 -560 -226q-130 0 -221 16v177q114 -15 223 -15q56 0 105 3
q-122 413 -393 1040z" />
    <glyph glyph-name="uniFEFB" unicode="&#xfedf;&#xfe8e;" horiz-adv-x="1212" arabic-form="isolated" 
d="M175 196q117 -15 224 -15q56 0 104 3q-119 411 -393 1040l149 81q269 -650 403 -1087q81 26 130.5 69.5t76 120t26.5 190.5v768h169v-769q0 -312 -164 -453t-504 -141q-130 0 -221 16v177z" />
    <glyph glyph-name="uniFEFC" unicode="&#xfee0;&#xfe8e;" horiz-adv-x="1273" arabic-form="final" 
d="M259 1305q269 -650 403 -1087q81 26 130.5 69.5t76 120t26.5 190.5v768h169v-819q0 -188 44.5 -277.5t148.5 -89.5h36v-180h-39q-121 0 -192.5 56.5t-105.5 172.5q-167 -226 -560 -226q-130 0 -221 16v177q114 -15 223 -15q56 0 105 3q-122 413 -393 1040z" />
    <glyph glyph-name="uni0651064B" unicode="&#x64b;&#x651;" horiz-adv-x="3" 
d="M301 897zM334 1258v104l455 186v-103zM334 1470v104l455 186v-103zM615 1217q3 -80 3 -82q8 -102 70 -102q67 0 67 101q0 36 -17 118l88 14q18 -61 18 -122q0 -201 -147 -203q-34 0 -65 15.5t-44 41.5q-14 -54 -55 -77.5t-94 -23.5q-70 0 -104 45t-34 133q0 18 1.5 35.5
t4.5 33.5t7 31l78 -13q-9 -40 -9 -83q0 -84 68 -84q21 0 36 4.5t24.5 16.5t15 24.5t8 37t3 44.5t0.5 56v39h77z" />
    <glyph glyph-name="uni0651064C" unicode="&#x64c;&#x651;" horiz-adv-x="3" 
d="M262 891zM483 1701q0 72 46 117t117 45q72 0 117 -44.5t45 -118.5q0 -57 -27 -121q23 -4 43 -4v-76q-38 2 -76 9q-47 -113 -117.5 -169t-164.5 -56q-97 0 -149.5 83t-54.5 226l79 14q2 -112 34.5 -178.5t91.5 -66.5q111 0 200 159q-89 31 -136.5 73t-47.5 108zM703 1595
q27 63 27 104q0 36 -23.5 60t-56.5 24q-38 0 -62.5 -23.5t-24.5 -62.5q0 -65 140 -102zM632 1211q3 -80 3 -82q8 -102 70 -102q67 0 67 101q0 36 -17 118l88 14q18 -61 18 -122q0 -201 -147 -203q-34 0 -65 15.5t-44 41.5q-14 -54 -55 -77.5t-94 -23.5q-70 0 -104 45
t-34 133q0 18 1.5 35.5t4.5 33.5t7 31l78 -13q-9 -40 -9 -83q0 -84 68 -84q21 0 36 4.5t24.5 16.5t15 24.5t8 37t3 44.5t0.5 56v39h77z" />
    <glyph glyph-name="uni064B0651" unicode="&#x64d;&#x651;" horiz-adv-x="3" 
d="M219 869zM533 1683q3 -80 3 -82q8 -102 70 -102q67 0 67 101q0 36 -17 118l88 14q18 -61 18 -122q0 -201 -147 -203q-34 0 -65 15.5t-44 41.5q-14 -54 -55 -77.5t-94 -23.5q-70 0 -104 45t-34 133q0 18 1.5 35.5t4.5 33.5t7 31l78 -13q-9 -40 -9 -83q0 -84 68 -84
q21 0 36 4.5t24.5 16.5t15 24.5t8 37t3 44.5t0.5 56v39h77zM283 869v104l455 186v-103zM283 1081v104l455 186v-103z" />
    <glyph glyph-name="uni0651064E" unicode="&#x64e;&#x651;" horiz-adv-x="3" 
d="M306 1105zM318 1457v104l456 186v-104zM620 1425q3 -80 3 -82q8 -102 70 -102q67 0 67 101q0 36 -17 118l88 14q18 -61 18 -122q0 -201 -147 -203q-34 0 -65 15.5t-44 41.5q-14 -54 -55 -77.5t-94 -23.5q-70 0 -104 45t-34 133q0 18 1.5 35.5t4.5 33.5t7 31l78 -13
q-9 -40 -9 -83q0 -84 68 -84q21 0 36 4.5t24.5 16.5t15 24.5t8 37t3 44.5t0.5 56v39h77z" />
    <glyph glyph-name="uni0651064F" unicode="&#x64f;&#x651;" horiz-adv-x="3" 
d="M303 898zM759 1414q-41 0 -80 6q-97 -135 -363 -150v78q216 20 286 94q-75 14 -130.5 59.5t-55.5 111.5q0 73 46 117.5t117 44.5q72 0 117.5 -45t45.5 -118q0 -56 -26 -119q26 -4 43 -4v-75zM636 1507q27 63 27 104q0 36 -23 59.5t-57 23.5q-39 0 -63 -23t-24 -62
q0 -65 140 -102zM617 1218q3 -80 3 -82q8 -102 70 -102q67 0 67 101q0 36 -17 118l88 14q18 -61 18 -122q0 -201 -147 -203q-34 0 -65 15.5t-44 41.5q-14 -54 -55 -77.5t-94 -23.5q-70 0 -104 45t-34 133q0 18 1.5 35.5t4.5 33.5t7 31l78 -13q-9 -40 -9 -83q0 -84 68 -84
q21 0 36 4.5t24.5 16.5t15 24.5t8 37t3 44.5t0.5 56v39h77z" />
    <glyph glyph-name="uni064E0651" unicode="&#x650;&#x651;" horiz-adv-x="3" 
d="M291 999zM605 1630q3 -80 3 -82q8 -102 70 -102q67 0 67 101q0 36 -17 118l88 14q18 -61 18 -122q0 -201 -147 -203q-34 0 -65 15.5t-44 41.5q-14 -54 -55 -77.5t-94 -23.5q-70 0 -104 45t-34 133q0 18 1.5 35.5t4.5 33.5t7 31l78 -13q-9 -40 -9 -83q0 -84 68 -84
q21 0 36 4.5t24.5 16.5t15 24.5t8 37t3 44.5t0.5 56v39h77zM354 999v104l456 186v-104z" />
    <glyph glyph-name="uni0654064E" unicode="&#x64e;&#x654;" horiz-adv-x="3" 
d="M324 1182zM324 1675v104l456 186v-104zM358 1182zM461 1318q-37 31 -53.5 69.5t-16.5 94.5q0 93 59.5 150.5t141.5 57.5q36 0 70 -10.5t66 -30.5l1 -119q-62 37 -123 37q-27 0 -48.5 -9.5t-36.5 -32t-15 -56.5q1 -22 9.5 -39.5t28 -32.5t50.5 -27q6 -2 10.5 -3t9.5 -1
h2.5t2.5 0.5t3 0.5q25 5 71 14.5t62 12.5v-116l-397 -96v113z" />
    <glyph glyph-name="uni0654064F" unicode="&#x64f;&#x654;" horiz-adv-x="3" 
d="M254 964zM697 1638q-41 0 -80 6q-97 -135 -363 -150v78q216 20 286 94q-75 14 -130.5 59.5t-55.5 111.5q0 73 46 117.5t117 44.5q72 0 117.5 -45t45.5 -118q0 -56 -26 -119q26 -4 43 -4v-75zM574 1731q27 63 27 104q0 36 -23 59.5t-57 23.5q-39 0 -63 -23t-24 -62
q0 -65 140 -102zM351 964zM454 1100q-37 31 -53.5 69.5t-16.5 94.5q0 93 59.5 150.5t141.5 57.5q36 0 70 -10.5t66 -30.5l1 -119q-62 37 -123 37q-27 0 -48.5 -9.5t-36.5 -32t-15 -56.5q1 -22 9.5 -39.5t28 -32.5t50.5 -27q6 -2 10.5 -3t9.5 -1h2.5t2.5 0.5t3 0.5
q25 5 71 14.5t62 12.5v-116l-397 -96v113z" />
    <glyph glyph-name="LamAlefWasla" unicode="&#xfedf;&#xfb51;" horiz-adv-x="1212" 
d="M0 3zM222 1453q54 0 89.5 2.5t63.5 8t43.5 15.5t23 25.5t7.5 37.5q0 19 -7 35.5t-18.5 28.5t-29 19t-37.5 7q-36 0 -67.5 -18.5t-62.5 -55.5t-74 -105h69zM-25 1435l17 82q5 -5 13 -11.5t27 -20.5t33 -19q82 138 146 195t142 57q79 0 129 -48.5t50 -123.5q0 -98 -69 -138
t-239 -40h-24q-60 0 -104.5 7t-75.5 22t-45 38zM175 196q117 -15 224 -15q56 0 104 3q-119 411 -393 1040l149 81q269 -650 403 -1087q81 26 130.5 69.5t76 120t26.5 190.5v768h169v-769q0 -312 -164 -453t-504 -141q-130 0 -221 16v177z" />
    <glyph glyph-name="LamAlefWasla.fina" unicode="&#xfee0;&#xfb51;" horiz-adv-x="1273" 
d="M0 0zM222 1453q54 0 89.5 2.5t63.5 8t43.5 15.5t23 25.5t7.5 37.5q0 19 -7 35.5t-18.5 28.5t-29 19t-37.5 7q-36 0 -67.5 -18.5t-62.5 -55.5t-74 -105h69zM-25 1435l17 82q5 -5 13 -11.5t27 -20.5t33 -19q82 138 146 195t142 57q79 0 129 -48.5t50 -123.5q0 -98 -69 -138
t-239 -40h-24q-60 0 -104.5 7t-75.5 22t-45 38zM259 1305q269 -650 403 -1087q81 26 130.5 69.5t76 120t26.5 190.5v768h169v-819q0 -188 44.5 -277.5t148.5 -89.5h36v-180h-39q-121 0 -192.5 56.5t-105.5 172.5q-167 -226 -560 -226q-130 0 -221 16v177q114 -15 223 -15
q56 0 105 3q-122 413 -393 1040z" />
    <glyph glyph-name="uni066E.fina" unicode="&#x66e;" horiz-adv-x="1878" 
d="M985 0h-145q-362 0 -552 122t-190 362q0 129 54 254l153 -57q-32 -85 -32 -172q1 -329 557 -329h150q393 0 500 129q35 42 35 123q0 39 -7 156l161 20l16 -248q6 -91 51.5 -135.5t136.5 -44.5h25v-180h-25q-206 0 -297 178q-169 -178 -591 -178z" />
    <glyph glyph-name="uni066F.fina" unicode="&#x66f;" horiz-adv-x="1450" 
d="M343 422q-73 -193 -73 -361q0 -408 458 -408q227 0 328 84t118 264h-151q-364 0 -364 296q0 175 95 299.5t239 124.5q301 0 347 -541h130v-180h-132q-30 -266 -173.5 -393t-443.5 -127q-314 0 -468.5 143.5t-154.5 432.5q0 210 90 429zM1176 181q-23 355 -197 355
q-66 0 -110.5 -67.5t-44.5 -156.5q0 -131 189 -131h163z" />
    <glyph glyph-name="uni067C.init" unicode="&#x67c;" horiz-adv-x="695" 
d="M0 0zM194 -83q0 -39 27.5 -66t66.5 -27t66 27t27 66t-27 66.5t-66 27.5t-66.5 -27.5t-27.5 -66.5zM106 -83q0 75 53.5 128.5t128.5 53.5t128.5 -53.5t53.5 -128.5t-53.5 -128.5t-128.5 -53.5t-128.5 53.5t-53.5 128.5zM0 0zM335 1040l140 140l141 -140l-141 -142zM3 1040
l140 140l141 -140l-141 -142zM526 738q48 -161 48 -322q0 -219 -107.5 -317.5t-337.5 -98.5h-149v180h149q78 0 126.5 9t83.5 34.5t49.5 71t14.5 118.5q0 132 -37 285z" />
    <glyph glyph-name="uni067C.medi" unicode="&#x67c;" horiz-adv-x="767" 
d="M0 0zM194 -83q0 -39 27.5 -66t66.5 -27t66 27t27 66t-27 66.5t-66 27.5t-66.5 -27.5t-27.5 -66.5zM106 -83q0 75 53.5 128.5t128.5 53.5t128.5 -53.5t53.5 -128.5t-53.5 -128.5t-128.5 -53.5t-128.5 53.5t-53.5 128.5zM0 0zM336 957l140 140l141 -140l-141 -142zM4 957
l140 140l141 -140l-141 -142zM787 0h-24q-102 0 -166.5 35.5t-103.5 107.5q-102 -143 -364 -143h-149v180h151q151 0 211 44.5t61 162.5q0 82 -8 202l164 19l16 -247q12 -181 190 -181h22v-180z" />
    <glyph glyph-name="uni067C.fina" unicode="&#x67c;" horiz-adv-x="1878" 
d="M98 0zM804 -95q0 -39 27.5 -66t66.5 -27t66 27t27 66t-27 66.5t-66 27.5t-66.5 -27.5t-27.5 -66.5zM716 -95q0 75 53.5 128.5t128.5 53.5t128.5 -53.5t53.5 -128.5t-53.5 -128.5t-128.5 -53.5t-128.5 53.5t-53.5 128.5zM98 0zM936 859l140 140l141 -140l-141 -142z
M604 859l140 140l141 -140l-141 -142zM985 0h-145q-362 0 -552 122t-190 362q0 129 54 254l153 -57q-32 -85 -32 -172q1 -329 557 -329h150q393 0 500 129q35 42 35 123q0 39 -7 156l161 20l16 -248q6 -91 51.5 -135.5t136.5 -44.5h25v-180h-25q-206 0 -297 178
q-169 -178 -591 -178z" />
    <glyph glyph-name="uni0681.init" unicode="&#x681;" horiz-adv-x="1334" 
d="M0 0zM422 983zM525 1119q-37 31 -53.5 69.5t-16.5 94.5q0 93 59.5 150.5t141.5 57.5q36 0 70 -10.5t66 -30.5l1 -119q-62 37 -123 37q-27 0 -48.5 -9.5t-36.5 -32t-15 -56.5q1 -22 9.5 -39.5t28 -32.5t50.5 -27q6 -2 10.5 -3t9.5 -1h2.5t2.5 0.5t3 0.5q25 5 71 14.5
t62 12.5v-116l-397 -96v113zM-20 0v180h163q177 0 327.5 53.5t399.5 182.5l78 41q-12 4 -29.5 11.5t-60.5 25.5t-95 39q-118 48 -177 68.5t-91 20.5q-55 0 -108.5 -32t-92.5 -82l-27 -35l-151 75l15 26q65 105 159.5 165.5t205.5 60.5q104 0 303 -96q157 -76 259 -111
t188 -39l-2 -170q-59 -7 -142.5 -42t-240.5 -118q-216 -114 -376 -169t-345 -55h-160z" />
    <glyph glyph-name="uni0681.medi" unicode="&#x681;" horiz-adv-x="1351" 
d="M0 0zM422 983zM525 1119q-37 31 -53.5 69.5t-16.5 94.5q0 93 59.5 150.5t141.5 57.5q36 0 70 -10.5t66 -30.5l1 -119q-62 37 -123 37q-27 0 -48.5 -9.5t-36.5 -32t-15 -56.5q1 -22 9.5 -39.5t28 -32.5t50.5 -27q6 -2 10.5 -3t9.5 -1h2.5t2.5 0.5t3 0.5q25 5 71 14.5
t62 12.5v-116l-397 -96v113zM1244 384q-98 -11 -202 -61q3 -75 69.5 -109t205.5 -34h54v-180h-58q-187 0 -285.5 60.5t-114.5 192.5q-224 -122 -406 -187.5t-367 -65.5h-160v180h163q177 0 327.5 53.5t399.5 182.5l78 41q-12 4 -29.5 11.5t-60.5 25.5t-95 39
q-118 48 -177 68.5t-91 20.5q-55 0 -108.5 -32t-92.5 -82l-27 -35l-151 75l15 26q65 105 159.5 165.5t205.5 60.5q104 0 303 -96q157 -76 259 -111t188 -39z" />
    <glyph glyph-name="uni0681.fina" unicode="&#x681;" horiz-adv-x="1378" 
d="M98 0zM422 1003zM525 1139q-37 31 -53.5 69.5t-16.5 94.5q0 93 59.5 150.5t141.5 57.5q36 0 70 -10.5t66 -30.5l1 -119q-62 37 -123 37q-27 0 -48.5 -9.5t-36.5 -32t-15 -56.5q1 -22 9.5 -39.5t28 -32.5t50.5 -27q6 -2 10.5 -3t9.5 -1h2.5t2.5 0.5t3 0.5q25 5 71 14.5
t62 12.5v-116l-397 -96v113zM1248 -581q-201 -96 -464 -96q-154 0 -278 32t-216 95.5t-141.5 164.5t-49.5 234q0 246 191.5 434t545.5 267q-35 14 -91 37q-69 28 -95.5 38t-68.5 25.5t-64.5 20.5t-39.5 5q-55 0 -108.5 -32t-92.5 -82l-27 -35l-151 75l15 26
q65 105 159.5 165.5t205.5 60.5q104 0 303 -96q157 -76 259 -111t188 -39q-2 -29 -6.5 -85t-6.5 -85q-75 -5 -195 -21q1 -135 73.5 -186t226.5 -51h78v-180h-75q-231 0 -341.5 87.5t-111.5 299.5q-293 -82 -449 -221.5t-156 -300.5q0 -371 533 -371q213 0 415 95z" />
    <glyph glyph-name="uni0685.init" unicode="&#x685;" horiz-adv-x="1334" 
d="M0 0zM474 1345l132 132l133 -132l-133 -133zM646 1083l132 132l133 -132l-133 -133zM306 1083l132 132l133 -132l-133 -133zM-20 0v180h163q177 0 327.5 53.5t399.5 182.5l78 41q-12 4 -29.5 11.5t-60.5 25.5t-95 39q-118 48 -177 68.5t-91 20.5q-55 0 -108.5 -32
t-92.5 -82l-27 -35l-151 75l15 26q65 105 159.5 165.5t205.5 60.5q104 0 303 -96q157 -76 259 -111t188 -39l-2 -170q-59 -7 -142.5 -42t-240.5 -118q-216 -114 -376 -169t-345 -55h-160z" />
    <glyph glyph-name="uni0685.medi" unicode="&#x685;" horiz-adv-x="1351" 
d="M0 0zM474 1345l132 132l133 -132l-133 -133zM646 1083l132 132l133 -132l-133 -133zM306 1083l132 132l133 -132l-133 -133zM1244 384q-98 -11 -202 -61q3 -75 69.5 -109t205.5 -34h54v-180h-58q-187 0 -285.5 60.5t-114.5 192.5q-224 -122 -406 -187.5t-367 -65.5h-160
v180h163q177 0 327.5 53.5t399.5 182.5l78 41q-12 4 -29.5 11.5t-60.5 25.5t-95 39q-118 48 -177 68.5t-91 20.5q-55 0 -108.5 -32t-92.5 -82l-27 -35l-151 75l15 26q65 105 159.5 165.5t205.5 60.5q104 0 303 -96q157 -76 259 -111t188 -39z" />
    <glyph glyph-name="uni0685.fina" unicode="&#x685;" horiz-adv-x="1378" 
d="M98 0zM504 1385l132 132l133 -132l-133 -133zM676 1123l132 132l133 -132l-133 -133zM336 1123l132 132l133 -132l-133 -133zM1248 -581q-201 -96 -464 -96q-154 0 -278 32t-216 95.5t-141.5 164.5t-49.5 234q0 246 191.5 434t545.5 267q-35 14 -91 37q-69 28 -95.5 38
t-68.5 25.5t-64.5 20.5t-39.5 5q-55 0 -108.5 -32t-92.5 -82l-27 -35l-151 75l15 26q65 105 159.5 165.5t205.5 60.5q104 0 303 -96q157 -76 259 -111t188 -39q-2 -29 -6.5 -85t-6.5 -85q-75 -5 -195 -21q1 -135 73.5 -186t226.5 -51h78v-180h-75q-231 0 -341.5 87.5
t-111.5 299.5q-293 -82 -449 -221.5t-156 -300.5q0 -371 533 -371q213 0 415 95z" />
    <glyph glyph-name="uni0689.fina" unicode="&#x689;" horiz-adv-x="1055" 
d="M98 0zM336 -91q0 -39 27.5 -66t66.5 -27t66 27t27 66t-27 66.5t-66 27.5t-66.5 -27.5t-27.5 -66.5zM248 -91q0 75 53.5 128.5t128.5 53.5t128.5 -53.5t53.5 -128.5t-53.5 -128.5t-128.5 -53.5t-128.5 53.5t-53.5 128.5zM98 209q116 -28 209 -28q347 0 347 166
q0 46 -91 260l-120 282l161 74l208 -531q56 -143 106.5 -197.5t114.5 -54.5h42v-180h-42q-165 0 -262 162q-136 -161 -449 -161q-122 0 -224 25v183z" />
    <glyph glyph-name="uni0693.fina" unicode="&#x693;" horiz-adv-x="860" 
d="M0 0zM420 -438q0 -39 27.5 -66t66.5 -27t66 27t27 66t-27 66.5t-66 27.5t-66.5 -27.5t-27.5 -66.5zM332 -438q0 75 53.5 128.5t128.5 53.5t128.5 -53.5t53.5 -128.5t-53.5 -128.5t-128.5 -53.5t-128.5 53.5t-53.5 128.5zM515 130q0 71 -20 161t-57 178l162 58l61 -192
q17 -52 41 -86t58.5 -51.5t80.5 -17.5h39v-180h-28q-74 0 -113 13.5t-62 42.5q-17 -231 -175.5 -380t-451.5 -204l-60 154q522 100 525 504z" />
    <glyph glyph-name="uni0695.fina" unicode="&#x695;" horiz-adv-x="860" 
d="M0 0zM253 -905l-193 324h124l140 -240l141 240h124l-194 -324h-142zM515 130q0 71 -20 161t-57 178l162 58l61 -192q17 -52 41 -86t58.5 -51.5t80.5 -17.5h39v-180h-28q-74 0 -113 13.5t-62 42.5q-17 -231 -175.5 -380t-451.5 -204l-60 154q522 100 525 504z" />
    <glyph glyph-name="uni0696.fina" unicode="&#x696;" horiz-adv-x="860" 
d="M0 0zM392 -616l145 145l147 -146l-146 -145zM54 12l145 145l147 -146l-146 -145zM515 130q0 71 -20 161t-57 178l162 58l61 -192q17 -52 41 -86t58.5 -51.5t80.5 -17.5h39v-180h-28q-74 0 -113 13.5t-62 42.5q-17 -231 -175.5 -380t-451.5 -204l-60 154q522 100 525 504z
" />
    <glyph glyph-name="uni069A.init" unicode="&#x69a;" horiz-adv-x="1562" 
d="M0 0zM772 -298l145 145l147 -146l-146 -145zM712 946l145 145l147 -146l-146 -145zM1153 180q139 0 139 222q0 105 -44 264l168 45q48 -153 48 -294q0 -71 -10 -131.5t-33.5 -113.5t-58.5 -90.5t-88 -59.5t-120 -22q-172 0 -243 143q-104 -143 -275 -143q-199 0 -264 143
q-83 -143 -323 -143h-69v180h71q126 0 184 47t58 162q0 57 -10 178l165 20l16 -226q6 -83 50 -132t124 -49q97 0 141 52.5t44 156.5q0 54 -10 178l165 20l16 -226q6 -82 45.5 -131.5t113.5 -49.5z" />
    <glyph glyph-name="uni069A.medi" unicode="&#x69a;" horiz-adv-x="1658" 
d="M0 0zM772 -298l145 145l147 -146l-146 -145zM712 946l145 145l147 -146l-146 -145zM372 143q-85 -143 -323 -143h-69v180h71q126 0 184 47t58 162q0 51 -10 178l165 20l16 -226q6 -83 50 -132t124 -49q97 0 141 52.5t44 156.5q0 48 -10 178l165 20l16 -226
q6 -82 45.5 -131.5t113.5 -49.5q139 0 139 207q0 67 -10 201l165 20l16 -247q12 -181 185 -181h30v-180h-28q-207 0 -259 143q-38 -74 -95 -108.5t-142 -34.5q-172 0 -243 143q-103 -143 -275 -143q-200 1 -264 143z" />
    <glyph glyph-name="uni069A.fina" unicode="&#x69a;" horiz-adv-x="2553" 
d="M98 0zM1662 -298l145 145l147 -146l-146 -145zM1602 946l145 145l147 -146l-146 -145zM1531 0q-115 0 -189 58q-4 -281 -167 -429.5t-454 -148.5q-623 0 -623 576q0 210 90 429l155 -63q-73 -193 -73 -361q0 -408 458 -408q448 0 449 447q0 181 -90 369l169 58l59 -183
q27 -83 79.5 -123t138.5 -41q97 0 141 52.5t44 156.5q0 48 -10 178l165 20l16 -226q6 -82 45.5 -131.5t113.5 -49.5q139 0 139 207q0 67 -10 201l165 20l16 -247q12 -181 185 -181h30v-180h-28q-207 0 -259 143q-38 -74 -95 -108.5t-142 -34.5q-172 0 -243 143
q-103 -143 -275 -143z" />
    <glyph glyph-name="uni06A1.init" unicode="&#x6a1;" horiz-adv-x="918" 
d="M667 391q-95 -29 -201 -29q-324 0 -327 269q0 173 89 292t238 119q73 0 133 -32t100.5 -86.5t68 -129t40 -158t12.5 -174.5q0 -115 -20.5 -195t-60 -132.5t-108.5 -82t-155 -41t-211 -11.5h-285v180h296q100 0 167.5 9t120 31.5t77.5 64.5t26 106zM651 559
q-7 57 -19.5 106t-34 97t-57 76t-81.5 28q-65 0 -112 -60.5t-47 -147.5q0 -126 179 -126q81 0 172 27z" />
    <glyph glyph-name="uni06A1.medi" unicode="&#x6a1;" horiz-adv-x="972" 
d="M511 681q-47 0 -109.5 -70t-62.5 -121q0 -50 66.5 -135t110.5 -85q48 0 113.5 87t65.5 141q0 46 -62.5 114.5t-121.5 68.5zM704 194q37 -14 194 -14h94v-180h-92q-239 0 -387 109q-148 -109 -399 -109h-134v180h134q183 0 214 15q-82 82 -119.5 150.5t-37.5 150.5
q0 70 46.5 153.5t127.5 145t167 61.5q69 0 135.5 -34t113 -85t75 -112t28.5 -114q0 -159 -160 -317z" />
    <glyph glyph-name="uni06A1.fina" unicode="&#x6a1;" horiz-adv-x="1962" 
d="M1501 681q-47 0 -109.5 -70t-62.5 -121q0 -50 66.5 -135t110.5 -85q48 0 113.5 87t65.5 141q0 47 -62 115t-122 68zM960 180q190 0 258 3t101 11q-82 82 -120 151t-38 151q0 52 28.5 114.5t74 117t110 91.5t129.5 37q91 0 174 -56.5t130 -136.5t47 -152q0 -89 -37 -157
t-123 -160q42 -14 194 -14h94v-180h-92q-128 0 -219.5 26.5t-167.5 82.5q-161 -109 -538 -109h-125q-362 0 -552 122t-190 362q0 131 54 254l153 -57q-32 -86 -32 -172q2 -329 557 -329h130z" />
    <glyph glyph-name="uni06AB.init" unicode="&#x6ab;" horiz-adv-x="950" 
d="M0 0zM595 1061q0 -39 27.5 -66t66.5 -27t66 27t27 66t-27 66.5t-66 27.5t-66.5 -27.5t-27.5 -66.5zM507 1061q0 75 53.5 128.5t128.5 53.5t128.5 -53.5t53.5 -128.5t-53.5 -128.5t-128.5 -53.5t-128.5 53.5t-53.5 128.5zM0 0zM215 988q17 -14 55 -46.5t54 -46t48.5 -40.5
t48 -41t41.5 -36.5t41.5 -36.5t34.5 -32t34 -33t28 -29q126 -136 126 -291q0 -182 -134 -269t-426 -87h-186v180h185q203 0 294.5 47.5t91.5 145.5q0 48 -25.5 91.5t-79.5 94.5q-90 84 -273 228q-113 88 -113 185q0 128 139 181l690 256v-171z" />
    <glyph glyph-name="uni06AB.medi" unicode="&#x6ab;" horiz-adv-x="1027" 
d="M0 0zM595 1061q0 -39 27.5 -66t66.5 -27t66 27t27 66t-27 66.5t-66 27.5t-66.5 -27.5t-27.5 -66.5zM507 1061q0 75 53.5 128.5t128.5 53.5t128.5 -53.5t53.5 -128.5t-53.5 -128.5t-128.5 -53.5t-128.5 53.5t-53.5 128.5zM0 0zM669 179q-60 -92 -178 -135.5t-325 -43.5
h-186v180h185q203 0 294.5 47.5t91.5 145.5q0 48 -25.5 91.5t-79.5 94.5q-90 84 -273 228q-113 88 -113 185q0 128 139 181l690 256v-171l-674 -250q17 -14 55 -46.5t54 -46t48.5 -40.5t48 -41t41.5 -36.5t41.5 -36.5t34.5 -32t34 -33t28 -29q84 -90 128 -215
q89 -252 290 -252h29v-180h-29q-214 0 -349 179z" />
    <glyph glyph-name="uni06AB.fina" unicode="&#x6ab;" horiz-adv-x="1941" 
d="M98 0zM1510 1061q0 -39 27.5 -66t66.5 -27t66 27t27 66t-27 66.5t-66 27.5t-66.5 -27.5t-27.5 -66.5zM1422 1061q0 75 53.5 128.5t128.5 53.5t128.5 -53.5t53.5 -128.5t-53.5 -128.5t-128.5 -53.5t-128.5 53.5t-53.5 128.5zM305 681q-32 -85 -32 -172q1 -329 555 -329
h202q436 0 436 193q0 48 -25.5 91.5t-79.5 94.5q-102 95 -273 228q-113 88 -113 185q0 128 139 181l690 256v-171l-675 -250q25 -21 81 -68t79.5 -67t65.5 -56t64.5 -56.5t49.5 -46.5t46 -47q83 -89 128 -215q89 -252 290 -252h28v-180h-28q-213 0 -349 179
q-119 -179 -554 -179h-192q-361 0 -550.5 122t-189.5 362q0 129 54 254z" />
    <glyph glyph-name="uni06B5.init" unicode="&#x6b5;" horiz-adv-x="608" 
d="M0 0zM301 1501l-193 324h124l140 -240l141 240h124l-194 -324h-142zM-20 0v180h81q129 0 179.5 53.5t50.5 169.5v963h169v-962q0 -205 -92 -304.5t-308 -99.5h-80z" />
    <glyph glyph-name="uni06B5.medi" unicode="&#x6b5;" horiz-adv-x="675" 
d="M0 0zM300 1501l-193 324h124l140 -240l141 240h124l-194 -324h-142zM368 143q-52 -73 -127 -108t-198 -35h-63v180h65q131 0 188 51t58 158v977h169v-977q0 -107 46 -158t152 -51h32v-180h-30q-105 0 -171.5 34.5t-120.5 108.5z" />
    <glyph glyph-name="uni06B5.fina" unicode="&#x6b5;" horiz-adv-x="1439" 
d="M98 0zM527 1054l-193 324h124l140 -240l141 240h124l-194 -324h-142zM335 358q-66 -168 -66 -322q0 -383 406 -383q384 0 384 415l2 1296v2h168l-1 -973q0 -111 44.5 -162t155.5 -51h31v-180h-29q-75 0 -116.5 18t-85.5 60q-8 -598 -554 -598q-576 0 -576 555
q0 188 82 386z" />
    <glyph glyph-name="uni06BC.init" unicode="&#x6bc;" horiz-adv-x="592" 
d="M0 0zM144 -83q0 -39 27.5 -66t66.5 -27t66 27t27 66t-27 66.5t-66 27.5t-66.5 -27.5t-27.5 -66.5zM56 -83q0 75 53.5 128.5t128.5 53.5t128.5 -53.5t53.5 -128.5t-53.5 -128.5t-128.5 -53.5t-128.5 53.5t-53.5 128.5zM0 0zM126 1040l145 145l147 -146l-146 -145zM446 738
q48 -161 48 -322q0 -202 -100 -309t-295 -107h-119v180h119q117 0 170.5 54.5t53.5 178.5q0 132 -37 285z" />
    <glyph glyph-name="uni06BC.medi" unicode="&#x6bc;" horiz-adv-x="687" 
d="M0 0zM144 -83q0 -39 27.5 -66t66.5 -27t66 27t27 66t-27 66.5t-66 27.5t-66.5 -27.5t-27.5 -66.5zM56 -83q0 75 53.5 128.5t128.5 53.5t128.5 -53.5t53.5 -128.5t-53.5 -128.5t-128.5 -53.5t-128.5 53.5t-53.5 128.5zM0 0zM181 955l145 145l147 -146l-146 -145zM707 0
h-24q-193 0 -271 143q-103 -143 -311 -143h-121v180h121q119 0 170.5 52t51.5 165q0 28 -8 191l164 20l16 -246q12 -182 190 -182h22v-180z" />
    <glyph glyph-name="uni06BC.fina" unicode="&#x6bc;" horiz-adv-x="1528" 
d="M98 0zM641 -616q0 -39 27.5 -66t66.5 -27t66 27t27 66t-27 66.5t-66 27.5t-66.5 -27.5t-27.5 -66.5zM553 -616q0 75 53.5 128.5t128.5 53.5t128.5 -53.5t53.5 -128.5t-53.5 -128.5t-128.5 -53.5t-128.5 53.5t-53.5 128.5zM98 0zM562 609l145 145l147 -146l-146 -145z
M1177 100q0 180 -90 369l169 58q14 -43 39.5 -124t32.5 -102q20 -62 62 -91.5t118 -29.5h40v-180h-36q-62 0 -100 14.5t-70 44.5q-4 -279 -169 -429t-452 -150q-623 0 -623 576q0 210 90 429l155 -63q-73 -192 -73 -361q0 -408 458 -408q447 0 449 447z" />
    <glyph glyph-name="uni06C2.init" unicode="&#x6c2;" horiz-adv-x="592" 
d="M0 0zM81 825zM184 961q-37 31 -53.5 69.5t-16.5 94.5q0 93 59.5 150.5t141.5 57.5q36 0 70 -10.5t66 -30.5l1 -119q-62 37 -123 37q-27 0 -48.5 -9.5t-36.5 -32t-15 -56.5q1 -22 9.5 -39.5t28 -32.5t50.5 -27q6 -2 10.5 -3t9.5 -1h2.5t2.5 0.5t3 0.5q25 5 71 14.5
t62 12.5v-116l-397 -96v113zM0 0zM386.146 -130.457q-59.7578 -54.7178 -88.1963 -102.235q-28.4395 -47.5186 -28.4395 -110.876q52.5586 0 74.877 -23.7588q22.3193 -23.7588 22.3193 -72.7168q0 -47.5186 -25.1992 -74.877q-25.1982 -27.3594 -71.9971 -27.3594
q-113.755 0 -113.755 125.275q0 192.231 177.112 329.026zM446 738q48 -161 48 -322q0 -202 -100 -309t-295 -107h-119v180h119q117 0 170.5 54.5t53.5 178.5q0 132 -37 285z" />
    <glyph glyph-name="uni06C2.medi" unicode="&#x6c2;" horiz-adv-x="1002" 
d="M0 0zM299 505zM402 641q-37 31 -53.5 69.5t-16.5 94.5q0 93 59.5 150.5t141.5 57.5q36 0 70 -10.5t66 -30.5l1 -119q-62 37 -123 37q-27 0 -48.5 -9.5t-36.5 -32t-15 -56.5q1 -22 9.5 -39.5t28 -32.5t50.5 -27q6 -2 10.5 -3t9.5 -1h2.5t2.5 0.5t3 0.5q25 5 71 14.5
t62 12.5v-116l-397 -96v113zM221 50q-58 -28 -94 -39t-84 -11h-63v180h65q76 0 131.5 19.5t84 41.5t93.5 83q14 13 22 20l110 -122l-25 -22q-52 -46 -71.5 -106.5t-8.5 -120t40.5 -117t72.5 -103.5t91 -74q0 240 102 370.5t301 130.5h34v-180h-36q-253 0 -253 -330
q0 -51 4 -92l-121 -118q-178 85 -283.5 234t-111.5 356z" />
    <glyph glyph-name="uni06C2.fina" unicode="&#x6c2;" horiz-adv-x="919" 
d="M98 0zM330 845q-37 31 -53.5 69.5t-16.5 94.5q0 93 59.5 150.5t141.5 57.5q36 0 70 -10.5t66 -30.5l1 -119q-62 37 -123 37q-27 0 -48.5 -9.5t-36.5 -32t-15 -56.5q1 -22 9.5 -39.5t28 -32.5t50.5 -27q6 -2 10.5 -3t9.5 -1h2.5t2.5 0.5t3 0.5q25 5 71 14.5t62 12.5v-116
l-397 -96v113zM244 -20l-146 36q12 121 51 231.5t92.5 188t116 123.5t121.5 46q52 0 92 -23.5t65 -61t46 -82.5t41 -90.5t43 -83t58.5 -61t81.5 -23.5h33v-180h-32q-68 0 -122.5 22t-89.5 57.5t-62.5 78.5t-46 86t-34 78.5t-33 57.5t-37.5 22q-66 0 -140 -120t-98 -302z" />
    <glyph glyph-name="uni06C3.fina" unicode="&#x6c3;" horiz-adv-x="919" 
d="M98 0zM460 925l140 140l141 -140l-141 -142zM128 925l140 140l141 -140l-141 -142zM244 -20l-146 36q12 121 51 231.5t92.5 188t116 123.5t121.5 46q52 0 92 -23.5t65 -61t46 -82.5t41 -90.5t43 -83t58.5 -61t81.5 -23.5h33v-180h-32q-68 0 -122.5 22t-89.5 57.5
t-62.5 78.5t-46 86t-34 78.5t-33 57.5t-37.5 22q-66 0 -140 -120t-98 -302z" />
    <glyph glyph-name="uni06CA.fina" unicode="&#x6ca;" horiz-adv-x="938" 
d="M91 0zM423 1031l140 140l141 -140l-141 -142zM91 1031l140 140l141 -140l-141 -142zM98 0zM874.878 0v180h83.4893v-180h-83.4893zM432 720q311 0 347 -540h117v-180h-129q-39 -208 -189.5 -343t-409.5 -185l-60 154q211 40 338 136.5t165 237.5h-149q-364 0 -364 296
q0 174 95.5 299t238.5 125zM616 180q-23 355 -198 355q-66 0 -110.5 -67.5t-44.5 -156.5q0 -131 189 -131h164z" />
    <glyph glyph-name="uni06CD.fina" unicode="&#x6cd;" horiz-adv-x="1798" 
d="M58 0zM58 133l36 169l316 126l154 -63q-54 -150 -54 -305q0 -407 449 -407q119 0 230.5 31.5t183 87.5t71.5 121q0 46 -43 76.5t-121 30.5h-123q-51 0 -65 62l-22 92q-6 26 23 26h604v-180h-119q28 -57 28 -114q0 -176 -179 -290.5t-467 -114.5q-621 0 -621 580
q0 78 26 195zM1673.1 0v180h144.993v-180h-144.993z" />
    <glyph glyph-name="uni06CE.init" unicode="&#x6ce;" horiz-adv-x="672" 
d="M0 0zM305 952l-193 324h124l140 -240l141 240h124l-194 -324h-142zM0 0zM267 -303l140 140l141 -140l-141 -142zM-65 -303l140 140l141 -140l-141 -142zM526 738q48 -161 48 -322q0 -219 -107.5 -317.5t-337.5 -98.5h-149v180h149q78 0 126.5 9t83.5 34.5t49.5 71
t14.5 118.5q0 132 -37 285z" />
    <glyph glyph-name="uni06CE.medi" unicode="&#x6ce;" horiz-adv-x="767" 
d="M0 0zM354 842l-193 324h124l140 -240l141 240h124l-194 -324h-142zM0 0zM267 -303l140 140l141 -140l-141 -142zM-65 -303l140 140l141 -140l-141 -142zM787 0h-24q-102 0 -166.5 35.5t-103.5 107.5q-102 -143 -364 -143h-149v180h151q151 0 211 44.5t61 162.5
q0 82 -8 202l164 19l16 -247q12 -181 190 -181h22v-180z" />
    <glyph glyph-name="uni06CE.fina" unicode="&#x6ce;" horiz-adv-x="1559" 
d="M99 0zM553 535l-193 324h124l140 -240l141 240h124l-194 -324h-142zM99 0zM324 365q-54 -150 -54 -305q0 -407 449 -407q119 0 230.5 31.5t183 87.5t71.5 121q0 46 -43 76.5t-121 30.5h-123q-51 0 -65 62l-22 92q-6 26 23 26h604v-180h-119q28 -57 28 -114
q0 -176 -179 -290.5t-467 -114.5q-621 0 -621 580q0 86 18.5 188.5t52.5 178.5zM1434.1 0v180h144.993v-180h-144.993z" />
    <glyph glyph-name="uni06D0.init" unicode="&#x6d0;" horiz-adv-x="592" arabic-form="initial" 
d="M0 0zM204 -386l-140 140l140 142l142 -142zM204 -668l-140 140l140 142l142 -142zM446 738q48 -161 48 -322q0 -202 -100 -309t-295 -107h-119v180h119q117 0 170.5 54.5t53.5 178.5q0 132 -37 285z" />
    <glyph glyph-name="uni06D0.medi" unicode="&#x6d0;" horiz-adv-x="687" arabic-form="medial" 
d="M0 0zM204 -386l-140 140l140 142l142 -142zM204 -668l-140 140l140 142l142 -142zM707 0h-24q-193 0 -271 143q-103 -143 -311 -143h-121v180h121q119 0 170.5 52t51.5 165q0 28 -8 191l164 20l16 -246q12 -182 190 -182h22v-180z" />
    <glyph glyph-name="uni06D0.fina" unicode="&#x6d0;" horiz-adv-x="1559" arabic-form="final" 
d="M99 0zM99 0zM728 -814l-140 140l140 142l142 -142zM728 -1096l-140 140l140 142l142 -142zM324 365q-54 -150 -54 -305q0 -407 449 -407q119 0 230.5 31.5t183 87.5t71.5 121q0 46 -43 76.5t-121 30.5h-123q-51 0 -65 62l-22 92q-6 26 23 26h604v-180h-119
q28 -57 28 -114q0 -176 -179 -290.5t-467 -114.5q-621 0 -621 580q0 86 18.5 188.5t52.5 178.5zM1434.1 0v180h144.993v-180h-144.993z" />
    <glyph glyph-name="uni06D5.fina" unicode="&#x6d5;" horiz-adv-x="1038" 
d="M98 0zM98 412q0 295 507 452l-7 45l159 33l82 -589q11 -83 59 -128t129 -45h31v-180h-35q-269 0 -322 237q-122 -105 -270 -105q-146 0 -239.5 70.5t-93.5 209.5zM631 703q-181 -67 -270 -134.5t-89 -144.5q0 -61 39.5 -92.5t113.5 -31.5q90 0 163 50.5t73 131.5
q0 30 -4 57z" />
    <glyph glyph-name="uniFB50" unicode="&#x671;" horiz-adv-x="465" arabic-form="isolated" 
d="M0 2zM0 2zM202 1373q54 0 89.5 2.5t63.5 8t43.5 15.5t23 25.5t7.5 37.5q0 19 -7 35.5t-18.5 28.5t-29 19t-37.5 7q-36 0 -67.5 -18.5t-62.5 -55.5t-74 -105h69zM-45 1355l17 82q5 -5 13 -11.5t27 -20.5t33 -19q82 138 146 195t142 57q79 0 129 -48.5t50 -123.5
q0 -98 -69 -138t-239 -40h-24q-60 0 -104.5 7t-75.5 22t-45 38zM148 1168.82h169v-1165.96h-169v1165.96z" />
    <glyph glyph-name="uniFB51" unicode="&#x671;" horiz-adv-x="527" arabic-form="final" 
d="M0 0zM202 1373q54 0 89.5 2.5t63.5 8t43.5 15.5t23 25.5t7.5 37.5q0 19 -7 35.5t-18.5 28.5t-29 19t-37.5 7q-36 0 -67.5 -18.5t-62.5 -55.5t-74 -105h69zM-45 1355l17 82q5 -5 13 -11.5t27 -20.5t33 -19q82 138 146 195t142 57q79 0 129 -48.5t50 -123.5q0 -98 -69 -138
t-239 -40h-24q-60 0 -104.5 7t-75.5 22t-45 38zM546 0h-24q-188 0 -281 96t-93 308v763h169v-763q0 -122 50.5 -173t154.5 -51h24v-180z" />
    <glyph glyph-name="uniFB56" unicode="&#x67e;" horiz-adv-x="1777" arabic-form="isolated" 
d="M98 0zM98 0zM774 -530l132 133l133 -133l-133 -132zM946 -268l132 133l133 -133l-133 -132zM606 -268l132 133l133 -133l-133 -132zM975 0h-135q-362 0 -552 122t-190 362q0 129 54 254l153 -57q-32 -85 -32 -172q1 -329 557 -329h138q78 0 117.5 0.5t107.5 5.5t103.5 15
t82.5 29t70 47.5t40 71.5t17 99q0 90 -36 250l160 40q49 -148 49 -275q0 -85 -18 -152.5t-49 -116t-81 -83.5t-105.5 -56t-131.5 -33.5t-150 -17t-169 -4.5z" />
    <glyph glyph-name="uniFB57" unicode="&#x67e;" horiz-adv-x="1878" arabic-form="final" 
d="M98 0zM774 -530l132 133l133 -133l-133 -132zM946 -268l132 133l133 -133l-133 -132zM606 -268l132 133l133 -133l-133 -132zM985 0h-145q-362 0 -552 122t-190 362q0 129 54 254l153 -57q-32 -85 -32 -172q1 -329 557 -329h150q393 0 500 129q35 42 35 123q0 39 -7 156
l161 20l16 -248q6 -91 51.5 -135.5t136.5 -44.5h25v-180h-25q-206 0 -297 178q-169 -178 -591 -178z" />
    <glyph glyph-name="uniFB58" unicode="&#x67e;" horiz-adv-x="672" arabic-form="initial" 
d="M0 0zM104 -530l132 133l133 -133l-133 -132zM276 -268l132 133l133 -133l-133 -132zM-64 -268l132 133l133 -133l-133 -132zM526 738q48 -161 48 -322q0 -219 -107.5 -317.5t-337.5 -98.5h-149v180h149q78 0 126.5 9t83.5 34.5t49.5 71t14.5 118.5q0 132 -37 285z" />
    <glyph glyph-name="uniFB59" unicode="&#x67e;" horiz-adv-x="767" arabic-form="medial" 
d="M0 0zM104 -530l132 133l133 -133l-133 -132zM276 -268l132 133l133 -133l-133 -132zM-64 -268l132 133l133 -133l-133 -132zM787 0h-24q-102 0 -166.5 35.5t-103.5 107.5q-102 -143 -364 -143h-149v180h151q151 0 211 44.5t61 162.5q0 82 -8 202l164 19l16 -247
q12 -181 190 -181h22v-180z" />
    <glyph glyph-name="uniFB66" unicode="&#x679;" horiz-adv-x="1777" arabic-form="isolated" 
d="M98 0zM98 0zM862 831q35 0 64.5 2t53 6t42.5 10t32 13.5t22 16.5t13 19.5t4 22.5q0 32 -20 52t-53 20q-88 0 -199 -163zM706 830q3 5 7 11.5t6.5 10.5t7 10.5t5.5 9.5v423v9v5h5h9h76h9h5v-5v-9v-282q85 90 179 90q54 0 96.5 -23t66 -64t23.5 -92q-1 -203 -338 -203h-249
h-9h-5v5v9v81v9v5h5h9h92zM975 0h-135q-362 0 -552 122t-190 362q0 129 54 254l153 -57q-32 -85 -32 -172q1 -329 557 -329h138q78 0 117.5 0.5t107.5 5.5t103.5 15t82.5 29t70 47.5t40 71.5t17 99q0 90 -36 250l160 40q49 -148 49 -275q0 -85 -18 -152.5t-49 -116
t-81 -83.5t-105.5 -56t-131.5 -33.5t-150 -17t-169 -4.5z" />
    <glyph glyph-name="uniFB67" unicode="&#x679;" horiz-adv-x="1878" arabic-form="final" 
d="M98 0zM872 831q35 0 64.5 2t53 6t42.5 10t32 13.5t22 16.5t13 19.5t4 22.5q0 32 -20 52t-53 20q-88 0 -199 -163zM716 830q3 5 7 11.5t6.5 10.5t7 10.5t5.5 9.5v423v9v5h5h9h76h9h5v-5v-9v-282q85 90 179 90q54 0 96.5 -23t66 -64t23.5 -92q-1 -203 -338 -203h-249h-9h-5
v5v9v81v9v5h5h9h92zM985 0h-145q-362 0 -552 122t-190 362q0 129 54 254l153 -57q-32 -85 -32 -172q1 -329 557 -329h150q393 0 500 129q35 42 35 123q0 39 -7 156l161 20l16 -248q6 -91 51.5 -135.5t136.5 -44.5h25v-180h-25q-206 0 -297 178q-169 -178 -591 -178z" />
    <glyph glyph-name="uniFB68" unicode="&#x679;" horiz-adv-x="678" arabic-form="initial" 
d="M0 0zM252 981q35 0 64.5 2t53 6t42.5 10t32 13.5t22 16.5t13 19.5t4 22.5q0 32 -20 52t-53 20q-88 0 -199 -163zM96 980q3 5 7 11.5t6.5 10.5t7 10.5t5.5 9.5v423v9v5h5h9h76h9h5v-5v-9v-282q85 90 179 90q54 0 96.5 -23t66 -64t23.5 -92q-1 -203 -338 -203h-249h-9h-5v5
v9v81v9v5h5h9h92zM526 738q48 -161 48 -322q0 -219 -107.5 -317.5t-337.5 -98.5h-149v180h149q78 0 126.5 9t83.5 34.5t49.5 71t14.5 118.5q0 132 -37 285z" />
    <glyph glyph-name="uniFB69" unicode="&#x679;" horiz-adv-x="767" arabic-form="medial" 
d="M0 0zM282 891q35 0 64.5 2t53 6t42.5 10t32 13.5t22 16.5t13 19.5t4 22.5q0 32 -20 52t-53 20q-88 0 -199 -163zM126 890q3 5 7 11.5t6.5 10.5t7 10.5t5.5 9.5v423v9v5h5h9h76h9h5v-5v-9v-282q85 90 179 90q54 0 96.5 -23t66 -64t23.5 -92q-1 -203 -338 -203h-249h-9h-5
v5v9v81v9v5h5h9h92zM787 0h-24q-102 0 -166.5 35.5t-103.5 107.5q-102 -143 -364 -143h-149v180h151q151 0 211 44.5t61 162.5q0 82 -8 202l164 19l16 -247q12 -181 190 -181h22v-180z" />
    <glyph glyph-name="uniFB6B" unicode="&#x6a4;" horiz-adv-x="1962" arabic-form="final" 
d="M98 0zM1348 1389l132 132l133 -132l-133 -133zM1520 1127l132 132l133 -132l-133 -133zM1180 1127l132 132l133 -132l-133 -133zM1501 681q-47 0 -109.5 -70t-62.5 -121q0 -50 66.5 -135t110.5 -85q48 0 113.5 87t65.5 141q0 47 -62 115t-122 68zM960 180q190 0 258 3
t101 11q-82 82 -120 151t-38 151q0 52 28.5 114.5t74 117t110 91.5t129.5 37q91 0 174 -56.5t130 -136.5t47 -152q0 -89 -37 -157t-123 -160q42 -14 194 -14h94v-180h-92q-128 0 -219.5 26.5t-167.5 82.5q-161 -109 -538 -109h-125q-362 0 -552 122t-190 362q0 131 54 254
l153 -57q-32 -86 -32 -172q2 -329 557 -329h130z" />
    <glyph glyph-name="uniFB6C" unicode="&#x6a4;" horiz-adv-x="918" arabic-form="initial" 
d="M0 0zM667 391q-95 -29 -201 -29q-324 0 -327 269q0 173 89 292t238 119q73 0 133 -32t100.5 -86.5t68 -129t40 -158t12.5 -174.5q0 -115 -20.5 -195t-60 -132.5t-108.5 -82t-155 -41t-211 -11.5h-285v180h296q100 0 167.5 9t120 31.5t77.5 64.5t26 106zM651 559
q-7 57 -19.5 106t-34 97t-57 76t-81.5 28q-65 0 -112 -60.5t-47 -147.5q0 -126 179 -126q81 0 172 27zM288 1569l132 132l133 -132l-133 -133zM460 1307l132 132l133 -132l-133 -133zM120 1307l132 132l133 -132l-133 -133z" />
    <glyph glyph-name="uniFB6D" unicode="&#x6a4;" horiz-adv-x="972" arabic-form="medial" 
d="M0 0zM372 1389l132 132l133 -132l-133 -133zM544 1127l132 132l133 -132l-133 -133zM204 1127l132 132l133 -132l-133 -133zM511 681q-47 0 -109.5 -70t-62.5 -121q0 -50 66.5 -135t110.5 -85q48 0 113.5 87t65.5 141q0 46 -62.5 114.5t-121.5 68.5zM704 194
q37 -14 194 -14h94v-180h-92q-239 0 -387 109q-148 -109 -399 -109h-134v180h134q183 0 214 15q-82 82 -119.5 150.5t-37.5 150.5q0 70 46.5 153.5t127.5 145t167 61.5q69 0 135.5 -34t113 -85t75 -112t28.5 -114q0 -159 -160 -317z" />
    <glyph glyph-name="uniFB7A" unicode="&#x686;" horiz-adv-x="1347" arabic-form="isolated" 
d="M98 0zM98 0zM680 -240l132 133l133 -133l-133 -132zM852 22l132 133l133 -133l-133 -132zM512 22l132 133l133 -133l-133 -132zM836 550q-35 14 -91 37q-69 28 -95.5 38t-68.5 25.5t-64.5 20.5t-39.5 5q-55 0 -108.5 -32t-92.5 -82l-27 -35l-151 75l15 26
q65 105 159.5 165.5t205.5 60.5q104 0 303 -96q157 -76 259 -111t188 -39l-13 -170q-266 -21 -481.5 -99t-342 -202.5t-126.5 -271.5q0 -371 533 -371q213 0 415 95l35 -170q-201 -96 -464 -96q-154 0 -278 32t-216 95.5t-141.5 164.5t-49.5 234q0 121 48 230.5t139.5 200.5
t231.5 160.5t318 109.5z" />
    <glyph glyph-name="uniFB7B" unicode="&#x686;" horiz-adv-x="1378" arabic-form="final" 
d="M98 0zM539.354 -285.244l125.346 126.295l126.294 -126.295l-126.294 -125.346zM702.682 -36.4531l125.346 126.295l126.295 -126.295l-126.295 -125.346zM379.823 -36.4531l125.345 126.295l126.295 -126.295l-126.295 -125.346zM1248 -581q-201 -96 -464 -96
q-154 0 -278 32t-216 95.5t-141.5 164.5t-49.5 234q0 246 191.5 434t545.5 267q-35 14 -91 37q-69 28 -95.5 38t-68.5 25.5t-64.5 20.5t-39.5 5q-55 0 -108.5 -32t-92.5 -82l-27 -35l-151 75l15 26q65 105 159.5 165.5t205.5 60.5q104 0 303 -96q157 -76 259 -111t188 -39
q-2 -29 -6.5 -85t-6.5 -85q-75 -5 -195 -21q1 -135 73.5 -186t226.5 -51h78v-180h-75q-231 0 -341.5 87.5t-111.5 299.5q-293 -82 -449 -221.5t-156 -300.5q0 -371 533 -371q213 0 415 95z" />
    <glyph glyph-name="uniFB7C" unicode="&#x686;" horiz-adv-x="1334" arabic-form="initial" 
d="M0 0zM504 -530l132 133l133 -133l-133 -132zM676 -268l132 133l133 -133l-133 -132zM336 -268l132 133l133 -133l-133 -132zM-20 0v180h163q177 0 327.5 53.5t399.5 182.5l78 41q-12 4 -29.5 11.5t-60.5 25.5t-95 39q-118 48 -177 68.5t-91 20.5q-55 0 -108.5 -32
t-92.5 -82l-27 -35l-151 75l15 26q65 105 159.5 165.5t205.5 60.5q104 0 303 -96q157 -76 259 -111t188 -39l-2 -170q-59 -7 -142.5 -42t-240.5 -118q-216 -114 -376 -169t-345 -55h-160z" />
    <glyph glyph-name="uniFB7D" unicode="&#x686;" horiz-adv-x="1351" arabic-form="medial" 
d="M0 0zM504 -530l132 133l133 -133l-133 -132zM676 -268l132 133l133 -133l-133 -132zM336 -268l132 133l133 -133l-133 -132zM1244 384q-98 -11 -202 -61q3 -75 69.5 -109t205.5 -34h54v-180h-58q-187 0 -285.5 60.5t-114.5 192.5q-224 -122 -406 -187.5t-367 -65.5h-160
v180h163q177 0 327.5 53.5t399.5 182.5l78 41q-12 4 -29.5 11.5t-60.5 25.5t-95 39q-118 48 -177 68.5t-91 20.5q-55 0 -108.5 -32t-92.5 -82l-27 -35l-151 75l15 26q65 105 159.5 165.5t205.5 60.5q104 0 303 -96q157 -76 259 -111t188 -39z" />
    <glyph glyph-name="uniFB88" unicode="&#x688;" horiz-adv-x="963" arabic-form="isolated" 
d="M98 2zM98 2zM377 1273q35 0 64.5 2t53 6t42.5 10t32 13.5t22 16.5t13 19.5t4 22.5q0 32 -20 52t-53 20q-88 0 -199 -163zM221 1272q3 5 7 11.5t6.5 10.5t7 10.5t5.5 9.5v423v9v5h5h9h76h9h5v-5v-9v-282q85 90 179 90q54 0 96.5 -23t66 -64t23.5 -92q-1 -203 -338 -203
h-249h-9h-5v5v9v81v9v5h5h9h92zM98 207q128 -26 219 -26q372 0 372 183q0 190 -414 451l98 148q492 -294 492 -596q0 -365 -535 -365q-120 0 -232 24v181z" />
    <glyph glyph-name="uniFB89" unicode="&#x688;" horiz-adv-x="1055" arabic-form="final" 
d="M98 0zM98 209q116 -28 209 -28q347 0 347 166q0 46 -91 260l-120 282l161 74l208 -531q56 -143 106.5 -197.5t114.5 -54.5h42v-180h-42q-165 0 -262 162q-136 -161 -449 -161q-122 0 -224 25v183zM427 1263q35 0 64.5 2t53 6t42.5 10t32 13.5t22 16.5t13 19.5t4 22.5
q0 32 -20 52t-53 20q-88 0 -199 -163zM271 1262q3 5 7 11.5t6.5 10.5t7 10.5t5.5 9.5v423v9v5h5h9h76h9h5v-5v-9v-282q85 90 179 90q54 0 96.5 -23t66 -64t23.5 -92q-1 -203 -338 -203h-249h-9h-5v5v9v81v9v5h5h9h92z" />
    <glyph glyph-name="uniFB8A" unicode="&#x698;" horiz-adv-x="810" arabic-form="isolated" 
d="M0 0zM0 0zM317 1096l132 132l133 -132l-133 -133zM489 834l132 132l133 -132l-133 -133zM149 834l132 132l133 -132l-133 -133zM600 527q82 -203 82 -392q0 -543 -632 -663l-60 154q522 99 525 504q0 158 -77 339z" />
    <glyph glyph-name="uniFB8B" unicode="&#x698;" horiz-adv-x="860" arabic-form="final" 
d="M0 0zM317 1096l132 132l133 -132l-133 -133zM489 834l132 132l133 -132l-133 -133zM149 834l132 132l133 -132l-133 -133zM515 130q0 71 -20 161t-57 178l162 58l61 -192q17 -52 41 -86t58.5 -51.5t80.5 -17.5h39v-180h-28q-74 0 -113 13.5t-62 42.5
q-17 -231 -175.5 -380t-451.5 -204l-60 154q522 100 525 504z" />
    <glyph glyph-name="uniFB8C" unicode="&#x691;" horiz-adv-x="810" arabic-form="isolated" 
d="M0 0zM0 0zM411 826q35 0 64.5 2t53 6t42.5 10t32 13.5t22 16.5t13 19.5t4 22.5q0 32 -20 52t-53 20q-88 0 -199 -163zM255 825q3 5 7 11.5t6.5 10.5t7 10.5t5.5 9.5v423v9v5h5h9h76h9h5v-5v-9v-282q85 90 179 90q54 0 96.5 -23t66 -64t23.5 -92q-1 -203 -338 -203h-249
h-9h-5v5v9v81v9v5h5h9h92zM600 527q82 -203 82 -392q0 -543 -632 -663l-60 154q522 99 525 504q0 158 -77 339z" />
    <glyph glyph-name="uniFB8D" unicode="&#x691;" horiz-adv-x="860" arabic-form="final" 
d="M0 0zM515 130q0 71 -20 161t-57 178l162 58l61 -192q17 -52 41 -86t58.5 -51.5t80.5 -17.5h39v-180h-28q-74 0 -113 13.5t-62 42.5q-17 -231 -175.5 -380t-451.5 -204l-60 154q522 100 525 504zM421 826q35 0 64.5 2t53 6t42.5 10t32 13.5t22 16.5t13 19.5t4 22.5
q0 32 -20 52t-53 20q-88 0 -199 -163zM265 825q3 5 7 11.5t6.5 10.5t7 10.5t5.5 9.5v423v9v5h5h9h76h9h5v-5v-9v-282q85 90 179 90q54 0 96.5 -23t66 -64t23.5 -92q-1 -203 -338 -203h-249h-9h-5v5v9v81v9v5h5h9h92z" />
    <glyph glyph-name="uniFB8E" unicode="&#x6a9;" horiz-adv-x="1865" arabic-form="isolated" 
d="M98 0zM305 681q-32 -85 -32 -172q1 -329 557 -329h200q436 0 436 192q0 49 -25 92.5t-79 94.5q-85 79 -274 228q-113 88 -113 185q0 127 140 181l690 256v-171l-675 -250q120 -101 167.5 -141.5t114 -100t103.5 -99.5q127 -139 127 -292q0 -355 -611 -355h-191
q-362 0 -552 122t-190 362q0 129 54 254z" />
    <glyph glyph-name="uniFB8F" unicode="&#x6a9;" horiz-adv-x="1941" arabic-form="final" 
d="M305 681q-32 -85 -32 -172q1 -329 555 -329h202q436 0 436 193q0 48 -25.5 91.5t-79.5 94.5q-102 95 -273 228q-113 88 -113 185q0 128 139 181l690 256v-171l-675 -250q25 -21 81 -68t79.5 -67t65.5 -56t64.5 -56.5t49.5 -46.5t46 -47q83 -89 128 -215q89 -252 290 -252
h28v-180h-28q-213 0 -349 179q-119 -179 -554 -179h-192q-361 0 -550.5 122t-189.5 362q0 129 54 254z" />
    <glyph glyph-name="uniFB90" unicode="&#x6a9;" horiz-adv-x="950" arabic-form="initial" 
d="M0 0zM215 988q17 -14 55 -46.5t54 -46t48.5 -40.5t48 -41t41.5 -36.5t41.5 -36.5t34.5 -32t34 -33t28 -29q126 -136 126 -291q0 -182 -134 -269t-426 -87h-186v180h185q203 0 294.5 47.5t91.5 145.5q0 48 -25.5 91.5t-79.5 94.5q-90 84 -273 228q-113 88 -113 185
q0 128 139 181l690 256v-171z" />
    <glyph glyph-name="uniFB91" unicode="&#x6a9;" horiz-adv-x="1027" arabic-form="medial" 
d="M0 0zM669 179q-60 -92 -178 -135.5t-325 -43.5h-186v180h185q203 0 294.5 47.5t91.5 145.5q0 48 -25.5 91.5t-79.5 94.5q-90 84 -273 228q-113 88 -113 185q0 128 139 181l690 256v-171l-674 -250q17 -14 55 -46.5t54 -46t48.5 -40.5t48 -41t41.5 -36.5t41.5 -36.5
t34.5 -32t34 -33t28 -29q84 -90 128 -215q89 -252 290 -252h29v-180h-29q-214 0 -349 179z" />
    <glyph glyph-name="uniFB92" unicode="&#x6af;" horiz-adv-x="1865" arabic-form="isolated" 
d="M98 0zM98 0zM1796.41 1534.07l-777.851 -288.885v108.064l777.851 288.886v-108.065zM305 681q-32 -85 -32 -172q1 -329 557 -329h200q436 0 436 192q0 49 -25 92.5t-79 94.5q-85 79 -274 228q-113 88 -113 185q0 127 140 181l690 256v-171l-675 -250
q120 -101 167.5 -141.5t114 -100t103.5 -99.5q127 -139 127 -292q0 -355 -611 -355h-191q-362 0 -552 122t-190 362q0 129 54 254z" />
    <glyph glyph-name="uniFB93" unicode="&#x6af;" horiz-adv-x="1941" arabic-form="final" 
d="M98 0zM1796.41 1534.07l-777.851 -288.885v108.064l777.851 288.886v-108.065zM305 681q-32 -85 -32 -172q1 -329 555 -329h202q436 0 436 193q0 48 -25.5 91.5t-79.5 94.5q-102 95 -273 228q-113 88 -113 185q0 128 139 181l690 256v-171l-675 -250q25 -21 81 -68
t79.5 -67t65.5 -56t64.5 -56.5t49.5 -46.5t46 -47q83 -89 128 -215q89 -252 290 -252h28v-180h-28q-213 0 -349 179q-119 -179 -554 -179h-192q-361 0 -550.5 122t-189.5 362q0 129 54 254z" />
    <glyph glyph-name="uniFB94" unicode="&#x6af;" horiz-adv-x="950" arabic-form="initial" 
d="M0 0zM0 0zM215 988q17 -14 55 -46.5t54 -46t48.5 -40.5t48 -41t41.5 -36.5t41.5 -36.5t34.5 -32t34 -33t28 -29q126 -136 126 -291q0 -182 -134 -269t-426 -87h-186v180h185q203 0 294.5 47.5t91.5 145.5q0 48 -25.5 91.5t-79.5 94.5q-90 84 -273 228q-113 88 -113 185
q0 128 139 181l690 256v-171zM881.41 1537.07l-777.851 -288.885v108.064l777.851 288.886v-108.065z" />
    <glyph glyph-name="uniFB95" unicode="&#x6af;" horiz-adv-x="1027" arabic-form="medial" 
d="M0 0zM881.41 1537.07l-777.851 -288.885v108.064l777.851 288.886v-108.065zM0 0zM669 179q-60 -92 -178 -135.5t-325 -43.5h-186v180h185q203 0 294.5 47.5t91.5 145.5q0 48 -25.5 91.5t-79.5 94.5q-90 84 -273 228q-113 88 -113 185q0 128 139 181l690 256v-171
l-674 -250q17 -14 55 -46.5t54 -46t48.5 -40.5t48 -41t41.5 -36.5t41.5 -36.5t34.5 -32t34 -33t28 -29q84 -90 128 -215q89 -252 290 -252h29v-180h-29q-214 0 -349 179z" />
    <glyph glyph-name="uniFB9E" unicode="&#x6ba;" horiz-adv-x="1447" arabic-form="isolated" 
d="M98 0zM1087 539l169 58q93 -237 93 -457q0 -285 -167 -437.5t-461 -152.5q-623 0 -623 576q0 210 90 429l155 -63q-73 -193 -73 -361q0 -408 458 -408q447 0 449 447q0 181 -90 369z" />
    <glyph glyph-name="uniFB9F" unicode="&#x6ba;" horiz-adv-x="1528" arabic-form="final" 
d="M1177 100q0 180 -90 369l169 58q14 -43 39.5 -124t32.5 -102q20 -62 62 -91.5t118 -29.5h40v-180h-36q-62 0 -100 14.5t-70 44.5q-4 -279 -169 -429t-452 -150q-623 0 -623 576q0 210 90 429l155 -63q-73 -192 -73 -361q0 -408 458 -408q447 0 449 447z" />
    <glyph glyph-name="uniFBA7" unicode="&#x6c1;" horiz-adv-x="919" arabic-form="final" 
d="M244 -20l-146 36q12 121 51 231.5t92.5 188t116 123.5t121.5 46q52 0 92 -23.5t65 -61t46 -82.5t41 -90.5t43 -83t58.5 -61t81.5 -23.5h33v-180h-32q-68 0 -122.5 22t-89.5 57.5t-62.5 78.5t-46 86t-34 78.5t-33 57.5t-37.5 22q-66 0 -140 -120t-98 -302z" />
    <glyph glyph-name="uniFBA8" unicode="&#x6c1;" horiz-adv-x="592" arabic-form="initial" 
d="M0 0zM386.146 -130.457q-59.7578 -54.7178 -88.1963 -102.235q-28.4395 -47.5186 -28.4395 -110.876q52.5586 0 74.877 -23.7588q22.3193 -23.7588 22.3193 -72.7168q0 -47.5186 -25.1992 -74.877q-25.1982 -27.3594 -71.9971 -27.3594q-113.755 0 -113.755 125.275
q0 192.231 177.112 329.026zM446 738q48 -161 48 -322q0 -202 -100 -309t-295 -107h-119v180h119q117 0 170.5 54.5t53.5 178.5q0 132 -37 285z" />
    <glyph glyph-name="uniFBA9" unicode="&#x6c1;" horiz-adv-x="1002" arabic-form="medial" 
d="M221 50q-58 -28 -94 -39t-84 -11h-63v180h65q76 0 131.5 19.5t84 41.5t93.5 83q14 13 22 20l110 -122l-25 -22q-52 -46 -71.5 -106.5t-8.5 -120t40.5 -117t72.5 -103.5t91 -74q0 240 102 370.5t301 130.5h34v-180h-36q-253 0 -253 -330q0 -51 4 -92l-121 -118
q-178 85 -283.5 234t-111.5 356z" />
    <glyph glyph-name="uniFBAA" unicode="&#x6be;" horiz-adv-x="1487" arabic-form="isolated" 
d="M47 0zM47 180h72v-180h-24zM621 240q82 33 126.5 93.5t45.5 129.5q0 81 -46 125t-125 44q-81 0 -131 -44.5t-50 -119.5q0 -72 46.5 -133.5t133.5 -94.5zM703 951q348 -169 517 -315t169 -283q0 -166 -105.5 -254.5t-286.5 -88.5q-92 0 -205 20.5t-189 46.5
q-88 -33 -200 -55t-210 -22h-95v180h83q135 0 217 10q-127 106 -127 276q0 145 99.5 233t242.5 88q46 0 85 -10l-71 36zM846 699q54 -47 75.5 -96t21.5 -120q0 -177 -136 -297q85 -11 173 -11q234 0 234 175q0 142 -368 349z" />
    <glyph glyph-name="uniFBAB" unicode="&#x6be;" horiz-adv-x="1120" arabic-form="final" 
d="M47 0zM47 180h72v-180h-24zM734 -540q-336 160 -399 540h-237v180h224q5 109 17.5 195.5t37.5 168t62 135t94.5 85.5t132.5 32q121 0 191.5 -85t70.5 -224q0 -118 -60.5 -230t-161.5 -183.5t-212 -74.5q37 -209 209 -320q0 240 102 370.5t301 130.5h34v-180h-36
q-253 0 -253 -330q0 -51 4 -92zM485 179q118 4 201 93.5t83 214.5q0 65 -29 100t-76 35q-84 0 -126 -108.5t-53 -334.5z" />
    <glyph glyph-name="uniFBAC" unicode="&#x6be;" horiz-adv-x="1369" arabic-form="initial" 
d="M0 0zM503 240q82 33 126.5 93.5t45.5 129.5q0 81 -46 125t-125 44q-81 0 -131 -44.5t-50 -119.5q0 -72 46.5 -133.5t133.5 -94.5zM585 951q348 -169 517 -315t169 -283q0 -166 -105.5 -254.5t-286.5 -88.5q-92 0 -205 20.5t-189 46.5q-88 -33 -200 -55t-210 -22h-95v180
h83q135 0 217 10q-127 106 -127 276q0 145 99.5 233t242.5 88q46 0 85 -10l-71 36zM728 699q54 -47 75.5 -96t21.5 -120q0 -177 -136 -297q85 -11 173 -11q234 0 234 175q0 142 -368 349z" />
    <glyph glyph-name="uniFBAD" unicode="&#x6be;" horiz-adv-x="1002" arabic-form="medial" 
d="M0 0zM616 -540q-336 160 -399 540h-237v180h224q5 109 17.5 195.5t37.5 168t62 135t94.5 85.5t132.5 32q121 0 191.5 -85t70.5 -224q0 -118 -60.5 -230t-161.5 -183.5t-212 -74.5q37 -209 209 -320q0 240 102 370.5t301 130.5h34v-180h-36q-253 0 -253 -330q0 -51 4 -92z
M367 179q118 4 201 93.5t83 214.5q0 65 -29 100t-76 35q-84 0 -126 -108.5t-53 -334.5z" />
    <glyph glyph-name="uniFBAE" unicode="&#x6d2;" horiz-adv-x="1744" arabic-form="isolated" 
d="M98 1zM791 453q-11 15 -42 57t-50.5 67t-50 60t-57.5 59q-23 -33 -49 -74t-47 -71t-52 -68q-35 -42 -66.5 -74.5t-49.5 -48t-31.5 -27t-19 -18.5t-5.5 -16q0 -38 76.5 -68t198.5 -45.5t262 -15.5q189 0 397 17t322 33l113 17l6 -178q-46 -7 -126 -16.5t-300.5 -25.5
t-409.5 -16q-712 0 -712 282q0 39 13 70.5t38.5 58.5t53 51.5t67 62.5t70.5 79q36 47 70.5 97.5t51 77t36 50.5t39 33t47.5 9q41 0 94.5 -39t99.5 -94.5t79.5 -103t50.5 -79.5z" />
    <glyph glyph-name="uniFBAF" unicode="&#x6d2;" horiz-adv-x="1576" arabic-form="final" 
d="M98 0zM1200.77 0v180h395.005v-180h-395.005zM656 0q-60 0 -121 -15t-107 -37.5t-82.5 -47t-55.5 -43.5t-19 -28q0 -38 76.5 -68t198.5 -45.5t262 -15.5q102 0 196.5 7t156.5 17t109 20t69 17l21 7l38 -166q-27 -8 -77 -20t-204 -31.5t-307 -19.5q-712 0 -712 282
q0 57 49 122.5t126 119.5t181.5 89.5t205.5 35.5h567v-180h-571z" />
    <glyph glyph-name="uniFBB0" unicode="&#x6d3;" horiz-adv-x="1744" arabic-form="isolated" 
d="M98 1zM98 1zM538 1113q-37 31 -53.5 69.5t-16.5 94.5q0 93 59.5 150.5t141.5 57.5q36 0 70 -10.5t66 -30.5l1 -119q-62 37 -123 37q-27 0 -48.5 -9.5t-36.5 -32t-15 -56.5q1 -22 9.5 -39.5t28 -32.5t50.5 -27q6 -2 10.5 -3t9.5 -1h2.5t2.5 0.5t3 0.5q25 5 71 14.5
t62 12.5v-116l-397 -96v113zM791 453q-11 15 -42 57t-50.5 67t-50 60t-57.5 59q-23 -33 -49 -74t-47 -71t-52 -68q-35 -42 -66.5 -74.5t-49.5 -48t-31.5 -27t-19 -18.5t-5.5 -16q0 -38 76.5 -68t198.5 -45.5t262 -15.5q189 0 397 17t322 33l113 17l6 -178q-46 -7 -126 -16.5
t-300.5 -25.5t-409.5 -16q-712 0 -712 282q0 39 13 70.5t38.5 58.5t53 51.5t67 62.5t70.5 79q36 47 70.5 97.5t51 77t36 50.5t39 33t47.5 9q41 0 94.5 -39t99.5 -94.5t79.5 -103t50.5 -79.5z" />
    <glyph glyph-name="uniFBB1" unicode="&#x6d3;" horiz-adv-x="1576" arabic-form="final" 
d="M98 0zM1200.77 0v180h395.005v-180h-395.005zM98 0zM656 0q-60 0 -121 -15t-107 -37.5t-82.5 -47t-55.5 -43.5t-19 -28q0 -38 76.5 -68t198.5 -45.5t262 -15.5q102 0 196.5 7t156.5 17t109 20t69 17l21 7l38 -166q-27 -8 -77 -20t-204 -31.5t-307 -19.5q-712 0 -712 282
q0 57 49 122.5t126 119.5t181.5 89.5t205.5 35.5h567v-180h-571zM530 485q-37 31 -53.5 69.5t-16.5 94.5q0 93 59.5 150.5t141.5 57.5q36 0 70 -10.5t66 -30.5l1 -119q-62 37 -123 37q-27 0 -48.5 -9.5t-36.5 -32t-15 -56.5q1 -22 9.5 -39.5t28 -32.5t50.5 -27q6 -2 10.5 -3
t9.5 -1h2.5t2.5 0.5t3 0.5q25 5 71 14.5t62 12.5v-116l-397 -96v113z" />
    <glyph glyph-name="uniFBDA" unicode="&#x6c6;" horiz-adv-x="938" arabic-form="final" 
d="M98 0zM352 939l-193 324h124l140 -240l141 240h124l-194 -324h-142zM98 0zM874.878 0v180h83.4893v-180h-83.4893zM432 720q311 0 347 -540h117v-180h-129q-39 -208 -189.5 -343t-409.5 -185l-60 154q211 40 338 136.5t165 237.5h-149q-364 0 -364 296q0 174 95.5 299
t238.5 125zM616 180q-23 355 -198 355q-66 0 -110.5 -67.5t-44.5 -156.5q0 -131 189 -131h164z" />
    <glyph glyph-name="uniFBE8" unicode="&#x649;" horiz-adv-x="672" arabic-form="initial" 
d="M526 738q48 -161 48 -322q0 -219 -107.5 -317.5t-337.5 -98.5h-149v180h149q78 0 126.5 9t83.5 34.5t49.5 71t14.5 118.5q0 132 -37 285z" />
    <glyph glyph-name="uniFBE9" unicode="&#x649;" horiz-adv-x="767" arabic-form="medial" 
d="M787 0h-24q-102 0 -166.5 35.5t-103.5 107.5q-102 -143 -364 -143h-149v180h151q151 0 211 44.5t61 162.5q0 82 -8 202l164 19l16 -247q12 -181 190 -181h22v-180z" />
    <glyph glyph-name="uniFBFC" unicode="&#x6cc;" horiz-adv-x="1477" arabic-form="isolated" 
d="M98 0zM361 475q-92 -225 -92 -393q0 -408 455 -410q121 0 231.5 32t186 99t75.5 155q0 58 -99 58h-144q-121 0 -183.5 63t-62.5 184q0 99 38.5 183t102.5 140.5t148 88.5t175 32q104 0 180 -32l-32 -165q-68 21 -148 21q-64 0 -120.5 -22.5t-94 -59t-59 -82t-21.5 -91.5
t17.5 -65t69.5 -19h180q103 0 159 -53.5t56 -140.5q0 -235 -180 -366t-480 -131q-621 0 -621 578q0 204 108 459z" />
    <glyph glyph-name="uniFBFD" unicode="&#x6cc;" horiz-adv-x="1559" arabic-form="final" 
d="M99 0zM99 0zM324 365q-54 -150 -54 -305q0 -407 449 -407q119 0 230.5 31.5t183 87.5t71.5 121q0 46 -43 76.5t-121 30.5h-123q-51 0 -65 62l-22 92q-6 26 23 26h604v-180h-119q28 -57 28 -114q0 -176 -179 -290.5t-467 -114.5q-621 0 -621 580q0 86 18.5 188.5
t52.5 178.5zM1434.1 0v180h144.993v-180h-144.993z" />
    <glyph glyph-name="uniFBFE" unicode="&#x6cc;" horiz-adv-x="672" arabic-form="initial" 
d="M0 0zM267 -303l140 140l141 -140l-141 -142zM-65 -303l140 140l141 -140l-141 -142zM526 738q48 -161 48 -322q0 -219 -107.5 -317.5t-337.5 -98.5h-149v180h149q78 0 126.5 9t83.5 34.5t49.5 71t14.5 118.5q0 132 -37 285z" />
    <glyph glyph-name="uniFBFF" unicode="&#x6cc;" horiz-adv-x="767" arabic-form="medial" 
d="M0 0zM267 -303l140 140l141 -140l-141 -142zM-65 -303l140 140l141 -140l-141 -142zM787 0h-24q-102 0 -166.5 35.5t-103.5 107.5q-102 -143 -364 -143h-149v180h151q151 0 211 44.5t61 162.5q0 82 -8 202l164 19l16 -247q12 -181 190 -181h22v-180z" />
    <glyph glyph-name="uniFDFC" unicode="&#xfdfc;" horiz-adv-x="3189" arabic-form="isolated" 
d="M98 0zM2026 -274l140 140l141 -140l-141 -142zM1694 -274l140 140l141 -140l-141 -142zM335 358q-66 -168 -66 -322q0 -383 406 -383q383 0 383 415l3 1298h168l-1 -1259q0 -627 -554 -627q-576 0 -576 557q0 186 82 384zM2988 468q82 -203 82 -392q0 -543 -632 -663
l-60 154q522 99 525 504q0 158 -77 339zM2407 738q48 -161 48 -322q0 -219 -107.5 -317.5t-337.5 -98.5h-149v180h149q78 0 126.5 9t83.5 34.5t49.5 71t14.5 118.5q0 132 -37 285zM1903 0h-25q-187 0 -280.5 96.5t-93.5 308.5v961h169v-962q0 -122 50.5 -173t154.5 -51h25
v-180z" />
    <glyph glyph-name="uniFE80" unicode="&#x621;" horiz-adv-x="830" arabic-form="isolated" 
d="M98 0zM454 263q41 9 125.5 28t126.5 29l26 -169q-250 -31 -634 -241v173q101 70 196 105q-176 90 -176 246q0 152 91 243t234 91q134 0 225 -89l-55 -134q-80 56 -157 56q-80 0 -128 -44t-48 -122q0 -93 174 -172z" />
    <glyph glyph-name="uniFE81" unicode="&#x622;" horiz-adv-x="465" arabic-form="isolated" 
d="M0 0zM0 0zM129 1416q-83 0 -176 -111l-101 91q114 161 243 162q42 0 117.5 -25.5t117.5 -25.5q71 0 178 54l66 -122q-112 -69 -218 -69q-41 0 -114.5 23t-112.5 23zM148 1228.27h169v-1227.37h-169v1227.37z" />
    <glyph glyph-name="uniFE82" unicode="&#x622;" horiz-adv-x="527" arabic-form="final" 
d="M0 0zM225 1416q-83 0 -176 -111l-101 91q114 161 243 162q42 0 117.5 -25.5t117.5 -25.5q71 0 178 54l66 -122q-112 -69 -218 -69q-41 0 -114.5 23t-112.5 23zM546 0h-24q-188 0 -281 96t-93 308v763h169v-763q0 -122 50.5 -173t154.5 -51h24v-180z" />
    <glyph glyph-name="uniFE83" unicode="&#x623;" horiz-adv-x="465" arabic-form="isolated" 
d="M22 2zM22 2zM22 1246zM125 1382q-37 31 -53.5 69.5t-16.5 94.5q0 93 59.5 150.5t141.5 57.5q36 0 70 -10.5t66 -30.5l1 -119q-62 37 -123 37q-27 0 -48.5 -9.5t-36.5 -32t-15 -56.5q1 -22 9.5 -39.5t28 -32.5t50.5 -27q6 -2 10.5 -3t9.5 -1h2.5t2.5 0.5t3 0.5
q25 5 71 14.5t62 12.5v-116l-397 -96v113zM148 1168.82h169v-1165.96h-169v1165.96z" />
    <glyph glyph-name="uniFE84" unicode="&#x623;" horiz-adv-x="527" arabic-form="final" 
d="M22 0zM22 1246zM125 1382q-37 31 -53.5 69.5t-16.5 94.5q0 93 59.5 150.5t141.5 57.5q36 0 70 -10.5t66 -30.5l1 -119q-62 37 -123 37q-27 0 -48.5 -9.5t-36.5 -32t-15 -56.5q1 -22 9.5 -39.5t28 -32.5t50.5 -27q6 -2 10.5 -3t9.5 -1h2.5t2.5 0.5t3 0.5q25 5 71 14.5
t62 12.5v-116l-397 -96v113zM546 0h-24q-188 0 -281 96t-93 308v763h169v-763q0 -122 50.5 -173t154.5 -51h24v-180z" />
    <glyph glyph-name="uniFE85" unicode="&#x624;" horiz-adv-x="880" arabic-form="isolated" 
d="M98 0zM98 0zM210 843zM313 979q-37 31 -53.5 69.5t-16.5 94.5q0 93 59.5 150.5t141.5 57.5q36 0 70 -10.5t66 -30.5l1 -119q-62 37 -123 37q-27 0 -48.5 -9.5t-36.5 -32t-15 -56.5q1 -22 9.5 -39.5t28 -32.5t50.5 -27q6 -2 10.5 -3t9.5 -1h2.5t2.5 0.5t3 0.5
q25 5 71 14.5t62 12.5v-116l-397 -96v113zM616 13q-118 -15 -159 -15q-359 0 -359 298q0 174 93.5 299t236.5 125q88 0 157.5 -47t111.5 -126.5t63.5 -176.5t21.5 -204q0 -281 -155 -458.5t-459 -235.5l-60 154q213 40 340.5 139.5t167.5 247.5zM616 199q-21 336 -196 336
q-68 0 -112.5 -67.5t-44.5 -156.5q0 -139 195 -139q69 0 158 27z" />
    <glyph glyph-name="uniFE86" unicode="&#x624;" horiz-adv-x="938" arabic-form="final" 
d="M98 0zM98 0zM874.878 0v180h83.4893v-180h-83.4893zM432 720q311 0 347 -540h117v-180h-129q-39 -208 -189.5 -343t-409.5 -185l-60 154q211 40 338 136.5t165 237.5h-149q-364 0 -364 296q0 174 95.5 299t238.5 125zM616 180q-23 355 -198 355q-66 0 -110.5 -67.5
t-44.5 -156.5q0 -131 189 -131h164zM210 843zM313 979q-37 31 -53.5 69.5t-16.5 94.5q0 93 59.5 150.5t141.5 57.5q36 0 70 -10.5t66 -30.5l1 -119q-62 37 -123 37q-27 0 -48.5 -9.5t-36.5 -32t-15 -56.5q1 -22 9.5 -39.5t28 -32.5t50.5 -27q6 -2 10.5 -3t9.5 -1h2.5
t2.5 0.5t3 0.5q25 5 71 14.5t62 12.5v-116l-397 -96v113z" />
    <glyph glyph-name="uniFE87" unicode="&#x625;" horiz-adv-x="465" arabic-form="isolated" 
d="M7 0zM7 0zM7 -165zM110 -492q-37 31 -53.5 69.5t-16.5 94.5q0 93 59.5 150.5t141.5 57.5q36 0 70 -10.5t66 -30.5l1 -119q-62 37 -123 37q-27 0 -48.5 -9.5t-36.5 -32t-15 -56.5q1 -22 9.5 -39.5t28 -32.5t50.5 -27q6 -2 10.5 -3t9.5 -1h2.5t2.5 0.5t3 0.5q25 5 71 14.5
t62 12.5v-116l-397 -96v113zM149 1366h169v-1365h-169v1365z" />
    <glyph glyph-name="uniFE88" unicode="&#x625;" horiz-adv-x="527" arabic-form="final" 
d="M106 0zM547 0h-25q-187 0 -280.5 96.5t-93.5 308.5v961h169v-962q0 -122 50.5 -173t154.5 -51h25v-180zM106 -179zM209 -506q-37 31 -53.5 69.5t-16.5 94.5q0 93 59.5 150.5t141.5 57.5q36 0 70 -10.5t66 -30.5l1 -119q-62 37 -123 37q-27 0 -48.5 -9.5t-36.5 -32
t-15 -56.5q1 -22 9.5 -39.5t28 -32.5t50.5 -27q6 -2 10.5 -3t9.5 -1h2.5t2.5 0.5t3 0.5q25 5 71 14.5t62 12.5v-116l-397 -96v113z" />
    <glyph glyph-name="uniFE89" unicode="&#x626;" horiz-adv-x="1477" arabic-form="isolated" 
d="M98 0zM98 0zM384 651zM487 787q-37 31 -53.5 69.5t-16.5 94.5q0 93 59.5 150.5t141.5 57.5q36 0 70 -10.5t66 -30.5l1 -119q-62 37 -123 37q-27 0 -48.5 -9.5t-36.5 -32t-15 -56.5q1 -22 9.5 -39.5t28 -32.5t50.5 -27q6 -2 10.5 -3t9.5 -1h2.5t2.5 0.5t3 0.5
q25 5 71 14.5t62 12.5v-116l-397 -96v113zM361 475q-92 -225 -92 -393q0 -408 455 -410q121 0 231.5 32t186 99t75.5 155q0 58 -99 58h-144q-121 0 -183.5 63t-62.5 184q0 99 38.5 183t102.5 140.5t148 88.5t175 32q104 0 180 -32l-32 -165q-68 21 -148 21
q-64 0 -120.5 -22.5t-94 -59t-59 -82t-21.5 -91.5t17.5 -65t69.5 -19h180q103 0 159 -53.5t56 -140.5q0 -235 -180 -366t-480 -131q-621 0 -621 578q0 204 108 459z" />
    <glyph glyph-name="uniFE8A" unicode="&#x626;" horiz-adv-x="1559" arabic-form="final" 
d="M99 0zM99 0zM324 365q-54 -150 -54 -305q0 -407 449 -407q119 0 230.5 31.5t183 87.5t71.5 121q0 46 -43 76.5t-121 30.5h-123q-51 0 -65 62l-22 92q-6 26 23 26h604v-180h-119q28 -57 28 -114q0 -176 -179 -290.5t-467 -114.5q-621 0 -621 580q0 86 18.5 188.5
t52.5 178.5zM1434.1 0v180h144.993v-180h-144.993zM413 458zM516 594q-37 31 -53.5 69.5t-16.5 94.5q0 93 59.5 150.5t141.5 57.5q36 0 70 -10.5t66 -30.5l1 -119q-62 37 -123 37q-27 0 -48.5 -9.5t-36.5 -32t-15 -56.5q1 -22 9.5 -39.5t28 -32.5t50.5 -27q6 -2 10.5 -3
t9.5 -1h2.5t2.5 0.5t3 0.5q25 5 71 14.5t62 12.5v-116l-397 -96v113z" />
    <glyph glyph-name="uniFE8B" unicode="&#x626;" horiz-adv-x="592" arabic-form="initial" 
d="M0 0zM446 738q48 -161 48 -322q0 -202 -100 -309t-295 -107h-119v180h119q117 0 170.5 54.5t53.5 178.5q0 132 -37 285zM81 825zM184 961q-37 31 -53.5 69.5t-16.5 94.5q0 93 59.5 150.5t141.5 57.5q36 0 70 -10.5t66 -30.5l1 -119q-62 37 -123 37q-27 0 -48.5 -9.5
t-36.5 -32t-15 -56.5q1 -22 9.5 -39.5t28 -32.5t50.5 -27q6 -2 10.5 -3t9.5 -1h2.5t2.5 0.5t3 0.5q25 5 71 14.5t62 12.5v-116l-397 -96v113z" />
    <glyph glyph-name="uniFE8C" unicode="&#x626;" horiz-adv-x="687" arabic-form="medial" 
d="M0 0zM707 0h-24q-193 0 -271 143q-103 -143 -311 -143h-121v180h121q119 0 170.5 52t51.5 165q0 28 -8 191l164 20l16 -246q12 -182 190 -182h22v-180zM108 719zM211 855q-37 31 -53.5 69.5t-16.5 94.5q0 93 59.5 150.5t141.5 57.5q36 0 70 -10.5t66 -30.5l1 -119
q-62 37 -123 37q-27 0 -48.5 -9.5t-36.5 -32t-15 -56.5q1 -22 9.5 -39.5t28 -32.5t50.5 -27q6 -2 10.5 -3t9.5 -1h2.5t2.5 0.5t3 0.5q25 5 71 14.5t62 12.5v-116l-397 -96v113z" />
    <glyph glyph-name="uniFE8D" unicode="&#x627;" horiz-adv-x="465" arabic-form="isolated" 
d="M148 1zM148 1366h169v-1365h-169v1365z" />
    <glyph glyph-name="uniFE8E" unicode="&#x627;" horiz-adv-x="527" arabic-form="final" 
d="M547 0h-25q-187 0 -280.5 96.5t-93.5 308.5v961h169v-962q0 -122 50.5 -173t154.5 -51h25v-180z" />
    <glyph glyph-name="uniFE8F" unicode="&#x628;" horiz-adv-x="1777" arabic-form="isolated" 
d="M98 0zM98 0zM781 -303l145 145l147 -146l-146 -145zM975 0h-135q-362 0 -552 122t-190 362q0 129 54 254l153 -57q-32 -85 -32 -172q1 -329 557 -329h138q78 0 117.5 0.5t107.5 5.5t103.5 15t82.5 29t70 47.5t40 71.5t17 99q0 90 -36 250l160 40q49 -148 49 -275
q0 -85 -18 -152.5t-49 -116t-81 -83.5t-105.5 -56t-131.5 -33.5t-150 -17t-169 -4.5z" />
    <glyph glyph-name="uniFE90" unicode="&#x628;" horiz-adv-x="1878" arabic-form="final" 
d="M98 0zM757 -303l145 145l147 -146l-146 -145zM985 0h-145q-362 0 -552 122t-190 362q0 129 54 254l153 -57q-32 -85 -32 -172q1 -329 557 -329h150q393 0 500 129q35 42 35 123q0 39 -7 156l161 20l16 -248q6 -91 51.5 -135.5t136.5 -44.5h25v-180h-25q-206 0 -297 178
q-169 -178 -591 -178z" />
    <glyph glyph-name="uniFE91" unicode="&#x628;" horiz-adv-x="592" arabic-form="initial" 
d="M0 0zM59 -303l145 145l147 -146l-146 -145zM446 738q48 -161 48 -322q0 -202 -100 -309t-295 -107h-119v180h119q117 0 170.5 54.5t53.5 178.5q0 132 -37 285z" />
    <glyph glyph-name="uniFE92" unicode="&#x628;" horiz-adv-x="687" arabic-form="medial" 
d="M0 0zM59 -303l145 145l147 -146l-146 -145zM707 0h-24q-193 0 -271 143q-103 -143 -311 -143h-121v180h121q119 0 170.5 52t51.5 165q0 28 -8 191l164 20l16 -246q12 -182 190 -182h22v-180z" />
    <glyph glyph-name="uniFE93" unicode="&#x629;" horiz-adv-x="922" arabic-form="isolated" 
d="M98 4zM98 4zM447 635q-182 -160 -182 -286q0 -85 47 -127t148 -42q102 0 149.5 42t47.5 128q0 116 -210 285zM369 932q455 -333 455 -588q0 -149 -98 -243.5t-265 -96.5q-174 0 -268.5 88.5t-94.5 251.5q0 204 219 419l-45 39zM460 1218l140 140l141 -140l-141 -142z
M128 1218l140 140l141 -140l-141 -142z" />
    <glyph glyph-name="uniFE94" unicode="&#x629;" horiz-adv-x="1038" arabic-form="final" 
d="M98 0zM605 1221l140 140l141 -140l-141 -142zM273 1221l140 140l141 -140l-141 -142zM98 412q0 295 507 452l-7 45l159 33l82 -589q11 -83 59 -128t129 -45h31v-180h-35q-269 0 -322 237q-122 -105 -270 -105q-146 0 -239.5 70.5t-93.5 209.5zM631 703
q-181 -67 -270 -134.5t-89 -144.5q0 -61 39.5 -92.5t113.5 -31.5q90 0 163 50.5t73 131.5q0 30 -4 57z" />
    <glyph glyph-name="uniFE95" unicode="&#x62a;" horiz-adv-x="1777" arabic-form="isolated" 
d="M98 0zM98 0zM975 0h-135q-362 0 -552 122t-190 362q0 129 54 254l153 -57q-32 -85 -32 -172q1 -329 557 -329h138q78 0 117.5 0.5t107.5 5.5t103.5 15t82.5 29t70 47.5t40 71.5t17 99q0 90 -36 250l160 40q49 -148 49 -275q0 -85 -18 -152.5t-49 -116t-81 -83.5
t-105.5 -56t-131.5 -33.5t-150 -17t-169 -4.5zM921 860l140 140l141 -140l-141 -142zM589 860l140 140l141 -140l-141 -142z" />
    <glyph glyph-name="uniFE96" unicode="&#x62a;" horiz-adv-x="1878" arabic-form="final" 
d="M98 0zM936 859l140 140l141 -140l-141 -142zM604 859l140 140l141 -140l-141 -142zM985 0h-145q-362 0 -552 122t-190 362q0 129 54 254l153 -57q-32 -85 -32 -172q1 -329 557 -329h150q393 0 500 129q35 42 35 123q0 39 -7 156l161 20l16 -248q6 -91 51.5 -135.5
t136.5 -44.5h25v-180h-25q-206 0 -297 178q-169 -178 -591 -178z" />
    <glyph glyph-name="uniFE97" unicode="&#x62a;" horiz-adv-x="695" arabic-form="initial" 
d="M0 0zM335 1040l140 140l141 -140l-141 -142zM3 1040l140 140l141 -140l-141 -142zM526 738q48 -161 48 -322q0 -219 -107.5 -317.5t-337.5 -98.5h-149v180h149q78 0 126.5 9t83.5 34.5t49.5 71t14.5 118.5q0 132 -37 285z" />
    <glyph glyph-name="uniFE98" unicode="&#x62a;" horiz-adv-x="767" arabic-form="medial" 
d="M0 0zM336 957l140 140l141 -140l-141 -142zM4 957l140 140l141 -140l-141 -142zM787 0h-24q-102 0 -166.5 35.5t-103.5 107.5q-102 -143 -364 -143h-149v180h151q151 0 211 44.5t61 162.5q0 82 -8 202l164 19l16 -247q12 -181 190 -181h22v-180z" />
    <glyph glyph-name="uniFE99" unicode="&#x62b;" horiz-adv-x="1777" arabic-form="isolated" 
d="M98 0zM98 0zM975 0h-135q-362 0 -552 122t-190 362q0 129 54 254l153 -57q-32 -85 -32 -172q1 -329 557 -329h138q78 0 117.5 0.5t107.5 5.5t103.5 15t82.5 29t70 47.5t40 71.5t17 99q0 90 -36 250l160 40q49 -148 49 -275q0 -85 -18 -152.5t-49 -116t-81 -83.5
t-105.5 -56t-131.5 -33.5t-150 -17t-169 -4.5zM762 1047l132 132l133 -132l-133 -133zM934 785l132 132l133 -132l-133 -133zM594 785l132 132l133 -132l-133 -133z" />
    <glyph glyph-name="uniFE9A" unicode="&#x62b;" horiz-adv-x="1878" arabic-form="final" 
d="M98 0zM774 1048l132 132l133 -132l-133 -133zM946 786l132 132l133 -132l-133 -133zM606 786l132 132l133 -132l-133 -133zM985 0h-145q-362 0 -552 122t-190 362q0 129 54 254l153 -57q-32 -85 -32 -172q1 -329 557 -329h150q393 0 500 129q35 42 35 123q0 39 -7 156
l161 20l16 -248q6 -91 51.5 -135.5t136.5 -44.5h25v-180h-25q-206 0 -297 178q-169 -178 -591 -178z" />
    <glyph glyph-name="uniFE9B" unicode="&#x62b;" horiz-adv-x="678" arabic-form="initial" 
d="M0 0zM167 1272l132 132l133 -132l-133 -133zM339 1010l132 132l133 -132l-133 -133zM-1 1010l132 132l133 -132l-133 -133zM526 738q48 -161 48 -322q0 -219 -107.5 -317.5t-337.5 -98.5h-149v180h149q78 0 126.5 9t83.5 34.5t49.5 71t14.5 118.5q0 132 -37 285z" />
    <glyph glyph-name="uniFE9C" unicode="&#x62b;" horiz-adv-x="767" arabic-form="medial" 
d="M0 0zM169 1174l132 132l133 -132l-133 -133zM341 912l132 132l133 -132l-133 -133zM1 912l132 132l133 -132l-133 -133zM787 0h-24q-102 0 -166.5 35.5t-103.5 107.5q-102 -143 -364 -143h-149v180h151q151 0 211 44.5t61 162.5q0 82 -8 202l164 19l16 -247
q12 -181 190 -181h22v-180z" />
    <glyph glyph-name="uniFE9D" unicode="&#x62c;" horiz-adv-x="1347" arabic-form="isolated" 
d="M98 0zM98 0zM836 550q-35 14 -91 37q-69 28 -95.5 38t-68.5 25.5t-64.5 20.5t-39.5 5q-55 0 -108.5 -32t-92.5 -82l-27 -35l-151 75l15 26q65 105 159.5 165.5t205.5 60.5q104 0 303 -96q157 -76 259 -111t188 -39l-13 -170q-266 -21 -481.5 -99t-342 -202.5
t-126.5 -271.5q0 -371 533 -371q213 0 415 95l35 -170q-201 -96 -464 -96q-154 0 -278 32t-216 95.5t-141.5 164.5t-49.5 234q0 121 48 230.5t139.5 200.5t231.5 160.5t318 109.5zM658 -78l145 145l147 -146l-146 -145z" />
    <glyph glyph-name="uniFE9E" unicode="&#x62c;" horiz-adv-x="1378" arabic-form="final" 
d="M98 0zM563 -119l145 145l147 -146l-146 -145zM1248 -581q-201 -96 -464 -96q-154 0 -278 32t-216 95.5t-141.5 164.5t-49.5 234q0 246 191.5 434t545.5 267q-35 14 -91 37q-69 28 -95.5 38t-68.5 25.5t-64.5 20.5t-39.5 5q-55 0 -108.5 -32t-92.5 -82l-27 -35l-151 75
l15 26q65 105 159.5 165.5t205.5 60.5q104 0 303 -96q157 -76 259 -111t188 -39q-2 -29 -6.5 -85t-6.5 -85q-75 -5 -195 -21q1 -135 73.5 -186t226.5 -51h78v-180h-75q-231 0 -341.5 87.5t-111.5 299.5q-293 -82 -449 -221.5t-156 -300.5q0 -371 533 -371q213 0 415 95z" />
    <glyph glyph-name="uniFE9F" unicode="&#x62c;" horiz-adv-x="1334" arabic-form="initial" 
d="M0 0zM489 -303l145 145l147 -146l-146 -145zM-20 0v180h163q177 0 327.5 53.5t399.5 182.5l78 41q-12 4 -29.5 11.5t-60.5 25.5t-95 39q-118 48 -177 68.5t-91 20.5q-55 0 -108.5 -32t-92.5 -82l-27 -35l-151 75l15 26q65 105 159.5 165.5t205.5 60.5q104 0 303 -96
q157 -76 259 -111t188 -39l-2 -170q-59 -7 -142.5 -42t-240.5 -118q-216 -114 -376 -169t-345 -55h-160z" />
    <glyph glyph-name="uniFEA0" unicode="&#x62c;" horiz-adv-x="1351" arabic-form="medial" 
d="M0 0zM489 -303l145 145l147 -146l-146 -145zM1244 384q-98 -11 -202 -61q3 -75 69.5 -109t205.5 -34h54v-180h-58q-187 0 -285.5 60.5t-114.5 192.5q-224 -122 -406 -187.5t-367 -65.5h-160v180h163q177 0 327.5 53.5t399.5 182.5l78 41q-12 4 -29.5 11.5t-60.5 25.5
t-95 39q-118 48 -177 68.5t-91 20.5q-55 0 -108.5 -32t-92.5 -82l-27 -35l-151 75l15 26q65 105 159.5 165.5t205.5 60.5q104 0 303 -96q157 -76 259 -111t188 -39z" />
    <glyph glyph-name="uniFEA1" unicode="&#x62d;" horiz-adv-x="1347" arabic-form="isolated" 
d="M98 0zM836 550q-35 14 -91 37q-69 28 -95.5 38t-68.5 25.5t-64.5 20.5t-39.5 5q-55 0 -108.5 -32t-92.5 -82l-27 -35l-151 75l15 26q65 105 159.5 165.5t205.5 60.5q104 0 303 -96q157 -76 259 -111t188 -39l-13 -170q-266 -21 -481.5 -99t-342 -202.5t-126.5 -271.5
q0 -371 533 -371q213 0 415 95l35 -170q-201 -96 -464 -96q-154 0 -278 32t-216 95.5t-141.5 164.5t-49.5 234q0 121 48 230.5t139.5 200.5t231.5 160.5t318 109.5z" />
    <glyph glyph-name="uniFEA2" unicode="&#x62d;" horiz-adv-x="1378" arabic-form="final" 
d="M1248 -581q-201 -96 -464 -96q-154 0 -278 32t-216 95.5t-141.5 164.5t-49.5 234q0 246 191.5 434t545.5 267q-35 14 -91 37q-69 28 -95.5 38t-68.5 25.5t-64.5 20.5t-39.5 5q-55 0 -108.5 -32t-92.5 -82l-27 -35l-151 75l15 26q65 105 159.5 165.5t205.5 60.5
q104 0 303 -96q157 -76 259 -111t188 -39q-2 -29 -6.5 -85t-6.5 -85q-75 -5 -195 -21q1 -135 73.5 -186t226.5 -51h78v-180h-75q-231 0 -341.5 87.5t-111.5 299.5q-293 -82 -449 -221.5t-156 -300.5q0 -371 533 -371q213 0 415 95z" />
    <glyph glyph-name="uniFEA3" unicode="&#x62d;" horiz-adv-x="1334" arabic-form="initial" 
d="M-20 0v180h163q177 0 327.5 53.5t399.5 182.5l78 41q-12 4 -29.5 11.5t-60.5 25.5t-95 39q-118 48 -177 68.5t-91 20.5q-55 0 -108.5 -32t-92.5 -82l-27 -35l-151 75l15 26q65 105 159.5 165.5t205.5 60.5q104 0 303 -96q157 -76 259 -111t188 -39l-2 -170
q-59 -7 -142.5 -42t-240.5 -118q-216 -114 -376 -169t-345 -55h-160z" />
    <glyph glyph-name="uniFEA4" unicode="&#x62d;" horiz-adv-x="1351" arabic-form="medial" 
d="M1244 384q-98 -11 -202 -61q3 -75 69.5 -109t205.5 -34h54v-180h-58q-187 0 -285.5 60.5t-114.5 192.5q-224 -122 -406 -187.5t-367 -65.5h-160v180h163q177 0 327.5 53.5t399.5 182.5l78 41q-12 4 -29.5 11.5t-60.5 25.5t-95 39q-118 48 -177 68.5t-91 20.5
q-55 0 -108.5 -32t-92.5 -82l-27 -35l-151 75l15 26q65 105 159.5 165.5t205.5 60.5q104 0 303 -96q157 -76 259 -111t188 -39z" />
    <glyph glyph-name="uniFEA5" unicode="&#x62e;" horiz-adv-x="1347" arabic-form="isolated" 
d="M98 0zM98 0zM420 1184l145 145l147 -146l-146 -145zM836 550q-35 14 -91 37q-69 28 -95.5 38t-68.5 25.5t-64.5 20.5t-39.5 5q-55 0 -108.5 -32t-92.5 -82l-27 -35l-151 75l15 26q65 105 159.5 165.5t205.5 60.5q104 0 303 -96q157 -76 259 -111t188 -39l-13 -170
q-266 -21 -481.5 -99t-342 -202.5t-126.5 -271.5q0 -371 533 -371q213 0 415 95l35 -170q-201 -96 -464 -96q-154 0 -278 32t-216 95.5t-141.5 164.5t-49.5 234q0 121 48 230.5t139.5 200.5t231.5 160.5t318 109.5z" />
    <glyph glyph-name="uniFEA6" unicode="&#x62e;" horiz-adv-x="1378" arabic-form="final" 
d="M98 0zM420 1184l145 145l147 -146l-146 -145zM1248 -581q-201 -96 -464 -96q-154 0 -278 32t-216 95.5t-141.5 164.5t-49.5 234q0 246 191.5 434t545.5 267q-35 14 -91 37q-69 28 -95.5 38t-68.5 25.5t-64.5 20.5t-39.5 5q-55 0 -108.5 -32t-92.5 -82l-27 -35l-151 75
l15 26q65 105 159.5 165.5t205.5 60.5q104 0 303 -96q157 -76 259 -111t188 -39q-2 -29 -6.5 -85t-6.5 -85q-75 -5 -195 -21q1 -135 73.5 -186t226.5 -51h78v-180h-75q-231 0 -341.5 87.5t-111.5 299.5q-293 -82 -449 -221.5t-156 -300.5q0 -371 533 -371q213 0 415 95z" />
    <glyph glyph-name="uniFEA7" unicode="&#x62e;" horiz-adv-x="1334" arabic-form="initial" 
d="M0 0zM429 1132l145 145l147 -146l-146 -145zM-20 0v180h163q177 0 327.5 53.5t399.5 182.5l78 41q-12 4 -29.5 11.5t-60.5 25.5t-95 39q-118 48 -177 68.5t-91 20.5q-55 0 -108.5 -32t-92.5 -82l-27 -35l-151 75l15 26q65 105 159.5 165.5t205.5 60.5q104 0 303 -96
q157 -76 259 -111t188 -39l-2 -170q-59 -7 -142.5 -42t-240.5 -118q-216 -114 -376 -169t-345 -55h-160z" />
    <glyph glyph-name="uniFEA8" unicode="&#x62e;" horiz-adv-x="1351" arabic-form="medial" 
d="M0 0zM429 1132l145 145l147 -146l-146 -145zM1244 384q-98 -11 -202 -61q3 -75 69.5 -109t205.5 -34h54v-180h-58q-187 0 -285.5 60.5t-114.5 192.5q-224 -122 -406 -187.5t-367 -65.5h-160v180h163q177 0 327.5 53.5t399.5 182.5l78 41q-12 4 -29.5 11.5t-60.5 25.5
t-95 39q-118 48 -177 68.5t-91 20.5q-55 0 -108.5 -32t-92.5 -82l-27 -35l-151 75l15 26q65 105 159.5 165.5t205.5 60.5q104 0 303 -96q157 -76 259 -111t188 -39z" />
    <glyph glyph-name="uniFEA9" unicode="&#x62f;" horiz-adv-x="963" arabic-form="isolated" 
d="M98 2zM98 207q128 -26 219 -26q372 0 372 183q0 190 -414 451l98 148q492 -294 492 -596q0 -365 -535 -365q-120 0 -232 24v181z" />
    <glyph glyph-name="uniFEAA" unicode="&#x62f;" horiz-adv-x="1055" arabic-form="final" 
d="M98 209q116 -28 209 -28q347 0 347 166q0 46 -91 260l-120 282l161 74l208 -531q56 -143 106.5 -197.5t114.5 -54.5h42v-180h-42q-165 0 -262 162q-136 -161 -449 -161q-122 0 -224 25v183z" />
    <glyph glyph-name="uniFEAB" unicode="&#x630;" horiz-adv-x="963" arabic-form="isolated" 
d="M98 2zM98 2zM202 1280l145 145l147 -146l-146 -145zM98 207q128 -26 219 -26q372 0 372 183q0 190 -414 451l98 148q492 -294 492 -596q0 -365 -535 -365q-120 0 -232 24v181z" />
    <glyph glyph-name="uniFEAC" unicode="&#x630;" horiz-adv-x="1055" arabic-form="final" 
d="M98 0zM351 1274l145 145l147 -146l-146 -145zM98 209q116 -28 209 -28q347 0 347 166q0 46 -91 260l-120 282l161 74l208 -531q56 -143 106.5 -197.5t114.5 -54.5h42v-180h-42q-165 0 -262 162q-136 -161 -449 -161q-122 0 -224 25v183z" />
    <glyph glyph-name="uniFEAD" unicode="&#x631;" horiz-adv-x="780" arabic-form="isolated" 
d="M0 0zM600 527q82 -203 82 -392q0 -543 -632 -663l-60 154q522 99 525 504q0 158 -77 339z" />
    <glyph glyph-name="uniFEAE" unicode="&#x631;" horiz-adv-x="860" arabic-form="final" 
d="M515 130q0 71 -20 161t-57 178l162 58l61 -192q17 -52 41 -86t58.5 -51.5t80.5 -17.5h39v-180h-28q-74 0 -113 13.5t-62 42.5q-17 -231 -175.5 -380t-451.5 -204l-60 154q522 100 525 504z" />
    <glyph glyph-name="uniFEAF" unicode="&#x632;" horiz-adv-x="780" arabic-form="isolated" 
d="M0 0zM0 0zM314 892l145 145l147 -146l-146 -145zM600 527q82 -203 82 -392q0 -543 -632 -663l-60 154q522 99 525 504q0 158 -77 339z" />
    <glyph glyph-name="uniFEB0" unicode="&#x632;" horiz-adv-x="860" arabic-form="final" 
d="M0 0zM315 890l145 145l147 -146l-146 -145zM516 130q0 71 -20 161t-57 178l162 58l61 -192q17 -52 41 -86t58.5 -51.5t80.5 -17.5h39v-180h-28q-74 0 -113 13.5t-62 42.5q-17 -231 -175.5 -380t-451.5 -204l-60 154q522 100 525 504z" />
    <glyph glyph-name="uniFEB1" unicode="&#x633;" horiz-adv-x="2456" arabic-form="isolated" 
d="M98 0zM1531 0q-115 0 -189 58q-4 -281 -167 -429.5t-454 -148.5q-623 0 -623 576q0 210 90 429l155 -63q-73 -193 -73 -361q0 -408 458 -408q448 0 449 447q0 181 -90 369l169 58l59 -183q52 -163 218 -164q97 0 141 52.5t44 156.5q0 48 -10 178l165 20l16 -226
q6 -82 45 -131.5t113 -49.5q139 0 139 222q0 107 -44 264l168 45q48 -153 48 -294q0 -89 -17 -162t-52.5 -131.5t-96.5 -91t-144 -32.5q-171 0 -242 143q-103 -143 -275 -143z" />
    <glyph glyph-name="uniFEB2" unicode="&#x633;" horiz-adv-x="2553" arabic-form="final" 
d="M1531 0q-115 0 -189 58q-4 -281 -167 -429.5t-454 -148.5q-623 0 -623 576q0 210 90 429l155 -63q-73 -193 -73 -361q0 -408 458 -408q448 0 449 447q0 181 -90 369l169 58l59 -183q27 -83 79.5 -123t138.5 -41q97 0 141 52.5t44 156.5q0 48 -10 178l165 20l16 -226
q6 -82 45.5 -131.5t113.5 -49.5q139 0 139 207q0 67 -10 201l165 20l16 -247q12 -181 185 -181h30v-180h-28q-207 0 -259 143q-38 -74 -95 -108.5t-142 -34.5q-172 0 -243 143q-103 -143 -275 -143z" />
    <glyph glyph-name="uniFEB3" unicode="&#x633;" horiz-adv-x="1562" arabic-form="initial" 
d="M1153 180q139 0 139 222q0 105 -44 264l168 45q48 -153 48 -294q0 -71 -10 -131.5t-33.5 -113.5t-58.5 -90.5t-88 -59.5t-120 -22q-172 0 -243 143q-104 -143 -275 -143q-199 0 -264 143q-83 -143 -323 -143h-69v180h71q126 0 184 47t58 162q0 57 -10 178l165 20l16 -226
q6 -83 50 -132t124 -49q97 0 141 52.5t44 156.5q0 54 -10 178l165 20l16 -226q6 -82 45.5 -131.5t113.5 -49.5z" />
    <glyph glyph-name="uniFEB4" unicode="&#x633;" horiz-adv-x="1658" arabic-form="medial" 
d="M372 143q-85 -143 -323 -143h-69v180h71q126 0 184 47t58 162q0 51 -10 178l165 20l16 -226q6 -83 50 -132t124 -49q97 0 141 52.5t44 156.5q0 48 -10 178l165 20l16 -226q6 -82 45.5 -131.5t113.5 -49.5q139 0 139 207q0 67 -10 201l165 20l16 -247q12 -181 185 -181h30
v-180h-28q-207 0 -259 143q-38 -74 -95 -108.5t-142 -34.5q-172 0 -243 143q-103 -143 -275 -143q-200 1 -264 143z" />
    <glyph glyph-name="uniFEB5" unicode="&#x634;" horiz-adv-x="2456" arabic-form="isolated" 
d="M98 0zM98 0zM1612 1184l132 132l133 -132l-133 -133zM1784 922l132 132l133 -132l-133 -133zM1444 922l132 132l133 -132l-133 -133zM1531 0q-115 0 -189 58q-4 -281 -167 -429.5t-454 -148.5q-623 0 -623 576q0 210 90 429l155 -63q-73 -193 -73 -361q0 -408 458 -408
q448 0 449 447q0 181 -90 369l169 58l59 -183q52 -163 218 -164q97 0 141 52.5t44 156.5q0 48 -10 178l165 20l16 -226q6 -82 45 -131.5t113 -49.5q139 0 139 222q0 107 -44 264l168 45q48 -153 48 -294q0 -89 -17 -162t-52.5 -131.5t-96.5 -91t-144 -32.5q-171 0 -242 143
q-103 -143 -275 -143z" />
    <glyph glyph-name="uniFEB6" unicode="&#x634;" horiz-adv-x="2553" arabic-form="final" 
d="M98 0zM1612 1184l132 132l133 -132l-133 -133zM1784 922l132 132l133 -132l-133 -133zM1444 922l132 132l133 -132l-133 -133zM1531 0q-115 0 -189 58q-4 -281 -167 -429.5t-454 -148.5q-623 0 -623 576q0 210 90 429l155 -63q-73 -193 -73 -361q0 -408 458 -408
q448 0 449 447q0 181 -90 369l169 58l59 -183q27 -83 79.5 -123t138.5 -41q97 0 141 52.5t44 156.5q0 48 -10 178l165 20l16 -226q6 -82 45.5 -131.5t113.5 -49.5q139 0 139 207q0 67 -10 201l165 20l16 -247q12 -181 185 -181h30v-180h-28q-207 0 -259 143
q-38 -74 -95 -108.5t-142 -34.5q-172 0 -243 143q-103 -143 -275 -143z" />
    <glyph glyph-name="uniFEB7" unicode="&#x634;" horiz-adv-x="1562" arabic-form="initial" 
d="M0 0zM718 1184l132 132l133 -132l-133 -133zM890 922l132 132l133 -132l-133 -133zM550 922l132 132l133 -132l-133 -133zM1153 180q139 0 139 222q0 105 -44 264l168 45q48 -153 48 -294q0 -71 -10 -131.5t-33.5 -113.5t-58.5 -90.5t-88 -59.5t-120 -22q-172 0 -243 143
q-104 -143 -275 -143q-199 0 -264 143q-83 -143 -323 -143h-69v180h71q126 0 184 47t58 162q0 57 -10 178l165 20l16 -226q6 -83 50 -132t124 -49q97 0 141 52.5t44 156.5q0 54 -10 178l165 20l16 -226q6 -82 45.5 -131.5t113.5 -49.5z" />
    <glyph glyph-name="uniFEB8" unicode="&#x634;" horiz-adv-x="1658" arabic-form="medial" 
d="M0 0zM718 1184l132 132l133 -132l-133 -133zM890 922l132 132l133 -132l-133 -133zM550 922l132 132l133 -132l-133 -133zM372 143q-85 -143 -323 -143h-69v180h71q126 0 184 47t58 162q0 51 -10 178l165 20l16 -226q6 -83 50 -132t124 -49q97 0 141 52.5t44 156.5
q0 48 -10 178l165 20l16 -226q6 -82 45.5 -131.5t113.5 -49.5q139 0 139 207q0 67 -10 201l165 20l16 -247q12 -181 185 -181h30v-180h-28q-207 0 -259 143q-38 -74 -95 -108.5t-142 -34.5q-172 0 -243 143q-103 -143 -275 -143q-200 1 -264 143z" />
    <glyph glyph-name="uniFEB9" unicode="&#x635;" horiz-adv-x="2575" arabic-form="isolated" 
d="M98 0zM1753 181q546 0 546 232q0 83 -54.5 137.5t-140.5 54.5q-226 0 -499 -425zM1177 100q0 181 -90 369l169 58l59 -183q42 -128 104 -135q340 578 679 578q163 0 271 -105t108 -260q-2 -422 -720 -422h-51q-245 0 -364 57q-4 -284 -168.5 -430.5t-452.5 -146.5
q-623 0 -623 576q0 210 90 429l155 -63q-73 -193 -73 -361q0 -408 458 -408q448 0 449 447z" />
    <glyph glyph-name="uniFEBA" unicode="&#x635;" horiz-adv-x="2610" arabic-form="final" 
d="M1753 181q546 0 546 232q0 83 -54.5 137.5t-140.5 54.5q-226 0 -499 -425zM1177 100q0 181 -90 369l169 58l59 -183q40 -128 104 -135q342 578 677 578q168 0 274.5 -103.5t106.5 -261.5q0 -117 -81 -226q57 -16 204 -16h30v-180h-29q-228 0 -342 93q-168 -93 -502 -93
h-51q-245 0 -364 57q-4 -284 -168.5 -430.5t-452.5 -146.5q-623 0 -623 576q0 210 90 429l155 -63q-73 -193 -73 -361q0 -408 458 -408q448 0 449 447z" />
    <glyph glyph-name="uniFEBB" unicode="&#x635;" horiz-adv-x="1654" arabic-form="initial" 
d="M832 181q546 0 546 232q0 83 -54.5 137.5t-140.5 54.5q-226 0 -499 -425zM498 209q343 578 677 578q168 0 274.5 -103.5t106.5 -261.5q-2 -422 -720 -422h-51q-188 0 -299.5 35t-157.5 108q-56 -76 -125 -109.5t-183 -33.5h-40l1 180h39q128 0 175.5 48t47.5 160
q0 37 -8 200l164 20l18 -247q10 -133 81 -152z" />
    <glyph glyph-name="uniFEBC" unicode="&#x635;" horiz-adv-x="1689" arabic-form="medial" 
d="M832 181q546 0 546 232q0 83 -54.5 137.5t-140.5 54.5q-226 0 -499 -425zM498 209q344 578 678 578q168 0 274 -103.5t106 -263.5q0 -112 -81 -224q39 -16 204 -16h30v-180h-30q-227 0 -341 93q-168 -93 -502 -93h-51q-365 0 -457 143q-56 -76 -125 -109.5t-183 -33.5
h-40v180h39q129 0 176.5 48t47.5 159q0 38 -8 201l164 20l18 -247q10 -133 81 -152z" />
    <glyph glyph-name="uniFEBD" unicode="&#x636;" horiz-adv-x="2575" arabic-form="isolated" 
d="M98 0zM98 0zM1913 1144l145 145l147 -146l-146 -145zM1753 181q546 0 546 232q0 83 -54.5 137.5t-140.5 54.5q-226 0 -499 -425zM1177 100q0 181 -90 369l169 58l59 -183q42 -128 104 -135q340 578 679 578q163 0 271 -105t108 -260q-2 -422 -720 -422h-51
q-245 0 -364 57q-4 -284 -168.5 -430.5t-452.5 -146.5q-623 0 -623 576q0 210 90 429l155 -63q-73 -193 -73 -361q0 -408 458 -408q448 0 449 447z" />
    <glyph glyph-name="uniFEBE" unicode="&#x636;" horiz-adv-x="2610" arabic-form="final" 
d="M98 0zM1913 1144l145 145l147 -146l-146 -145zM1753 181q546 0 546 232q0 83 -54.5 137.5t-140.5 54.5q-226 0 -499 -425zM1177 100q0 181 -90 369l169 58l59 -183q40 -128 104 -135q342 578 677 578q168 0 274.5 -103.5t106.5 -261.5q0 -117 -81 -226q57 -16 204 -16h30
v-180h-29q-228 0 -342 93q-168 -93 -502 -93h-51q-245 0 -364 57q-4 -284 -168.5 -430.5t-452.5 -146.5q-623 0 -623 576q0 210 90 429l155 -63q-73 -193 -73 -361q0 -408 458 -408q448 0 449 447z" />
    <glyph glyph-name="uniFEBF" unicode="&#x636;" horiz-adv-x="1654" arabic-form="initial" 
d="M0 0zM992 1144l145 145l147 -146l-146 -145zM832 181q546 0 546 232q0 83 -54.5 137.5t-140.5 54.5q-226 0 -499 -425zM498 209q343 578 677 578q168 0 274.5 -103.5t106.5 -261.5q-2 -422 -720 -422h-51q-188 0 -299.5 35t-157.5 108q-56 -76 -125 -109.5t-183 -33.5
h-40l1 180h39q128 0 175.5 48t47.5 160q0 37 -8 200l164 20l18 -247q10 -133 81 -152z" />
    <glyph glyph-name="uniFEC0" unicode="&#x636;" horiz-adv-x="1689" arabic-form="medial" 
d="M0 0zM992 1144l145 145l147 -146l-146 -145zM832 181q546 0 546 232q0 83 -54.5 137.5t-140.5 54.5q-226 0 -499 -425zM498 209q344 578 678 578q168 0 274 -103.5t106 -263.5q0 -112 -81 -224q39 -16 204 -16h30v-180h-30q-227 0 -341 93q-168 -93 -502 -93h-51
q-365 0 -457 143q-56 -76 -125 -109.5t-183 -33.5h-40v180h39q129 0 176.5 48t47.5 159q0 38 -8 201l164 20l18 -247q10 -133 81 -152z" />
    <glyph glyph-name="uniFEC1" unicode="&#x637;" horiz-adv-x="1471" arabic-form="isolated" 
d="M98 0zM649 182q546 0 546 232q0 83 -54.5 137.5t-140.5 54.5q-226 0 -499 -425zM320 180q10 16 73 116v1070h169v-830q204 251 429 251q169 0 275.5 -103t106.5 -262q-3 -422 -720 -422h-555v180h222z" />
    <glyph glyph-name="uniFEC2" unicode="&#x637;" horiz-adv-x="1510" arabic-form="final" 
d="M649 182q546 0 546 232q0 83 -54 137.5t-140 54.5q-227 0 -500 -425zM1292 195q20 -15 208 -15h30v-180h-29q-226 0 -340 92q-80 -42 -214.5 -67t-293.5 -25h-555v180h222q11 18 36 57t37 59v1070h169v-830q202 251 430 251q167 0 273.5 -103.5t106.5 -261.5
q0 -110 -80 -227z" />
    <glyph glyph-name="uniFEC3" unicode="&#x637;" horiz-adv-x="1293" arabic-form="initial" 
d="M471 182q546 0 546 232q0 83 -54.5 137.5t-140.5 54.5q-226 0 -499 -425zM384 536q205 251 435 251q164 0 270 -104t106 -261q0 -422 -719 -422h-496v180h160q11 17 36.5 56t38.5 59v1071h169v-830z" />
    <glyph glyph-name="uniFEC4" unicode="&#x637;" horiz-adv-x="1332" arabic-form="medial" 
d="M471 182q546 0 546 232q0 83 -54.5 137.5t-140.5 54.5q-226 0 -499 -425zM1114 195q20 -15 208 -15h30v-180h-31q-223 0 -338 93q-81 -42 -215 -67.5t-292 -25.5h-496v180h162q10 16 73 116v1070h169v-830q207 251 432 251q165 0 272 -104t107 -261q0 -109 -81 -227z" />
    <glyph glyph-name="uniFEC5" unicode="&#x638;" horiz-adv-x="1471" arabic-form="isolated" 
d="M98 0zM98 0zM825 1144l145 145l147 -146l-146 -145zM649 182q546 0 546 232q0 83 -54.5 137.5t-140.5 54.5q-226 0 -499 -425zM320 180q10 16 73 116v1070h169v-830q204 251 429 251q169 0 275.5 -103t106.5 -262q-3 -422 -720 -422h-555v180h222z" />
    <glyph glyph-name="uniFEC6" unicode="&#x638;" horiz-adv-x="1510" arabic-form="final" 
d="M98 0zM824 1144l145 145l147 -146l-146 -145zM649 182q546 0 546 232q0 83 -54 137.5t-140 54.5q-227 0 -500 -425zM1292 195q20 -15 208 -15h30v-180h-29q-226 0 -340 92q-80 -42 -214.5 -67t-293.5 -25h-555v180h222q11 18 36 57t37 59v1070h169v-830q202 251 430 251
q167 0 273.5 -103.5t106.5 -261.5q0 -110 -80 -227z" />
    <glyph glyph-name="uniFEC7" unicode="&#x638;" horiz-adv-x="1293" arabic-form="initial" 
d="M0 0zM649 1144l145 145l147 -146l-146 -145zM471 182q546 0 546 232q0 83 -54.5 137.5t-140.5 54.5q-226 0 -499 -425zM384 536q205 251 435 251q164 0 270 -104t106 -261q0 -422 -719 -422h-496v180h160q11 17 36.5 56t38.5 59v1071h169v-830z" />
    <glyph glyph-name="uniFEC8" unicode="&#x638;" horiz-adv-x="1332" arabic-form="medial" 
d="M0 0zM649 1144l145 145l147 -146l-146 -145zM471 182q546 0 546 232q0 83 -54.5 137.5t-140.5 54.5q-226 0 -499 -425zM1114 195q20 -15 208 -15h30v-180h-31q-223 0 -338 93q-81 -42 -215 -67.5t-292 -25.5h-496v180h162q10 16 73 116v1070h169v-830q207 251 432 251
q165 0 272 -104t107 -261q0 -109 -81 -227z" />
    <glyph glyph-name="uniFEC9" unicode="&#x639;" horiz-adv-x="1306" arabic-form="isolated" 
d="M98 0zM968 783q-150 88 -253 88q-91 0 -155.5 -55.5t-64.5 -145.5q0 -20 2.5 -37.5t9.5 -35.5t12 -29.5t18 -30.5t19 -27t24.5 -30.5t24.5 -30.5q181 32 307 32q83 0 181 -10l-23 -171q-44 2 -99 2q-353 0 -530 -119t-177 -340q0 -164 129.5 -254.5t372.5 -90.5
q204 0 407 94l35 -170q-195 -96 -453 -96q-111 0 -209 19.5t-180.5 61t-142 101t-92.5 143.5t-33 185q0 179 84.5 326t254.5 223q-115 134 -115 298q0 145 115.5 255.5t267.5 110.5q153 0 329 -120z" />
    <glyph glyph-name="uniFECA" unicode="&#x639;" horiz-adv-x="1199" arabic-form="final" 
d="M265 -198q0 -135 113 -214.5t316 -79.5q166 0 340 72l35 -170q-162 -73 -380 -73q-266 0 -428.5 120.5t-162.5 344.5q0 295 348 515q-278 163 -278 312q0 55 40.5 98t107.5 68t143.5 38t156.5 13q83 0 157 -11t139 -34.5t103.5 -66.5t38.5 -101q0 -137 -305 -328
q96 -64 191 -94.5t219 -30.5h60v-180h-60q-141 0 -272.5 51t-284.5 158q-337 -189 -337 -407zM604 417q275 151 275 201q0 54 -264 54t-264 -65q0 -53 253 -190z" />
    <glyph glyph-name="uniFECB" unicode="&#x639;" horiz-adv-x="1057" arabic-form="initial" 
d="M959 147q-472 -147 -874 -147h-105v180h297q-52 65 -79 124.5t-27 141.5q0 178 114 300.5t300 122.5q208 0 343 -137l-66 -147q-125 101 -245 102q-119 0 -197.5 -71.5t-78.5 -175.5q0 -19 5.5 -42t20 -55.5t47.5 -64t80 -52.5q21 -11 37 -7l428 108v-180z" />
    <glyph glyph-name="uniFECC" unicode="&#x639;" horiz-adv-x="1141" arabic-form="medial" 
d="M0 0zM743 230q86 -50 302 -50h46v-180h-46q-258 0 -438 123q-177 -123 -520 -123h-107v180h110q299 0 369 50q-146 87 -219 165t-73 164q0 56 39 99.5t104 68.5t140 37t157 12q77 0 150.5 -12.5t138.5 -37t104.5 -68t39.5 -99.5q0 -72 -78 -158t-219 -171zM604 330
q96 53 177 111.5t81 94.5q0 66 -258 66q-259 0 -259 -66q0 -38 82 -98t177 -108zM1069.38 0v180h91.5479v-180h-91.5479z" />
    <glyph glyph-name="uniFECD" unicode="&#x63a;" horiz-adv-x="1306" arabic-form="isolated" 
d="M98 0zM98 0zM535 1362l145 145l147 -146l-146 -145zM968 783q-150 88 -253 88q-91 0 -155.5 -55.5t-64.5 -145.5q0 -20 2.5 -37.5t9.5 -35.5t12 -29.5t18 -30.5t19 -27t24.5 -30.5t24.5 -30.5q181 32 307 32q83 0 181 -10l-23 -171q-44 2 -99 2q-353 0 -530 -119
t-177 -340q0 -164 129.5 -254.5t372.5 -90.5q204 0 407 94l35 -170q-195 -96 -453 -96q-111 0 -209 19.5t-180.5 61t-142 101t-92.5 143.5t-33 185q0 179 84.5 326t254.5 223q-115 134 -115 298q0 145 115.5 255.5t267.5 110.5q153 0 329 -120z" />
    <glyph glyph-name="uniFECE" unicode="&#x63a;" horiz-adv-x="1199" arabic-form="final" 
d="M98 0zM457 1171l145 145l147 -146l-146 -145zM265 -198q0 -135 113 -214.5t316 -79.5q166 0 340 72l35 -170q-162 -73 -380 -73q-266 0 -428.5 120.5t-162.5 344.5q0 295 348 515q-278 163 -278 312q0 55 40.5 98t107.5 68t143.5 38t156.5 13q83 0 157 -11t139 -34.5
t103.5 -66.5t38.5 -101q0 -137 -305 -328q96 -64 191 -94.5t219 -30.5h60v-180h-60q-141 0 -272.5 51t-284.5 158q-337 -189 -337 -407zM604 417q275 151 275 201q0 54 -264 54t-264 -65q0 -53 253 -190z" />
    <glyph glyph-name="uniFECF" unicode="&#x63a;" horiz-adv-x="1063" arabic-form="initial" 
d="M0 0zM420 1216l145 145l147 -146l-146 -145zM959 147q-472 -147 -874 -147h-105v180h297q-52 65 -79 124.5t-27 141.5q0 178 114 300.5t300 122.5q208 0 343 -137l-66 -147q-125 101 -245 102q-119 0 -197.5 -71.5t-78.5 -175.5q0 -19 5.5 -42t20 -55.5t47.5 -64
t80 -52.5q21 -11 37 -7l428 108v-180z" />
    <glyph glyph-name="uniFED0" unicode="&#x63a;" horiz-adv-x="1141" arabic-form="medial" 
d="M0 0zM454 1129l145 145l147 -146l-146 -145zM0 0zM743 230q86 -50 302 -50h46v-180h-46q-258 0 -438 123q-177 -123 -520 -123h-107v180h110q299 0 369 50q-146 87 -219 165t-73 164q0 56 39 99.5t104 68.5t140 37t157 12q77 0 150.5 -12.5t138.5 -37t104.5 -68
t39.5 -99.5q0 -72 -78 -158t-219 -171zM604 330q96 53 177 111.5t81 94.5q0 66 -258 66q-259 0 -259 -66q0 -38 82 -98t177 -108zM1069.38 0v180h91.5479v-180h-91.5479z" />
    <glyph glyph-name="uniFED1" unicode="&#x641;" horiz-adv-x="1781" arabic-form="isolated" 
d="M98 0zM98 0zM1157 1344l145 145l147 -146l-146 -145zM1529 390q-93 -29 -201 -29q-326 0 -326 277q0 105 38.5 196t114.5 149t173 58q91 0 161 -48.5t111.5 -132t62 -184.5t20.5 -215q-1 -96 -14 -167t-43 -122.5t-72 -84.5t-107 -52.5t-140.5 -27t-179.5 -7.5h-290
q-366 0 -552.5 121.5t-186.5 362.5q0 129 54 254l153 -57q-32 -85 -32 -172q0 -163 144 -246t416 -83h315q79 0 136 5.5t105.5 19t78 37t45.5 60.5t16 88zM1514 558q-6 44 -14.5 83.5t-24 81.5t-35.5 72.5t-50.5 50t-67.5 19.5q-64 0 -112 -60.5t-48 -147.5q0 -126 177 -126
q81 0 175 27z" />
    <glyph glyph-name="uniFED2" unicode="&#x641;" horiz-adv-x="1962" arabic-form="final" 
d="M98 0zM1347 1167l145 145l147 -146l-146 -145zM1501 681q-47 0 -109.5 -70t-62.5 -121q0 -50 66.5 -135t110.5 -85q48 0 113.5 87t65.5 141q0 47 -62 115t-122 68zM960 180q190 0 258 3t101 11q-82 82 -120 151t-38 151q0 52 28.5 114.5t74 117t110 91.5t129.5 37
q91 0 174 -56.5t130 -136.5t47 -152q0 -89 -37 -157t-123 -160q42 -14 194 -14h94v-180h-92q-128 0 -219.5 26.5t-167.5 82.5q-161 -109 -538 -109h-125q-362 0 -552 122t-190 362q0 131 54 254l153 -57q-32 -86 -32 -172q2 -329 557 -329h130z" />
    <glyph glyph-name="uniFED3" unicode="&#x641;" horiz-adv-x="918" arabic-form="initial" 
d="M0 0zM289 1344l145 145l147 -146l-146 -145zM667 391q-95 -29 -201 -29q-324 0 -327 269q0 173 89 292t238 119q73 0 133 -32t100.5 -86.5t68 -129t40 -158t12.5 -174.5q0 -115 -20.5 -195t-60 -132.5t-108.5 -82t-155 -41t-211 -11.5h-285v180h296q100 0 167.5 9
t120 31.5t77.5 64.5t26 106zM651 559q-7 57 -19.5 106t-34 97t-57 76t-81.5 28q-65 0 -112 -60.5t-47 -147.5q0 -126 179 -126q81 0 172 27z" />
    <glyph glyph-name="uniFED4" unicode="&#x641;" horiz-adv-x="972" arabic-form="medial" 
d="M0 0zM352 1167l145 145l147 -146l-146 -145zM511 681q-47 0 -109.5 -70t-62.5 -121q0 -50 66.5 -135t110.5 -85q48 0 113.5 87t65.5 141q0 46 -62.5 114.5t-121.5 68.5zM704 194q37 -14 194 -14h94v-180h-92q-239 0 -387 109q-148 -109 -399 -109h-134v180h134
q183 0 214 15q-82 82 -119.5 150.5t-37.5 150.5q0 70 46.5 153.5t127.5 145t167 61.5q69 0 135.5 -34t113 -85t75 -112t28.5 -114q0 -159 -160 -317z" />
    <glyph glyph-name="uniFED5" unicode="&#x642;" horiz-adv-x="1437" arabic-form="isolated" 
d="M98 0zM98 0zM983 1060l140 140l141 -140l-141 -142zM651 1060l140 140l141 -140l-141 -142zM1163 276q-7 57 -19.5 106t-34 97.5t-57 76.5t-81.5 28q-64 0 -112 -61t-48 -147q0 -127 176 -127q84 0 176 27zM343 482q-73 -193 -73 -361q0 -408 455 -408q243 0 347.5 99.5
t107.5 296.5q-103 -30 -209 -30q-320 0 -320 270q0 104 38 196t114 153t175 61q78 0 140.5 -34t103 -91t67.5 -135.5t38.5 -163t11.5 -179.5q0 -314 -149 -465t-469 -151q-314 0 -468.5 143.5t-154.5 432.5q0 210 90 429z" />
    <glyph glyph-name="uniFED6" unicode="&#x642;" horiz-adv-x="1530" arabic-form="final" 
d="M98 0zM1449.87 0v180h99.9844v-180h-99.9844zM979 1011l140 140l141 -140l-141 -142zM647 1011l140 140l141 -140l-141 -142zM343 422q-73 -193 -73 -361q0 -408 458 -408q227 0 328 84t118 264h-151q-364 0 -364 296q0 175 95 299.5t239 124.5q301 0 347 -541h130v-180
h-132q-30 -266 -173.5 -393t-443.5 -127q-314 0 -468.5 143.5t-154.5 432.5q0 210 90 429zM1176 181q-23 355 -197 355q-66 0 -110.5 -67.5t-44.5 -156.5q0 -131 189 -131h163z" />
    <glyph glyph-name="uniFED7" unicode="&#x642;" horiz-adv-x="918" arabic-form="initial" 
d="M0 0zM452 1341l140 140l141 -140l-141 -142zM120 1341l140 140l141 -140l-141 -142zM667 391q-95 -29 -201 -29q-324 0 -327 269q0 173 89 292t238 119q73 0 133 -32t100.5 -86.5t68 -129t40 -158t12.5 -174.5q0 -115 -20.5 -195t-60 -132.5t-108.5 -82t-155 -41
t-211 -11.5h-285v180h296q100 0 167.5 9t120 31.5t77.5 64.5t26 106zM651 559q-7 57 -19.5 106t-34 97t-57 76t-81.5 28q-65 0 -112 -60.5t-47 -147.5q0 -126 179 -126q81 0 172 27z" />
    <glyph glyph-name="uniFED8" unicode="&#x642;" horiz-adv-x="972" arabic-form="medial" 
d="M0 0zM527 1159l140 140l141 -140l-141 -142zM195 1159l140 140l141 -140l-141 -142zM511 681q-47 0 -109.5 -70t-62.5 -121q0 -50 66.5 -135t110.5 -85q48 0 113.5 87t65.5 141q0 46 -62.5 114.5t-121.5 68.5zM704 194q37 -14 194 -14h94v-180h-92q-239 0 -387 109
q-148 -109 -399 -109h-134v180h134q183 0 214 15q-82 82 -119.5 150.5t-37.5 150.5q0 70 46.5 153.5t127.5 145t167 61.5q69 0 135.5 -34t113 -85t75 -112t28.5 -114q0 -159 -160 -317z" />
    <glyph glyph-name="uniFED9" unicode="&#x643;" horiz-adv-x="1831" arabic-form="isolated" 
d="M98 0zM708 588q97 -11 131 -11q33 0 49.5 0.5t42.5 2.5t39 7.5t28 14t21 23.5t6 35q0 43 -23 55.5t-80 12.5q-74 0 -121.5 43.5t-47.5 137.5q0 86 55.5 139t163.5 53q25 0 52.5 -3t57.5 -8v-95q-60 8 -105 8q-35 0 -61.5 -6.5t-42 -18t-23.5 -27t-8 -33.5q0 -42 22.5 -64
t75.5 -22q95 -1 134 -39.5t39 -128.5q0 -104 -62.5 -144.5t-204.5 -40.5q-39 0 -138 15v94zM978 180q141 0 237.5 12t155.5 33.5t90.5 59.5t42 79.5t10.5 105.5v896h169v-894q0 -100 -17 -170.5t-62 -131t-123 -96t-201 -55t-295 -19.5h-145q-362 0 -552 122t-190 362
q0 129 54 254l153 -57q-32 -85 -32 -172q1 -329 557 -329h148z" />
    <glyph glyph-name="uniFEDA" unicode="&#x643;" horiz-adv-x="1891" arabic-form="final" 
d="M708 588q97 -11 131 -11q33 0 49.5 0.5t42.5 2.5t39 7.5t28 14t21 23.5t6 35q0 43 -23 55.5t-80 12.5q-74 0 -121.5 43.5t-47.5 137.5q0 86 55.5 139t163.5 53q25 0 52.5 -3t57.5 -8v-95q-60 8 -105 8q-35 0 -61.5 -6.5t-42 -18t-23.5 -27t-8 -33.5q0 -42 22.5 -64
t75.5 -22q95 -1 134 -39.5t39 -128.5q0 -104 -62.5 -144.5t-204.5 -40.5q-39 0 -138 15v94zM978 180q141 0 237.5 12t155.5 33.5t90.5 59.5t42 79.5t10.5 105.5v896h169v-894q0 -64 3.5 -105.5t15 -80.5t32.5 -60t56 -33.5t86 -12.5h35v-180h-33q-135 0 -200.5 42.5
t-94.5 137.5q-98 -107 -220 -143.5t-378 -36.5h-145q-362 0 -552 122t-190 362q0 129 54 254l153 -57q-32 -85 -32 -172q1 -329 557 -329h148z" />
    <glyph glyph-name="uniFEDB" unicode="&#x643;" horiz-adv-x="950" arabic-form="initial" 
d="M215 988q17 -14 55 -46.5t54 -46t48.5 -40.5t48 -41t41.5 -36.5t41.5 -36.5t34.5 -32t34 -33t28 -29q126 -136 126 -291q0 -182 -134 -269t-426 -87h-186v180h185q203 0 294.5 47.5t91.5 145.5q0 48 -25.5 91.5t-79.5 94.5q-90 84 -273 228q-113 88 -113 185
q0 128 139 181l690 256v-171z" />
    <glyph glyph-name="uniFEDC" unicode="&#x643;" horiz-adv-x="1027" arabic-form="medial" 
d="M669 179q-60 -92 -178 -135.5t-325 -43.5h-186v180h185q203 0 294.5 47.5t91.5 145.5q0 48 -25.5 91.5t-79.5 94.5q-90 84 -273 228q-113 88 -113 185q0 128 139 181l690 256v-171l-674 -250q17 -14 55 -46.5t54 -46t48.5 -40.5t48 -41t41.5 -36.5t41.5 -36.5t34.5 -32
t34 -33t28 -29q84 -90 128 -215q89 -252 290 -252h29v-180h-29q-214 0 -349 179z" />
    <glyph glyph-name="uniFEDD" unicode="&#x644;" horiz-adv-x="1377" arabic-form="isolated" 
d="M98 0zM335 358q-66 -168 -66 -322q0 -383 406 -383q383 0 383 415l3 1298h168l-1 -1259q0 -627 -554 -627q-576 0 -576 557q0 186 82 384z" />
    <glyph glyph-name="uniFEDE" unicode="&#x644;" horiz-adv-x="1439" arabic-form="final" 
d="M335 358q-66 -168 -66 -322q0 -383 406 -383q384 0 384 415l2 1296v2h168l-1 -973q0 -111 44.5 -162t155.5 -51h31v-180h-29q-75 0 -116.5 18t-85.5 60q-8 -598 -554 -598q-576 0 -576 555q0 188 82 386z" />
    <glyph glyph-name="uniFEDF" unicode="&#x644;" horiz-adv-x="608" arabic-form="initial" 
d="M-20 0v180h81q129 0 179.5 53.5t50.5 169.5v963h169v-962q0 -205 -92 -304.5t-308 -99.5h-80z" />
    <glyph glyph-name="uniFEE0" unicode="&#x644;" horiz-adv-x="670" arabic-form="medial" 
d="M368 143q-52 -73 -127 -108t-198 -35h-63v180h65q131 0 188 51t58 158v977h169v-977q0 -107 46 -158t152 -51h32v-180h-30q-105 0 -171.5 34.5t-120.5 108.5z" />
    <glyph glyph-name="uniFEE1" unicode="&#x645;" horiz-adv-x="1230" arabic-form="isolated" 
d="M101 0zM560 296q182 -141 283 -141q122 1 122 140q0 95 -50 158t-134 63q-142 0 -221 -220zM112 -655q-11 184 -11 322q0 94 4 167t15 147.5t31.5 129.5t51 101.5t76.5 75.5t106 41q146 370 395 372q157 0 254.5 -114t97.5 -280q0 -150 -73.5 -240t-215.5 -90
q-101 0 -244 82q-37 23 -103 57q-43 22 -77 22q-77 -1 -111 -108.5t-34 -334.5q0 -184 14 -350h-176z" />
    <glyph glyph-name="uniFEE2" unicode="&#x645;" horiz-adv-x="1296" arabic-form="final" 
d="M112 -655q-11 184 -11 322q0 94 4 167t15 147.5t31.5 129.5t51 101.5t76.5 75.5t106 41q148 372 395 372q144 0 229 -89t116 -242q41 -190 163 -190h28v-180h-28q-134 0 -204 104q-39 -67 -95 -97t-143 -30q-112 0 -248 82q-37 23 -103 57q-43 22 -76 22
q-77 -1 -111 -108.5t-34 -334.5q0 -184 14 -350h-176zM559 296q182 -141 283 -141q122 1 122 140q0 95 -50 158t-134 63q-142 0 -221 -220z" />
    <glyph glyph-name="uniFEE3" unicode="&#x645;" horiz-adv-x="1048" arabic-form="initial" 
d="M388 306q133 -153 253 -153q142 0 142 139q0 100 -49 161.5t-133 61.5q-139 0 -213 -209zM303 144q-126 -144 -280 -144h-43v180h38q43 0 80 19.5t66.5 56t49.5 71.5t42 84q132 290 341 290q156 0 254.5 -115t98.5 -279q0 -157 -76 -243t-219 -86q-95 0 -179.5 41
t-172.5 125z" />
    <glyph glyph-name="uniFEE4" unicode="&#x645;" horiz-adv-x="1111" arabic-form="medial" 
d="M387 306q132 -153 257 -153q141 0 141 135q0 99 -52 163t-137 64q-134 0 -209 -209zM905 104q-43 -67 -103 -96.5t-150 -29.5q-182 0 -350 166q-126 -144 -280 -144h-42v180h37q44 0 81.5 19.5t66.5 56.5t49 72t41 83q131 290 341 290q143 0 230 -92t118 -239
q40 -190 160 -190h27v-180h-28q-128 0 -198 104z" />
    <glyph glyph-name="uniFEE5" unicode="&#x646;" horiz-adv-x="1447" arabic-form="isolated" 
d="M98 0zM98 0zM561 682l145 145l147 -146l-146 -145zM1087 539l169 58q93 -237 93 -457q0 -285 -167 -437.5t-461 -152.5q-623 0 -623 576q0 210 90 429l155 -63q-73 -193 -73 -361q0 -408 458 -408q447 0 449 447q0 181 -90 369z" />
    <glyph glyph-name="uniFEE6" unicode="&#x646;" horiz-adv-x="1528" arabic-form="final" 
d="M98 0zM562 609l145 145l147 -146l-146 -145zM1177 100q0 180 -90 369l169 58q14 -43 39.5 -124t32.5 -102q20 -62 62 -91.5t118 -29.5h40v-180h-36q-62 0 -100 14.5t-70 44.5q-4 -279 -169 -429t-452 -150q-623 0 -623 576q0 210 90 429l155 -63q-73 -192 -73 -361
q0 -408 458 -408q447 0 449 447z" />
    <glyph glyph-name="uniFEE7" unicode="&#x646;" horiz-adv-x="592" arabic-form="initial" 
d="M0 0zM126 1040l145 145l147 -146l-146 -145zM446 738q48 -161 48 -322q0 -202 -100 -309t-295 -107h-119v180h119q117 0 170.5 54.5t53.5 178.5q0 132 -37 285z" />
    <glyph glyph-name="uniFEE8" unicode="&#x646;" horiz-adv-x="687" arabic-form="medial" 
d="M0 0zM181 955l145 145l147 -146l-146 -145zM707 0h-24q-193 0 -271 143q-103 -143 -311 -143h-121v180h121q119 0 170.5 52t51.5 165q0 28 -8 191l164 20l16 -246q12 -182 190 -182h22v-180z" />
    <glyph glyph-name="uniFEE9" unicode="&#x647;" horiz-adv-x="922" arabic-form="isolated" 
d="M98 4zM447 635q-182 -160 -182 -286q0 -85 47 -127t148 -42q102 0 149.5 42t47.5 128q0 116 -210 285zM369 932q455 -333 455 -588q0 -149 -98 -243.5t-265 -96.5q-174 0 -268.5 88.5t-94.5 251.5q0 204 219 419l-45 39z" />
    <glyph glyph-name="uniFEEA" unicode="&#x647;" horiz-adv-x="1038" arabic-form="final" 
d="M98 412q0 295 507 452l-7 45l159 33l82 -589q11 -83 59 -128t129 -45h31v-180h-35q-269 0 -322 237q-122 -105 -270 -105q-146 0 -239.5 70.5t-93.5 209.5zM631 703q-181 -67 -270 -134.5t-89 -144.5q0 -61 39.5 -92.5t113.5 -31.5q90 0 163 50.5t73 131.5q0 30 -4 57z
" />
    <glyph glyph-name="uniFEEB" unicode="&#x647;" horiz-adv-x="1369" arabic-form="initial" 
d="M503 240q82 33 126.5 93.5t45.5 129.5q0 81 -46 125t-125 44q-81 0 -131 -44.5t-50 -119.5q0 -72 46.5 -133.5t133.5 -94.5zM585 951q348 -169 517 -315t169 -283q0 -166 -105.5 -254.5t-286.5 -88.5q-92 0 -205 20.5t-189 46.5q-88 -33 -200 -55t-210 -22h-95v180h83
q135 0 217 10q-127 106 -127 276q0 145 99.5 233t242.5 88q46 0 85 -10l-71 36zM728 699q54 -47 75.5 -96t21.5 -120q0 -177 -136 -297q85 -11 173 -11q234 0 234 175q0 142 -368 349z" />
    <glyph glyph-name="uniFEEC" unicode="&#x647;" horiz-adv-x="1002" arabic-form="medial" 
d="M616 -540q-336 160 -399 540h-237v180h224q5 109 17.5 195.5t37.5 168t62 135t94.5 85.5t132.5 32q121 0 191.5 -85t70.5 -224q0 -118 -60.5 -230t-161.5 -183.5t-212 -74.5q37 -209 209 -320q0 240 102 370.5t301 130.5h34v-180h-36q-253 0 -253 -330q0 -51 4 -92z
M367 179q118 4 201 93.5t83 214.5q0 65 -29 100t-76 35q-84 0 -126 -108.5t-53 -334.5z" />
    <glyph glyph-name="uniFEED" unicode="&#x648;" horiz-adv-x="880" arabic-form="isolated" 
d="M98 0zM616 13q-118 -15 -159 -15q-359 0 -359 298q0 174 93.5 299t236.5 125q88 0 157.5 -47t111.5 -126.5t63.5 -176.5t21.5 -204q0 -281 -155 -458.5t-459 -235.5l-60 154q213 40 340.5 139.5t167.5 247.5zM616 199q-21 336 -196 336q-68 0 -112.5 -67.5t-44.5 -156.5
q0 -139 195 -139q69 0 158 27z" />
    <glyph glyph-name="uniFEEE" unicode="&#x648;" horiz-adv-x="938" arabic-form="final" 
d="M98 0zM874.878 0v180h83.4893v-180h-83.4893zM432 720q311 0 347 -540h117v-180h-129q-39 -208 -189.5 -343t-409.5 -185l-60 154q211 40 338 136.5t165 237.5h-149q-364 0 -364 296q0 174 95.5 299t238.5 125zM616 180q-23 355 -198 355q-66 0 -110.5 -67.5
t-44.5 -156.5q0 -131 189 -131h164z" />
    <glyph glyph-name="uniFEEF" unicode="&#x649;" horiz-adv-x="1477" arabic-form="isolated" 
d="M98 0zM361 475q-92 -225 -92 -393q0 -408 455 -410q121 0 231.5 32t186 99t75.5 155q0 58 -99 58h-144q-121 0 -183.5 63t-62.5 184q0 99 38.5 183t102.5 140.5t148 88.5t175 32q104 0 180 -32l-32 -165q-68 21 -148 21q-64 0 -120.5 -22.5t-94 -59t-59 -82t-21.5 -91.5
t17.5 -65t69.5 -19h180q103 0 159 -53.5t56 -140.5q0 -235 -180 -366t-480 -131q-621 0 -621 578q0 204 108 459z" />
    <glyph glyph-name="uniFEF0" unicode="&#x649;" horiz-adv-x="1559" arabic-form="final" 
d="M99 0zM324 365q-54 -150 -54 -305q0 -407 449 -407q119 0 230.5 31.5t183 87.5t71.5 121q0 46 -43 76.5t-121 30.5h-123q-51 0 -65 62l-22 92q-6 26 23 26h604v-180h-119q28 -57 28 -114q0 -176 -179 -290.5t-467 -114.5q-621 0 -621 580q0 86 18.5 188.5t52.5 178.5z
M1434.1 0v180h144.993v-180h-144.993z" />
    <glyph glyph-name="uniFEF1" unicode="&#x64a;" horiz-adv-x="1477" arabic-form="isolated" 
d="M98 0zM98 0zM745 -789l140 140l141 -140l-141 -142zM413 -789l140 140l141 -140l-141 -142zM361 475q-92 -225 -92 -393q0 -408 455 -410q121 0 231.5 32t186 99t75.5 155q0 58 -99 58h-144q-121 0 -183.5 63t-62.5 184q0 99 38.5 183t102.5 140.5t148 88.5t175 32
q104 0 180 -32l-32 -165q-68 21 -148 21q-64 0 -120.5 -22.5t-94 -59t-59 -82t-21.5 -91.5t17.5 -65t69.5 -19h180q103 0 159 -53.5t56 -140.5q0 -235 -180 -366t-480 -131q-621 0 -621 578q0 204 108 459z" />
    <glyph glyph-name="uniFEF2" unicode="&#x64a;" horiz-adv-x="1559" arabic-form="final" 
d="M99 0zM737 -805l140 140l141 -140l-141 -142zM405 -805l140 140l141 -140l-141 -142zM99 0zM324 365q-54 -150 -54 -305q0 -407 449 -407q119 0 230.5 31.5t183 87.5t71.5 121q0 46 -43 76.5t-121 30.5h-123q-51 0 -65 62l-22 92q-6 26 23 26h604v-180h-119
q28 -57 28 -114q0 -176 -179 -290.5t-467 -114.5q-621 0 -621 580q0 86 18.5 188.5t52.5 178.5zM1434.1 0v180h144.993v-180h-144.993z" />
    <glyph glyph-name="uniFEF3" unicode="&#x64a;" horiz-adv-x="672" arabic-form="initial" 
d="M0 0zM0 0zM267 -303l140 140l141 -140l-141 -142zM-65 -303l140 140l141 -140l-141 -142zM526 738q48 -161 48 -322q0 -219 -107.5 -317.5t-337.5 -98.5h-149v180h149q78 0 126.5 9t83.5 34.5t49.5 71t14.5 118.5q0 132 -37 285z" />
    <glyph glyph-name="uniFEF4" unicode="&#x64a;" horiz-adv-x="767" arabic-form="medial" 
d="M0 0zM0 0zM267 -303l140 140l141 -140l-141 -142zM-65 -303l140 140l141 -140l-141 -142zM787 0h-24q-102 0 -166.5 35.5t-103.5 107.5q-102 -143 -364 -143h-149v180h151q151 0 211 44.5t61 162.5q0 82 -8 202l164 19l16 -247q12 -181 190 -181h22v-180z" />
    <glyph glyph-name=".notdef" horiz-adv-x="908" 
d="M808 0h-708v1456h708v-1456zM754 84v1287l-274 -643zM154 1359v-1263l268 632zM194 54h515l-258 606zM451 796l258 606h-515z" />
    <glyph glyph-name="uni0000" 
 />
    <glyph glyph-name="uni0000" 
 />
    <glyph glyph-name="uni000D" unicode="&#xd;" horiz-adv-x="507" 
 />
    <glyph glyph-name="uni0002" 
 />
    <glyph glyph-name="space" unicode=" " horiz-adv-x="560" 
 />
    <glyph glyph-name="exclam" unicode="!" horiz-adv-x="632" 
d="M183 134q0 55 39 94.5t94 39.5t94 -39.5t39 -94.5t-39 -94t-94 -39q-56 0 -94.5 38t-38.5 95zM221 1356h194l-15 -924h-163z" />
    <glyph glyph-name="quotedbl" unicode="&#x22;" horiz-adv-x="655" 
d="M277 1400l-30 -358h-111l1 494h140v-136zM547 1400l-30 -358h-111l1 494h140v-136z" />
    <glyph glyph-name="numbersign" unicode="#" horiz-adv-x="1261" 
d="M765 410h-264l-80 -410h-143l80 410h-239v137h265l69 354h-258v139h285l82 416h143l-82 -416h264l82 416h144l-82 -416h204v-139h-231l-69 -354h225v-137h-251l-80 -410h-144zM527 547h264l69 354h-264z" />
    <glyph glyph-name="dollar" unicode="$" horiz-adv-x="1150" 
d="M856 375q0 92 -64.5 155t-217.5 114q-213 65 -310.5 169.5t-97.5 265.5q0 164 95.5 269t262.5 125v219h149v-220q168 -23 261.5 -141t93.5 -323h-184q0 141 -67 224t-181 83q-119 0 -182 -61.5t-63 -171.5q0 -102 66.5 -162.5t219 -110t238 -109t126 -138.5t40.5 -185
q0 -169 -101.5 -272t-284.5 -122v-191h-148v191q-186 17 -291.5 132.5t-105.5 313.5h185q0 -139 73 -214t207 -75q131 0 206 63t75 172z" />
    <glyph glyph-name="percent" unicode="%" horiz-adv-x="1500" 
d="M105 1176q0 131 83.5 216t214.5 85q133 0 215.5 -85.5t82.5 -221.5v-71q0 -132 -83.5 -215.5t-212.5 -83.5q-130 0 -215 83.5t-85 222.5v70zM243 1099q0 -78 44 -128.5t118 -50.5q71 0 114.5 49t43.5 134v73q0 78 -43 129t-117 51t-117 -51t-43 -133v-73zM814 357
q0 131 83.5 215.5t214.5 84.5t215 -84t84 -223v-71q0 -131 -83.5 -215.5t-213.5 -84.5t-215 83.5t-85 222.5v72zM952 279q0 -79 44 -129.5t118 -50.5q72 0 115 49.5t43 134.5v74q0 79 -43.5 129t-116.5 50q-71 0 -115.5 -49.5t-44.5 -133.5v-74zM447 110l-105 66l711 1138
l105 -66z" />
    <glyph glyph-name="ampersand" unicode="&#x26;" horiz-adv-x="1273" 
d="M101 391q0 105 58.5 193t223.5 205q-97 118 -130 190t-33 143q0 166 98 260t266 94q150 0 248 -87.5t98 -220.5q0 -88 -44.5 -162.5t-155.5 -156.5l-107 -79l324 -387q68 130 68 289h167q0 -255 -123 -423l208 -249h-222l-97 115q-74 -66 -173.5 -100.5t-202.5 -34.5
q-213 0 -342 113t-129 298zM572 131q147 0 269 112l-355 425l-33 -24q-167 -123 -167 -253q0 -118 76.5 -189t209.5 -71zM405 1128q0 -96 118 -240l118 83q68 48 93 91.5t25 105.5q0 67 -50 111.5t-126 44.5q-82 0 -130 -55.5t-48 -140.5z" />
    <glyph glyph-name="quotesingle" unicode="'" horiz-adv-x="357" 
d="M253 1425l-21 -368h-129l1 479h149v-111z" />
    <glyph glyph-name="parenleft" unicode="(" horiz-adv-x="700" 
d="M133 591q0 226 60.5 434t180.5 378t249 240l38 -122q-146 -112 -239.5 -342t-102.5 -515l-1 -85q0 -386 141 -670q85 -170 202 -266l-38 -113q-133 74 -254 248q-236 340 -236 813z" />
    <glyph glyph-name="parenright" unicode=")" horiz-adv-x="712" 
d="M567 581q0 -223 -58.5 -427.5t-179 -377.5t-252.5 -246l-39 113q154 118 247.5 366.5t95.5 551.5v32q0 210 -44 390.5t-122.5 323.5t-176.5 223l39 113q132 -73 251.5 -244t179 -377t59.5 -441z" />
    <glyph glyph-name="asterisk" unicode="*" horiz-adv-x="882" 
d="M330 983l-302 90l46 151l302 -112l-9 344h153l-10 -349l297 110l46 -152l-307 -91l198 -271l-124 -94l-186 288l-180 -281l-125 91z" />
    <glyph glyph-name="plus" unicode="+" horiz-adv-x="1161" 
d="M670 781h406v-175h-406v-460h-186v460h-406v175h406v425h186v-425z" />
    <glyph glyph-name="comma" unicode="," horiz-adv-x="402" 
d="M134 -290l-105 72q94 131 98 270v167h181v-145q0 -101 -49.5 -202t-124.5 -162z" />
    <glyph glyph-name="hyphen" unicode="-" horiz-adv-x="565" 
d="M525 543h-488v151h488v-151z" />
    <glyph glyph-name="period" unicode="." horiz-adv-x="632" 
d="M183 134q0 55 39 94.5t94 39.5t94 -39.5t39 -94.5t-39 -94t-94 -39q-56 0 -94.5 38t-38.5 95z" />
    <glyph glyph-name="slash" unicode="/" horiz-adv-x="844" 
d="M177 -125h-159l608 1581h158z" />
    <glyph glyph-name="zero" unicode="0" horiz-adv-x="1150" 
d="M1034 621q0 -325 -111 -483t-347 -158q-233 0 -345 154.5t-116 461.5v247q0 321 111 477t348 156q235 0 346 -150.5t114 -464.5v-240zM849 874q0 235 -66 342.5t-209 107.5q-142 0 -207 -107t-67 -329v-296q0 -236 68.5 -348.5t207.5 -112.5q137 0 203.5 106t69.5 334
v303z" />
    <glyph glyph-name="one" unicode="1" horiz-adv-x="1150" 
d="M729 0h-186v1233l-373 -137v168l530 199h29v-1463z" />
    <glyph glyph-name="two" unicode="2" horiz-adv-x="1150" 
d="M1075 0h-954v133l504 560q112 127 154.5 206.5t42.5 164.5q0 114 -69 187t-184 73q-138 0 -214.5 -78.5t-76.5 -218.5h-185q0 201 129.5 325t346.5 124q203 0 321 -106.5t118 -283.5q0 -215 -274 -512l-390 -423h731v-151z" />
    <glyph glyph-name="three" unicode="3" horiz-adv-x="1150" 
d="M390 818h139q131 2 206 69t75 181q0 256 -255 256q-120 0 -191.5 -68.5t-71.5 -181.5h-185q0 173 126.5 287.5t321.5 114.5q206 0 323 -109t117 -303q0 -95 -61.5 -184t-167.5 -133q120 -38 185.5 -126t65.5 -215q0 -196 -128 -311t-333 -115t-333.5 111t-128.5 293h186
q0 -115 75 -184t201 -69q134 0 205 70t71 201q0 127 -78 195t-225 70h-139v151z" />
    <glyph glyph-name="four" unicode="4" horiz-adv-x="1150" 
d="M902 489h202v-151h-202v-338h-186v338h-663v109l652 1009h197v-967zM263 489h453v714l-22 -40z" />
    <glyph glyph-name="five" unicode="5" horiz-adv-x="1150" 
d="M206 730l74 726h746v-171h-589l-44 -397q107 63 243 63q199 0 316 -131.5t117 -355.5q0 -225 -121.5 -354.5t-339.5 -129.5q-193 0 -315 107t-139 296h175q17 -125 89 -188.5t190 -63.5q129 0 202.5 88t73.5 243q0 146 -79.5 234.5t-211.5 88.5q-121 0 -190 -53l-49 -40z
" />
    <glyph glyph-name="six" unicode="6" horiz-adv-x="1150" 
d="M847 1457v-157h-34q-216 -4 -344 -128t-148 -349q115 132 314 132q190 0 303.5 -134t113.5 -346q0 -225 -122.5 -360t-328.5 -135q-209 0 -339 160.5t-130 413.5v71q0 402 171.5 614.5t510.5 217.5h33zM604 801q-95 0 -175 -57t-111 -143v-68q0 -180 81 -290t202 -110
q125 0 196.5 92t71.5 241q0 150 -72.5 242.5t-192.5 92.5z" />
    <glyph glyph-name="seven" unicode="7" horiz-adv-x="1150" 
d="M1061 1352l-603 -1352h-194l601 1304h-788v152h984v-104z" />
    <glyph glyph-name="eight" unicode="8" horiz-adv-x="1150" 
d="M1004 1076q0 -109 -57.5 -194t-155.5 -133q114 -49 180.5 -143t66.5 -213q0 -189 -127.5 -301t-335.5 -112q-210 0 -336.5 112.5t-126.5 300.5q0 118 64.5 213t178.5 144q-97 48 -153 133t-56 193q0 184 118 292t311 108q192 0 310.5 -108t118.5 -292zM853 397
q0 122 -77.5 199t-202.5 77t-200.5 -76t-75.5 -200t73.5 -195t204.5 -71q130 0 204 71.5t74 194.5zM575 1324q-109 0 -176.5 -67.5t-67.5 -183.5q0 -111 66.5 -179.5t177.5 -68.5t177.5 68.5t66.5 179.5t-69 181t-175 70z" />
    <glyph glyph-name="nine" unicode="9" horiz-adv-x="1150" 
d="M830 640q-58 -69 -138.5 -111t-176.5 -42q-126 0 -219.5 62t-144.5 174.5t-51 248.5q0 146 55.5 263t157.5 179t238 62q216 0 340.5 -161.5t124.5 -440.5v-54q0 -425 -168 -620.5t-507 -200.5h-36v156h39q229 4 352 119.5t134 365.5zM545 640q93 0 171.5 57t114.5 141v74
q0 182 -79 296t-200 114q-122 0 -196 -93.5t-74 -246.5q0 -149 71.5 -245.5t191.5 -96.5z" />
    <glyph glyph-name="colon" unicode=":" horiz-adv-x="632" 
d="M183 754q0 55 39 94.5t94 39.5t94 -39.5t39 -94.5t-39 -94t-94 -39q-56 0 -94.5 38t-38.5 95zM183 134q0 55 39 94.5t94 39.5t94 -39.5t39 -94.5t-39 -94t-94 -39q-56 0 -94.5 38t-38.5 95z" />
    <glyph glyph-name="semicolon" unicode=";" horiz-adv-x="433" 
d="M41 0zM150 1017q0 55 39 94.5t94 39.5t94 -39.5t39 -94.5t-39 -94t-94 -39q-56 0 -94.5 38t-38.5 95zM146 -290l-105 72q94 131 98 270v167h181v-145q0 -101 -49.5 -202t-124.5 -162z" />
    <glyph glyph-name="less" unicode="&#x3c;" horiz-adv-x="1041" 
d="M264 644l626 -253v-196l-818 379v146l818 378v-196z" />
    <glyph glyph-name="equal" unicode="=" horiz-adv-x="1124" 
d="M986 814h-834v161h834v-161zM986 399h-834v160h834v-160z" />
    <glyph glyph-name="greater" unicode="&#x3e;" horiz-adv-x="1070" 
d="M795 650l-661 259v190l854 -378v-146l-854 -379v192z" />
    <glyph glyph-name="question" unicode="?" horiz-adv-x="967" 
d="M357 410q2 119 27 188t102 153l131 135q84 95 84 204q0 105 -55 164.5t-160 59.5q-102 0 -164 -54t-62 -145h-185q2 162 115.5 261.5t295.5 99.5q189 0 294.5 -101.5t105.5 -278.5q0 -175 -162 -345l-109 -108q-73 -81 -73 -233h-185zM349 93q0 45 27.5 75.5t81.5 30.5
t82 -30.5t28 -75.5t-28 -74.5t-82 -29.5t-81.5 29.5t-27.5 74.5z" />
    <glyph glyph-name="at" unicode="@" horiz-adv-x="1839" 
d="M1738 502q-12 -242 -120 -382t-289 -140q-187 0 -240 168q-54 -85 -123.5 -126.5t-143.5 -41.5q-142 0 -215 116t-54 321q15 165 75.5 294.5t156 203.5t200.5 74q81 0 145 -21.5t144 -84.5l-52 -554q-19 -231 128 -231q113 0 183 112t76 292q19 389 -144.5 593
t-497.5 204q-201 0 -357 -99.5t-246 -287.5t-101 -434q-12 -248 60 -430.5t219.5 -279t356.5 -96.5q90 0 180.5 22t150.5 57l37 -115q-62 -39 -164.5 -64t-207.5 -25q-250 0 -430 112.5t-269.5 324t-77.5 494.5q12 275 123 494.5t301 339t429 119.5q249 0 427 -112t265 -323
t75 -494zM712 417q-14 -142 26.5 -218t128.5 -76q60 0 115.5 51t91.5 146l1 9l46 503q-56 29 -120 29q-117 0 -193.5 -119t-95.5 -325z" />
    <glyph glyph-name="A" unicode="A" horiz-adv-x="1336" 
d="M973 380h-610l-137 -380h-198l556 1456h168l557 -1456h-197zM421 538h495l-248 681z" />
    <glyph glyph-name="B" unicode="B" horiz-adv-x="1275" 
d="M169 0v1456h476q237 0 356.5 -98t119.5 -290q0 -102 -58 -180.5t-158 -121.5q118 -33 186.5 -125.5t68.5 -220.5q0 -196 -127 -308t-359 -112h-505zM361 681v-524h317q134 0 211.5 69.5t77.5 191.5q0 263 -286 263h-320zM361 835h290q126 0 201.5 63t75.5 171
q0 120 -70 174.5t-213 54.5h-284v-463z" />
    <glyph glyph-name="C" unicode="C" horiz-adv-x="1333" 
d="M1240 462q-27 -231 -170.5 -356.5t-381.5 -125.5q-258 0 -413.5 185t-155.5 495v140q0 203 72.5 357t205.5 236.5t308 82.5q232 0 372 -129.5t163 -358.5h-193q-25 174 -108.5 252t-233.5 78q-184 0 -288.5 -136t-104.5 -387v-141q0 -237 99 -377t277 -140
q160 0 245.5 72.5t113.5 252.5h193z" />
    <glyph glyph-name="D" unicode="D" horiz-adv-x="1343" 
d="M169 0v1456h411q190 0 336 -84t225.5 -239t80.5 -356v-93q0 -206 -79.5 -361t-227 -238t-343.5 -85h-403zM361 1298v-1141h202q222 0 345.5 138t123.5 393v85q0 248 -116.5 385.5t-330.5 139.5h-224z" />
    <glyph glyph-name="E" unicode="E" horiz-adv-x="1164" 
d="M992 673h-631v-516h733v-157h-925v1456h915v-158h-723v-468h631v-157z" />
    <glyph glyph-name="F" unicode="F" horiz-adv-x="1132" 
d="M972 643h-611v-643h-192v1456h902v-158h-710v-498h611v-157z" />
    <glyph glyph-name="G" unicode="G" horiz-adv-x="1395" 
d="M1244 191q-74 -106 -206.5 -158.5t-308.5 -52.5q-178 0 -316 83.5t-213.5 237.5t-77.5 357v127q0 329 153.5 510t431.5 181q228 0 367 -116.5t170 -330.5h-192q-54 289 -344 289q-193 0 -292.5 -135.5t-100.5 -392.5v-119q0 -245 112 -389.5t303 -144.5q108 0 189 24
t134 81v327h-337v156h528v-534z" />
    <glyph glyph-name="H" unicode="H" horiz-adv-x="1460" 
d="M1288 0h-193v673h-734v-673h-192v1456h192v-626h734v626h193v-1456z" />
    <glyph glyph-name="I" unicode="I" horiz-adv-x="557" 
d="M375 0h-192v1456h192v-1456z" />
    <glyph glyph-name="J" unicode="J" horiz-adv-x="1130" 
d="M779 1456h193v-1031q0 -209 -125.5 -327t-334.5 -118q-217 0 -338 111t-121 311h192q0 -125 68.5 -195t198.5 -70q119 0 192.5 75t74.5 210v1034z" />
    <glyph glyph-name="K" unicode="K" horiz-adv-x="1284" 
d="M539 677l-178 -185v-492h-192v1456h192v-720l647 720h232l-573 -643l618 -813h-230z" />
    <glyph glyph-name="L" unicode="L" horiz-adv-x="1102" 
d="M362 157h690v-157h-883v1456h193v-1299z" />
    <glyph glyph-name="M" unicode="M" horiz-adv-x="1788" 
d="M417 1456l476 -1188l476 1188h249v-1456h-192v567l18 612l-478 -1179h-147l-477 1176l19 -609v-567h-192v1456h248z" />
    <glyph glyph-name="N" unicode="N" horiz-adv-x="1460" 
d="M1288 0h-193l-733 1122v-1122h-193v1456h193l735 -1127v1127h191v-1456z" />
    <glyph glyph-name="O" unicode="O" horiz-adv-x="1408" 
d="M1289 681q0 -214 -72 -373.5t-204 -243.5t-308 -84q-172 0 -305 84.5t-206.5 241t-75.5 362.5v105q0 210 73 371t206.5 246.5t305.5 85.5q175 0 308.5 -84.5t205.5 -245t72 -373.5v-92zM1098 775q0 259 -104 397.5t-291 138.5q-182 0 -286.5 -138.5t-107.5 -384.5v-107
q0 -251 105.5 -394.5t290.5 -143.5q186 0 288 135.5t105 388.5v108z" />
    <glyph glyph-name="P" unicode="P" horiz-adv-x="1292" 
d="M361 570v-570h-192v1456h537q239 0 374.5 -122t135.5 -323q0 -212 -132.5 -326.5t-379.5 -114.5h-343zM361 727h345q154 0 236 72.5t82 209.5q0 130 -82 208t-225 81h-356v-571z" />
    <glyph glyph-name="Q" unicode="Q" horiz-adv-x="1408" 
d="M1281 681q0 -211 -67 -363.5t-188 -238.5l260 -204l-131 -121l-307 244q-72 -18 -152 -18q-172 0 -305 84.5t-206.5 241t-75.5 362.5v105q0 210 73 371t206.5 246.5t305.5 85.5q176 0 309.5 -85t205.5 -244.5t72 -372.5v-93zM1089 775q0 257 -102.5 396.5t-292.5 139.5
q-181 0 -285.5 -138.5t-107.5 -384.5v-107q0 -250 104.5 -394t290.5 -144t288 135.5t105 388.5v108z" />
    <glyph glyph-name="R" unicode="R" horiz-adv-x="1261" 
d="M703 589h-342v-589h-193v1456h482q246 0 378.5 -112t132.5 -326q0 -136 -73.5 -237t-204.5 -151l342 -618v-12h-206zM361 746h295q143 0 227.5 74t84.5 198q0 135 -80.5 207t-232.5 73h-294v-552z" />
    <glyph glyph-name="S" unicode="S" horiz-adv-x="1215" 
d="M598 649q-247 71 -359.5 174.5t-112.5 255.5q0 172 137.5 284.5t357.5 112.5q150 0 267.5 -58t182 -160t64.5 -223h-193q0 132 -84 207.5t-237 75.5q-142 0 -221.5 -62.5t-79.5 -173.5q0 -89 75.5 -150.5t257 -112.5t284 -112.5t152 -143.5t49.5 -193q0 -177 -138 -283.5
t-369 -106.5q-150 0 -280 57.5t-200.5 157.5t-70.5 227h193q0 -132 97.5 -208.5t260.5 -76.5q152 0 233 62t81 169t-75 165.5t-272 115.5z" />
    <glyph glyph-name="T" unicode="T" horiz-adv-x="1222" 
d="M1175 1298h-468v-1298h-191v1298h-467v158h1126v-158z" />
    <glyph glyph-name="U" unicode="U" horiz-adv-x="1328" 
d="M1194 1456v-990q-1 -206 -129.5 -337t-348.5 -147l-51 -2q-239 0 -381 129t-144 355v992h190v-986q0 -158 87 -245.5t248 -87.5q163 0 249.5 87t86.5 245v987h193z" />
    <glyph glyph-name="V" unicode="V" horiz-adv-x="1303" 
d="M651 255l416 1201h210l-540 -1456h-170l-539 1456h209z" />
    <glyph glyph-name="W" unicode="W" horiz-adv-x="1817" 
d="M483 459l28 -192l41 173l288 1016h162l281 -1016l40 -176l31 196l226 996h193l-353 -1456h-175l-300 1061l-23 111l-23 -111l-311 -1061h-175l-352 1456h192z" />
    <glyph glyph-name="X" unicode="X" horiz-adv-x="1284" 
d="M644 898l349 558h226l-460 -722l471 -734h-228l-358 568l-360 -568h-227l472 734l-461 722h225z" />
    <glyph glyph-name="Y" unicode="Y" horiz-adv-x="1230" 
d="M613 725l380 731h218l-502 -913v-543h-192v543l-502 913h220z" />
    <glyph glyph-name="Z" unicode="Z" horiz-adv-x="1226" 
d="M313 157h833v-157h-1060v144l798 1154h-785v158h1015v-141z" />
    <glyph glyph-name="bracketleft" unicode="[" horiz-adv-x="543" 
d="M523 1512h-191v-1672h191v-152h-377v1976h377v-152z" />
    <glyph glyph-name="backslash" unicode="\" horiz-adv-x="840" 
d="M40 1456h176l608 -1581h-176z" />
    <glyph glyph-name="bracketright" unicode="]" horiz-adv-x="543" 
d="M9 1664h378v-1976h-378v152h193v1672h-193v152z" />
    <glyph glyph-name="asciicircum" unicode="^" horiz-adv-x="856" 
d="M426 1211l-190 -482h-172l299 727h127l298 -727h-171z" />
    <glyph glyph-name="underscore" unicode="_" horiz-adv-x="924" 
d="M920 -151h-916v151h916v-151z" />
    <glyph glyph-name="grave" unicode="`" horiz-adv-x="633" 
d="M474 1242h-159l-258 294h223z" />
    <glyph glyph-name="a" unicode="a" horiz-adv-x="1114" 
d="M808 0q-16 32 -26 114q-129 -134 -308 -134q-160 0 -262.5 90.5t-102.5 229.5q0 169 128.5 262.5t361.5 93.5h180v85q0 97 -58 154.5t-171 57.5q-99 0 -166 -50t-67 -121h-186q0 81 57.5 156.5t156 119.5t216.5 44q187 0 293 -93.5t110 -257.5v-498q0 -149 38 -237v-16
h-194zM501 141q87 0 165 45t113 117v222h-145q-340 0 -340 -199q0 -87 58 -136t149 -49z" />
    <glyph glyph-name="b" unicode="b" horiz-adv-x="1149" 
d="M1056 529q0 -248 -114 -398.5t-306 -150.5q-205 0 -317 145l-9 -125h-170v1536h185v-573q112 139 309 139t309.5 -149t112.5 -408v-16zM871 550q0 189 -73 292t-210 103q-183 0 -263 -170v-468q85 -170 265 -170q133 0 207 103t74 310z" />
    <glyph glyph-name="c" unicode="c" horiz-adv-x="1072" 
d="M574 131q99 0 173 60t82 150h175q-5 -93 -64 -177t-157.5 -134t-208.5 -50q-221 0 -351.5 147.5t-130.5 403.5v31q0 158 58 281t166.5 191t256.5 68q182 0 302.5 -109t128.5 -283h-175q-8 105 -79.5 172.5t-176.5 67.5q-141 0 -218.5 -101.5t-77.5 -293.5v-35
q0 -187 77 -288t220 -101z" />
    <glyph glyph-name="d" unicode="d" horiz-adv-x="1155" 
d="M95 550q0 249 118 400.5t309 151.5q190 0 301 -130v564h185v-1536h-170l-9 116q-111 -136 -309 -136q-188 0 -306.5 154t-118.5 402v14zM280 529q0 -184 76 -288t210 -104q176 0 257 158v497q-83 153 -255 153q-136 0 -212 -105t-76 -311z" />
    <glyph glyph-name="e" unicode="e" horiz-adv-x="1085" 
d="M589 -20q-220 0 -358 144.5t-138 386.5v34q0 161 61.5 287.5t172 198t239.5 71.5q211 0 328 -139t117 -398v-77h-733q4 -160 93.5 -258.5t227.5 -98.5q98 0 166 40t119 106l113 -88q-136 -209 -408 -209zM566 950q-112 0 -188 -81.5t-94 -228.5h542v14q-8 141 -76 218.5
t-184 77.5z" />
    <glyph glyph-name="f" unicode="f" horiz-adv-x="711" 
d="M231 0v939h-171v143h171v111q0 174 93 269t263 95q64 0 127 -17l-10 -150q-47 9 -100 9q-90 0 -139 -52.5t-49 -150.5v-114h231v-143h-231v-939h-185z" />
    <glyph glyph-name="g" unicode="g" horiz-adv-x="1149" 
d="M96 550q0 253 117 402.5t310 149.5q198 0 309 -140l9 120h169v-1056q0 -210 -124.5 -331t-334.5 -121q-117 0 -229 50t-171 137l96 111q119 -147 291 -147q135 0 210.5 76t75.5 214v93q-111 -128 -303 -128q-190 0 -307.5 153t-117.5 417zM282 529q0 -183 75 -287.5
t210 -104.5q175 0 257 159v494q-85 155 -255 155q-135 0 -211 -105t-76 -311z" />
    <glyph glyph-name="h" unicode="h" horiz-adv-x="1128" 
d="M325 951q123 151 320 151q343 0 346 -387v-715h-185v716q-1 117 -53.5 173t-163.5 56q-90 0 -158 -48t-106 -126v-771h-185v1536h185v-585z" />
    <glyph glyph-name="i" unicode="i" horiz-adv-x="497" 
d="M341 0h-185v1082h185v-1082zM141 1369q0 45 27.5 76t81.5 31t82 -31t28 -76t-28 -75t-82 -30t-81.5 30t-27.5 75z" />
    <glyph glyph-name="j" unicode="j" horiz-adv-x="489" 
d="M331 1082v-1207q0 -312 -283 -312q-61 0 -113 18v148q32 -8 84 -8q62 0 94.5 33.5t32.5 116.5v1211h185zM127 1369q0 44 27.5 75.5t80.5 31.5q54 0 82 -31t28 -76t-28 -75t-82 -30t-81 30t-27 75z" />
    <glyph glyph-name="k" unicode="k" horiz-adv-x="1038" 
d="M442 501l-116 -121v-380h-185v1536h185v-929l99 119l337 356h225l-421 -452l470 -630h-217z" />
    <glyph glyph-name="l" unicode="l" horiz-adv-x="497" 
d="M341 0h-185v1536h185v-1536z" />
    <glyph glyph-name="m" unicode="m" horiz-adv-x="1795" 
d="M314 1082l5 -120q119 140 321 140q227 0 309 -174q54 78 140.5 126t204.5 48q356 0 362 -377v-725h-185v714q0 116 -53 173.5t-178 57.5q-103 0 -171 -61.5t-79 -165.5v-718h-186v709q0 236 -231 236q-182 0 -249 -155v-790h-185v1082h175z" />
    <glyph glyph-name="n" unicode="n" horiz-adv-x="1130" 
d="M315 1082l6 -136q124 156 324 156q343 0 346 -387v-715h-185v716q-1 117 -53.5 173t-163.5 56q-90 0 -158 -48t-106 -126v-771h-185v1082h175z" />
    <glyph glyph-name="o" unicode="o" horiz-adv-x="1168" 
d="M91 551q0 159 62.5 286t174 196t254.5 69q221 0 357.5 -153t136.5 -407v-13q0 -158 -60.5 -283.5t-173 -195.5t-258.5 -70q-220 0 -356.5 153t-136.5 405v13zM277 529q0 -180 83.5 -289t223.5 -109q141 0 224 110.5t83 309.5q0 178 -84.5 288.5t-224.5 110.5
q-137 0 -221 -109t-84 -312z" />
    <glyph glyph-name="p" unicode="p" horiz-adv-x="1149" 
d="M1054 529q0 -247 -113 -398t-306 -151q-197 0 -310 125v-521h-185v1498h169l9 -120q113 140 314 140q195 0 308.5 -147t113.5 -409v-17zM869 550q0 183 -78 289t-214 106q-168 0 -252 -149v-517q83 -148 254 -148q133 0 211.5 105.5t78.5 313.5z" />
    <glyph glyph-name="q" unicode="q" horiz-adv-x="1164" 
d="M95 550q0 255 117 403.5t314 148.5q192 0 303 -129l8 109h170v-1498h-185v516q-112 -120 -298 -120q-196 0 -312.5 152.5t-116.5 404.5v13zM280 529q0 -186 78.5 -292t211.5 -106q165 0 252 146v530q-88 143 -250 143q-134 0 -213 -106.5t-79 -314.5z" />
    <glyph glyph-name="r" unicode="r" horiz-adv-x="693" 
d="M663 916q-42 7 -91 7q-182 0 -247 -155v-768h-185v1082h180l3 -125q91 145 258 145q54 0 82 -14v-172z" />
    <glyph glyph-name="s" unicode="s" horiz-adv-x="1056" 
d="M770 287q0 75 -56.5 116.5t-197 71.5t-223 72t-122 100t-39.5 138q0 133 112.5 225t287.5 92q184 0 298.5 -95t114.5 -243h-186q0 76 -64.5 131t-162.5 55q-101 0 -158 -44t-57 -115q0 -67 53 -101t191.5 -65t224.5 -74t127.5 -103.5t41.5 -147.5q0 -145 -116 -232.5
t-301 -87.5q-130 0 -230 46t-156.5 128.5t-56.5 178.5h185q5 -93 74.5 -147.5t183.5 -54.5q105 0 168.5 42.5t63.5 113.5z" />
    <glyph glyph-name="t" unicode="t" horiz-adv-x="669" 
d="M391 1344v-262h202v-143h-202v-671q0 -65 27 -97.5t92 -32.5q32 0 88 12v-150q-73 -20 -142 -20q-124 0 -187 75t-63 213v671h-197v143h197v262h185z" />
    <glyph glyph-name="u" unicode="u" horiz-adv-x="1129" 
d="M808 107q-108 -127 -317 -127q-173 0 -263.5 100.5t-91.5 297.5v704h185v-699q0 -246 200 -246q212 0 282 158v787h185v-1082h-176z" />
    <glyph glyph-name="v" unicode="v" horiz-adv-x="992" 
d="M497 251l268 831h189l-388 -1082h-141l-392 1082h189z" />
    <glyph glyph-name="w" unicode="w" horiz-adv-x="1539" 
d="M1098 255l208 827h185l-315 -1082h-150l-263 820l-256 -820h-150l-314 1082h184l213 -810l252 810h149z" />
    <glyph glyph-name="x" unicode="x" horiz-adv-x="1015" 
d="M503 687l240 395h216l-354 -535l365 -547h-214l-250 405l-250 -405h-215l365 547l-354 535h214z" />
    <glyph glyph-name="y" unicode="y" horiz-adv-x="969" 
d="M494 271l252 811h198l-435 -1249q-101 -270 -321 -270l-35 3l-69 13v150l50 -4q94 0 146.5 38t86.5 139l41 110l-386 1070h202z" />
    <glyph glyph-name="z" unicode="z" horiz-adv-x="1015" 
d="M314 151h633v-151h-859v136l597 793h-588v153h820v-131z" />
    <glyph glyph-name="braceleft" unicode="{" horiz-adv-x="693" 
d="M632 -366q-177 50 -266.5 164.5t-89.5 302.5v199q0 243 -212 243v145q212 0 212 242v208q2 183 89.5 295.5t266.5 163.5l38 -115q-209 -67 -209 -349v-202q0 -227 -167 -316q167 -90 167 -319v-206q3 -275 209 -341z" />
    <glyph glyph-name="bar" unicode="|" horiz-adv-x="499" 
d="M324 -270h-149v1726h149v-1726z" />
    <glyph glyph-name="braceright" unicode="}" horiz-adv-x="693" 
d="M19 -251q203 65 210 331v220q0 231 181 315q-181 82 -181 315v203q0 282 -209 349l38 115q177 -50 266 -162.5t90 -297.5v-210q0 -239 212 -239v-145q-212 0 -212 -243v-202q0 -188 -90.5 -301t-265.5 -163z" />
    <glyph glyph-name="asciitilde" unicode="~" horiz-adv-x="1393" 
d="M1263 777q0 -158 -93.5 -266.5t-230.5 -108.5q-72 0 -136 26.5t-148.5 100.5t-121.5 92t-79 18q-78 0 -120 -53.5t-42 -147.5l-161 -2q0 160 92 263t231 103q76 0 146 -32t158 -112.5t152 -90.5l29 -2q76 0 123.5 58t47.5 153z" />
    <glyph glyph-name="uni00A0" unicode="&#xa0;" horiz-adv-x="560" 
 />
    <glyph glyph-name="exclamdown" unicode="&#xa1;" horiz-adv-x="499" 
d="M170 684h168l13 -1044h-194zM358 996q0 -45 -27.5 -76t-81.5 -31t-82 31t-28 76t28 75t82 30t81.5 -30t27.5 -75z" />
    <glyph glyph-name="cent" unicode="&#xa2;" horiz-adv-x="1120" 
d="M586 131q100 0 174 60.5t82 149.5h175q-6 -126 -105 -226.5t-243 -126.5v-233h-185v234q-179 34 -279 176t-100 362v35q0 212 101 354.5t278 175.5v226h185v-223q150 -23 246 -129t102 -256h-175q-8 105 -79.5 172.5t-176.5 67.5q-141 0 -218.5 -101.5t-77.5 -293.5v-35
q0 -187 77.5 -288t218.5 -101z" />
    <glyph glyph-name="sterling" unicode="&#xa3;" horiz-adv-x="1190" 
d="M449 622l8 -220q0 -154 -62 -245h733l-1 -157h-1032v157h77q40 9 65 74.5t27 161.5v8l-8 221h-165v157h160l-9 260q0 199 122.5 318t322.5 119q190 0 301 -106t111 -283h-191q0 107 -63.5 169t-174.5 62q-105 0 -170 -77t-65 -202l9 -260h319v-157h-314z" />
    <glyph glyph-name="currency" unicode="&#xa4;" horiz-adv-x="1460" 
d="M1103 112q-159 -132 -368 -132q-207 0 -366 130l-134 -136l-130 135l139 141q-104 156 -104 358q0 206 112 369l-147 151l130 136l147 -150q158 120 353 120q196 0 355 -121l149 152l132 -137l-151 -154q110 -163 110 -366q0 -196 -102 -355l143 -144l-132 -136zM311 608
q0 -123 57.5 -229t155.5 -167t211 -61t211 61.5t154.5 167t56.5 228.5q0 122 -56.5 227.5t-155 166t-210.5 60.5q-113 0 -211 -60t-155.5 -166t-57.5 -228z" />
    <glyph glyph-name="yen" unicode="&#xa5;" horiz-adv-x="1075" 
d="M539 793l308 663h213l-367 -720h261v-125h-324v-165h324v-124h-324v-322h-193v322h-318v124h318v165h-318v125h263l-367 720h216z" />
    <glyph glyph-name="brokenbar" unicode="&#xa6;" horiz-adv-x="491" 
d="M147 -270v791h186v-791h-186zM333 698h-186v758h186v-758z" />
    <glyph glyph-name="section" unicode="&#xa7;" horiz-adv-x="1256" 
d="M1145 431q0 -189 -186 -274q69 -49 105 -117t36 -168q0 -168 -130 -267.5t-358 -99.5q-112 0 -212.5 28t-170.5 85q-139 113 -139 318l186 2q0 -130 90 -205.5t246 -75.5q136 0 219 58.5t83 154.5q0 89 -71 141.5t-280 114.5q-182 48 -278 103.5t-142.5 133t-46.5 188.5
q0 186 182 274q-66 49 -101.5 117t-35.5 168q0 166 133.5 266t355.5 100q232 0 362 -113t130 -318h-185q0 125 -84 202.5t-223 77.5q-142 0 -222.5 -57.5t-80.5 -155.5q0 -69 28 -109t95.5 -72.5t211 -72.5t228 -76t141 -84.5t85.5 -113t29 -153.5zM602 691q-90 24 -165 51
q-80 -19 -117.5 -69.5t-37.5 -119.5q0 -70 27 -110t93.5 -73t208.5 -74t186 -58q78 20 120 70.5t42 119.5q0 88 -69.5 142.5t-287.5 120.5z" />
    <glyph glyph-name="dieresis" unicode="&#xa8;" horiz-adv-x="856" 
d="M101 1371q0 45 27.5 75.5t81.5 30.5t82 -30.5t28 -75.5t-28 -75t-82 -30t-81.5 30t-27.5 75zM531 1369q0 45 27.5 76t81.5 31t82 -31t28 -76t-28 -75t-82 -30t-81.5 30t-27.5 75z" />
    <glyph glyph-name="copyright" unicode="&#xa9;" horiz-adv-x="1609" 
d="M1119 597q0 -153 -86.5 -233.5t-244.5 -80.5q-157 0 -251.5 105.5t-94.5 287.5v110q0 176 95.5 281.5t250.5 105.5q160 0 246 -82t86 -231h-146q0 99 -47.5 141.5t-138.5 42.5q-94 0 -148 -69t-54 -192v-113q0 -120 54 -189t148 -69q92 0 138.5 42t46.5 143h146zM206 729
q0 -172 80 -318.5t217.5 -229.5t297.5 -83t297 83t217 229.5t80 318.5q0 170 -79 315t-216.5 228.5t-298.5 83.5q-160 0 -298 -82.5t-217.5 -228.5t-79.5 -316zM91 729q0 202 93.5 375t259 272.5t357.5 99.5t357 -99.5t258.5 -272.5t93.5 -375q0 -197 -90 -369
t-255.5 -276.5t-363.5 -104.5q-197 0 -362.5 103.5t-256.5 275.5t-91 371z" />
    <glyph glyph-name="ordfeminine" unicode="&#xaa;" horiz-adv-x="915" 
d="M618 705q-12 34 -18 72q-76 -86 -204 -86q-119 0 -184 62t-65 165q0 111 83.5 171t255.5 60h108v52q0 135 -124 135q-69 0 -108.5 -27t-39.5 -78l-161 12q0 103 86 168t223 65q133 0 210 -71.5t77 -205.5v-316q0 -97 26 -178h-165zM435 828q43 0 87 20t72 47v142h-112
q-83 -1 -127.5 -32.5t-44.5 -82.5q0 -94 125 -94z" />
    <glyph glyph-name="guillemotleft" unicode="&#xab;" horiz-adv-x="946" 
d="M488 455q0 86 54 211t182 267l92 -84q-171 -220 -171 -393t171 -395l-92 -84q-128 143 -182 268t-54 210zM110 455q0 86 54 211t182 267l92 -84q-171 -220 -171 -393t171 -395l-92 -84q-128 143 -182 268t-54 210z" />
    <glyph glyph-name="logicalnot" unicode="&#xac;" horiz-adv-x="1134" 
d="M958 375h-186v264h-645v161h831v-425z" />
    <glyph glyph-name="uni00AD" unicode="&#xad;" horiz-adv-x="565" 
d="M37 543zM525 543h-488v151h488v-151z" />
    <glyph glyph-name="registered" unicode="&#xae;" horiz-adv-x="1610" 
d="M90 729q0 202 93.5 375t259 272.5t357.5 99.5t357 -99.5t258.5 -272.5t93.5 -375q0 -197 -90 -369t-255.5 -276.5t-363.5 -104.5q-197 0 -362.5 103.5t-256.5 275.5t-91 371zM205 729q0 -172 80 -318.5t217.5 -229.5t297.5 -83q161 0 299 84.5t216.5 229.5t78.5 317
q0 171 -78.5 315.5t-216.5 228t-299 83.5q-160 0 -298 -82.5t-217.5 -228.5t-79.5 -316zM653 654v-338h-141v849h276q153 0 237.5 -65.5t84.5 -190.5q0 -123 -128 -188q122 -50 123 -204v-61q0 -86 17 -124v-16h-145q-14 36 -14 128.5t-3 109.5q-16 96 -131 100h-176z
M653 782h156q72 2 116 35t44 87q0 73 -39 103.5t-139 30.5h-138v-256z" />
    <glyph glyph-name="macron" unicode="&#xaf;" horiz-adv-x="938" 
d="M814 1302h-672v143h672v-143z" />
    <glyph glyph-name="degree" unicode="&#xb0;" horiz-adv-x="765" 
d="M130 1216q0 104 74.5 182t180.5 78q104 0 177.5 -77.5t73.5 -182.5q0 -106 -73.5 -181t-177.5 -75q-105 0 -180 75t-75 181zM385 1088q54 0 91 35.5t37 92.5q0 58 -37 95.5t-91 37.5q-55 0 -92.5 -39.5t-37.5 -93.5t37.5 -91t92.5 -37z" />
    <glyph glyph-name="plusminus" unicode="&#xb1;" horiz-adv-x="1094" 
d="M649 854h364v-151h-364v-414h-167v414h-385v151h385v413h167v-413zM970 0h-835v152h835v-152z" />
    <glyph glyph-name="acute" unicode="&#xb4;" horiz-adv-x="642" 
d="M316 1536h224l-268 -294h-149z" />
    <glyph glyph-name="mu" unicode="&#xb5;" horiz-adv-x="1160" 
d="M339 1082v-633q1 -163 52.5 -241t167.5 -78q199 0 261 152v800h186v-1082h-167l-9 115q-93 -135 -263 -135q-147 0 -228 73v-469h-185v1498h185z" />
    <glyph glyph-name="paragraph" unicode="&#xb6;" horiz-adv-x="1001" 
d="M646 0v520h-84q-230 0 -362.5 127t-132.5 341q0 213 133 340.5t363 127.5h269v-1456h-186z" />
    <glyph glyph-name="periodcentered" unicode="&#xb7;" horiz-adv-x="534" 
d="M147 729q0 48 28.5 80t85.5 32t86.5 -32t29.5 -80q0 -47 -29.5 -78.5t-86.5 -31.5t-85.5 31.5t-28.5 78.5z" />
    <glyph glyph-name="cedilla" unicode="&#xb8;" horiz-adv-x="507" 
d="M285 0l-12 -52q153 -27 153 -173q0 -97 -80 -153.5t-223 -56.5l-7 107q79 0 122.5 26t43.5 73q0 44 -32 65t-130 30l32 134h133z" />
    <glyph glyph-name="ordmasculine" unicode="&#xba;" horiz-adv-x="931" 
d="M122 1123q0 158 94 255.5t248 97.5q155 0 249 -96.5t94 -262.5v-74q0 -159 -93.5 -256t-247.5 -97t-249 97t-95 262v74zM285 1043q0 -100 48.5 -157t132.5 -57q83 0 130.5 57.5t47.5 158.5v78q0 99 -48.5 156t-131.5 57q-81 0 -129 -55t-50 -152v-86z" />
    <glyph glyph-name="guillemotright" unicode="&#xbb;" horiz-adv-x="946" 
d="M458 455q0 -85 -54 -210t-182 -268l-92 84q171 222 171 395t-171 393l92 84q128 -142 182 -267t54 -211zM836 455q0 -85 -54 -210t-182 -268l-92 84q171 222 171 395t-171 393l92 84q128 -142 182 -267t54 -211z" />
    <glyph glyph-name="questiondown" unicode="&#xbf;" horiz-adv-x="969" 
d="M588 680q-1 -106 -21.5 -169.5t-68.5 -122.5t-140 -155.5t-103 -195.5l-2 -37q0 -109 58 -166.5t167 -57.5q100 0 162.5 56.5t62.5 147.5h185q-2 -161 -114.5 -263t-295.5 -102q-196 0 -303 100.5t-107 279.5q0 173 160 348l109 113q66 78 66 224h185zM596 997
q0 -45 -27.5 -76t-81.5 -31t-82 31t-28 76q0 44 28 74t82 30t81.5 -30t27.5 -74z" />
    <glyph glyph-name="multiply" unicode="&#xd7;" horiz-adv-x="1092" 
d="M89 329l330 336l-328 335l119 123l329 -335l329 335l119 -123l-328 -335l330 -336l-119 -123l-331 337l-331 -337z" />
    <glyph glyph-name="divide" unicode="&#xf7;" horiz-adv-x="1169" 
d="M1069 600h-998v184h998v-184zM461 1098q0 48 28.5 80t85.5 32t86.5 -32t29.5 -80q0 -47 -29.5 -78t-86.5 -31t-85.5 31t-28.5 78zM461 281q0 48 28.5 80t85.5 32t86.5 -32t29.5 -80q0 -46 -29.5 -77.5t-86.5 -31.5t-85.5 31.5t-28.5 77.5z" />
    <glyph glyph-name="uni02BC" unicode="&#x2bc;" horiz-adv-x="409" 
d="M48 1046zM153 1046l-105 72q93 130 96 274v144h183v-130q-1 -100 -49.5 -199.5t-124.5 -160.5z" />
    <glyph glyph-name="circumflex" unicode="&#x2c6;" horiz-adv-x="964" 
d="M774 1262v-10h-153l-150 170l-149 -170h-153v12l246 272h112z" />
    <glyph glyph-name="caron" unicode="&#x2c7;" horiz-adv-x="909" 
d="M449 1365l150 170h160v-10l-254 -274h-113l-251 274v10h157z" />
    <glyph glyph-name="uni02C9" unicode="&#x2c9;" horiz-adv-x="939" 
d="M142 1302zM814 1302h-672v143h672v-143z" />
    <glyph glyph-name="breve" unicode="&#x2d8;" horiz-adv-x="874" 
d="M728 1495q0 -121 -82.5 -194.5t-216.5 -73.5t-217 74t-83 194h151q0 -70 38 -109.5t111 -39.5q70 0 109.5 39t39.5 110h150z" />
    <glyph glyph-name="dotaccent" unicode="&#x2d9;" horiz-adv-x="497" 
d="M141 1367q0 45 27.5 76t81.5 31t82 -31t28 -76t-28 -75t-82 -30t-81.5 30t-27.5 75z" />
    <glyph glyph-name="ring" unicode="&#x2da;" horiz-adv-x="685" 
d="M551 1408q0 -87 -62 -145.5t-153 -58.5q-92 0 -153.5 59t-61.5 145t61.5 147t153.5 61t153.5 -61t61.5 -147zM220 1408q0 -47 33.5 -81t82.5 -34q48 0 82 33t34 82t-33.5 83.5t-82.5 34.5q-50 0 -83 -35t-33 -83z" />
    <glyph glyph-name="ogonek" unicode="&#x2db;" horiz-adv-x="554" 
d="M382 0l-58 -45q-113 -91 -113 -177q0 -72 78 -72q48 0 100 26l13 -121q-70 -44 -160 -44q-89 0 -140.5 52t-51.5 138q0 89 67 166t190 133z" />
    <glyph glyph-name="tilde" unicode="&#x2dc;" horiz-adv-x="966" 
d="M830 1500q0 -108 -61.5 -175t-153.5 -67q-41 0 -71 10t-78.5 41t-70 37.5t-49.5 6.5q-41 0 -70 -31.5t-29 -80.5l-124 7q0 107 60.5 177t153.5 70q35 0 63 -10t76 -39t73.5 -38t56.5 -9q43 0 71.5 34t28.5 79z" />
    <glyph glyph-name="hungarumlaut" unicode="&#x2dd;" horiz-adv-x="764" 
d="M605 1535h207l-269 -303h-169zM265 1535h197l-218 -303h-150z" />
    <glyph glyph-name="uni02F3" unicode="&#x2f3;" horiz-adv-x="602" 
d="M126 -242q0 70 50 118.5t124 48.5q71 0 120 -48t49 -119q0 -70 -48 -116.5t-121 -46.5q-76 0 -125 47t-49 116zM213 -242q0 -35 26 -59t61 -24t59 24t24 59q0 36 -24 61t-59 25q-37 0 -62 -26t-25 -60z" />
    <glyph glyph-name="gravecomb" unicode="&#x300;" 
d="M-440 1242h-159l-258 294h224z" />
    <glyph glyph-name="acutecomb" unicode="&#x301;" 
d="M-464 1536h224l-268 -294h-149z" />
    <glyph glyph-name="tildecomb" unicode="&#x303;" 
d="M-178 1241zM-178 1500q0 -108 -61.5 -175t-153.5 -67q-41 0 -71 10t-78.5 41t-70 37.5t-49.5 6.5q-41 0 -70 -31.5t-29 -80.5l-124 7q0 107 60.5 177t153.5 70q35 0 63 -10t76 -39t73.5 -38t56.5 -9q43 0 71.5 34t28.5 79z" />
    <glyph glyph-name="hookabovecomb" unicode="&#x309;" 
d="M-652 1241l-1 153q75 5 110 20t35 54t-45.5 58.5t-120.5 19.5l7 106q149 0 226 -51.5t77 -136.5q0 -61 -39 -101t-116 -51l-1 -71h-132z" />
    <glyph glyph-name="uni030F" unicode="&#x30f;" 
d="M-510 1252h-169l-306 266h225zM-249 1252h-150l-246 266h206z" />
    <glyph glyph-name="dotbelowcomb" unicode="&#x323;" 
d="M-712 -245q0 45 27.5 76t81.5 31t82 -31t28 -76t-28 -75t-82 -30t-81.5 30t-27.5 75z" />
    <glyph glyph-name="uni060C" unicode="&#x60c;" horiz-adv-x="669" 
d="M503 573q-83 -76 -122.5 -142t-39.5 -154q73 0 104 -33t31 -101q0 -66 -35 -104t-100 -38q-158 0 -158 174q0 267 246 457z" />
    <glyph glyph-name="uni060D" unicode="&#x60d;" horiz-adv-x="828" 
d="M611 1457l143 -43l-556 -1625l-143 43z" />
    <glyph glyph-name="uni0610" unicode="&#x610;" 
d="M458 1367q276 0 276 118q0 27 -12.5 49t-35 35t-51.5 13q-114 0 -252 -215h75zM137 1192q15 27 22.5 60.5t7.5 73.5q0 92 -45 187l85 29l30 -92q21 -65 52 -68q172 291 343 291q83 0 137.5 -52.5t54.5 -131.5q-1 -71 -41 -118.5t-121 -71t-202 -23.5h-26q-124 0 -184 29
q-1 -93 -38 -159z" />
    <glyph glyph-name="uni0611" unicode="&#x611;" 
d="M254 1275q-2 -68 -42 -138l-75 46q15 26 22.5 59.5t7.5 74.5q0 92 -45 186l85 30l30 -93q21 -64 52 -68h95q-13 17 -22 30t-17.5 31t-13 38.5t-4.5 44.5q0 96 61.5 162t161.5 66q112 0 185 -74l-36 -79q-67 53 -132 54q-64 0 -106 -38t-42 -95q0 -7 1.5 -16.5t6.5 -23.5
t13.5 -26.5t24.5 -26t36 -22.5q11 -6 20 -4l231 58v-97q-255 -79 -461 -79h-37z" />
    <glyph glyph-name="uni0612" unicode="&#x612;" 
d="M461 998q-173 0 -273.5 72t-100.5 215q0 135 104.5 237.5t298.5 146.5q-12 4 -20.5 7.5t-29.5 12.5q-38 15 -52.5 20.5t-37.5 14t-35 11.5t-22 3q-30 0 -59 -17.5t-50 -45.5l-15 -19l-83 41l8 14q36 58 87.5 91t112.5 33q57 0 166 -53q85 -41 141 -60t103 -22l-7 -93
q-109 -8 -204 -35.5t-165 -68t-110.5 -94.5t-40.5 -115q0 -101 73 -152t219 -51zM878 1606q44 -111 44 -214q0 -297 -345 -362l-33 84q286 54 287 275q0 87 -42 186z" />
    <glyph glyph-name="uni0615" unicode="&#x615;" 
d="M400 1365q274 0 274 116q0 41 -27.5 68.5t-70.5 27.5q-113 0 -250 -213zM236 1364q5 8 36 58v475h85v-355q102 126 215 126q84 0 137 -51.5t53 -131.5q-1 -211 -360 -211h-277v90h111z" />
    <glyph glyph-name="uni061B" unicode="&#x61b;" horiz-adv-x="669" 
d="M211 134q0 55 39 94.5t94 39.5t94 -39.5t39 -94.5t-39 -94t-94 -39q-56 0 -94.5 38t-38.5 95zM503 1005q-83 -76 -122.5 -142t-39.5 -154q73 0 104 -33t31 -101q0 -66 -35 -104t-100 -38q-158 0 -158 174q0 267 246 457z" />
    <glyph glyph-name="uni061F" unicode="&#x61f;" horiz-adv-x="924" 
d="M392 134q0 55 39 94.5t94 39.5t94 -39.5t39 -94.5t-39 -94t-94 -39q-56 0 -94.5 38t-38.5 95zM99 1011q0 156 109 255.5t261 99.5q185 0 270.5 -97.5t86.5 -297.5h-156q-1 107 -45.5 161t-144.5 54q-92 0 -146 -48.5t-54 -135.5q0 -37 18.5 -72.5t48.5 -66t66 -62.5
t72 -69.5t65.5 -79t48.5 -98.5t19 -122h-185q0 67 -19 120t-48 88.5t-65 66t-71.5 59.5t-64.5 61t-47.5 79t-18.5 105z" />
    <glyph glyph-name="uni0621" unicode="&#x621;" horiz-adv-x="830" 
d="M454 263q41 9 125.5 28t126.5 29l26 -169q-250 -31 -634 -241v173q101 70 196 105q-176 90 -176 246q0 152 91 243t234 91q134 0 225 -89l-55 -134q-80 56 -157 56q-80 0 -128 -44t-48 -122q0 -93 174 -172z" />
    <glyph glyph-name="uni0627" unicode="&#x627;" horiz-adv-x="465" 
d="M148 1366h169v-1365h-169v1365z" />
    <glyph glyph-name="uni0628" unicode="&#x628;" horiz-adv-x="1777" 
d="M98 0zM781 -303l145 145l147 -146l-146 -145zM975 0h-135q-362 0 -552 122t-190 362q0 129 54 254l153 -57q-32 -85 -32 -172q1 -329 557 -329h138q78 0 117.5 0.5t107.5 5.5t103.5 15t82.5 29t70 47.5t40 71.5t17 99q0 90 -36 250l160 40q49 -148 49 -275
q0 -85 -18 -152.5t-49 -116t-81 -83.5t-105.5 -56t-131.5 -33.5t-150 -17t-169 -4.5z" />
    <glyph glyph-name="uni0629" unicode="&#x629;" horiz-adv-x="922" 
d="M98 4zM447 635q-182 -160 -182 -286q0 -85 47 -127t148 -42q102 0 149.5 42t47.5 128q0 116 -210 285zM369 932q455 -333 455 -588q0 -149 -98 -243.5t-265 -96.5q-174 0 -268.5 88.5t-94.5 251.5q0 204 219 419l-45 39zM460 1218l140 140l141 -140l-141 -142zM128 1218
l140 140l141 -140l-141 -142z" />
    <glyph glyph-name="uni062A" unicode="&#x62a;" horiz-adv-x="1777" 
d="M98 0zM975 0h-135q-362 0 -552 122t-190 362q0 129 54 254l153 -57q-32 -85 -32 -172q1 -329 557 -329h138q78 0 117.5 0.5t107.5 5.5t103.5 15t82.5 29t70 47.5t40 71.5t17 99q0 90 -36 250l160 40q49 -148 49 -275q0 -85 -18 -152.5t-49 -116t-81 -83.5t-105.5 -56
t-131.5 -33.5t-150 -17t-169 -4.5zM921 860l140 140l141 -140l-141 -142zM589 860l140 140l141 -140l-141 -142z" />
    <glyph glyph-name="uni062B" unicode="&#x62b;" horiz-adv-x="1777" 
d="M98 0zM975 0h-135q-362 0 -552 122t-190 362q0 129 54 254l153 -57q-32 -85 -32 -172q1 -329 557 -329h138q78 0 117.5 0.5t107.5 5.5t103.5 15t82.5 29t70 47.5t40 71.5t17 99q0 90 -36 250l160 40q49 -148 49 -275q0 -85 -18 -152.5t-49 -116t-81 -83.5t-105.5 -56
t-131.5 -33.5t-150 -17t-169 -4.5zM762 1047l132 132l133 -132l-133 -133zM934 785l132 132l133 -132l-133 -133zM594 785l132 132l133 -132l-133 -133z" />
    <glyph glyph-name="uni062C" unicode="&#x62c;" horiz-adv-x="1347" 
d="M98 0zM836 550q-35 14 -91 37q-69 28 -95.5 38t-68.5 25.5t-64.5 20.5t-39.5 5q-55 0 -108.5 -32t-92.5 -82l-27 -35l-151 75l15 26q65 105 159.5 165.5t205.5 60.5q104 0 303 -96q157 -76 259 -111t188 -39l-13 -170q-266 -21 -481.5 -99t-342 -202.5t-126.5 -271.5
q0 -371 533 -371q213 0 415 95l35 -170q-201 -96 -464 -96q-154 0 -278 32t-216 95.5t-141.5 164.5t-49.5 234q0 121 48 230.5t139.5 200.5t231.5 160.5t318 109.5zM658 -78l145 145l147 -146l-146 -145z" />
    <glyph glyph-name="uni062D" unicode="&#x62d;" horiz-adv-x="1347" 
d="M836 550q-35 14 -91 37q-69 28 -95.5 38t-68.5 25.5t-64.5 20.5t-39.5 5q-55 0 -108.5 -32t-92.5 -82l-27 -35l-151 75l15 26q65 105 159.5 165.5t205.5 60.5q104 0 303 -96q157 -76 259 -111t188 -39l-13 -170q-266 -21 -481.5 -99t-342 -202.5t-126.5 -271.5
q0 -371 533 -371q213 0 415 95l35 -170q-201 -96 -464 -96q-154 0 -278 32t-216 95.5t-141.5 164.5t-49.5 234q0 121 48 230.5t139.5 200.5t231.5 160.5t318 109.5z" />
    <glyph glyph-name="uni062E" unicode="&#x62e;" horiz-adv-x="1347" 
d="M98 0zM420 1184l145 145l147 -146l-146 -145zM836 550q-35 14 -91 37q-69 28 -95.5 38t-68.5 25.5t-64.5 20.5t-39.5 5q-55 0 -108.5 -32t-92.5 -82l-27 -35l-151 75l15 26q65 105 159.5 165.5t205.5 60.5q104 0 303 -96q157 -76 259 -111t188 -39l-13 -170
q-266 -21 -481.5 -99t-342 -202.5t-126.5 -271.5q0 -371 533 -371q213 0 415 95l35 -170q-201 -96 -464 -96q-154 0 -278 32t-216 95.5t-141.5 164.5t-49.5 234q0 121 48 230.5t139.5 200.5t231.5 160.5t318 109.5z" />
    <glyph glyph-name="uni062F" unicode="&#x62f;" horiz-adv-x="963" 
d="M98 207q128 -26 219 -26q372 0 372 183q0 190 -414 451l98 148q492 -294 492 -596q0 -365 -535 -365q-120 0 -232 24v181z" />
    <glyph glyph-name="uni0630" unicode="&#x630;" horiz-adv-x="963" 
d="M98 2zM202 1280l145 145l147 -146l-146 -145zM98 207q128 -26 219 -26q372 0 372 183q0 190 -414 451l98 148q492 -294 492 -596q0 -365 -535 -365q-120 0 -232 24v181z" />
    <glyph glyph-name="uni0631" unicode="&#x631;" horiz-adv-x="780" 
d="M600 527q82 -203 82 -392q0 -543 -632 -663l-60 154q522 99 525 504q0 158 -77 339z" />
    <glyph glyph-name="uni0632" unicode="&#x632;" horiz-adv-x="780" 
d="M0 0zM314 892l145 145l147 -146l-146 -145zM600 527q82 -203 82 -392q0 -543 -632 -663l-60 154q522 99 525 504q0 158 -77 339z" />
    <glyph glyph-name="uni0633" unicode="&#x633;" horiz-adv-x="2456" 
d="M1531 0q-115 0 -189 58q-4 -281 -167 -429.5t-454 -148.5q-623 0 -623 576q0 210 90 429l155 -63q-73 -193 -73 -361q0 -408 458 -408q448 0 449 447q0 181 -90 369l169 58l59 -183q52 -163 218 -164q97 0 141 52.5t44 156.5q0 48 -10 178l165 20l16 -226
q6 -82 45 -131.5t113 -49.5q139 0 139 222q0 107 -44 264l168 45q48 -153 48 -294q0 -89 -17 -162t-52.5 -131.5t-96.5 -91t-144 -32.5q-171 0 -242 143q-103 -143 -275 -143z" />
    <glyph glyph-name="uni0634" unicode="&#x634;" horiz-adv-x="2456" 
d="M98 0zM1612 1184l132 132l133 -132l-133 -133zM1784 922l132 132l133 -132l-133 -133zM1444 922l132 132l133 -132l-133 -133zM1531 0q-115 0 -189 58q-4 -281 -167 -429.5t-454 -148.5q-623 0 -623 576q0 210 90 429l155 -63q-73 -193 -73 -361q0 -408 458 -408
q448 0 449 447q0 181 -90 369l169 58l59 -183q52 -163 218 -164q97 0 141 52.5t44 156.5q0 48 -10 178l165 20l16 -226q6 -82 45 -131.5t113 -49.5q139 0 139 222q0 107 -44 264l168 45q48 -153 48 -294q0 -89 -17 -162t-52.5 -131.5t-96.5 -91t-144 -32.5q-171 0 -242 143
q-103 -143 -275 -143z" />
    <glyph glyph-name="uni0635" unicode="&#x635;" horiz-adv-x="2575" 
d="M1753 181q546 0 546 232q0 83 -54.5 137.5t-140.5 54.5q-226 0 -499 -425zM1177 100q0 181 -90 369l169 58l59 -183q42 -128 104 -135q340 578 679 578q163 0 271 -105t108 -260q-2 -422 -720 -422h-51q-245 0 -364 57q-4 -284 -168.5 -430.5t-452.5 -146.5
q-623 0 -623 576q0 210 90 429l155 -63q-73 -193 -73 -361q0 -408 458 -408q448 0 449 447z" />
    <glyph glyph-name="uni0636" unicode="&#x636;" horiz-adv-x="2575" 
d="M98 0zM1913 1144l145 145l147 -146l-146 -145zM1753 181q546 0 546 232q0 83 -54.5 137.5t-140.5 54.5q-226 0 -499 -425zM1177 100q0 181 -90 369l169 58l59 -183q42 -128 104 -135q340 578 679 578q163 0 271 -105t108 -260q-2 -422 -720 -422h-51q-245 0 -364 57
q-4 -284 -168.5 -430.5t-452.5 -146.5q-623 0 -623 576q0 210 90 429l155 -63q-73 -193 -73 -361q0 -408 458 -408q448 0 449 447z" />
    <glyph glyph-name="uni0637" unicode="&#x637;" horiz-adv-x="1471" 
d="M649 182q546 0 546 232q0 83 -54.5 137.5t-140.5 54.5q-226 0 -499 -425zM320 180q10 16 73 116v1070h169v-830q204 251 429 251q169 0 275.5 -103t106.5 -262q-3 -422 -720 -422h-555v180h222z" />
    <glyph glyph-name="uni0638" unicode="&#x638;" horiz-adv-x="1471" 
d="M98 0zM825 1144l145 145l147 -146l-146 -145zM649 182q546 0 546 232q0 83 -54.5 137.5t-140.5 54.5q-226 0 -499 -425zM320 180q10 16 73 116v1070h169v-830q204 251 429 251q169 0 275.5 -103t106.5 -262q-3 -422 -720 -422h-555v180h222z" />
    <glyph glyph-name="uni0639" unicode="&#x639;" horiz-adv-x="1306" 
d="M968 783q-150 88 -253 88q-91 0 -155.5 -55.5t-64.5 -145.5q0 -20 2.5 -37.5t9.5 -35.5t12 -29.5t18 -30.5t19 -27t24.5 -30.5t24.5 -30.5q181 32 307 32q83 0 181 -10l-23 -171q-44 2 -99 2q-353 0 -530 -119t-177 -340q0 -164 129.5 -254.5t372.5 -90.5q204 0 407 94
l35 -170q-195 -96 -453 -96q-111 0 -209 19.5t-180.5 61t-142 101t-92.5 143.5t-33 185q0 179 84.5 326t254.5 223q-115 134 -115 298q0 145 115.5 255.5t267.5 110.5q153 0 329 -120z" />
    <glyph glyph-name="uni063A" unicode="&#x63a;" horiz-adv-x="1306" 
d="M98 0zM535 1362l145 145l147 -146l-146 -145zM968 783q-150 88 -253 88q-91 0 -155.5 -55.5t-64.5 -145.5q0 -20 2.5 -37.5t9.5 -35.5t12 -29.5t18 -30.5t19 -27t24.5 -30.5t24.5 -30.5q181 32 307 32q83 0 181 -10l-23 -171q-44 2 -99 2q-353 0 -530 -119t-177 -340
q0 -164 129.5 -254.5t372.5 -90.5q204 0 407 94l35 -170q-195 -96 -453 -96q-111 0 -209 19.5t-180.5 61t-142 101t-92.5 143.5t-33 185q0 179 84.5 326t254.5 223q-115 134 -115 298q0 145 115.5 255.5t267.5 110.5q153 0 329 -120z" />
    <glyph glyph-name="uni0640" unicode="&#x640;" horiz-adv-x="286" 
d="M-20 0v180h326v-180h-326z" />
    <glyph glyph-name="uni0641" unicode="&#x641;" horiz-adv-x="1781" 
d="M98 0zM1157 1344l145 145l147 -146l-146 -145zM1529 390q-93 -29 -201 -29q-326 0 -326 277q0 105 38.5 196t114.5 149t173 58q91 0 161 -48.5t111.5 -132t62 -184.5t20.5 -215q-1 -96 -14 -167t-43 -122.5t-72 -84.5t-107 -52.5t-140.5 -27t-179.5 -7.5h-290
q-366 0 -552.5 121.5t-186.5 362.5q0 129 54 254l153 -57q-32 -85 -32 -172q0 -163 144 -246t416 -83h315q79 0 136 5.5t105.5 19t78 37t45.5 60.5t16 88zM1514 558q-6 44 -14.5 83.5t-24 81.5t-35.5 72.5t-50.5 50t-67.5 19.5q-64 0 -112 -60.5t-48 -147.5q0 -126 177 -126
q81 0 175 27z" />
    <glyph glyph-name="uni0642" unicode="&#x642;" horiz-adv-x="1437" 
d="M98 0zM983 1060l140 140l141 -140l-141 -142zM651 1060l140 140l141 -140l-141 -142zM1163 276q-7 57 -19.5 106t-34 97.5t-57 76.5t-81.5 28q-64 0 -112 -61t-48 -147q0 -127 176 -127q84 0 176 27zM343 482q-73 -193 -73 -361q0 -408 455 -408q243 0 347.5 99.5
t107.5 296.5q-103 -30 -209 -30q-320 0 -320 270q0 104 38 196t114 153t175 61q78 0 140.5 -34t103 -91t67.5 -135.5t38.5 -163t11.5 -179.5q0 -314 -149 -465t-469 -151q-314 0 -468.5 143.5t-154.5 432.5q0 210 90 429z" />
    <glyph glyph-name="uni0643" unicode="&#x643;" horiz-adv-x="1831" 
d="M708 588q97 -11 131 -11q33 0 49.5 0.5t42.5 2.5t39 7.5t28 14t21 23.5t6 35q0 43 -23 55.5t-80 12.5q-74 0 -121.5 43.5t-47.5 137.5q0 86 55.5 139t163.5 53q25 0 52.5 -3t57.5 -8v-95q-60 8 -105 8q-35 0 -61.5 -6.5t-42 -18t-23.5 -27t-8 -33.5q0 -42 22.5 -64
t75.5 -22q95 -1 134 -39.5t39 -128.5q0 -104 -62.5 -144.5t-204.5 -40.5q-39 0 -138 15v94zM978 180q141 0 237.5 12t155.5 33.5t90.5 59.5t42 79.5t10.5 105.5v896h169v-894q0 -100 -17 -170.5t-62 -131t-123 -96t-201 -55t-295 -19.5h-145q-362 0 -552 122t-190 362
q0 129 54 254l153 -57q-32 -85 -32 -172q1 -329 557 -329h148z" />
    <glyph glyph-name="uni0644" unicode="&#x644;" horiz-adv-x="1377" 
d="M335 358q-66 -168 -66 -322q0 -383 406 -383q383 0 383 415l3 1298h168l-1 -1259q0 -627 -554 -627q-576 0 -576 557q0 186 82 384z" />
    <glyph glyph-name="uni0645" unicode="&#x645;" horiz-adv-x="1230" 
d="M560 296q182 -141 283 -141q122 1 122 140q0 95 -50 158t-134 63q-142 0 -221 -220zM112 -655q-11 184 -11 322q0 94 4 167t15 147.5t31.5 129.5t51 101.5t76.5 75.5t106 41q146 370 395 372q157 0 254.5 -114t97.5 -280q0 -150 -73.5 -240t-215.5 -90q-101 0 -244 82
q-37 23 -103 57q-43 22 -77 22q-77 -1 -111 -108.5t-34 -334.5q0 -184 14 -350h-176z" />
    <glyph glyph-name="uni0646" unicode="&#x646;" horiz-adv-x="1447" 
d="M98 0zM561 682l145 145l147 -146l-146 -145zM1087 539l169 58q93 -237 93 -457q0 -285 -167 -437.5t-461 -152.5q-623 0 -623 576q0 210 90 429l155 -63q-73 -193 -73 -361q0 -408 458 -408q447 0 449 447q0 181 -90 369z" />
    <glyph glyph-name="uni0647" unicode="&#x647;" horiz-adv-x="922" 
d="M447 635q-182 -160 -182 -286q0 -85 47 -127t148 -42q102 0 149.5 42t47.5 128q0 116 -210 285zM369 932q455 -333 455 -588q0 -149 -98 -243.5t-265 -96.5q-174 0 -268.5 88.5t-94.5 251.5q0 204 219 419l-45 39z" />
    <glyph glyph-name="uni0648" unicode="&#x648;" horiz-adv-x="880" 
d="M616 13q-118 -15 -159 -15q-359 0 -359 298q0 174 93.5 299t236.5 125q88 0 157.5 -47t111.5 -126.5t63.5 -176.5t21.5 -204q0 -281 -155 -458.5t-459 -235.5l-60 154q213 40 340.5 139.5t167.5 247.5zM616 199q-21 336 -196 336q-68 0 -112.5 -67.5t-44.5 -156.5
q0 -139 195 -139q69 0 158 27z" />
    <glyph glyph-name="uni0649" unicode="&#x649;" horiz-adv-x="1477" 
d="M361 475q-92 -225 -92 -393q0 -408 455 -410q121 0 231.5 32t186 99t75.5 155q0 58 -99 58h-144q-121 0 -183.5 63t-62.5 184q0 99 38.5 183t102.5 140.5t148 88.5t175 32q104 0 180 -32l-32 -165q-68 21 -148 21q-64 0 -120.5 -22.5t-94 -59t-59 -82t-21.5 -91.5
t17.5 -65t69.5 -19h180q103 0 159 -53.5t56 -140.5q0 -235 -180 -366t-480 -131q-621 0 -621 578q0 204 108 459z" />
    <glyph glyph-name="uni064A" unicode="&#x64a;" horiz-adv-x="1477" 
d="M98 0zM745 -789l140 140l141 -140l-141 -142zM413 -789l140 140l141 -140l-141 -142zM361 475q-92 -225 -92 -393q0 -408 455 -410q121 0 231.5 32t186 99t75.5 155q0 58 -99 58h-144q-121 0 -183.5 63t-62.5 184q0 99 38.5 183t102.5 140.5t148 88.5t175 32
q104 0 180 -32l-32 -165q-68 21 -148 21q-64 0 -120.5 -22.5t-94 -59t-59 -82t-21.5 -91.5t17.5 -65t69.5 -19h180q103 0 159 -53.5t56 -140.5q0 -235 -180 -366t-480 -131q-621 0 -621 578q0 204 108 459z" />
    <glyph glyph-name="uni064B" unicode="&#x64b;" 
d="M327 1076v104l455 186v-103zM327 1288v104l455 186v-103z" />
    <glyph glyph-name="uni064C" unicode="&#x64c;" 
d="M489 1629q0 72 46 117t117 45q72 0 117 -44.5t45 -118.5q0 -57 -27 -121q23 -4 43 -4v-76q-38 2 -76 9q-47 -113 -117.5 -169t-164.5 -56q-97 0 -149.5 83t-54.5 226l79 14q2 -112 34.5 -178.5t91.5 -66.5q111 0 200 159q-89 31 -136.5 73t-47.5 108zM709 1523
q27 63 27 104q0 36 -23.5 60t-56.5 24q-38 0 -62.5 -23.5t-24.5 -62.5q0 -65 140 -102z" />
    <glyph glyph-name="uni064D" unicode="&#x64d;" 
d="M332 -446v104l456 186v-104zM332 -234v104l456 186v-104z" />
    <glyph glyph-name="uni064E" unicode="&#x64e;" 
d="M296 1349v104l456 186v-104z" />
    <glyph glyph-name="uni064F" unicode="&#x64f;" 
d="M723 1427q-41 0 -80 6q-97 -135 -363 -150v78q216 20 286 94q-75 14 -130.5 59.5t-55.5 111.5q0 73 46 117.5t117 44.5q72 0 117.5 -45t45.5 -118q0 -56 -26 -119q26 -4 43 -4v-75zM600 1520q27 63 27 104q0 36 -23 59.5t-57 23.5q-39 0 -63 -23t-24 -62q0 -65 140 -102z
" />
    <glyph glyph-name="uni0650" unicode="&#x650;" 
d="M343 -346v104l455 186v-103z" />
    <glyph glyph-name="uni0651" unicode="&#x651;" 
d="M608 1758q3 -80 3 -82q8 -102 70 -102q67 0 67 101q0 36 -17 118l88 14q18 -61 18 -122q0 -201 -147 -203q-34 0 -65 15.5t-44 41.5q-14 -54 -55 -77.5t-94 -23.5q-70 0 -104 45t-34 133q0 18 1.5 35.5t4.5 33.5t7 31l78 -13q-9 -40 -9 -83q0 -84 68 -84q21 0 36 4.5
t24.5 16.5t15 24.5t8 37t3 44.5t0.5 56v39h77z" />
    <glyph glyph-name="uni0652" unicode="&#x652;" 
d="M500 1462q0 -39 27.5 -66t66.5 -27t66 27t27 66t-27 66.5t-66 27.5t-66.5 -27.5t-27.5 -66.5zM421 1462q0 71 51 122t122 51t122 -51t51 -122t-51 -122t-122 -51t-122 51t-51 122z" />
    <glyph glyph-name="uni0653" unicode="&#x653;" 
d="M373 1654q-83 0 -176 -111l-101 91q114 161 243 162q42 0 117.5 -25.5t117.5 -25.5q71 0 178 54l66 -122q-112 -69 -218 -69q-41 0 -114.5 23t-112.5 23z" />
    <glyph glyph-name="uni0654" unicode="&#x654;" 
d="M350 1689zM453 1825q-37 31 -53.5 69.5t-16.5 94.5q0 93 59.5 150.5t141.5 57.5q36 0 70 -10.5t66 -30.5l1 -119q-62 37 -123 37q-27 0 -48.5 -9.5t-36.5 -32t-15 -56.5q1 -22 9.5 -39.5t28 -32.5t50.5 -27q6 -2 10.5 -3t9.5 -1h2.5t2.5 0.5t3 0.5q25 5 71 14.5t62 12.5
v-116l-397 -96v113z" />
    <glyph glyph-name="uni0655" unicode="&#x655;" 
d="M350 0zM453 -327q-37 31 -53.5 69.5t-16.5 94.5q0 93 59.5 150.5t141.5 57.5q36 0 70 -10.5t66 -30.5l1 -119q-62 37 -123 37q-27 0 -48.5 -9.5t-36.5 -32t-15 -56.5q1 -22 9.5 -39.5t28 -32.5t50.5 -27q6 -2 10.5 -3t9.5 -1h2.5t2.5 0.5t3 0.5q25 5 71 14.5t62 12.5
v-116l-397 -96v113z" />
    <glyph glyph-name="uni0656" unicode="&#x656;" 
d="M593 -31zM593 -393v362h88v-362h-88z" />
    <glyph glyph-name="uni0657" unicode="&#x657;" 
d="M265 1805q59 -1 130 -9l1 1q150 214 389 236v-78q-185 -30 -299 -177q74 -22 123 -66.5t49 -112.5q0 -69 -44 -115t-113 -46q-71 0 -120 45.5t-49 119.5q0 47 23 119q-54 4 -90 4v79zM501 1516q36 0 56 22t20 59q0 42 -41 70t-99 42q-27 -65 -27 -104t26.5 -64t64.5 -25z
" />
    <glyph glyph-name="uni0658" unicode="&#x658;" 
d="M837 1539q-10 -118 -73.5 -192.5t-172.5 -74.5q-73 0 -127.5 36.5t-83 95.5t-35.5 135h101q10 -79 44 -122t101.5 -43t100.5 43t43 122h102z" />
    <glyph glyph-name="uni065A" unicode="&#x65a;" 
d="M502 1444l-193 324h124l140 -240l141 240h124l-194 -324h-142z" />
    <glyph glyph-name="uni0660" unicode="&#x660;" horiz-adv-x="799" 
d="M175 489l223 224l226 -225l-224 -224z" />
    <glyph glyph-name="uni0661" unicode="&#x661;" horiz-adv-x="651" 
d="M274 1320q203 -451 203 -1075v-245h-170v248q0 630 -189 1015z" />
    <glyph glyph-name="uni0662" unicode="&#x662;" horiz-adv-x="1114" 
d="M307 248q0 630 -189 1015l155 56q15 -40 45.5 -119.5t45.5 -119.5q36 -95 97 -140t163 -45q103 0 154.5 67.5t51.5 187.5q0 55 -17 160l169 19q14 -109 14 -169q0 -206 -96 -322t-274 -116q-55 0 -94.5 9t-93.5 32q39 -274 39 -518v-245h-170v248z" />
    <glyph glyph-name="uni0663" unicode="&#x663;" horiz-adv-x="1411" 
d="M307 248q0 630 -189 1015l155 56q18 -51 54.5 -151t54.5 -151q43 -120 184 -122q130 0 132 266q0 16 0.5 48.5t0.5 48.5l154 13q1 -17 2 -51.5t2 -51.5q11 -273 142 -273q129 0 129 199q0 95 -21 216l169 20q17 -134 17 -230q0 -173 -75 -275.5t-223 -102.5
q-128 0 -223 111q-92 -111 -204 -111q-73 0 -128 33q37 -269 37 -510v-245h-170v248z" />
    <glyph glyph-name="uni0664" unicode="&#x664;" horiz-adv-x="1006" 
d="M768 624q-236 -95 -345 -167.5t-109 -145.5q0 -70 99.5 -100.5t290.5 -30.5h192l2 -180h-201q-566 2 -566 307q0 111 98 201t300 180q-157 33 -236 108t-79 197q0 101 61.5 176t160.5 111.5t220 38.5q68 0 142 -9l-13 -178q-49 6 -91 6q-285 0 -285 -162q0 -141 357 -171
z" />
    <glyph glyph-name="uni0665" unicode="&#x665;" horiz-adv-x="1177" 
d="M562 979q-132 -142 -202.5 -276t-70.5 -235q0 -125 78.5 -207.5t227.5 -82.5q139 0 216.5 84.5t77.5 212.5q0 115 -86 248t-241 256zM470 1289q206 -147 331 -272.5t192.5 -266t67.5 -298.5q0 -196 -126.5 -324t-343.5 -128q-115 0 -206.5 35.5t-149 97.5t-88 143
t-30.5 175q0 161 73.5 310.5t228.5 329.5l-58 45z" />
    <glyph glyph-name="uni0666" unicode="&#x666;" horiz-adv-x="1175" 
d="M836 0q-122 500 -133 1076q-135 -37 -299 -37q-96 0 -157 14.5t-154 56.5v197q101 -47 173.5 -64t183.5 -17t205 19t209 64q11 -826 156 -1309h-184z" />
    <glyph glyph-name="uni0667" unicode="&#x667;" horiz-adv-x="1246" 
d="M542 0q-66 377 -181.5 695t-260.5 540l155 84q122 -207 220.5 -466t148.5 -549q48 290 146 548.5t221 466.5l155 -84q-145 -221 -260 -539.5t-181 -695.5h-163z" />
    <glyph glyph-name="uni0668" unicode="&#x668;" horiz-adv-x="1246" 
d="M542 1305h163q66 -377 181 -695.5t260 -539.5l-155 -84q-123 208 -221 466.5t-146 548.5q-50 -290 -148.5 -549t-220.5 -466l-155 84q145 222 260.5 540t181.5 695z" />
    <glyph glyph-name="uni0669" unicode="&#x669;" horiz-adv-x="1026" 
d="M107 930q0 96 46 184.5t129 145t180 56.5q78 0 137.5 -24t97.5 -65.5t63.5 -104.5t37 -132.5t16.5 -159.5q24 -482 33 -830h-168q-2 68 -9 321t-9 321q-83 -25 -178 -25q-191 0 -283.5 74t-92.5 239zM461 1145q-78 0 -133 -66.5t-55 -148.5q0 -73 49.5 -108t163.5 -35
q78 0 161 25q-4 68 -8.5 109t-16.5 87.5t-31 74.5q-43 62 -130 62z" />
    <glyph glyph-name="uni066A" unicode="&#x66a;" horiz-adv-x="1033" 
d="M742 1352l132 -60l-582 -1287l-132 60zM637 193q0 55 39 94.5t94 39.5t94 -39.5t39 -94.5t-39 -94t-94 -39q-56 0 -94.5 38t-38.5 95zM130 1159q0 55 39 94.5t94 39.5t94 -39.5t39 -94.5t-39 -94t-94 -39q-56 0 -94.5 38t-38.5 95z" />
    <glyph glyph-name="uni066B" unicode="&#x66b;" horiz-adv-x="772" 
d="M534 713l127 -54l-462 -1067l-130 56z" />
    <glyph glyph-name="uni066C" unicode="&#x66c;" horiz-adv-x="560" 
d="M178 -300l-95 72q100 139 104 280v167h171v-145q0 -107 -54 -211t-126 -163z" />
    <glyph glyph-name="uni066D" unicode="&#x66d;" horiz-adv-x="1436" 
d="M151 1039h432l135 411l135 -411h432l-349 -256l134 -410l-352 254l-352 -254l134 410z" />
    <glyph glyph-name="uni066E" unicode="&#x66e;" horiz-adv-x="1777" 
d="M975 0h-135q-362 0 -552 122t-190 362q0 129 54 254l153 -57q-32 -85 -32 -172q1 -329 557 -329h138q78 0 117.5 0.5t107.5 5.5t103.5 15t82.5 29t70 47.5t40 71.5t17 99q0 90 -36 250l160 40q49 -148 49 -275q0 -85 -18 -152.5t-49 -116t-81 -83.5t-105.5 -56
t-131.5 -33.5t-150 -17t-169 -4.5z" />
    <glyph glyph-name="uni066F" unicode="&#x66f;" horiz-adv-x="1437" 
d="M1163 276q-7 57 -19.5 106t-34 97.5t-57 76.5t-81.5 28q-64 0 -112 -61t-48 -147q0 -127 176 -127q84 0 176 27zM343 482q-73 -193 -73 -361q0 -408 455 -408q243 0 347.5 99.5t107.5 296.5q-103 -30 -209 -30q-320 0 -320 270q0 104 38 196t114 153t175 61
q78 0 140.5 -34t103 -91t67.5 -135.5t38.5 -163t11.5 -179.5q0 -314 -149 -465t-469 -151q-314 0 -468.5 143.5t-154.5 432.5q0 210 90 429z" />
    <glyph glyph-name="uni0670" unicode="&#x670;" 
d="M593 1568v362h88v-362h-88z" />
    <glyph glyph-name="uni0671" unicode="&#x671;" horiz-adv-x="465" 
d="M0 2zM202 1373q54 0 89.5 2.5t63.5 8t43.5 15.5t23 25.5t7.5 37.5q0 19 -7 35.5t-18.5 28.5t-29 19t-37.5 7q-36 0 -67.5 -18.5t-62.5 -55.5t-74 -105h69zM-45 1355l17 82q5 -5 13 -11.5t27 -20.5t33 -19q82 138 146 195t142 57q79 0 129 -48.5t50 -123.5q0 -98 -69 -138
t-239 -40h-24q-60 0 -104.5 7t-75.5 22t-45 38zM148 1168.82h169v-1165.96h-169v1165.96z" />
    <glyph glyph-name="uni0674" unicode="&#x674;" horiz-adv-x="551" 
d="M186 1969q-37 31 -53.5 69.5t-16.5 94.5q0 93 59.5 150.5t141.5 57.5q36 0 70 -10.5t66 -30.5l1 -119q-62 37 -123 37q-27 0 -48.5 -9.5t-36.5 -32t-15 -56.5q1 -22 9.5 -39.5t28 -32.5t50.5 -27q6 -2 10.5 -3t9.5 -1h2.5t2.5 0.5t3 0.5q25 5 71 14.5t62 12.5v-116
l-397 -96v113z" />
    <glyph glyph-name="uni0679" unicode="&#x679;" horiz-adv-x="1777" 
d="M98 0zM862 831q35 0 64.5 2t53 6t42.5 10t32 13.5t22 16.5t13 19.5t4 22.5q0 32 -20 52t-53 20q-88 0 -199 -163zM706 830q3 5 7 11.5t6.5 10.5t7 10.5t5.5 9.5v423v9v5h5h9h76h9h5v-5v-9v-282q85 90 179 90q54 0 96.5 -23t66 -64t23.5 -92q-1 -203 -338 -203h-249h-9h-5
v5v9v81v9v5h5h9h92zM975 0h-135q-362 0 -552 122t-190 362q0 129 54 254l153 -57q-32 -85 -32 -172q1 -329 557 -329h138q78 0 117.5 0.5t107.5 5.5t103.5 15t82.5 29t70 47.5t40 71.5t17 99q0 90 -36 250l160 40q49 -148 49 -275q0 -85 -18 -152.5t-49 -116t-81 -83.5
t-105.5 -56t-131.5 -33.5t-150 -17t-169 -4.5z" />
    <glyph glyph-name="uni067C" unicode="&#x67c;" horiz-adv-x="1777" 
d="M98 0zM804 -95q0 -39 27.5 -66t66.5 -27t66 27t27 66t-27 66.5t-66 27.5t-66.5 -27.5t-27.5 -66.5zM716 -95q0 75 53.5 128.5t128.5 53.5t128.5 -53.5t53.5 -128.5t-53.5 -128.5t-128.5 -53.5t-128.5 53.5t-53.5 128.5zM975 0h-135q-362 0 -552 122t-190 362
q0 129 54 254l153 -57q-32 -85 -32 -172q1 -329 557 -329h138q78 0 117.5 0.5t107.5 5.5t103.5 15t82.5 29t70 47.5t40 71.5t17 99q0 90 -36 250l160 40q49 -148 49 -275q0 -85 -18 -152.5t-49 -116t-81 -83.5t-105.5 -56t-131.5 -33.5t-150 -17t-169 -4.5zM921 860l140 140
l141 -140l-141 -142zM589 860l140 140l141 -140l-141 -142z" />
    <glyph glyph-name="uni067E" unicode="&#x67e;" horiz-adv-x="1777" 
d="M98 0zM774 -530l132 133l133 -133l-133 -132zM946 -268l132 133l133 -133l-133 -132zM606 -268l132 133l133 -133l-133 -132zM975 0h-135q-362 0 -552 122t-190 362q0 129 54 254l153 -57q-32 -85 -32 -172q1 -329 557 -329h138q78 0 117.5 0.5t107.5 5.5t103.5 15
t82.5 29t70 47.5t40 71.5t17 99q0 90 -36 250l160 40q49 -148 49 -275q0 -85 -18 -152.5t-49 -116t-81 -83.5t-105.5 -56t-131.5 -33.5t-150 -17t-169 -4.5z" />
    <glyph glyph-name="uni0681" unicode="&#x681;" horiz-adv-x="1347" 
d="M98 0zM836 550q-35 14 -91 37q-69 28 -95.5 38t-68.5 25.5t-64.5 20.5t-39.5 5q-55 0 -108.5 -32t-92.5 -82l-27 -35l-151 75l15 26q65 105 159.5 165.5t205.5 60.5q104 0 303 -96q157 -76 259 -111t188 -39l-13 -170q-266 -21 -481.5 -99t-342 -202.5t-126.5 -271.5
q0 -371 533 -371q213 0 415 95l35 -170q-201 -96 -464 -96q-154 0 -278 32t-216 95.5t-141.5 164.5t-49.5 234q0 121 48 230.5t139.5 200.5t231.5 160.5t318 109.5zM422 1003zM525 1139q-37 31 -53.5 69.5t-16.5 94.5q0 93 59.5 150.5t141.5 57.5q36 0 70 -10.5t66 -30.5
l1 -119q-62 37 -123 37q-27 0 -48.5 -9.5t-36.5 -32t-15 -56.5q1 -22 9.5 -39.5t28 -32.5t50.5 -27q6 -2 10.5 -3t9.5 -1h2.5t2.5 0.5t3 0.5q25 5 71 14.5t62 12.5v-116l-397 -96v113z" />
    <glyph glyph-name="uni0685" unicode="&#x685;" horiz-adv-x="1347" 
d="M98 0zM504 1385l132 132l133 -132l-133 -133zM676 1123l132 132l133 -132l-133 -133zM336 1123l132 132l133 -132l-133 -133zM836 550q-35 14 -91 37q-69 28 -95.5 38t-68.5 25.5t-64.5 20.5t-39.5 5q-55 0 -108.5 -32t-92.5 -82l-27 -35l-151 75l15 26
q65 105 159.5 165.5t205.5 60.5q104 0 303 -96q157 -76 259 -111t188 -39l-13 -170q-266 -21 -481.5 -99t-342 -202.5t-126.5 -271.5q0 -371 533 -371q213 0 415 95l35 -170q-201 -96 -464 -96q-154 0 -278 32t-216 95.5t-141.5 164.5t-49.5 234q0 121 48 230.5t139.5 200.5
t231.5 160.5t318 109.5z" />
    <glyph glyph-name="uni0686" unicode="&#x686;" horiz-adv-x="1347" 
d="M98 0zM680 -240l132 133l133 -133l-133 -132zM852 22l132 133l133 -133l-133 -132zM512 22l132 133l133 -133l-133 -132zM836 550q-35 14 -91 37q-69 28 -95.5 38t-68.5 25.5t-64.5 20.5t-39.5 5q-55 0 -108.5 -32t-92.5 -82l-27 -35l-151 75l15 26q65 105 159.5 165.5
t205.5 60.5q104 0 303 -96q157 -76 259 -111t188 -39l-13 -170q-266 -21 -481.5 -99t-342 -202.5t-126.5 -271.5q0 -371 533 -371q213 0 415 95l35 -170q-201 -96 -464 -96q-154 0 -278 32t-216 95.5t-141.5 164.5t-49.5 234q0 121 48 230.5t139.5 200.5t231.5 160.5
t318 109.5z" />
    <glyph glyph-name="uni0688" unicode="&#x688;" horiz-adv-x="963" 
d="M98 2zM377 1273q35 0 64.5 2t53 6t42.5 10t32 13.5t22 16.5t13 19.5t4 22.5q0 32 -20 52t-53 20q-88 0 -199 -163zM221 1272q3 5 7 11.5t6.5 10.5t7 10.5t5.5 9.5v423v9v5h5h9h76h9h5v-5v-9v-282q85 90 179 90q54 0 96.5 -23t66 -64t23.5 -92q-1 -203 -338 -203h-249h-9
h-5v5v9v81v9v5h5h9h92zM98 207q128 -26 219 -26q372 0 372 183q0 190 -414 451l98 148q492 -294 492 -596q0 -365 -535 -365q-120 0 -232 24v181z" />
    <glyph glyph-name="uni0689" unicode="&#x689;" horiz-adv-x="963" 
d="M98 0zM336 -91q0 -39 27.5 -66t66.5 -27t66 27t27 66t-27 66.5t-66 27.5t-66.5 -27.5t-27.5 -66.5zM248 -91q0 75 53.5 128.5t128.5 53.5t128.5 -53.5t53.5 -128.5t-53.5 -128.5t-128.5 -53.5t-128.5 53.5t-53.5 128.5zM98 207q128 -26 219 -26q372 0 372 183
q0 190 -414 451l98 148q492 -294 492 -596q0 -365 -535 -365q-120 0 -232 24v181z" />
    <glyph glyph-name="uni0691" unicode="&#x691;" horiz-adv-x="810" 
d="M0 0zM411 826q35 0 64.5 2t53 6t42.5 10t32 13.5t22 16.5t13 19.5t4 22.5q0 32 -20 52t-53 20q-88 0 -199 -163zM255 825q3 5 7 11.5t6.5 10.5t7 10.5t5.5 9.5v423v9v5h5h9h76h9h5v-5v-9v-282q85 90 179 90q54 0 96.5 -23t66 -64t23.5 -92q-1 -203 -338 -203h-249h-9h-5
v5v9v81v9v5h5h9h92zM600 527q82 -203 82 -392q0 -543 -632 -663l-60 154q522 99 525 504q0 158 -77 339z" />
    <glyph glyph-name="uni0693" unicode="&#x693;" horiz-adv-x="780" 
d="M0 0zM420 -438q0 -39 27.5 -66t66.5 -27t66 27t27 66t-27 66.5t-66 27.5t-66.5 -27.5t-27.5 -66.5zM332 -438q0 75 53.5 128.5t128.5 53.5t128.5 -53.5t53.5 -128.5t-53.5 -128.5t-128.5 -53.5t-128.5 53.5t-53.5 128.5zM600 527q82 -203 82 -392q0 -543 -632 -663
l-60 154q522 99 525 504q0 158 -77 339z" />
    <glyph glyph-name="uni0695" unicode="&#x695;" horiz-adv-x="780" 
d="M0 0zM253 -925l-193 324h124l140 -240l141 240h124l-194 -324h-142zM600 527q82 -203 82 -392q0 -543 -632 -663l-60 154q522 99 525 504q0 158 -77 339z" />
    <glyph glyph-name="uni0696" unicode="&#x696;" horiz-adv-x="780" 
d="M0 0zM392 -616l145 145l147 -146l-146 -145zM54 12l145 145l147 -146l-146 -145zM600 527q82 -203 82 -392q0 -543 -632 -663l-60 154q522 99 525 504q0 158 -77 339z" />
    <glyph glyph-name="uni0698" unicode="&#x698;" horiz-adv-x="810" 
d="M0 0zM317 1096l132 132l133 -132l-133 -133zM489 834l132 132l133 -132l-133 -133zM149 834l132 132l133 -132l-133 -133zM600 527q82 -203 82 -392q0 -543 -632 -663l-60 154q522 99 525 504q0 158 -77 339z" />
    <glyph glyph-name="uni069A" unicode="&#x69a;" horiz-adv-x="2456" 
d="M98 0zM1662 -298l145 145l147 -146l-146 -145zM1602 946l145 145l147 -146l-146 -145zM1531 0q-115 0 -189 58q-4 -281 -167 -429.5t-454 -148.5q-623 0 -623 576q0 210 90 429l155 -63q-73 -193 -73 -361q0 -408 458 -408q448 0 449 447q0 181 -90 369l169 58l59 -183
q52 -163 218 -164q97 0 141 52.5t44 156.5q0 48 -10 178l165 20l16 -226q6 -82 45 -131.5t113 -49.5q139 0 139 222q0 107 -44 264l168 45q48 -153 48 -294q0 -89 -17 -162t-52.5 -131.5t-96.5 -91t-144 -32.5q-171 0 -242 143q-103 -143 -275 -143z" />
    <glyph glyph-name="uni06A1" unicode="&#x6a1;" horiz-adv-x="1781" 
d="M1529 390q-93 -29 -201 -29q-326 0 -326 277q0 105 38.5 196t114.5 149t173 58q91 0 161 -48.5t111.5 -132t62 -184.5t20.5 -215q-1 -96 -14 -167t-43 -122.5t-72 -84.5t-107 -52.5t-140.5 -27t-179.5 -7.5h-290q-366 0 -552.5 121.5t-186.5 362.5q0 129 54 254l153 -57
q-32 -85 -32 -172q0 -163 144 -246t416 -83h315q79 0 136 5.5t105.5 19t78 37t45.5 60.5t16 88zM1514 558q-6 44 -14.5 83.5t-24 81.5t-35.5 72.5t-50.5 50t-67.5 19.5q-64 0 -112 -60.5t-48 -147.5q0 -126 177 -126q81 0 175 27z" />
    <glyph glyph-name="uni06A4" unicode="&#x6a4;" horiz-adv-x="1781" 
d="M98 0zM1168 1569l132 132l133 -132l-133 -133zM1340 1307l132 132l133 -132l-133 -133zM1000 1307l132 132l133 -132l-133 -133zM1529 390q-93 -29 -201 -29q-326 0 -326 277q0 105 38.5 196t114.5 149t173 58q91 0 161 -48.5t111.5 -132t62 -184.5t20.5 -215
q-1 -96 -14 -167t-43 -122.5t-72 -84.5t-107 -52.5t-140.5 -27t-179.5 -7.5h-290q-366 0 -552.5 121.5t-186.5 362.5q0 129 54 254l153 -57q-32 -85 -32 -172q0 -163 144 -246t416 -83h315q79 0 136 5.5t105.5 19t78 37t45.5 60.5t16 88zM1514 558q-6 44 -14.5 83.5
t-24 81.5t-35.5 72.5t-50.5 50t-67.5 19.5q-64 0 -112 -60.5t-48 -147.5q0 -126 177 -126q81 0 175 27z" />
    <glyph glyph-name="uni06A9" unicode="&#x6a9;" horiz-adv-x="1865" 
d="M305 681q-32 -85 -32 -172q1 -329 557 -329h200q436 0 436 192q0 49 -25 92.5t-79 94.5q-85 79 -274 228q-113 88 -113 185q0 127 140 181l690 256v-171l-675 -250q120 -101 167.5 -141.5t114 -100t103.5 -99.5q127 -139 127 -292q0 -355 -611 -355h-191q-362 0 -552 122
t-190 362q0 129 54 254z" />
    <glyph glyph-name="uni06AB" unicode="&#x6ab;" horiz-adv-x="1865" 
d="M98 0zM1510 1061q0 -39 27.5 -66t66.5 -27t66 27t27 66t-27 66.5t-66 27.5t-66.5 -27.5t-27.5 -66.5zM1422 1061q0 75 53.5 128.5t128.5 53.5t128.5 -53.5t53.5 -128.5t-53.5 -128.5t-128.5 -53.5t-128.5 53.5t-53.5 128.5zM305 681q-32 -85 -32 -172q1 -329 557 -329
h200q436 0 436 192q0 49 -25 92.5t-79 94.5q-85 79 -274 228q-113 88 -113 185q0 127 140 181l690 256v-171l-675 -250q120 -101 167.5 -141.5t114 -100t103.5 -99.5q127 -139 127 -292q0 -355 -611 -355h-191q-362 0 -552 122t-190 362q0 129 54 254z" />
    <glyph glyph-name="uni06AF" unicode="&#x6af;" horiz-adv-x="1865" 
d="M98 0zM1796.41 1534.07l-777.851 -288.885v108.064l777.851 288.886v-108.065zM305 681q-32 -85 -32 -172q1 -329 557 -329h200q436 0 436 192q0 49 -25 92.5t-79 94.5q-85 79 -274 228q-113 88 -113 185q0 127 140 181l690 256v-171l-675 -250q120 -101 167.5 -141.5
t114 -100t103.5 -99.5q127 -139 127 -292q0 -355 -611 -355h-191q-362 0 -552 122t-190 362q0 129 54 254z" />
    <glyph glyph-name="uni06B5" unicode="&#x6b5;" horiz-adv-x="1377" 
d="M98 0zM527 1054l-193 324h124l140 -240l141 240h124l-194 -324h-142zM335 358q-66 -168 -66 -322q0 -383 406 -383q383 0 383 415l3 1298h168l-1 -1259q0 -627 -554 -627q-576 0 -576 557q0 186 82 384z" />
    <glyph glyph-name="uni06BA" unicode="&#x6ba;" horiz-adv-x="1447" 
d="M1087 539l169 58q93 -237 93 -457q0 -285 -167 -437.5t-461 -152.5q-623 0 -623 576q0 210 90 429l155 -63q-73 -193 -73 -361q0 -408 458 -408q447 0 449 447q0 181 -90 369z" />
    <glyph glyph-name="uni06BC" unicode="&#x6bc;" horiz-adv-x="1447" 
d="M98 0zM640 -547q0 -39 27.5 -66t66.5 -27t66 27t27 66t-27 66.5t-66 27.5t-66.5 -27.5t-27.5 -66.5zM552 -547q0 75 53.5 128.5t128.5 53.5t128.5 -53.5t53.5 -128.5t-53.5 -128.5t-128.5 -53.5t-128.5 53.5t-53.5 128.5zM98 0zM561 682l145 145l147 -146l-146 -145z
M1087 539l169 58q93 -237 93 -457q0 -285 -167 -437.5t-461 -152.5q-623 0 -623 576q0 210 90 429l155 -63q-73 -193 -73 -361q0 -408 458 -408q447 0 449 447q0 181 -90 369z" />
    <glyph glyph-name="uni06BE" unicode="&#x6be;" horiz-adv-x="1369" 
d="M0 0zM503 240q82 33 126.5 93.5t45.5 129.5q0 81 -46 125t-125 44q-81 0 -131 -44.5t-50 -119.5q0 -72 46.5 -133.5t133.5 -94.5zM585 951q348 -169 517 -315t169 -283q0 -166 -105.5 -254.5t-286.5 -88.5q-92 0 -205 20.5t-189 46.5q-88 -33 -200 -55t-210 -22h-95v180
h83q135 0 217 10q-127 106 -127 276q0 145 99.5 233t242.5 88q46 0 85 -10l-71 36zM728 699q54 -47 75.5 -96t21.5 -120q0 -177 -136 -297q85 -11 173 -11q234 0 234 175q0 142 -368 349z" />
    <glyph glyph-name="uni06C1" unicode="&#x6c1;" horiz-adv-x="922" 
d="M98 4zM447 635q-182 -160 -182 -286q0 -85 47 -127t148 -42q102 0 149.5 42t47.5 128q0 116 -210 285zM369 932q455 -333 455 -588q0 -149 -98 -243.5t-265 -96.5q-174 0 -268.5 88.5t-94.5 251.5q0 204 219 419l-45 39z" />
    <glyph glyph-name="uni06C2" unicode="&#x6c2;" horiz-adv-x="922" 
d="M98 4zM318 1199q-37 31 -53.5 69.5t-16.5 94.5q0 93 59.5 150.5t141.5 57.5q36 0 70 -10.5t66 -30.5l1 -119q-62 37 -123 37q-27 0 -48.5 -9.5t-36.5 -32t-15 -56.5q1 -22 9.5 -39.5t28 -32.5t50.5 -27q6 -2 10.5 -3t9.5 -1h2.5t2.5 0.5t3 0.5q25 5 71 14.5t62 12.5v-116
l-397 -96v113zM447 635q-182 -160 -182 -286q0 -85 47 -127t148 -42q102 0 149.5 42t47.5 128q0 116 -210 285zM369 932q455 -333 455 -588q0 -149 -98 -243.5t-265 -96.5q-174 0 -268.5 88.5t-94.5 251.5q0 204 219 419l-45 39z" />
    <glyph glyph-name="uni06C3" unicode="&#x6c3;" horiz-adv-x="922" 
d="M98 4zM447 635q-182 -160 -182 -286q0 -85 47 -127t148 -42q102 0 149.5 42t47.5 128q0 116 -210 285zM369 932q455 -333 455 -588q0 -149 -98 -243.5t-265 -96.5q-174 0 -268.5 88.5t-94.5 251.5q0 204 219 419l-45 39zM460 1218l140 140l141 -140l-141 -142zM128 1218
l140 140l141 -140l-141 -142z" />
    <glyph glyph-name="uni06C6" unicode="&#x6c6;" horiz-adv-x="880" 
d="M98 0zM352 939l-193 324h124l140 -240l141 240h124l-194 -324h-142zM616 13q-118 -15 -159 -15q-359 0 -359 298q0 174 93.5 299t236.5 125q88 0 157.5 -47t111.5 -126.5t63.5 -176.5t21.5 -204q0 -281 -155 -458.5t-459 -235.5l-60 154q213 40 340.5 139.5t167.5 247.5z
M616 199q-21 336 -196 336q-68 0 -112.5 -67.5t-44.5 -156.5q0 -139 195 -139q69 0 158 27z" />
    <glyph glyph-name="uni06CA" unicode="&#x6ca;" horiz-adv-x="880" 
d="M98 0zM443 1031l140 140l141 -140l-141 -142zM111 1031l140 140l141 -140l-141 -142zM616 13q-118 -15 -159 -15q-359 0 -359 298q0 174 93.5 299t236.5 125q88 0 157.5 -47t111.5 -126.5t63.5 -176.5t21.5 -204q0 -281 -155 -458.5t-459 -235.5l-60 154
q213 40 340.5 139.5t167.5 247.5zM616 199q-21 336 -196 336q-68 0 -112.5 -67.5t-44.5 -156.5q0 -139 195 -139q69 0 158 27z" />
    <glyph glyph-name="uni06CC" unicode="&#x6cc;" horiz-adv-x="1477" 
d="M98 0zM361 475q-92 -225 -92 -393q0 -408 455 -410q121 0 231.5 32t186 99t75.5 155q0 58 -99 58h-144q-121 0 -183.5 63t-62.5 184q0 99 38.5 183t102.5 140.5t148 88.5t175 32q104 0 180 -32l-32 -165q-68 21 -148 21q-64 0 -120.5 -22.5t-94 -59t-59 -82t-21.5 -91.5
t17.5 -65t69.5 -19h180q103 0 159 -53.5t56 -140.5q0 -235 -180 -366t-480 -131q-621 0 -621 578q0 204 108 459z" />
    <glyph glyph-name="uni06CD" unicode="&#x6cd;" horiz-adv-x="1681" 
d="M354 362l-296 -119l36 169l316 126l155 -63q-92 -225 -92 -393q0 -408 455 -410q121 0 231.5 32t186 99t75.5 155q0 58 -99 58h-144q-121 0 -183.5 63t-62.5 184q0 99 38.5 183t102.5 140.5t148 88.5t175 32q104 0 180 -32l-32 -165q-68 21 -148 21q-64 0 -120.5 -22.5
t-94 -59t-59 -82t-21.5 -91.5t17.5 -65t69.5 -19h180q103 0 159 -53.5t56 -140.5q0 -235 -180 -366t-480 -131q-621 0 -621 578q0 75 11.5 134.5t40.5 148.5z" />
    <glyph glyph-name="uni06CE" unicode="&#x6ce;" horiz-adv-x="1477" 
d="M98 0zM580 747l-193 324h124l140 -240l141 240h124l-194 -324h-142zM361 475q-92 -225 -92 -393q0 -408 455 -410q121 0 231.5 32t186 99t75.5 155q0 58 -99 58h-144q-121 0 -183.5 63t-62.5 184q0 99 38.5 183t102.5 140.5t148 88.5t175 32q104 0 180 -32l-32 -165
q-68 21 -148 21q-64 0 -120.5 -22.5t-94 -59t-59 -82t-21.5 -91.5t17.5 -65t69.5 -19h180q103 0 159 -53.5t56 -140.5q0 -235 -180 -366t-480 -131q-621 0 -621 578q0 204 108 459z" />
    <glyph glyph-name="uni06D0" unicode="&#x6d0;" horiz-adv-x="1477" 
d="M98 0zM740 -802l-140 140l140 142l142 -142zM740 -1084l-140 140l140 142l142 -142zM361 475q-92 -225 -92 -393q0 -408 455 -410q121 0 231.5 32t186 99t75.5 155q0 58 -99 58h-144q-121 0 -183.5 63t-62.5 184q0 99 38.5 183t102.5 140.5t148 88.5t175 32
q104 0 180 -32l-32 -165q-68 21 -148 21q-64 0 -120.5 -22.5t-94 -59t-59 -82t-21.5 -91.5t17.5 -65t69.5 -19h180q103 0 159 -53.5t56 -140.5q0 -235 -180 -366t-480 -131q-621 0 -621 578q0 204 108 459z" />
    <glyph glyph-name="uni06D2" unicode="&#x6d2;" horiz-adv-x="1744" 
d="M791 453q-11 15 -42 57t-50.5 67t-50 60t-57.5 59q-23 -33 -49 -74t-47 -71t-52 -68q-35 -42 -66.5 -74.5t-49.5 -48t-31.5 -27t-19 -18.5t-5.5 -16q0 -38 76.5 -68t198.5 -45.5t262 -15.5q189 0 397 17t322 33l113 17l6 -178q-46 -7 -126 -16.5t-300.5 -25.5t-409.5 -16
q-712 0 -712 282q0 39 13 70.5t38.5 58.5t53 51.5t67 62.5t70.5 79q36 47 70.5 97.5t51 77t36 50.5t39 33t47.5 9q41 0 94.5 -39t99.5 -94.5t79.5 -103t50.5 -79.5z" />
    <glyph glyph-name="uni06D3" unicode="&#x6d3;" horiz-adv-x="1744" 
d="M98 1zM538 1113q-37 31 -53.5 69.5t-16.5 94.5q0 93 59.5 150.5t141.5 57.5q36 0 70 -10.5t66 -30.5l1 -119q-62 37 -123 37q-27 0 -48.5 -9.5t-36.5 -32t-15 -56.5q1 -22 9.5 -39.5t28 -32.5t50.5 -27q6 -2 10.5 -3t9.5 -1h2.5t2.5 0.5t3 0.5q25 5 71 14.5t62 12.5v-116
l-397 -96v113zM791 453q-11 15 -42 57t-50.5 67t-50 60t-57.5 59q-23 -33 -49 -74t-47 -71t-52 -68q-35 -42 -66.5 -74.5t-49.5 -48t-31.5 -27t-19 -18.5t-5.5 -16q0 -38 76.5 -68t198.5 -45.5t262 -15.5q189 0 397 17t322 33l113 17l6 -178q-46 -7 -126 -16.5t-300.5 -25.5
t-409.5 -16q-712 0 -712 282q0 39 13 70.5t38.5 58.5t53 51.5t67 62.5t70.5 79q36 47 70.5 97.5t51 77t36 50.5t39 33t47.5 9q41 0 94.5 -39t99.5 -94.5t79.5 -103t50.5 -79.5z" />
    <glyph glyph-name="uni06D4" unicode="&#x6d4;" horiz-adv-x="632" 
d="M98 0v180h436v-180h-436z" />
    <glyph glyph-name="uni06D5" unicode="&#x6d5;" horiz-adv-x="922" 
d="M98 4zM447 635q-182 -160 -182 -286q0 -85 47 -127t148 -42q102 0 149.5 42t47.5 128q0 116 -210 285zM369 932q455 -333 455 -588q0 -149 -98 -243.5t-265 -96.5q-174 0 -268.5 88.5t-94.5 251.5q0 204 219 419l-45 39z" />
    <glyph glyph-name="uni06DC" unicode="&#x6dc;" 
d="M499 1276q-58 0 -94 28q-1 -69 -23 -123.5t-61.5 -90.5t-96.5 -54.5t-128 -18.5q-311 0 -311 286q0 105 45 214l77 -31q-36 -96 -36 -180q0 -203 228 -203q223 0 224 222q0 90 -45 184l84 29l29 -91q26 -81 109 -82q48 0 70 26t22 78q0 24 -5 89l82 10l8 -113
q3 -40 22.5 -65t56.5 -25q22 0 37.5 12.5t23.5 37t8 61.5q0 53 -22 131l83 23q24 -77 24 -147q0 -44 -8 -80.5t-26 -65.5t-48.5 -45t-71.5 -16q-85 0 -120 71q-52 -71 -137 -71z" />
    <glyph glyph-name="uni06DD" unicode="&#x6dd;" horiz-adv-x="2440" 
d="M284 1362q0 78 55.5 133.5t133.5 55.5q55 0 102 -30q139 100 303 153.5t342 53.5q60 0 118.5 -6t114.5 -18.5t110.5 -30t106 -40.5t100 -50.5t94.5 -59.5q45 28 99 28q78 0 133.5 -55.5t55.5 -133.5q0 -11 -1 -21.5t-3.5 -20.5t-6 -20t-8 -19.5t-9.5 -17.5
q99 -139 152.5 -303.5t53.5 -341.5t-53.5 -341.5t-152.5 -302.5q28 -46 28 -99q0 -78 -55.5 -133.5t-133.5 -55.5q-13 0 -26.5 2t-26 5.5t-24 8.5t-22.5 12q-138 -99 -302.5 -152.5t-341.5 -53.5q-178 0 -342.5 54t-303.5 153q-46 -29 -101 -29q-78 0 -133.5 55.5
t-55.5 133.5q0 55 30 102q-98 138 -151 301.5t-53 339.5q0 89 14 175.5t40 167t64 155.5t86 144q-14 22 -22 48t-8 54zM1850 -125q0 -31 15 -57t41 -41t57 -15t57 15t41 41t15 57q0 47 -33 80t-80 33t-80 -33t-33 -80zM360 -125q0 -47 33 -80t80 -33t80 33t33 80t-33 80
t-80 33t-80 -33t-33 -80zM1850 1362q0 -47 33 -80t80 -33t80 33t33 80t-33 80t-80 33t-80 -33t-33 -80zM360 1362q0 -47 33 -80t80 -33q31 0 57 15t41 41t15 57q0 47 -33 80t-80 33t-80 -33t-33 -80zM1774 1355h-1112q-3 -76 -58 -129t-131 -53q-19 0 -37.5 4t-36.5 11
q-178 -256 -178 -570q0 -313 178 -569q35 15 74 15q75 0 129.5 -52t59.5 -126h1112q5 74 59.5 126t129.5 52q40 0 77 -17q179 257 179 571q0 157 -46.5 302.5t-132.5 268.5q-18 -8 -37.5 -12t-39.5 -4q-76 0 -131 53t-58 129zM1778 1447q-253 170 -558 170t-558 -170h1116z
M655 -206q255 -175 565 -175t565 175h-1130z" />
    <glyph glyph-name="uni06DE" unicode="&#x6de;" horiz-adv-x="1990" 
d="M441 242v-222h221zM739 -56h-374v374l-264 264l264 264v367h367l260 260l259 -260h374v-374l264 -264l-264 -264v-367h-367l-260 -260zM1334 20h215v216zM1549 915v222h-221zM441 921l215 216h-215v-216zM441 814v-465l328 -329h457l323 323v465l-328 329h-457zM840 1213
h305l-153 152zM365 738l-157 -157l157 -157v314zM1625 733v-314l157 157zM1150 -56h-305l153 -152zM901 575q0 -39 27.5 -66t66.5 -27t66 27t27 66t-27 66.5t-66 27.5t-66.5 -27.5t-27.5 -66.5zM822 575q0 71 51 122t122 51t122 -51t51 -122t-51 -122t-122 -51t-122 51
t-51 122z" />
    <glyph glyph-name="uni06E9" unicode="&#x6e9;" horiz-adv-x="1180" 
d="M497 55l37 28v596l-140 140l196 197l196 -197l-140 -140v-596l37 -28h-186zM507 819l83 -83l83 83l-83 84zM224 819l190 -190v-486l-202 -149v-59h756v59l-202 149v486l190 190l-366 366zM111 819l479 479l479 -479l-223 -223v-412l202 -149v-180h-916v180l202 149v412z
" />
    <glyph glyph-name="uni06F0" unicode="&#x6f0;" horiz-adv-x="902" 
d="M144 493q0 127 90 217t217 90q83 0 153.5 -41.5t112 -112t41.5 -153.5q0 -62 -24.5 -119t-65.5 -98t-98 -65.5t-119 -24.5q-127 0 -217 90t-90 217zM299 493q0 -63 44.5 -108t107.5 -45t107.5 45t44.5 108t-44.5 107t-107.5 44t-107.5 -44t-44.5 -107z" />
    <glyph glyph-name="uni06F1" unicode="&#x6f1;" horiz-adv-x="651" 
d="M118 0zM274 1320q203 -451 203 -1075v-245h-170v248q0 630 -189 1015z" />
    <glyph glyph-name="uni06F2" unicode="&#x6f2;" horiz-adv-x="1114" 
d="M118 0zM307 248q0 630 -189 1015l155 56q15 -40 45.5 -119.5t45.5 -119.5q36 -95 97 -140t163 -45q103 0 154.5 67.5t51.5 187.5q0 55 -17 160l169 19q14 -109 14 -169q0 -206 -96 -322t-274 -116q-55 0 -94.5 9t-93.5 32q39 -274 39 -518v-245h-170v248z" />
    <glyph glyph-name="uni06F3" unicode="&#x6f3;" horiz-adv-x="1411" 
d="M118 0zM307 248q0 630 -189 1015l155 56q18 -51 54.5 -151t54.5 -151q43 -120 184 -122q130 0 132 266q0 16 0.5 48.5t0.5 48.5l154 13q1 -17 2 -51.5t2 -51.5q11 -273 142 -273q129 0 129 199q0 95 -21 216l169 20q17 -134 17 -230q0 -173 -75 -275.5t-223 -102.5
q-128 0 -223 111q-92 -111 -204 -111q-73 0 -128 33q37 -269 37 -510v-245h-170v248z" />
    <glyph glyph-name="uni06F4" unicode="&#x6f4;" horiz-adv-x="1193" 
d="M274 1319l72 -206q28 -80 47 -122t27.5 -52t20.5 -16q3 73 28 143.5t69 129.5t112.5 95t150.5 36q144 0 240 -72l-56 -154q-3 1 -13.5 6.5t-15 8t-16 7.5t-19.5 7t-21.5 6t-25.5 5.5t-28.5 3t-33.5 1.5q-99 0 -159.5 -75.5t-60.5 -176.5q0 -30 12 -41t47 -24
q63 -22 153 -22q112 0 254 57l23 -171q-134 -59 -256 -59q-243 0 -386 134q38 -309 38 -523v-245h-170v248q0 630 -189 1015z" />
    <glyph glyph-name="uni06F5" unicode="&#x6f5;" horiz-adv-x="1246" 
d="M396 170q68 0 102.5 54t62.5 203h124q24 -146 61.5 -201.5t107.5 -55.5q53 0 82.5 40.5t29.5 113.5q0 322 -349 686q-174 -229 -255.5 -393.5t-81.5 -292.5q0 -69 33 -111.5t83 -42.5zM535 1333q311 -289 453 -532t142 -476q0 -325 -276 -325q-80 0 -143.5 51t-87.5 132
q-23 -83 -81.5 -133t-144.5 -50q-130 0 -205.5 83t-75.5 242q0 94 28.5 194t85 206t116 197t145.5 208l-61 60z" />
    <glyph glyph-name="uni06F6" unicode="&#x6f6;" horiz-adv-x="1009" 
d="M907 709q-209 -95 -355.5 -275t-267.5 -472l-156 70q74 182 158 314t195 250q-168 25 -258 111.5t-90 201.5q0 77 28 150.5t78 131.5t125.5 93.5t163.5 35.5q131 0 231 -66l-60 -151q-79 40 -164 40q-89 0 -158.5 -72.5t-69.5 -154.5q0 -64 76 -114t241 -64q3 0 6 2
q127 80 230 131z" />
    <glyph glyph-name="uni06F7" unicode="&#x6f7;" horiz-adv-x="1246" 
d="M100 0zM542 0q-66 377 -181.5 695t-260.5 540l155 84q122 -207 220.5 -466t148.5 -549q48 290 146 548.5t221 466.5l155 -84q-145 -221 -260 -539.5t-181 -695.5h-163z" />
    <glyph glyph-name="uni06F8" unicode="&#x6f8;" horiz-adv-x="1246" 
d="M100 0zM542 1305h163q66 -377 181 -695.5t260 -539.5l-155 -84q-123 208 -221 466.5t-146 548.5q-50 -290 -148.5 -549t-220.5 -466l-155 84q145 222 260.5 540t181.5 695z" />
    <glyph glyph-name="uni06F9" unicode="&#x6f9;" horiz-adv-x="1026" 
d="M107 0zM107 930q0 96 46 184.5t129 145t180 56.5q78 0 137.5 -24t97.5 -65.5t63.5 -104.5t37 -132.5t16.5 -159.5q24 -482 33 -830h-168q-2 68 -9 321t-9 321q-83 -25 -178 -25q-191 0 -283.5 74t-92.5 239zM461 1145q-78 0 -133 -66.5t-55 -148.5q0 -73 49.5 -108
t163.5 -35q78 0 161 25q-4 68 -8.5 109t-16.5 87.5t-31 74.5q-43 62 -130 62z" />
    <glyph glyph-name="uni2000" unicode="&#x2000;" horiz-adv-x="1044" 
 />
    <glyph glyph-name="uni2001" unicode="&#x2001;" horiz-adv-x="2089" 
 />
    <glyph glyph-name="uni2002" unicode="&#x2002;" horiz-adv-x="1044" 
 />
    <glyph glyph-name="uni2003" unicode="&#x2003;" horiz-adv-x="2089" 
 />
    <glyph glyph-name="uni2004" unicode="&#x2004;" horiz-adv-x="697" 
 />
    <glyph glyph-name="uni2005" unicode="&#x2005;" horiz-adv-x="522" 
 />
    <glyph glyph-name="uni2006" unicode="&#x2006;" horiz-adv-x="348" 
 />
    <glyph glyph-name="uni2007" unicode="&#x2007;" horiz-adv-x="1151" 
 />
    <glyph glyph-name="uni2008" unicode="&#x2008;" horiz-adv-x="560" 
 />
    <glyph glyph-name="uni2009" unicode="&#x2009;" horiz-adv-x="418" 
 />
    <glyph glyph-name="uni200A" unicode="&#x200a;" horiz-adv-x="209" 
 />
    <glyph glyph-name="uni200B" unicode="&#x200b;" 
 />
    <glyph glyph-name="uni200C" unicode="&#x200c;" 
 />
    <glyph glyph-name="uni200D" unicode="&#x200d;" 
 />
    <glyph glyph-name="uni200E" unicode="&#x200e;" 
 />
    <glyph glyph-name="uni200F" unicode="&#x200f;" 
 />
    <glyph glyph-name="uni2010" unicode="&#x2010;" horiz-adv-x="564" 
d="M37 543zM525 543h-488v151h488v-151z" />
    <glyph glyph-name="uni2011" unicode="&#x2011;" horiz-adv-x="564" 
d="M37 543zM525 543h-488v151h488v-151z" />
    <glyph glyph-name="figuredash" unicode="&#x2012;" horiz-adv-x="1170" 
d="M1003 651h-835v131h835v-131z" />
    <glyph glyph-name="endash" unicode="&#x2013;" horiz-adv-x="1344" 
d="M162 651zM1164.55 651h-1001.96v151h1001.96v-151z" />
    <glyph glyph-name="emdash" unicode="&#x2014;" horiz-adv-x="1599" 
d="M144 651zM1480.78 651h-1335.98v151h1335.98v-151z" />
    <glyph glyph-name="uni2015" unicode="&#x2015;" horiz-adv-x="1599" 
d="M144 651zM1480.78 651h-1335.98v151h1335.98v-151z" />
    <glyph glyph-name="underscoredbl" unicode="&#x2017;" horiz-adv-x="933" 
d="M929 -405h-916v151h916v-151zM929 -151h-916v151h916v-151z" />
    <glyph glyph-name="quoteleft" unicode="&#x2018;" horiz-adv-x="409" 
d="M270 1555l106 -72q-93 -127 -96 -274v-136h-184v116q0 102 48.5 202t125.5 164z" />
    <glyph glyph-name="quoteright" unicode="&#x2019;" horiz-adv-x="409" 
d="M153 1046l-105 72q93 130 96 274v144h183v-130q-1 -100 -49.5 -199.5t-124.5 -160.5z" />
    <glyph glyph-name="quotesinglbase" unicode="&#x201a;" horiz-adv-x="407" 
d="M141 -283l-105 73q91 127 94 273v118h185v-100q0 -101 -49.5 -202t-124.5 -162z" />
    <glyph glyph-name="quotereversed" unicode="&#x201b;" horiz-adv-x="409" 
d="M262 1536v-147q4 -144 97 -271l-106 -72q-77 64 -124.5 161t-49.5 194v135h183z" />
    <glyph glyph-name="quotedblleft" unicode="&#x201c;" horiz-adv-x="724" 
d="M104 1073zM278 1555l106 -72q-93 -127 -96 -274v-136h-184v116q0 102 48.5 202t125.5 164zM593 1555l106 -72q-93 -127 -96 -274v-136h-184v116q0 102 48.5 202t125.5 164z" />
    <glyph glyph-name="quotedblright" unicode="&#x201d;" horiz-adv-x="731" 
d="M60 1046zM165 1046l-105 72q93 130 96 274v144h183v-130q-1 -100 -49.5 -199.5t-124.5 -160.5zM472 1046l-105 72q93 130 96 274v144h183v-130q-1 -100 -49.5 -199.5t-124.5 -160.5z" />
    <glyph glyph-name="quotedblbase" unicode="&#x201e;" horiz-adv-x="705" 
d="M141 -301l-105 72q91 137 94 290v185h185v-164q0 -108 -49.5 -213.5t-124.5 -169.5zM437 -301l-105 72q91 137 94 290v185h186v-164q0 -107 -48.5 -211.5t-126.5 -171.5z" />
    <glyph glyph-name="dagger" unicode="&#x2020;" horiz-adv-x="1129" 
d="M1060 929h-404v-929h-186v929h-400v153h400v374h186v-374h404v-153z" />
    <glyph glyph-name="daggerdbl" unicode="&#x2021;" horiz-adv-x="1167" 
d="M1076 0h-406v-416h-186v416h-397v151h397v778h-397v153h397v374h186v-374h406v-153h-406v-778h406v-151z" />
    <glyph glyph-name="bullet" unicode="&#x2022;" horiz-adv-x="690" 
d="M138 772q0 87 55.5 143t147.5 56q91 0 148 -54.5t57 -147.5v-37q0 -87 -55 -142t-149 -55q-93 0 -148.5 55.5t-55.5 143.5v38z" />
    <glyph glyph-name="twodotenleader" unicode="&#x2025;" horiz-adv-x="964" 
d="M187 1zM187 134q0 55 39 94.5t94 39.5t94 -39.5t39 -94.5t-39 -94t-94 -39q-56 0 -94.5 38t-38.5 95zM624 134q0 55 39 94.5t94 39.5t94 -39.5t39 -94.5t-39 -94t-94 -39q-56 0 -94.5 38t-38.5 95z" />
    <glyph glyph-name="ellipsis" unicode="&#x2026;" horiz-adv-x="1370" 
d="M187 1zM187 134q0 55 39 94.5t94 39.5t94 -39.5t39 -94.5t-39 -94t-94 -39q-56 0 -94.5 38t-38.5 95zM624 134q0 55 39 94.5t94 39.5t94 -39.5t39 -94.5t-39 -94t-94 -39q-56 0 -94.5 38t-38.5 95zM1039 134q0 55 39 94.5t94 39.5t94 -39.5t39 -94.5t-39 -94t-94 -39
q-56 0 -94.5 38t-38.5 95z" />
    <glyph glyph-name="uni2027" unicode="&#x2027;" horiz-adv-x="382" 
d="M82 619q0 45 27 75.5t81 30.5t82 -30.5t28 -75.5t-28 -75t-82 -30t-81 30t-27 75z" />
    <glyph glyph-name="uni202A" unicode="&#x202a;" 
 />
    <glyph glyph-name="uni202B" unicode="&#x202b;" 
 />
    <glyph glyph-name="uni202C" unicode="&#x202c;" 
 />
    <glyph glyph-name="uni202D" unicode="&#x202d;" 
 />
    <glyph glyph-name="uni202E" unicode="&#x202e;" 
 />
    <glyph glyph-name="uni202F" unicode="&#x202f;" horiz-adv-x="126" 
 />
    <glyph glyph-name="perthousand" unicode="&#x2030;" horiz-adv-x="1962" 
d="M823 357q0 131 83.5 215.5t214.5 84.5q152 0 229 -121q79 121 230 121q131 0 215 -84t84 -223v-71q0 -131 -83.5 -215.5t-213.5 -84.5q-153 0 -232 120q-76 -120 -227 -120q-130 0 -215 83.5t-85 222.5v72zM68 1176q0 131 83.5 216t214.5 85q132 0 215.5 -85t83.5 -221
v-72q0 -129 -82.5 -214t-214.5 -85q-130 0 -215 83.5t-85 222.5v70zM429 110l-104 66l711 1138l104 -66zM961 279q0 -79 44 -129.5t118 -50.5q72 0 115 49.5t43 134.5v74q0 79 -43.5 129t-116.5 50q-71 0 -115.5 -49.5t-44.5 -133.5v-74zM1420 279q0 -79 44 -129.5
t117 -50.5q72 0 115 51t43 133v74q0 79 -43.5 129t-116.5 50q-72 0 -115.5 -50t-43.5 -133v-74zM206 1099q0 -78 44 -128.5t118 -50.5q71 0 114.5 49t43.5 134v73q0 78 -43 129t-117 51q-72 0 -116 -50.5t-44 -133.5v-73z" />
    <glyph glyph-name="minute" unicode="&#x2032;" horiz-adv-x="357" 
d="M103 1057zM253 1425l-21 -368h-129l1 479h149v-111z" />
    <glyph glyph-name="second" unicode="&#x2033;" horiz-adv-x="655" 
d="M136 1042zM277 1400l-30 -358h-111l1 494h140v-136zM547 1400l-30 -358h-111l1 494h140v-136z" />
    <glyph glyph-name="guilsinglleft" unicode="&#x2039;" horiz-adv-x="614" 
d="M286 550l258 -397h-141l-295 388v19l295 389h141z" />
    <glyph glyph-name="guilsinglright" unicode="&#x203a;" horiz-adv-x="614" 
d="M231 949l295 -389v-19l-295 -389h-142l258 398l-258 399h142z" />
    <glyph glyph-name="exclamdbl" unicode="&#x203c;" horiz-adv-x="1054" 
d="M183 1zM183 134q0 55 39 94.5t94 39.5t94 -39.5t39 -94.5t-39 -94t-94 -39q-56 0 -94.5 38t-38.5 95zM221 1356h194l-15 -924h-163zM710 134q0 55 39 94.5t94 39.5t94 -39.5t39 -94.5t-39 -94t-94 -39q-56 0 -94.5 38t-38.5 95zM748 1356h194l-15 -924h-163z" />
    <glyph glyph-name="fraction" unicode="&#x2044;" horiz-adv-x="931" 
d="M163 110l-104 66l711 1138l104 -66z" />
    <glyph glyph-name="uni207F" unicode="&#x207f;" horiz-adv-x="864" 
d="M250 1451l30 -123q74 138 220 138q260 0 260 -314v-501h-170v486q-3 185 -144 185q-110 0 -154 -109v-562h-170v800h128z" />
    <glyph glyph-name="franc" unicode="&#x20a3;" horiz-adv-x="1132" 
d="M18 0zM654 266h-636v151h636v-151zM972 643h-611v-643h-192v1456h902v-158h-710v-498h611v-157z" />
    <glyph glyph-name="lira" unicode="&#x20a4;" horiz-adv-x="1190" 
d="M789 470h-335l3 -68q0 -154 -62 -245h733l-1 -157h-1032v157h77q40 9 65 74.5t27 161.5v8l-3 69h-170v125h166l-4 136h-162v125h157l-6 183q0 199 122.5 318t322.5 119q190 0 301 -106t111 -283h-191q0 107 -63.5 169t-174.5 62q-105 0 -170 -77t-65 -202l6 -183h348
v-125h-343l4 -136h339v-125z" />
    <glyph glyph-name="uni20A6" unicode="&#x20a6;" horiz-adv-x="1621" 
d="M1367 940h223v-152h-223v-148h223v-152h-223v-488h-194l-319 488h-414v-488h-192v488h-217v152h217v148h-217v152h217v516h192l337 -516h399v516h191v-516zM440 640h315l-97 148h-218v-148zM972 640h204v148h-300zM440 940h119l-119 182v-182zM1176 329v159h-104z" />
    <glyph glyph-name="peseta" unicode="&#x20a7;" horiz-adv-x="1680" 
d="M1534 939h-202v-671q0 -65 27 -97.5t92 -32.5q35 0 87 12l1 -150q-73 -20 -143 -20q-124 0 -187 75t-63 213v671h-143q-20 -183 -135.5 -277.5t-314.5 -96.5h-201v-565h-185v1456h377q202 0 320.5 -96t138.5 -278h143v262h186v-262h202v-143zM352 716h192
q139 0 208.5 70.5t69.5 221.5q0 152 -67.5 223t-199.5 73h-203v-588z" />
    </font>
</defs>
</svg>
