<?xml version="1.0" standalone="no"?>
<!DOCTYPE svg PUBLIC "-//W3C//DTD SVG 1.1//EN" "http://www.w3.org/Graphics/SVG/1.1/DTD/svg11.dtd" >
<svg xmlns="http://www.w3.org/2000/svg" xmlns:xlink="http://www.w3.org/1999/xlink" version="1.1">
<metadata>
Created by FontForge 20170731 at Sat May 16 09:36:10 2020
 By Aleksey,,,
Copyright (c) 2003 by Bitstream, Inc. All Rights Reserved.
DejaVu changes are in public domain
Changes by Saber Rastikerdar are in public domain.
Non-Arabic (Latin) glyphs and data are imported from Roboto font under the Apache License, Version 2.0.
</metadata>
<defs>
<font id="Vazir-Thin" horiz-adv-x="0" >
  <font-face 
    font-family="Vazir Thin"
    font-weight="100"
    font-stretch="normal"
    units-per-em="2048"
    panose-1="2 11 6 3 3 8 4 2 2 4"
    ascent="1638"
    descent="-410"
    x-height="1082"
    cap-height="1456"
    bbox="-977 -1063 3040 2326"
    underline-thickness="100"
    underline-position="-600"
    unicode-range="U+0002-FFFD"
  />
<missing-glyph horiz-adv-x="908" 
d="M808 0h-708v1456h708v-1456zM754 84v1287l-274 -643zM154 1359v-1263l268 632zM194 54h515l-258 606zM451 796l258 606h-515z" />
    <glyph glyph-name="uni0622" unicode="&#x627;&#x653;" horiz-adv-x="465" 
d="M129 1437q-32 0 -64.5 -14.5t-59 -36t-53.5 -52.5l-74 59q104 141 217 141q36 0 112 -26t123 -26q67 0 169 47l49 -82q-101 -57 -192 -57q-36 0 -109.5 23.5t-117.5 23.5zM178 1174.32h109v-1173.42h-109v1173.42z" />
    <glyph glyph-name="uni0623" unicode="&#x627;&#x654;" horiz-adv-x="465" 
d="M183 1117.57h109v-1114.71h-109v1114.71zM135 1394q-35 28 -50 63t-15 89q0 87 54.5 140t131.5 53q62 0 121 -34l1 -86q-54 27 -108 27q-30 0 -55 -11t-42.5 -37.5t-17.5 -64.5q2 -77 98 -113q15 -5 25 -5q5 0 11 2l115 23v-86l-367 -89v82l91 21l20 4l11 3l-8 6z" />
    <glyph glyph-name="uni0624" unicode="&#x648;&#x654;" horiz-adv-x="880" 
d="M323 991q-35 28 -50 63t-15 89q0 87 54.5 140t131.5 53q62 0 121 -34l1 -86q-54 27 -108 27q-30 0 -55 -11t-42.5 -37.5t-17.5 -64.5q2 -77 98 -113q15 -5 25 -5q5 0 11 2l115 23v-86l-367 -89v82l91 21l20 4l11 3l-8 6zM612 13q-116 -15 -155 -15q-171 0 -250 65.5
t-79 202.5q0 165 86 279.5t214 114.5q103 0 178.5 -74.5t110.5 -191t35 -258.5q0 -266 -141.5 -433t-423.5 -227l-38 98q205 44 330 147t166 254l12 43zM646 171q-23 364 -226 364q-85 0 -136 -78t-51 -176q0 -83 60 -126t165 -43q73 0 167 28l22 7z" />
    <glyph glyph-name="uni0625" unicode="&#x627;&#x655;" horiz-adv-x="465" 
d="M120 -480q-35 28 -50 63t-15 89q0 87 54.5 140t131.5 53q62 0 121 -34l1 -86q-54 27 -108 27q-30 0 -55 -11t-42.5 -37.5t-17.5 -64.5q2 -77 98 -113q15 -5 25 -5q5 0 11 2l115 23v-86l-367 -89v82l91 21l20 4l11 3l-8 6zM179 1306h109v-1305h-109v1305z" />
    <glyph glyph-name="uni0626" unicode="&#x64a;&#x654;" horiz-adv-x="1477" 
d="M497 799q-35 28 -50 63t-15 89q0 87 54.5 140t131.5 53q62 0 121 -34l1 -86q-54 27 -108 27q-30 0 -55 -11t-42.5 -37.5t-17.5 -64.5q2 -77 98 -113q15 -5 25 -5q5 0 11 2l115 23v-86l-367 -89v82l91 21l20 4l11 3l-8 6zM322 428q-83 -211 -83 -376q0 -216 124 -327.5
t361 -112.5q91 0 181 19.5t168 57t126 100t48 139.5q0 29 -14 48t-37.5 27t-41 10.5t-36.5 2.5h-144q-110 0 -163 53t-53 164q0 92 35.5 170.5t95.5 131t138.5 82.5t164.5 30q15 0 29 -1t34 -2.5t41 -6t42 -11.5l-21 -109q-34 8 -64.5 11t-60.5 3q-70 0 -132 -24.5
t-103.5 -65t-65.5 -91.5t-24 -104q0 -114 117 -114h180q92 0 138.5 -44.5t46.5 -119.5q0 -220 -169.5 -343.5t-460.5 -123.5q-301 0 -446 135t-145 413q0 188 94 420z" />
    <glyph glyph-name="uni06C0" unicode="&#x647;&#x654;" horiz-adv-x="922" 
d="M182 1230q53 -10 105 -10q162 0 228 53q52 42 52 90q0 9 -4 16.5t-10.5 12t-15.5 7.5t-20 3l-100 2q-54 1 -79 27t-25 81q0 75 46.5 130.5t123.5 83.5t175 32l-7 -100q-114 -4 -175 -38t-69 -102l-2 -16l16 -1l110 -4q128 -3 128 -123q0 -74 -68 -149q-47 -51 -124.5 -77
t-186.5 -26q-52 0 -113 9zM427 628q-65 -58 -106.5 -108t-63.5 -100t-22 -101q0 -98 57.5 -148.5t167.5 -50.5q111 0 169 51t58 149q0 72 -54.5 145t-166.5 163l-20 16zM375 860q419 -313 419 -546q0 -136 -88.5 -222t-244.5 -88q-109 0 -183.5 35.5t-112 105t-37.5 169.5
q0 192 210 398l23 22l-24 22l-24 20z" />
    <glyph glyph-name="uniFBA5.fina" unicode="&#xfeea;&#x654;" horiz-adv-x="1038" arabic-form="final" 
d="M326 1161q53 -10 105 -10q162 0 228 53q52 42 52 90q0 9 -4 16.5t-10.5 12t-15.5 7.5t-20 3l-100 2q-54 1 -79 27t-25 81q0 75 46.5 130.5t123.5 83.5t175 32l-7 -100q-114 -4 -175 -38t-69 -102l-2 -16l16 -1l110 -4q128 -3 128 -123q0 -74 -68 -149q-47 -51 -124.5 -77
t-186.5 -26q-52 0 -113 9zM128 382q0 89 50 164.5t159 141t277 117.5l25 8l-4 26l-3 16l100 21l77 -557q13 -93 69.5 -146t148.5 -53h31v-120h-35q-128 0 -198.5 53.5t-94.5 160.5l-11 48l-38 -32q-113 -98 -250 -98q-138 0 -220.5 63t-82.5 187zM621 701
q-188 -69 -283.5 -141.5t-95.5 -165.5q0 -74 50 -114t133 -40q99 0 182.5 57.5t83.5 154.5q0 33 -4 62l-26 164l-6 36z" />
    <glyph glyph-name="uniFDF2" unicode="&#x627;&#xfedf;&#xfee0;&#xfeea;" horiz-adv-x="2513" arabic-form="isolated" 
d="M1269 1553v342h68v-342h-68zM1330 1440q2 -59 3 -73q4 -50 23.5 -80.5t56.5 -30.5q77 0 77 111q0 35 -15 110l69 11q15 -56 15 -111q0 -98 -34 -145t-103 -48q-31 0 -60 14.5t-40 36.5l-12 24l-7 -26q-12 -49 -50.5 -71t-88.5 -22q-19 0 -34.5 3.5t-29 10t-23.5 16.5
t-18 23.5t-13 31t-7.5 38t-2.5 45.5q0 46 10 89l59 -10q-7 -37 -7 -75q0 -45 20 -69.5t58 -24.5q20 0 35.5 5t25.5 12t17 22t11 28t6 36.5t2 41v48.5v29h57zM128 382q0 89 50 164.5t159 141t277 117.5l25 8l-4 26l-3 16l100 21l77 -557q13 -93 69.5 -146t148.5 -53h31v-120
h-35q-128 0 -198.5 53.5t-94.5 160.5l-11 48l-38 -32q-113 -98 -250 -98q-138 0 -220.5 63t-82.5 187zM621 701q-188 -69 -283.5 -141.5t-95.5 -165.5q0 -74 50 -114t133 -40q99 0 182.5 57.5t83.5 154.5q0 33 -4 62l-26 164l-6 36zM1061 0h-42v120h44q52 0 88.5 14t57 36
t31.5 60.5t14 75t3 93.5v590h109v-590q0 -57 2.5 -92.5t12 -75t28 -61t51.5 -36t81 -14.5h43v-120h-40q-71 0 -118 19t-72.5 52t-44.5 87q-17 -42 -35 -69.5t-46.5 -48.5t-68.5 -30.5t-98 -9.5zM1576 0h-31v120h31q56 0 94.5 18.5t58.5 55t28 79t8 100.5v769h109v-767
q0 -196 -66 -285t-232 -90zM2225 1306h109v-1305h-109v1305z" />
    <glyph glyph-name="uniFE70" unicode="&#x20;&#x64b;" horiz-adv-x="791" arabic-form="isolated" 
d="M176 1091v82l435 178v-81zM176 1303v82l435 178v-81z" />
    <glyph glyph-name="uniFE71" unicode="&#x640;&#x64b;" horiz-adv-x="791" arabic-form="medial" 
d="M486 0v120h326v-120h-326zM228 0v120h326v-120h-326zM-20 0v120h326v-120h-326zM200 1118v82l435 178v-81zM200 1330v82l435 178v-81z" />
    <glyph glyph-name="uniFE72" unicode="&#x20;&#x64c;" horiz-adv-x="791" arabic-form="isolated" 
d="M329 1497q0 68 42.5 110t110.5 42t110 -41.5t42 -111.5q0 -55 -26 -117l-5 -12l12 -2q18 -3 35 -4v-55q-32 2 -64 8l-8 1l-3 -7q-92 -219 -273 -219q-91 0 -140.5 77t-53.5 214l59 10q4 -110 38 -176.5t98 -66.5q59 0 111 41.5t98 122.5l6 10l-12 4q-87 31 -132 70.5
t-45 101.5zM548 1387q28 65 28 108q0 40 -26.5 67t-63.5 27q-42 0 -69.5 -26.5t-27.5 -69.5q0 -24 13 -43t37.5 -32t46 -21t50.5 -16l9 -2z" />
    <glyph glyph-name="uniFE74" unicode="&#x20;&#x64d;" horiz-adv-x="791" arabic-form="isolated" 
d="M184 -425v82l436 178v-82zM184 -213v82l436 178v-82z" />
    <glyph glyph-name="uniFE76" unicode="&#x20;&#x64e;" horiz-adv-x="791" arabic-form="isolated" 
d="M166 1358v82l436 178v-82z" />
    <glyph glyph-name="uniFE77" unicode="&#x640;&#x64e;" horiz-adv-x="791" arabic-form="medial" 
d="M486 0v120h326v-120h-326zM228 0v120h326v-120h-326zM-20 0v120h326v-120h-326zM175 1364v82l436 178v-82z" />
    <glyph glyph-name="uniFE78" unicode="&#x20;&#x64f;" horiz-adv-x="791" arabic-form="isolated" 
d="M585 1272q-12 0 -23.5 1t-22.5 2t-22 3l-7 1l-3 -5q-45 -63 -135 -100t-210 -45v58q66 7 120 19t96.5 32t66.5 45l13 14l-18 3q-73 13 -125.5 56.5t-52.5 104.5q0 69 42.5 110.5t110.5 41.5t110.5 -42t42.5 -111q0 -54 -25 -115l-5 -12l12 -2q20 -3 35 -4v-55zM481 1351
q28 65 28 108q0 40 -26 66.5t-64 26.5q-42 0 -69.5 -26t-27.5 -69q0 -24 13 -43t37.5 -32t46 -21t50.5 -16l9 -2z" />
    <glyph glyph-name="uniFE79" unicode="&#x640;&#x64f;" horiz-adv-x="791" arabic-form="medial" 
d="M486 0v120h326v-120h-326zM228 0v120h326v-120h-326zM-20 0v120h326v-120h-326zM585 1191q-12 0 -23.5 1t-22.5 2t-22 3l-7 1l-3 -5q-45 -63 -135 -100t-210 -45v58q66 7 120 19t96.5 32t66.5 45l13 14l-18 3q-73 13 -125.5 56.5t-52.5 104.5q0 69 42.5 110.5t110.5 41.5
t110.5 -42t42.5 -111q0 -54 -25 -115l-5 -12l12 -2q20 -3 35 -4v-55zM481 1270q28 65 28 108q0 40 -26 66.5t-64 26.5q-42 0 -69.5 -26t-27.5 -69q0 -24 13 -43t37.5 -32t46 -21t50.5 -16l9 -2z" />
    <glyph glyph-name="uniFE7A" unicode="&#x20;&#x650;" horiz-adv-x="791" arabic-form="isolated" 
d="M186 -319v82l435 178v-81z" />
    <glyph glyph-name="uniFE7B" unicode="&#x640;&#x650;" horiz-adv-x="791" arabic-form="medial" 
d="M486 0v120h326v-120h-326zM228 0v120h326v-120h-326zM-20 0v120h326v-120h-326zM192 -437v82l435 178v-81z" />
    <glyph glyph-name="uniFE7C" unicode="&#x20;&#x651;" horiz-adv-x="791" arabic-form="isolated" 
d="M416 1559q2 -59 3 -73q4 -50 23.5 -80.5t56.5 -30.5q77 0 77 111q0 35 -15 110l69 11q15 -56 15 -111q0 -98 -34 -145t-103 -48q-31 0 -60 14.5t-40 36.5l-12 24l-7 -26q-12 -49 -50.5 -71t-88.5 -22q-19 0 -34.5 3.5t-29 10t-23.5 16.5t-18 23.5t-13 31t-7.5 38
t-2.5 45.5q0 46 10 89l59 -10q-7 -37 -7 -75q0 -45 20 -69.5t58 -24.5q20 0 35.5 5t25.5 12t17 22t11 28t6 36.5t2 41v48.5v29h57z" />
    <glyph glyph-name="uniFE7D" unicode="&#x640;&#x651;" horiz-adv-x="791" arabic-form="medial" 
d="M486 0v120h326v-120h-326zM228 0v120h326v-120h-326zM-20 0v120h326v-120h-326zM427 1558q2 -59 3 -73q4 -50 23.5 -80.5t56.5 -30.5q77 0 77 111q0 35 -15 110l69 11q15 -56 15 -111q0 -98 -34 -145t-103 -48q-31 0 -60 14.5t-40 36.5l-12 24l-7 -26q-12 -49 -50.5 -71
t-88.5 -22q-19 0 -34.5 3.5t-29 10t-23.5 16.5t-18 23.5t-13 31t-7.5 38t-2.5 45.5q0 46 10 89l59 -10q-7 -37 -7 -75q0 -45 20 -69.5t58 -24.5q20 0 35.5 5t25.5 12t17 22t11 28t6 36.5t2 41v48.5v29h57z" />
    <glyph glyph-name="uniFE7E" unicode="&#x20;&#x652;" horiz-adv-x="791" arabic-form="isolated" 
d="M309 1452q0 -43 30.5 -73t73.5 -30t73 30t30 73t-30 73.5t-73 30.5t-73.5 -30.5t-30.5 -73.5zM250 1452q0 67 48 115t115 48t115 -48t48 -115t-48 -115t-115 -48t-115 48t-48 115z" />
    <glyph glyph-name="uniFE7F" unicode="&#x640;&#x652;" horiz-adv-x="791" arabic-form="medial" 
d="M486 0v120h326v-120h-326zM228 0v120h326v-120h-326zM-20 0v120h326v-120h-326zM299 1462q0 -43 30.5 -73t73.5 -30t73 30t30 73t-30 73.5t-73 30.5t-73.5 -30.5t-30.5 -73.5zM240 1462q0 67 48 115t115 48t115 -48t48 -115t-48 -115t-115 -48t-115 48t-48 115z" />
    <glyph glyph-name="uniFEF5" unicode="&#xfedf;&#xfe82;" horiz-adv-x="1212" arabic-form="isolated" 
d="M225 1487q-32 0 -64.5 -14.5t-59 -36t-53.5 -52.5l-74 59q104 141 217 141q36 0 112 -26t123 -26q67 0 169 47l49 -82q-101 -57 -192 -57q-36 0 -109.5 23.5t-117.5 23.5zM205 132q101 -11 194 -11q57 0 106 3l37 2l-10 36q-116 401 -384 1019l96 52q156 -378 249 -627
t140 -426l8 -30l30 9q132 44 193 139t61 270v738h109v-739q0 -301 -154 -432.5t-484 -131.5q-109 0 -191 12v117z" />
    <glyph glyph-name="uniFEF6" unicode="&#xfee0;&#xfe82;" horiz-adv-x="1273" arabic-form="final" 
d="M225 1487q-32 0 -64.5 -14.5t-59 -36t-53.5 -52.5l-74 59q104 141 217 141q36 0 112 -26t123 -26q67 0 169 47l49 -82q-101 -57 -192 -57q-36 0 -109.5 23.5t-117.5 23.5zM244 1233q157 -380 249.5 -627.5t139.5 -425.5l8 -30l30 9q132 44 193 139t61 270v738h109v-789
q0 -127 19.5 -211.5t70 -135t133.5 -50.5h36v-120h-39q-76 0 -128.5 22.5t-86 67.5t-54.5 118l-17 57l-36 -48q-79 -107 -210.5 -160.5t-325.5 -53.5q-109 0 -191 12v117q98 -11 193 -11q56 0 107 3l37 2l-10 37q-119 402 -384 1018z" />
    <glyph glyph-name="uniFEF7" unicode="&#xfedf;&#xfe84;" horiz-adv-x="1212" arabic-form="isolated" 
d="M98 1490q-35 28 -50 63t-15 89q0 87 54.5 140t131.5 53q62 0 121 -34l1 -86q-54 27 -108 27q-30 0 -55 -11t-42.5 -37.5t-17.5 -64.5q2 -77 98 -113q15 -5 25 -5q5 0 11 2l115 23v-86l-367 -89v82l91 21l20 4l11 3l-8 6zM205 132q101 -11 194 -11q57 0 106 3l37 2l-10 36
q-116 401 -384 1019l96 52q156 -378 249 -627t140 -426l8 -30l30 9q132 44 193 139t61 270v738h109v-739q0 -301 -154 -432.5t-484 -131.5q-109 0 -191 12v117z" />
    <glyph glyph-name="uniFEF8" unicode="&#xfee0;&#xfe84;" horiz-adv-x="1273" arabic-form="final" 
d="M244 1233q157 -380 249.5 -627.5t139.5 -425.5l8 -30l30 9q132 44 193 139t61 270v738h109v-789q0 -127 19.5 -211.5t70 -135t133.5 -50.5h36v-120h-39q-76 0 -128.5 22.5t-86 67.5t-54.5 118l-17 57l-36 -48q-79 -107 -210.5 -160.5t-325.5 -53.5q-109 0 -191 12v117
q98 -11 193 -11q56 0 107 3l37 2l-10 37q-119 402 -384 1018zM98 1490q-35 28 -50 63t-15 89q0 87 54.5 140t131.5 53q62 0 121 -34l1 -86q-54 27 -108 27q-30 0 -55 -11t-42.5 -37.5t-17.5 -64.5q2 -77 98 -113q15 -5 25 -5q5 0 11 2l115 23v-86l-367 -89v82l91 21l20 4
l11 3l-8 6z" />
    <glyph glyph-name="uniFEF9" unicode="&#xfedf;&#xfe88;" horiz-adv-x="1212" arabic-form="isolated" 
d="M190 -492q-35 28 -50 63t-15 89q0 87 54.5 140t131.5 53q62 0 121 -34l1 -86q-54 27 -108 27q-30 0 -55 -11t-42.5 -37.5t-17.5 -64.5q2 -77 98 -113q15 -5 25 -5q5 0 11 2l115 23v-86l-367 -89v82l91 21l20 4l11 3l-8 6zM205 132q101 -11 194 -11q57 0 106 3l37 2
l-10 36q-116 401 -384 1019l96 52q156 -378 249 -627t140 -426l8 -30l30 9q132 44 193 139t61 270v738h109v-739q0 -301 -154 -432.5t-484 -131.5q-109 0 -191 12v117z" />
    <glyph glyph-name="uniFEFA" unicode="&#xfee0;&#xfe88;" horiz-adv-x="1273" arabic-form="final" 
d="M190 -492q-35 28 -50 63t-15 89q0 87 54.5 140t131.5 53q62 0 121 -34l1 -86q-54 27 -108 27q-30 0 -55 -11t-42.5 -37.5t-17.5 -64.5q2 -77 98 -113q15 -5 25 -5q5 0 11 2l115 23v-86l-367 -89v82l91 21l20 4l11 3l-8 6zM244 1233q157 -380 249.5 -627.5t139.5 -425.5
l8 -30l30 9q132 44 193 139t61 270v738h109v-789q0 -127 19.5 -211.5t70 -135t133.5 -50.5h36v-120h-39q-76 0 -128.5 22.5t-86 67.5t-54.5 118l-17 57l-36 -48q-79 -107 -210.5 -160.5t-325.5 -53.5q-109 0 -191 12v117q98 -11 193 -11q56 0 107 3l37 2l-10 37
q-119 402 -384 1018z" />
    <glyph glyph-name="uniFEFB" unicode="&#xfedf;&#xfe8e;" horiz-adv-x="1212" arabic-form="isolated" 
d="M205 132q101 -11 194 -11q57 0 106 3l37 2l-10 36q-116 401 -384 1019l96 52q156 -378 249 -627t140 -426l8 -30l30 9q132 44 193 139t61 270v738h109v-739q0 -301 -154 -432.5t-484 -131.5q-109 0 -191 12v117z" />
    <glyph glyph-name="uniFEFC" unicode="&#xfee0;&#xfe8e;" horiz-adv-x="1273" arabic-form="final" 
d="M244 1233q157 -380 249.5 -627.5t139.5 -425.5l8 -30l30 9q132 44 193 139t61 270v738h109v-789q0 -127 19.5 -211.5t70 -135t133.5 -50.5h36v-120h-39q-76 0 -128.5 22.5t-86 67.5t-54.5 118l-17 57l-36 -48q-79 -107 -210.5 -160.5t-325.5 -53.5q-109 0 -191 12v117
q98 -11 193 -11q56 0 107 3l37 2l-10 37q-119 402 -384 1018z" />
    <glyph glyph-name="uni0651064B" unicode="&#x64b;&#x651;" 
d="M344 1273v82l435 178v-81zM344 1485v82l435 178v-81zM605 1207q2 -59 3 -73q4 -50 23.5 -80.5t56.5 -30.5q77 0 77 111q0 35 -15 110l69 11q15 -56 15 -111q0 -98 -34 -145t-103 -48q-31 0 -60 14.5t-40 36.5l-12 24l-7 -26q-12 -49 -50.5 -71t-88.5 -22q-19 0 -34.5 3.5
t-29 10t-23.5 16.5t-18 23.5t-13 31t-7.5 38t-2.5 45.5q0 46 10 89l59 -10q-7 -37 -7 -75q0 -45 20 -69.5t58 -24.5q20 0 35.5 5t25.5 12t17 22t11 28t6 36.5t2 41v48.5v29h57z" />
    <glyph glyph-name="uni0651064C" unicode="&#x64c;&#x651;" 
d="M493 1701q0 68 42.5 110t110.5 42t110 -41.5t42 -111.5q0 -55 -26 -117l-5 -12l12 -2q18 -3 35 -4v-55q-32 2 -64 8l-8 1l-3 -7q-92 -219 -273 -219q-91 0 -140.5 77t-53.5 214l59 10q4 -110 38 -176.5t98 -66.5q59 0 111 41.5t98 122.5l6 10l-12 4q-87 31 -132 70.5
t-45 101.5zM712 1591q28 65 28 108q0 40 -26.5 67t-63.5 27q-42 0 -69.5 -26.5t-27.5 -69.5q0 -24 13 -43t37.5 -32t46 -21t50.5 -16l9 -2zM622 1201q2 -59 3 -73q4 -50 23.5 -80.5t56.5 -30.5q77 0 77 111q0 35 -15 110l69 11q15 -56 15 -111q0 -98 -34 -145t-103 -48
q-31 0 -60 14.5t-40 36.5l-12 24l-7 -26q-12 -49 -50.5 -71t-88.5 -22q-19 0 -34.5 3.5t-29 10t-23.5 16.5t-18 23.5t-13 31t-7.5 38t-2.5 45.5q0 46 10 89l59 -10q-7 -37 -7 -75q0 -45 20 -69.5t58 -24.5q20 0 35.5 5t25.5 12t17 22t11 28t6 36.5t2 41v48.5v29h57z" />
    <glyph glyph-name="uni064B0651" unicode="&#x64d;&#x651;" 
d="M523 1673q2 -59 3 -73q4 -50 23.5 -80.5t56.5 -30.5q77 0 77 111q0 35 -15 110l69 11q15 -56 15 -111q0 -98 -34 -145t-103 -48q-31 0 -60 14.5t-40 36.5l-12 24l-7 -26q-12 -49 -50.5 -71t-88.5 -22q-19 0 -34.5 3.5t-29 10t-23.5 16.5t-18 23.5t-13 31t-7.5 38
t-2.5 45.5q0 46 10 89l59 -10q-7 -37 -7 -75q0 -45 20 -69.5t58 -24.5q20 0 35.5 5t25.5 12t17 22t11 28t6 36.5t2 41v48.5v29h57zM293 884v82l435 178v-81zM293 1096v82l435 178v-81z" />
    <glyph glyph-name="uni0651064E" unicode="&#x64e;&#x651;" 
d="M328 1472v82l436 178v-82zM610 1415q2 -59 3 -73q4 -50 23.5 -80.5t56.5 -30.5q77 0 77 111q0 35 -15 110l69 11q15 -56 15 -111q0 -98 -34 -145t-103 -48q-31 0 -60 14.5t-40 36.5l-12 24l-7 -26q-12 -49 -50.5 -71t-88.5 -22q-19 0 -34.5 3.5t-29 10t-23.5 16.5
t-18 23.5t-13 31t-7.5 38t-2.5 45.5q0 46 10 89l59 -10q-7 -37 -7 -75q0 -45 20 -69.5t58 -24.5q20 0 35.5 5t25.5 12t17 22t11 28t6 36.5t2 41v48.5v29h57z" />
    <glyph glyph-name="uni0651064F" unicode="&#x64f;&#x651;" 
d="M749 1424q-12 0 -23.5 1t-22.5 2t-22 3l-7 1l-3 -5q-45 -63 -135 -100t-210 -45v58q66 7 120 19t96.5 32t66.5 45l13 14l-18 3q-73 13 -125.5 56.5t-52.5 104.5q0 69 42.5 110.5t110.5 41.5t110.5 -42t42.5 -111q0 -54 -25 -115l-5 -12l12 -2q20 -3 35 -4v-55zM645 1503
q28 65 28 108q0 40 -26 66.5t-64 26.5q-42 0 -69.5 -26t-27.5 -69q0 -24 13 -43t37.5 -32t46 -21t50.5 -16l9 -2zM607 1208q2 -59 3 -73q4 -50 23.5 -80.5t56.5 -30.5q77 0 77 111q0 35 -15 110l69 11q15 -56 15 -111q0 -98 -34 -145t-103 -48q-31 0 -60 14.5t-40 36.5
l-12 24l-7 -26q-12 -49 -50.5 -71t-88.5 -22q-19 0 -34.5 3.5t-29 10t-23.5 16.5t-18 23.5t-13 31t-7.5 38t-2.5 45.5q0 46 10 89l59 -10q-7 -37 -7 -75q0 -45 20 -69.5t58 -24.5q20 0 35.5 5t25.5 12t17 22t11 28t6 36.5t2 41v48.5v29h57z" />
    <glyph glyph-name="uni064E0651" unicode="&#x650;&#x651;" 
d="M595 1620q2 -59 3 -73q4 -50 23.5 -80.5t56.5 -30.5q77 0 77 111q0 35 -15 110l69 11q15 -56 15 -111q0 -98 -34 -145t-103 -48q-31 0 -60 14.5t-40 36.5l-12 24l-7 -26q-12 -49 -50.5 -71t-88.5 -22q-19 0 -34.5 3.5t-29 10t-23.5 16.5t-18 23.5t-13 31t-7.5 38
t-2.5 45.5q0 46 10 89l59 -10q-7 -37 -7 -75q0 -45 20 -69.5t58 -24.5q20 0 35.5 5t25.5 12t17 22t11 28t6 36.5t2 41v48.5v29h57zM364 1014v82l436 178v-82z" />
    <glyph glyph-name="uni0654064E" unicode="&#x64e;&#x654;" 
d="M334 1690v82l436 178v-82zM471 1330q-35 28 -50 63t-15 89q0 87 54.5 140t131.5 53q62 0 121 -34l1 -86q-54 27 -108 27q-30 0 -55 -11t-42.5 -37.5t-17.5 -64.5q2 -77 98 -113q15 -5 25 -5q5 0 11 2l115 23v-86l-367 -89v82l91 21l20 4l11 3l-8 6z" />
    <glyph glyph-name="uni0654064F" unicode="&#x64f;&#x654;" 
d="M687 1648q-12 0 -23.5 1t-22.5 2t-22 3l-7 1l-3 -5q-45 -63 -135 -100t-210 -45v58q66 7 120 19t96.5 32t66.5 45l13 14l-18 3q-73 13 -125.5 56.5t-52.5 104.5q0 69 42.5 110.5t110.5 41.5t110.5 -42t42.5 -111q0 -54 -25 -115l-5 -12l12 -2q20 -3 35 -4v-55zM583 1727
q28 65 28 108q0 40 -26 66.5t-64 26.5q-42 0 -69.5 -26t-27.5 -69q0 -24 13 -43t37.5 -32t46 -21t50.5 -16l9 -2zM464 1112q-35 28 -50 63t-15 89q0 87 54.5 140t131.5 53q62 0 121 -34l1 -86q-54 27 -108 27q-30 0 -55 -11t-42.5 -37.5t-17.5 -64.5q2 -77 98 -113
q15 -5 25 -5q5 0 11 2l115 23v-86l-367 -89v82l91 21l20 4l11 3l-8 6z" />
    <glyph glyph-name="LamAlefWasla" unicode="&#xfedf;&#xfb51;" horiz-adv-x="1212" 
d="M222 1446q132 0 183 19t51 77q0 42 -27.5 70t-71.5 28q-55 0 -100 -40.5t-111 -142.5l-7 -12h14zM-17 1437l14 65q39 -33 65 -43l6 -2l4 5q54 92 98.5 145.5t88.5 78t94 24.5q38 0 70 -12t54.5 -34t35 -52.5t12.5 -65.5q0 -95 -66.5 -132.5t-234.5 -37.5h-24
q-175 0 -217 61zM205 132q101 -11 194 -11q57 0 106 3l37 2l-10 36q-116 401 -384 1019l96 52q156 -378 249 -627t140 -426l8 -30l30 9q132 44 193 139t61 270v738h109v-739q0 -301 -154 -432.5t-484 -131.5q-109 0 -191 12v117z" />
    <glyph glyph-name="LamAlefWasla.fina" unicode="&#xfee0;&#xfb51;" horiz-adv-x="1273" 
d="M222 1446q132 0 183 19t51 77q0 42 -27.5 70t-71.5 28q-55 0 -100 -40.5t-111 -142.5l-7 -12h14zM-17 1437l14 65q39 -33 65 -43l6 -2l4 5q54 92 98.5 145.5t88.5 78t94 24.5q38 0 70 -12t54.5 -34t35 -52.5t12.5 -65.5q0 -95 -66.5 -132.5t-234.5 -37.5h-24
q-175 0 -217 61zM244 1233q157 -380 249.5 -627.5t139.5 -425.5l8 -30l30 9q132 44 193 139t61 270v738h109v-789q0 -127 19.5 -211.5t70 -135t133.5 -50.5h36v-120h-39q-76 0 -128.5 22.5t-86 67.5t-54.5 118l-17 57l-36 -48q-79 -107 -210.5 -160.5t-325.5 -53.5
q-109 0 -191 12v117q98 -11 193 -11q56 0 107 3l37 2l-10 37q-119 402 -384 1018z" />
    <glyph glyph-name="uni066E.fina" unicode="&#x66e;" horiz-adv-x="1878" 
d="M985 0h-145q-355 0 -533.5 115t-178.5 339q0 108 41 216l98 -37q-24 -77 -24 -154q1 -121 71 -202t199.5 -119t316.5 -38h150q201 0 331.5 33t191.5 107q42 50 42 142q0 45 -5 130l101 12l14 -216q7 -99 60 -152.5t151 -55.5h32v-120h-32q-96 1 -159 40.5t-104 121.5
l-20 37l-29 -30q-78 -83 -223.5 -126t-345.5 -43z" />
    <glyph glyph-name="uni066F.fina" unicode="&#x66f;" horiz-adv-x="1450" 
d="M305 375q-65 -183 -65 -344q0 -216 123.5 -327t364.5 -111q159 0 261 43.5t152.5 124.5t62.5 207l3 33h-33h-151q-174 0 -254 65t-80 201q0 165 87.5 279.5t216.5 114.5q90 0 154 -53t106 -168t57 -293l2 -27h28h130v-120h-132h-27l-3 -27q-14 -128 -51.5 -218t-107 -153
t-175 -92.5t-253.5 -29.5q-304 0 -448.5 134.5t-144.5 411.5q0 191 77 390zM1206 153q-5 71 -15.5 129t-28.5 106t-43.5 80.5t-60.5 50t-79 17.5q-83 0 -134 -78t-51 -176q0 -80 58.5 -120.5t160.5 -40.5h163h32z" />
    <glyph glyph-name="uni067C.init" unicode="&#x67c;" horiz-adv-x="695" 
d="M199 -83q0 -37 26 -62.5t63 -25.5t62.5 25.5t25.5 62.5t-25.5 63t-62.5 26t-63 -26t-26 -63zM124 -83q0 68 48.5 116t116 48t115.5 -48.5t48 -115.5t-48 -115.5t-115.5 -48.5t-116 48t-48.5 116zM367 1040l108 108l108 -108l-108 -109zM35 1040l108 108l108 -108
l-108 -109zM505 672q39 -147 39 -286q0 -208 -97 -297t-318 -89h-149v120h149q161 0 232.5 55.5t71.5 207.5q0 119 -31 263z" />
    <glyph glyph-name="uni067C.medi" unicode="&#x67c;" horiz-adv-x="767" 
d="M199 -83q0 -37 26 -62.5t63 -25.5t62.5 25.5t25.5 62.5t-25.5 63t-62.5 26t-63 -26t-26 -63zM124 -83q0 68 48.5 116t116 48t115.5 -48.5t48 -115.5t-48 -115.5t-115.5 -48.5t-116 48t-48.5 116zM369 957l108 108l108 -108l-108 -109zM37 957l108 108l108 -108l-108 -109
zM756 0q-93 1 -147.5 32t-89.5 95l-22 42l-28 -39q-46 -63 -132.5 -96.5t-207.5 -33.5h-149v120h151q157 0 229 53t73 184q0 73 -6 175l104 13l14 -216q6 -99 60 -152.5t151 -56.5h31v-120h-31z" />
    <glyph glyph-name="uni067C.fina" unicode="&#x67c;" horiz-adv-x="1878" 
d="M809 -95q0 -37 26 -62.5t63 -25.5t62.5 25.5t25.5 62.5t-25.5 63t-62.5 26t-63 -26t-26 -63zM734 -95q0 68 48.5 116t116 48t115.5 -48.5t48 -115.5t-48 -115.5t-115.5 -48.5t-116 48t-48.5 116zM968 859l108 108l108 -108l-108 -109zM636 859l108 108l108 -108
l-108 -109zM985 0h-145q-355 0 -533.5 115t-178.5 339q0 108 41 216l98 -37q-24 -77 -24 -154q1 -121 71 -202t199.5 -119t316.5 -38h150q201 0 331.5 33t191.5 107q42 50 42 142q0 45 -5 130l101 12l14 -216q7 -99 60 -152.5t151 -55.5h32v-120h-32q-96 1 -159 40.5
t-104 121.5l-20 37l-29 -30q-78 -83 -223.5 -126t-345.5 -43z" />
    <glyph glyph-name="uni0681.init" unicode="&#x681;" horiz-adv-x="1334" 
d="M535 1131q-35 28 -50 63t-15 89q0 87 54.5 140t131.5 53q62 0 121 -34l1 -86q-54 27 -108 27q-30 0 -55 -11t-42.5 -37.5t-17.5 -64.5q2 -77 98 -113q15 -5 25 -5q5 0 11 2l115 23v-86l-367 -89v82l91 21l20 4l11 3l-8 6zM-20 0v120h163q78 0 154 12t138.5 29t144.5 52
t142 64.5t162 81.5l78 41l64 34l-69 22q-10 3 -27 10t-60 25.5t-96 39.5q-92 37 -125 50t-79.5 27t-74.5 14q-43 0 -86 -17.5t-77 -45t-62 -63.5l-12 -15l-100 50q61 98 148.5 153.5t189.5 55.5q97 0 290 -93q146 -71 246 -106.5t184 -44.5l-2 -116q-60 -11 -141 -47
t-226 -112q-105 -56 -179 -90.5t-164.5 -67.5t-179.5 -48t-184 -15h-160z" />
    <glyph glyph-name="uni0681.medi" unicode="&#x681;" horiz-adv-x="1351" 
d="M535 1131q-35 28 -50 63t-15 89q0 87 54.5 140t131.5 53q62 0 121 -34l1 -86q-54 27 -108 27q-30 0 -55 -11t-42.5 -37.5t-17.5 -64.5q2 -77 98 -113q15 -5 25 -5q5 0 11 2l115 23v-86l-367 -89v82l91 21l20 4l11 3l-8 6zM1214 380q-42 -6 -87.5 -20.5t-97.5 -39.5
l-18 -9q2 -54 22 -91t59.5 -59t93.5 -31.5t131 -9.5h54v-120h-58q-180 0 -268 54t-102 173l-6 43l-38 -21q-106 -57 -190.5 -97t-182.5 -77.5t-194.5 -56t-191.5 -18.5h-160v120h163q78 0 154 12t138.5 29t144.5 52t142 64.5t162 81.5l78 41l64 34l-69 22q-10 3 -27 10
t-60 25.5t-96 39.5q-92 37 -125 50t-79.5 27t-74.5 14q-43 0 -86 -17.5t-77 -45t-62 -63.5l-12 -15l-100 50q61 98 148.5 153.5t189.5 55.5q97 0 290 -93q146 -71 246 -106.5t184 -44.5z" />
    <glyph glyph-name="uni0681.fina" unicode="&#x681;" horiz-adv-x="1378" 
d="M535 1151q-35 28 -50 63t-15 89q0 87 54.5 140t131.5 53q62 0 121 -34l1 -86q-54 27 -108 27q-30 0 -55 -11t-42.5 -37.5t-17.5 -64.5q2 -77 98 -113q15 -5 25 -5q5 0 11 2l115 23v-86l-367 -89v82l91 21l20 4l11 3l-8 6zM1214 -594q-188 -83 -430 -83
q-308 0 -481.5 124.5t-173.5 371.5q0 91 28.5 175.5t86.5 161t142 140t200 113.5t257 82l94 21l-90 36q-35 14 -91 37l-42.5 17t-40.5 16t-35.5 14t-34 13t-29.5 10.5t-29 9t-24 6t-23.5 4.5t-20.5 1q-43 0 -86 -17.5t-77 -45t-62 -63.5l-12 -15l-100 50q61 98 148.5 153.5
t189.5 55.5q97 0 290 -93q145 -71 245 -106.5t183 -44.5q-1 -15 -3 -36t-3.5 -41.5t-2.5 -36.5q-29 -2 -61 -5.5t-54.5 -6.5t-55.5 -7l-26 -4v-26q0 -77 20 -129t61 -82t96 -43t133 -13h98v-120h-95q-111 0 -184.5 17t-123.5 58.5t-72.5 109.5t-22.5 172v39l-38 -10
q-200 -56 -341.5 -141.5t-213.5 -189.5t-72 -220q0 -200 144.5 -300.5t418.5 -100.5q201 0 393 82z" />
    <glyph glyph-name="uni0685.init" unicode="&#x685;" horiz-adv-x="1334" 
d="M506 1345l100 100l100 -100l-100 -100zM678 1083l100 100l100 -100l-100 -100zM338 1083l100 100l100 -100l-100 -100zM-20 0v120h163q78 0 154 12t138.5 29t144.5 52t142 64.5t162 81.5l78 41l64 34l-69 22q-10 3 -27 10t-60 25.5t-96 39.5q-92 37 -125 50t-79.5 27
t-74.5 14q-43 0 -86 -17.5t-77 -45t-62 -63.5l-12 -15l-100 50q61 98 148.5 153.5t189.5 55.5q97 0 290 -93q146 -71 246 -106.5t184 -44.5l-2 -116q-60 -11 -141 -47t-226 -112q-105 -56 -179 -90.5t-164.5 -67.5t-179.5 -48t-184 -15h-160z" />
    <glyph glyph-name="uni0685.medi" unicode="&#x685;" horiz-adv-x="1351" 
d="M506 1345l100 100l100 -100l-100 -100zM678 1083l100 100l100 -100l-100 -100zM338 1083l100 100l100 -100l-100 -100zM1214 380q-42 -6 -87.5 -20.5t-97.5 -39.5l-18 -9q2 -54 22 -91t59.5 -59t93.5 -31.5t131 -9.5h54v-120h-58q-180 0 -268 54t-102 173l-6 43l-38 -21
q-106 -57 -190.5 -97t-182.5 -77.5t-194.5 -56t-191.5 -18.5h-160v120h163q78 0 154 12t138.5 29t144.5 52t142 64.5t162 81.5l78 41l64 34l-69 22q-10 3 -27 10t-60 25.5t-96 39.5q-92 37 -125 50t-79.5 27t-74.5 14q-43 0 -86 -17.5t-77 -45t-62 -63.5l-12 -15l-100 50
q61 98 148.5 153.5t189.5 55.5q97 0 290 -93q146 -71 246 -106.5t184 -44.5z" />
    <glyph glyph-name="uni0685.fina" unicode="&#x685;" horiz-adv-x="1378" 
d="M536 1385l100 100l100 -100l-100 -100zM708 1123l100 100l100 -100l-100 -100zM368 1123l100 100l100 -100l-100 -100zM1214 -594q-188 -83 -430 -83q-308 0 -481.5 124.5t-173.5 371.5q0 91 28.5 175.5t86.5 161t142 140t200 113.5t257 82l94 21l-90 36q-35 14 -91 37
l-42.5 17t-40.5 16t-35.5 14t-34 13t-29.5 10.5t-29 9t-24 6t-23.5 4.5t-20.5 1q-43 0 -86 -17.5t-77 -45t-62 -63.5l-12 -15l-100 50q61 98 148.5 153.5t189.5 55.5q97 0 290 -93q145 -71 245 -106.5t183 -44.5q-1 -15 -3 -36t-3.5 -41.5t-2.5 -36.5q-29 -2 -61 -5.5
t-54.5 -6.5t-55.5 -7l-26 -4v-26q0 -77 20 -129t61 -82t96 -43t133 -13h98v-120h-95q-111 0 -184.5 17t-123.5 58.5t-72.5 109.5t-22.5 172v39l-38 -10q-200 -56 -341.5 -141.5t-213.5 -189.5t-72 -220q0 -200 144.5 -300.5t418.5 -100.5q201 0 393 82z" />
    <glyph glyph-name="uni0689.fina" unicode="&#x689;" horiz-adv-x="1055" 
d="M341 -91q0 -37 26 -62.5t63 -25.5t62.5 25.5t25.5 62.5t-25.5 63t-62.5 26t-63 -26t-26 -63zM266 -91q0 68 48.5 116t116 48t115.5 -48.5t48 -115.5t-48 -115.5t-115.5 -48.5t-116 48t-48.5 116zM128 142q96 -21 179 -21q377 0 377 196q0 32 -21.5 92.5t-72.5 179.5
l-108 255l106 49l196 -502q58 -148 115.5 -209.5t133.5 -61.5h42v-120h-42q-148 0 -236 148l-21 36l-28 -32q-127 -151 -426 -151q-106 0 -194 19v122z" />
    <glyph glyph-name="uni0693.fina" unicode="&#x693;" horiz-adv-x="860" 
d="M425 -438q0 -37 26 -62.5t63 -25.5t62.5 25.5t25.5 62.5t-25.5 63t-62.5 26t-63 -26t-26 -63zM350 -438q0 68 48.5 116t116 48t115.5 -48.5t48 -115.5t-48 -115.5t-115.5 -48.5t-116 48t-48.5 116zM545 100q0 148 -68 321l104 38l52 -163q56 -176 208 -176h39v-120h-31
q-70 0 -112.5 21.5t-83.5 72.5l-6 -66q-16 -216 -160.5 -355.5t-417.5 -195.5l-38 97q252 55 382 187t132 339z" />
    <glyph glyph-name="uni0695.fina" unicode="&#x695;" horiz-adv-x="860" 
d="M259 -895l-181 304h100l137 -235l9 -15l9 15l138 235h100l-182 -304h-130zM545 100q0 148 -68 321l104 38l52 -163q56 -176 208 -176h39v-120h-31q-70 0 -112.5 21.5t-83.5 72.5l-6 -66q-16 -216 -160.5 -355.5t-417.5 -195.5l-38 97q252 55 382 187t132 339z" />
    <glyph glyph-name="uni0696.fina" unicode="&#x696;" horiz-adv-x="860" 
d="M424 -616l113 113l114 -114l-113 -113zM86 12l113 113l114 -114l-113 -113zM545 100q0 148 -68 321l104 38l52 -163q56 -176 208 -176h39v-120h-31q-70 0 -112.5 21.5t-83.5 72.5l-6 -66q-16 -216 -160.5 -355.5t-417.5 -195.5l-38 97q252 55 382 187t132 339z" />
    <glyph glyph-name="uni069A.init" unicode="&#x69a;" horiz-adv-x="1562" 
d="M804 -298l113 113l114 -114l-113 -113zM744 946l113 113l114 -114l-113 -113zM1153 120q84 0 126.5 67.5t42.5 184.5q0 101 -37 243l111 29q38 -132 38 -257q0 -179 -67 -282.5t-213 -104.5q-155 0 -216 124l-22 45l-29 -40q-94 -129 -251 -129q-61 0 -103 10t-71.5 34
t-47.5 51.5t-39 73.5l-29 -50q-36 -62 -108 -90.5t-189 -28.5h-69v120h71q133 0 202.5 56t69.5 183q0 42 -8 152l105 12l14 -194q7 -92 59.5 -150.5t144.5 -58.5q109 0 162 63t53 176q0 38 -8 152l105 12l14 -194q6 -89 53.5 -149t135.5 -60z" />
    <glyph glyph-name="uni069A.medi" unicode="&#x69a;" horiz-adv-x="1658" 
d="M804 -298l113 113l114 -114l-113 -113zM744 946l113 113l114 -114l-113 -113zM346 118q-36 -62 -108 -90t-189 -28h-69v120h71q133 0 202.5 56t69.5 183q0 43 -8 152l105 12l14 -194q7 -92 59.5 -150.5t144.5 -58.5q109 0 162 63t53 176q0 38 -8 152l105 12l14 -194
q6 -89 53.5 -149t135.5 -60q84 0 126.5 63.5t42.5 173.5q0 57 -8 175l105 12l14 -215q7 -100 62 -154t151 -55h32v-120h-32q-63 1 -105.5 11t-70.5 33.5t-44 50.5t-34 74q-21 -40 -33.5 -60.5t-33.5 -45.5t-42.5 -36t-53.5 -19t-75 -8q-155 0 -216 124l-22 45l-29 -40
q-94 -129 -251 -129q-61 0 -103 10t-71.5 33t-47.5 51.5t-38 74.5z" />
    <glyph glyph-name="uni069A.fina" unicode="&#x69a;" horiz-adv-x="2553" 
d="M1694 -298l113 113l114 -114l-113 -113zM1634 946l113 113l114 -114l-113 -113zM1531 0q-104 0 -170 52l-48 37l-1 -61q-4 -272 -158 -409q-156 -139 -433 -139q-302 0 -447.5 134.5t-145.5 411.5q0 191 77 390l100 -41q-65 -182 -65 -344q0 -216 124.5 -327t363.5 -111
q235 0 356.5 121.5t122.5 355.5q0 173 -79 351l109 38l49 -154q59 -184 247 -185q109 0 162 63t53 176q0 38 -8 152l105 12l14 -194q6 -89 53.5 -149t135.5 -60q84 0 126.5 63.5t42.5 173.5q0 57 -8 175l105 12l14 -215q7 -100 62 -154t151 -55h32v-120h-32q-63 1 -105.5 11
t-70.5 33.5t-44 50.5t-34 74q-21 -40 -33.5 -60.5t-33.5 -45.5t-42.5 -36t-53.5 -19t-75 -8q-155 0 -216 124l-22 45l-29 -40q-94 -129 -251 -129z" />
    <glyph glyph-name="uni06A1.init" unicode="&#x6a1;" horiz-adv-x="918" 
d="M658 390q-90 -28 -192 -28q-153 0 -224.5 58.5t-72.5 180.5q0 107 35.5 193t104 137t157.5 51q107 0 181.5 -77t108.5 -198.5t34 -274.5q0 -92 -11 -158.5t-38.5 -115.5t-66 -79t-100.5 -48t-134 -24.5t-175 -6.5h-285v120h296q56 0 101 2.5t89.5 10t78.5 19t63 30
t48 43.5t30 59t11 77v41zM681 533q-6 45 -14 85t-25 87.5t-40 81t-60 56.5t-83 23q-80 0 -134.5 -70.5t-54.5 -167.5q0 -78 56 -117t153 -39q86 0 181 28l24 7z" />
    <glyph glyph-name="uni06A1.medi" unicode="&#x6a1;" horiz-adv-x="972" 
d="M511 681q-64 0 -133 -78t-69 -143q0 -64 72 -157t135 -93q45 0 95 47.5t82 108.5t32 102q0 61 -69.5 137t-144.5 76zM693 136q29 -11 71.5 -13.5t133.5 -2.5h94v-120h-92q-229 0 -369 103l-18 13l-18 -13q-140 -103 -381 -103h-134v120h134q111 0 156 3t71 15l38 18
l-30 30q-79 80 -113.5 142.5t-34.5 137.5q0 62 43.5 139t118 134t149.5 57q62 0 122.5 -31.5t103.5 -78.5t69.5 -102.5t26.5 -102.5q0 -78 -37 -148.5t-114 -147.5l-33 -33z" />
    <glyph glyph-name="uni06A1.fina" unicode="&#x6a1;" horiz-adv-x="1962" 
d="M1501 681q-64 0 -133 -78t-69 -143q0 -64 72 -157t135 -93q45 0 95 47.5t82 108.5t32 102q0 61 -69.5 137t-144.5 76zM960 120q194 0 261.5 2.5t104.5 12.5l51 13l-37 37q-79 80 -114 143t-35 138q0 62 44 139t118.5 134t149.5 57q81 0 157.5 -52.5t120 -125.5t43.5 -137
q0 -82 -34 -144t-118 -153l-32 -34l45 -14q28 -10 69.5 -13t133.5 -3h94v-120h-92q-124 0 -210.5 25t-158.5 78l-17 13l-18 -12q-77 -52 -207 -78t-314 -26h-125q-355 0 -533.5 115t-178.5 339q0 110 41 216l98 -37q-24 -77 -24 -154q1 -181 152.5 -270t434.5 -89h130z" />
    <glyph glyph-name="uni06AB.init" unicode="&#x6ab;" horiz-adv-x="950" 
d="M600 1061q0 -37 26 -62.5t63 -25.5t62.5 25.5t25.5 62.5t-25.5 63t-62.5 26t-63 -26t-26 -63zM525 1061q0 68 48.5 116t116 48t115.5 -48.5t48 -115.5t-48 -115.5t-115.5 -48.5t-116 48t-48.5 116zM196 935q16 -13 54.5 -46t54 -46t48 -40.5t48 -41t41.5 -36t41 -36.5
t34 -31.5t33.5 -32t27.5 -28.5q61 -67 89.5 -131.5t28.5 -139.5q0 -167 -122.5 -246.5t-407.5 -79.5h-186v120h185q209 0 312.5 53.5t103.5 169.5q0 56 -28.5 105t-85.5 103q-92 85 -276 230q-101 78 -101 161q0 107 120 153l649 241v-107l-654 -243l-49 -18z" />
    <glyph glyph-name="uni06AB.medi" unicode="&#x6ab;" horiz-adv-x="1027" 
d="M600 1061q0 -37 26 -62.5t63 -25.5t62.5 25.5t25.5 62.5t-25.5 63t-62.5 26t-63 -26t-26 -63zM525 1061q0 68 48.5 116t116 48t115.5 -48.5t48 -115.5t-48 -115.5t-115.5 -48.5t-116 48t-48.5 116zM644 165q-55 -83 -165.5 -124t-312.5 -41h-186v120h185
q209 0 312.5 53.5t103.5 169.5q0 56 -28.5 105t-85.5 103q-92 85 -276 230q-101 78 -101 161q0 107 120 153l649 241v-107l-654 -243l-49 -18l40 -33q16 -14 54.5 -46.5t54 -45.5t48 -40.5t48 -41t41 -36t41 -36.5t34.5 -31.5t33.5 -32t27.5 -28.5q80 -86 122 -205
q46 -131 125.5 -201t189.5 -71h32v-120h-32q-198 2 -322 167l-26 34z" />
    <glyph glyph-name="uni06AB.fina" unicode="&#x6ab;" horiz-adv-x="1941" 
d="M1515 1061q0 -37 26 -62.5t63 -25.5t62.5 25.5t25.5 62.5t-25.5 63t-62.5 26t-63 -26t-26 -63zM1440 1061q0 68 48.5 116t116 48t115.5 -48.5t48 -115.5t-48 -115.5t-115.5 -48.5t-116 48t-48.5 116zM267 633q-24 -77 -24 -154q1 -181 151.5 -270t433.5 -89h202
q466 0 466 223q0 56 -28.5 105t-85.5 103q-103 96 -276 230q-101 78 -101 161q0 107 120 153l649 241v-107l-655 -243l-49 -18l40 -33q23 -19 55.5 -46.5t53.5 -45t49 -41t47 -40.5t42 -37t40.5 -35.5t35 -32t32.5 -31.5t28 -29q79 -85 122 -205q46 -131 125.5 -200.5
t188.5 -71.5h32v-120h-32q-195 2 -321 167l-26 34l-23 -35q-110 -166 -529 -166h-192q-354 0 -532 115t-178 339q0 108 41 216z" />
    <glyph glyph-name="uni06B5.init" unicode="&#x6b5;" horiz-adv-x="608" 
d="M307 1511l-181 304h100l137 -235l9 -15l9 15l138 235h100l-182 -304h-130zM-20 0v120h81q140 0 200 64t60 189v933h109v-932q0 -196 -82.5 -285t-287.5 -89h-80z" />
    <glyph glyph-name="uni06B5.medi" unicode="&#x6b5;" horiz-adv-x="675" 
d="M306 1511l-181 304h100l137 -235l9 -15l9 15l138 235h100l-182 -304h-130zM343 130q-47 -68 -114.5 -99t-185.5 -31h-63v120h65q274 0 276 239v947h109v-947q0 -239 228 -239h32v-120h-32q-98 0 -157 31t-109 100l-24 34z" />
    <glyph glyph-name="uni06B5.fina" unicode="&#x6b5;" horiz-adv-x="1439" 
d="M533 1064l-181 304h100l137 -235l9 -15l9 15l138 235h100l-182 -304h-130zM297 311q-58 -156 -58 -305q0 -202 111.5 -307.5t324.5 -105.5q135 0 227.5 51t139.5 150.5t47 243.5l2 1268h108l-1 -943q0 -119 54 -181t176 -62h31v-120h-31q-38 0 -70 6.5t-54 16.5
t-42.5 26.5t-33.5 31.5t-29 37l-1 -70q-4 -285 -132.5 -426.5t-391.5 -141.5q-279 0 -412.5 129t-133.5 396q0 171 69 347z" />
    <glyph glyph-name="uni06BC.init" unicode="&#x6bc;" horiz-adv-x="592" 
d="M149 -83q0 -37 26 -62.5t63 -25.5t62.5 25.5t25.5 62.5t-25.5 63t-62.5 26t-63 -26t-26 -63zM74 -83q0 68 48.5 116t116 48t115.5 -48.5t48 -115.5t-48 -115.5t-115.5 -48.5t-116 48t-48.5 116zM158 1040l113 113l114 -114l-113 -113zM425 672q39 -147 39 -286
q0 -386 -365 -386h-119v120h119q127 0 190.5 64.5t63.5 198.5q0 119 -31 263z" />
    <glyph glyph-name="uni06BC.medi" unicode="&#x6bc;" horiz-adv-x="687" 
d="M149 -83q0 -37 26 -62.5t63 -25.5t62.5 25.5t25.5 62.5t-25.5 63t-62.5 26t-63 -26t-26 -63zM74 -83q0 68 48.5 116t116 48t115.5 -48.5t48 -115.5t-48 -115.5t-115.5 -48.5t-116 48t-48.5 116zM213 955l113 113l114 -114l-113 -113zM676 0q-90 1 -146.5 32.5t-91.5 94.5
l-22 42l-28 -38q-95 -131 -287 -131h-121v120h121q252 0 252 247q0 45 -7 165l105 12l14 -214q6 -99 60 -153t151 -57h31v-120h-31z" />
    <glyph glyph-name="uni06BC.fina" unicode="&#x6bc;" horiz-adv-x="1528" 
d="M646 -616q0 -37 26 -62.5t63 -25.5t62.5 25.5t25.5 62.5t-25.5 63t-62.5 26t-63 -26t-26 -63zM571 -616q0 68 48.5 116t116 48t115.5 -48.5t48 -115.5t-48 -115.5t-115.5 -48.5t-116 48t-48.5 116zM594 609l113 113l114 -114l-113 -113zM1207 70q0 172 -79 351l109 38
l63 -197q45 -141 206 -142h42v-120h-42q-37 1 -64 6t-49 17.5t-34.5 22.5t-35.5 31l-10 10l-1 -58q-4 -267 -159.5 -408t-431.5 -141q-302 0 -447.5 134.5t-145.5 411.5q0 191 77 390l100 -41q-65 -182 -65 -344q0 -216 125 -327t363 -111q234 0 356 121.5t123 355.5z" />
    <glyph glyph-name="uni06C2.init" unicode="&#x6c2;" horiz-adv-x="592" 
d="M194 973q-35 28 -50 63t-15 89q0 87 54.5 140t131.5 53q62 0 121 -34l1 -86q-54 27 -108 27q-30 0 -55 -11t-42.5 -37.5t-17.5 -64.5q2 -77 98 -113q15 -5 25 -5q5 0 11 2l115 23v-86l-367 -89v82l91 21l20 4l11 3l-8 6zM353.026 -153.496
q-33.8389 -32.3984 -55.4375 -61.917t-35.6387 -68.0371q-14.0391 -38.5186 -14.0391 -81.7168v-21.5996h21.5986q45.3584 0 60.4775 -16.1992q15.1201 -16.1992 15.1201 -58.6777q0 -80.6367 -75.5977 -80.6367q-49.6777 0 -70.917 25.1992t-21.2393 78.4766
q0 173.513 155.514 301.668zM425 672q39 -147 39 -286q0 -386 -365 -386h-119v120h119q127 0 190.5 64.5t63.5 198.5q0 119 -31 263z" />
    <glyph glyph-name="uni06C2.medi" unicode="&#x6c2;" horiz-adv-x="1002" 
d="M412 653q-35 28 -50 63t-15 89q0 87 54.5 140t131.5 53q62 0 121 -34l1 -86q-54 27 -108 27q-30 0 -55 -11t-42.5 -37.5t-17.5 -64.5q2 -77 98 -113q15 -5 25 -5q5 0 11 2l115 23v-86l-367 -89v82l91 21l20 4l11 3l-8 6zM208 47q-57 -28 -89 -37.5t-76 -9.5h-63v120h65
q49 0 89 7.5t68.5 18t61 33t53.5 40.5t57 52l69 -77l-2 -2q-35 -30 -57 -67q-26 -45 -34 -95t1.5 -97.5t30.5 -94.5t51 -87t65 -73t72 -55l45 -27v53q0 231 93.5 351t279.5 120h34v-120h-36q-140 0 -211.5 -93.5t-71.5 -266.5q0 -43 3 -80l-96 -94q-164 84 -259 223
t-100 332l-1 46z" />
    <glyph glyph-name="uni06C2.fina" unicode="&#x6c2;" horiz-adv-x="919" 
d="M340 857q-35 28 -50 63t-15 89q0 87 54.5 140t131.5 53q62 0 121 -34l1 -86q-54 27 -108 27q-30 0 -55 -11t-42.5 -37.5t-17.5 -64.5q2 -77 98 -113q15 -5 25 -5q5 0 11 2l115 23v-86l-367 -89v82l91 21l20 4l11 3l-8 6zM219 -13l-88 22q9 77 30.5 149.5t49.5 130.5
t62 106.5t69 81t70.5 50.5t66.5 18q44 0 78 -23.5t56 -61t41 -82.5t40.5 -90.5t47.5 -83t67.5 -61t96.5 -23.5h33v-120h-32q-63 0 -112.5 22t-80.5 57.5t-55 78.5t-42 86t-36 78.5t-43 57.5t-56 22q-82 0 -157.5 -118.5t-105.5 -296.5z" />
    <glyph glyph-name="uni06C3.fina" unicode="&#x6c3;" horiz-adv-x="919" 
d="M492 925l108 108l108 -108l-108 -109zM160 925l108 108l108 -108l-108 -109zM219 -13l-88 22q9 77 30.5 149.5t49.5 130.5t62 106.5t69 81t70.5 50.5t66.5 18q44 0 78 -23.5t56 -61t41 -82.5t40.5 -90.5t47.5 -83t67.5 -61t96.5 -23.5h33v-120h-32q-63 0 -112.5 22
t-80.5 57.5t-55 78.5t-42 86t-36 78.5t-43 57.5t-56 22q-82 0 -157.5 -118.5t-105.5 -296.5z" />
    <glyph glyph-name="uni06CA.fina" unicode="&#x6ca;" horiz-adv-x="938" 
d="M455 1031l108 108l108 -108l-108 -109zM123 1031l108 108l108 -108l-108 -109zM874.878 0v120h83.4893v-120h-83.4893zM432 660q141 0 220 -124t97 -388l2 -28h28h117v-120h-129h-25l-4 -25q-37 -194 -174 -321t-377 -178l-38 98q203 44 327.5 144t163.5 244l10 38h-39
h-149q-174 0 -254 65t-80 201q0 164 88 279t216 115zM646 152q-25 383 -228 383q-83 0 -134 -78t-51 -176q0 -80 58.5 -120.5t160.5 -40.5h164h32z" />
    <glyph glyph-name="uni06CD.fina" unicode="&#x6cd;" horiz-adv-x="1798" 
d="M99 152l21 98l290 116l116 -48q-46 -142 -46 -288q0 -214 122.5 -325.5t356.5 -111.5q122 0 238 31t196.5 94.5t80.5 144.5q0 62 -53.5 99.5t-140.5 37.5h-123q-15 0 -23 8.5t-13 30.5l-19 81h565v-120h-89h-48l21 -43q12 -24 17.5 -44t6.5 -29.5t1 -27.5
q0 -159 -168.5 -267t-447.5 -108q-302 0 -446.5 135.5t-144.5 414.5q0 74 25 188l13 56l-53 -21zM1673.1 0v120h144.993v-120h-144.993z" />
    <glyph glyph-name="uni06CE.init" unicode="&#x6ce;" horiz-adv-x="672" 
d="M311 962l-181 304h100l137 -235l9 -15l9 15l138 235h100l-182 -304h-130zM299 -303l108 108l108 -108l-108 -109zM-33 -303l108 108l108 -108l-108 -109zM505 672q39 -147 39 -286q0 -208 -97 -297t-318 -89h-149v120h149q161 0 232.5 55.5t71.5 207.5q0 119 -31 263z
" />
    <glyph glyph-name="uni06CE.medi" unicode="&#x6ce;" horiz-adv-x="767" 
d="M360 852l-181 304h100l137 -235l9 -15l9 15l138 235h100l-182 -304h-130zM299 -303l108 108l108 -108l-108 -109zM-33 -303l108 108l108 -108l-108 -109zM756 0q-93 1 -147.5 32t-89.5 95l-22 42l-28 -39q-46 -63 -132.5 -96.5t-207.5 -33.5h-149v120h151q157 0 229 53
t73 184q0 73 -6 175l104 13l14 -216q6 -99 60 -152.5t151 -56.5h31v-120h-31z" />
    <glyph glyph-name="uni06CE.fina" unicode="&#x6ce;" horiz-adv-x="1559" 
d="M559 545l-181 304h100l137 -235l9 -15l9 15l138 235h100l-182 -304h-130zM1434.1 0v120h144.993v-120h-144.993zM286 318q-46 -142 -46 -288q0 -214 122.5 -325.5t356.5 -111.5q122 0 238 31t196.5 94.5t80.5 144.5q0 62 -53.5 99.5t-140.5 37.5h-123q-15 0 -23 8.5
t-13 30.5l-16 67q-3 14 9 14h583v-120h-119h-48q46 -71 46 -144q0 -159 -168.5 -267t-447.5 -108q-302 0 -446.5 135.5t-144.5 414.5q0 75 15.5 166t41.5 162z" />
    <glyph glyph-name="uni06D0.init" unicode="&#x6d0;" horiz-adv-x="592" arabic-form="initial" 
d="M205 -353l-108 108l108 108l109 -108zM205 -635l-108 108l108 108l109 -108zM425 672q39 -147 39 -286q0 -386 -365 -386h-119v120h119q127 0 190.5 64.5t63.5 198.5q0 119 -31 263z" />
    <glyph glyph-name="uni06D0.medi" unicode="&#x6d0;" horiz-adv-x="687" arabic-form="medial" 
d="M205 -353l-108 108l108 108l109 -108zM205 -635l-108 108l108 108l109 -108zM676 0q-90 1 -146.5 32.5t-91.5 94.5l-22 42l-28 -38q-95 -131 -287 -131h-121v120h121q252 0 252 247q0 45 -7 165l105 12l14 -214q6 -99 60 -153t151 -57h31v-120h-31z" />
    <glyph glyph-name="uni06D0.fina" unicode="&#x6d0;" horiz-adv-x="1559" arabic-form="final" 
d="M729 -781l-108 108l108 108l109 -108zM729 -1063l-108 108l108 108l109 -108zM286 318q-46 -142 -46 -288q0 -214 122.5 -325.5t356.5 -111.5q122 0 238 31t196.5 94.5t80.5 144.5q0 62 -53.5 99.5t-140.5 37.5h-123q-15 0 -23 8.5t-13 30.5l-16 67q-3 14 9 14h583v-120
h-119h-48q46 -71 46 -144q0 -159 -168.5 -267t-447.5 -108q-302 0 -446.5 135.5t-144.5 414.5q0 75 15.5 166t41.5 162zM1434.1 0v120h144.993v-120h-144.993z" />
    <glyph glyph-name="uni06D5.fina" unicode="&#x6d5;" horiz-adv-x="1038" 
d="M128 382q0 89 50 164.5t159 141t277 117.5l25 8l-4 26l-3 16l100 21l77 -557q13 -93 69.5 -146t148.5 -53h31v-120h-35q-128 0 -198.5 53.5t-94.5 160.5l-11 48l-38 -32q-113 -98 -250 -98q-138 0 -220.5 63t-82.5 187zM621 701q-188 -69 -283.5 -141.5t-95.5 -165.5
q0 -74 50 -114t133 -40q99 0 182.5 57.5t83.5 154.5q0 33 -4 62l-26 164l-6 36z" />
    <glyph glyph-name="uniFB50" unicode="&#x671;" horiz-adv-x="465" arabic-form="isolated" 
d="M202 1366q132 0 183 19t51 77q0 42 -27.5 70t-71.5 28q-55 0 -100 -40.5t-111 -142.5l-7 -12h14zM-37 1357l14 65q39 -33 65 -43l6 -2l4 5q54 92 98.5 145.5t88.5 78t94 24.5q38 0 70 -12t54.5 -34t35 -52.5t12.5 -65.5q0 -95 -66.5 -132.5t-234.5 -37.5h-24
q-175 0 -217 61zM178 1117.57h109v-1114.71h-109v1114.71z" />
    <glyph glyph-name="uniFB51" unicode="&#x671;" horiz-adv-x="527" arabic-form="final" 
d="M202 1366q132 0 183 19t51 77q0 42 -27.5 70t-71.5 28q-55 0 -100 -40.5t-111 -142.5l-7 -12h14zM-37 1357l14 65q39 -33 65 -43l6 -2l4 5q54 92 98.5 145.5t88.5 78t94 24.5q38 0 70 -12t54.5 -34t35 -52.5t12.5 -65.5q0 -95 -66.5 -132.5t-234.5 -37.5h-24
q-175 0 -217 61zM516 0q-174 2 -256 88t-82 286v733h109v-733q0 -251 229 -254h31v-120h-31z" />
    <glyph glyph-name="uniFB56" unicode="&#x67e;" horiz-adv-x="1777" arabic-form="isolated" 
d="M806 -530l100 100l100 -100l-100 -100zM978 -268l100 100l100 -100l-100 -100zM638 -268l100 100l100 -100l-100 -100zM975 0h-135q-355 0 -533.5 115t-178.5 339q0 108 41 216l98 -37q-24 -77 -24 -154q1 -121 71 -202t199.5 -119t316.5 -38h138q215 0 307 17
q204 37 248 183q13 44 13 98q0 28 -3.5 64.5t-10.5 77t-16 86.5l104 26q39 -130 39 -239q0 -80 -16.5 -143t-44.5 -108t-75 -77.5t-99 -53t-125.5 -32t-146 -15.5t-167.5 -4z" />
    <glyph glyph-name="uniFB57" unicode="&#x67e;" horiz-adv-x="1878" arabic-form="final" 
d="M806 -530l100 100l100 -100l-100 -100zM978 -268l100 100l100 -100l-100 -100zM638 -268l100 100l100 -100l-100 -100zM985 0h-145q-355 0 -533.5 115t-178.5 339q0 108 41 216l98 -37q-24 -77 -24 -154q1 -121 71 -202t199.5 -119t316.5 -38h150q201 0 331.5 33
t191.5 107q42 50 42 142q0 45 -5 130l101 12l14 -216q7 -99 60 -152.5t151 -55.5h32v-120h-32q-96 1 -159 40.5t-104 121.5l-20 37l-29 -30q-78 -83 -223.5 -126t-345.5 -43z" />
    <glyph glyph-name="uniFB58" unicode="&#x67e;" horiz-adv-x="672" arabic-form="initial" 
d="M136 -530l100 100l100 -100l-100 -100zM308 -268l100 100l100 -100l-100 -100zM-32 -268l100 100l100 -100l-100 -100zM505 672q39 -147 39 -286q0 -208 -97 -297t-318 -89h-149v120h149q161 0 232.5 55.5t71.5 207.5q0 119 -31 263z" />
    <glyph glyph-name="uniFB59" unicode="&#x67e;" horiz-adv-x="767" arabic-form="medial" 
d="M136 -530l100 100l100 -100l-100 -100zM308 -268l100 100l100 -100l-100 -100zM-32 -268l100 100l100 -100l-100 -100zM756 0q-93 1 -147.5 32t-89.5 95l-22 42l-28 -39q-46 -63 -132.5 -96.5t-207.5 -33.5h-149v120h151q157 0 229 53t73 184q0 73 -6 175l104 13l14 -216
q6 -99 60 -152.5t151 -56.5h31v-120h-31z" />
    <glyph glyph-name="uniFB66" unicode="&#x679;" horiz-adv-x="1777" arabic-form="isolated" 
d="M862 821q241 0 241 100q0 36 -23 59t-60 23q-94 0 -207 -167l-11 -16h19zM714 824q5 8 27 43l1 2v3v423v4h4h76h4v-4v-282v-25l18 18q41 44 83 65.5t88 21.5q78 0 127 -47.5t49 -120.5q-1 -194 -328 -194h-249h-4v4v81v4h4h92h5zM975 0h-135q-355 0 -533.5 115
t-178.5 339q0 108 41 216l98 -37q-24 -77 -24 -154q1 -121 71 -202t199.5 -119t316.5 -38h138q215 0 307 17q204 37 248 183q13 44 13 98q0 28 -3.5 64.5t-10.5 77t-16 86.5l104 26q39 -130 39 -239q0 -80 -16.5 -143t-44.5 -108t-75 -77.5t-99 -53t-125.5 -32t-146 -15.5
t-167.5 -4z" />
    <glyph glyph-name="uniFB67" unicode="&#x679;" horiz-adv-x="1878" arabic-form="final" 
d="M872 821q241 0 241 100q0 36 -23 59t-60 23q-94 0 -207 -167l-11 -16h19zM724 824q5 8 27 43l1 2v3v423v4h4h76h4v-4v-282v-25l18 18q41 44 83 65.5t88 21.5q78 0 127 -47.5t49 -120.5q-1 -194 -328 -194h-249h-4v4v81v4h4h92h5zM985 0h-145q-355 0 -533.5 115
t-178.5 339q0 108 41 216l98 -37q-24 -77 -24 -154q1 -121 71 -202t199.5 -119t316.5 -38h150q201 0 331.5 33t191.5 107q42 50 42 142q0 45 -5 130l101 12l14 -216q7 -99 60 -152.5t151 -55.5h32v-120h-32q-96 1 -159 40.5t-104 121.5l-20 37l-29 -30q-78 -83 -223.5 -126
t-345.5 -43z" />
    <glyph glyph-name="uniFB68" unicode="&#x679;" horiz-adv-x="678" arabic-form="initial" 
d="M252 971q241 0 241 100q0 36 -23 59t-60 23q-94 0 -207 -167l-11 -16h19zM104 974q5 8 27 43l1 2v3v423v4h4h76h4v-4v-282v-25l18 18q41 44 83 65.5t88 21.5q78 0 127 -47.5t49 -120.5q-1 -194 -328 -194h-249h-4v4v81v4h4h92h5zM505 672q39 -147 39 -286
q0 -208 -97 -297t-318 -89h-149v120h149q161 0 232.5 55.5t71.5 207.5q0 119 -31 263z" />
    <glyph glyph-name="uniFB69" unicode="&#x679;" horiz-adv-x="767" arabic-form="medial" 
d="M282 881q241 0 241 100q0 36 -23 59t-60 23q-94 0 -207 -167l-11 -16h19zM134 884q5 8 27 43l1 2v3v423v4h4h76h4v-4v-282v-25l18 18q41 44 83 65.5t88 21.5q78 0 127 -47.5t49 -120.5q-1 -194 -328 -194h-249h-4v4v81v4h4h92h5zM756 0q-93 1 -147.5 32t-89.5 95l-22 42
l-28 -39q-46 -63 -132.5 -96.5t-207.5 -33.5h-149v120h151q157 0 229 53t73 184q0 73 -6 175l104 13l14 -216q6 -99 60 -152.5t151 -56.5h31v-120h-31z" />
    <glyph glyph-name="uniFB6B" unicode="&#x6a4;" horiz-adv-x="1962" arabic-form="final" 
d="M1380 1389l100 100l100 -100l-100 -100zM1552 1127l100 100l100 -100l-100 -100zM1212 1127l100 100l100 -100l-100 -100zM1501 681q-64 0 -133 -78t-69 -143q0 -64 72 -157t135 -93q45 0 95 47.5t82 108.5t32 102q0 61 -69.5 137t-144.5 76zM960 120q194 0 261.5 2.5
t104.5 12.5l51 13l-37 37q-79 80 -114 143t-35 138q0 62 44 139t118.5 134t149.5 57q81 0 157.5 -52.5t120 -125.5t43.5 -137q0 -82 -34 -144t-118 -153l-32 -34l45 -14q28 -10 69.5 -13t133.5 -3h94v-120h-92q-124 0 -210.5 25t-158.5 78l-17 13l-18 -12q-77 -52 -207 -78
t-314 -26h-125q-355 0 -533.5 115t-178.5 339q0 110 41 216l98 -37q-24 -77 -24 -154q1 -181 152.5 -270t434.5 -89h130z" />
    <glyph glyph-name="uniFB6C" unicode="&#x6a4;" horiz-adv-x="918" arabic-form="initial" 
d="M658 390q-90 -28 -192 -28q-153 0 -224.5 58.5t-72.5 180.5q0 107 35.5 193t104 137t157.5 51q107 0 181.5 -77t108.5 -198.5t34 -274.5q0 -92 -11 -158.5t-38.5 -115.5t-66 -79t-100.5 -48t-134 -24.5t-175 -6.5h-285v120h296q56 0 101 2.5t89.5 10t78.5 19t63 30
t48 43.5t30 59t11 77v41zM681 533q-6 45 -14 85t-25 87.5t-40 81t-60 56.5t-83 23q-80 0 -134.5 -70.5t-54.5 -167.5q0 -78 56 -117t153 -39q86 0 181 28l24 7zM320 1569l100 100l100 -100l-100 -100zM492 1307l100 100l100 -100l-100 -100zM152 1307l100 100l100 -100
l-100 -100z" />
    <glyph glyph-name="uniFB6D" unicode="&#x6a4;" horiz-adv-x="972" arabic-form="medial" 
d="M404 1389l100 100l100 -100l-100 -100zM576 1127l100 100l100 -100l-100 -100zM236 1127l100 100l100 -100l-100 -100zM511 681q-64 0 -133 -78t-69 -143q0 -64 72 -157t135 -93q45 0 95 47.5t82 108.5t32 102q0 61 -69.5 137t-144.5 76zM693 136q29 -11 71.5 -13.5
t133.5 -2.5h94v-120h-92q-229 0 -369 103l-18 13l-18 -13q-140 -103 -381 -103h-134v120h134q111 0 156 3t71 15l38 18l-30 30q-79 80 -113.5 142.5t-34.5 137.5q0 62 43.5 139t118 134t149.5 57q62 0 122.5 -31.5t103.5 -78.5t69.5 -102.5t26.5 -102.5q0 -78 -37 -148.5
t-114 -147.5l-33 -33z" />
    <glyph glyph-name="uniFB7A" unicode="&#x686;" horiz-adv-x="1347" arabic-form="isolated" 
d="M712 -240l100 100l100 -100l-100 -100zM884 22l100 100l100 -100l-100 -100zM544 22l100 100l100 -100l-100 -100zM847 548q-35 14 -91 37l-42.5 17t-40.5 16t-35.5 14t-34 13t-29.5 10.5t-29 9t-24 6t-23.5 4.5t-20.5 1q-43 0 -86 -17.5t-77 -45t-62 -63.5l-12 -15
l-100 50q61 98 148.5 153.5t189.5 55.5q97 0 290 -93q145 -71 245 -106.5t183 -44.5l-9 -114q-197 -19 -369.5 -69.5t-302.5 -126.5t-205 -181t-75 -224q0 -200 144.5 -300.5t418.5 -100.5q201 0 393 82l23 -110q-188 -83 -430 -83q-308 0 -481.5 124.5t-173.5 371.5
q0 115 45.5 218.5t133 191t224 155.5t311.5 107l94 21z" />
    <glyph glyph-name="uniFB7B" unicode="&#x686;" horiz-adv-x="1378" arabic-form="final" 
d="M569.74 -285.244l94.959 94.958l94.958 -94.958l-94.958 -94.959zM733.068 -36.4531l94.959 94.959l94.959 -94.959l-94.959 -94.959zM410.21 -36.4531l94.958 94.959l94.959 -94.959l-94.959 -94.959zM1214 -594q-188 -83 -430 -83q-308 0 -481.5 124.5t-173.5 371.5
q0 91 28.5 175.5t86.5 161t142 140t200 113.5t257 82l94 21l-90 36q-35 14 -91 37l-42.5 17t-40.5 16t-35.5 14t-34 13t-29.5 10.5t-29 9t-24 6t-23.5 4.5t-20.5 1q-43 0 -86 -17.5t-77 -45t-62 -63.5l-12 -15l-100 50q61 98 148.5 153.5t189.5 55.5q97 0 290 -93
q145 -71 245 -106.5t183 -44.5q-1 -15 -3 -36t-3.5 -41.5t-2.5 -36.5q-29 -2 -61 -5.5t-54.5 -6.5t-55.5 -7l-26 -4v-26q0 -77 20 -129t61 -82t96 -43t133 -13h98v-120h-95q-111 0 -184.5 17t-123.5 58.5t-72.5 109.5t-22.5 172v39l-38 -10q-200 -56 -341.5 -141.5
t-213.5 -189.5t-72 -220q0 -200 144.5 -300.5t418.5 -100.5q201 0 393 82z" />
    <glyph glyph-name="uniFB7C" unicode="&#x686;" horiz-adv-x="1334" arabic-form="initial" 
d="M536 -530l100 100l100 -100l-100 -100zM708 -268l100 100l100 -100l-100 -100zM368 -268l100 100l100 -100l-100 -100zM-20 0v120h163q78 0 154 12t138.5 29t144.5 52t142 64.5t162 81.5l78 41l64 34l-69 22q-10 3 -27 10t-60 25.5t-96 39.5q-92 37 -125 50t-79.5 27
t-74.5 14q-43 0 -86 -17.5t-77 -45t-62 -63.5l-12 -15l-100 50q61 98 148.5 153.5t189.5 55.5q97 0 290 -93q146 -71 246 -106.5t184 -44.5l-2 -116q-60 -11 -141 -47t-226 -112q-105 -56 -179 -90.5t-164.5 -67.5t-179.5 -48t-184 -15h-160z" />
    <glyph glyph-name="uniFB7D" unicode="&#x686;" horiz-adv-x="1351" arabic-form="medial" 
d="M536 -530l100 100l100 -100l-100 -100zM708 -268l100 100l100 -100l-100 -100zM368 -268l100 100l100 -100l-100 -100zM1214 380q-42 -6 -87.5 -20.5t-97.5 -39.5l-18 -9q2 -54 22 -91t59.5 -59t93.5 -31.5t131 -9.5h54v-120h-58q-180 0 -268 54t-102 173l-6 43l-38 -21
q-106 -57 -190.5 -97t-182.5 -77.5t-194.5 -56t-191.5 -18.5h-160v120h163q78 0 154 12t138.5 29t144.5 52t142 64.5t162 81.5l78 41l64 34l-69 22q-10 3 -27 10t-60 25.5t-96 39.5q-92 37 -125 50t-79.5 27t-74.5 14q-43 0 -86 -17.5t-77 -45t-62 -63.5l-12 -15l-100 50
q61 98 148.5 153.5t189.5 55.5q97 0 290 -93q146 -71 246 -106.5t184 -44.5z" />
    <glyph glyph-name="uniFB88" unicode="&#x688;" horiz-adv-x="963" arabic-form="isolated" 
d="M377 1263q241 0 241 100q0 36 -23 59t-60 23q-94 0 -207 -167l-11 -16h19zM229 1266q5 8 27 43l1 2v3v423v4h4h76h4v-4v-282v-25l18 18q41 44 83 65.5t88 21.5q78 0 127 -47.5t49 -120.5q-1 -194 -328 -194h-249h-4v4v81v4h4h92h5zM128 141q108 -20 189 -20
q402 0 402 213q0 105 -102 218.5t-300 241.5l65 98q453 -278 453 -555q0 -167 -122.5 -251t-382.5 -84q-104 0 -202 19v120z" />
    <glyph glyph-name="uniFB89" unicode="&#x688;" horiz-adv-x="1055" arabic-form="final" 
d="M128 142q96 -21 179 -21q377 0 377 196q0 32 -21.5 92.5t-72.5 179.5l-108 255l106 49l196 -502q58 -148 115.5 -209.5t133.5 -61.5h42v-120h-42q-148 0 -236 148l-21 36l-28 -32q-127 -151 -426 -151q-106 0 -194 19v122zM427 1253q241 0 241 100q0 36 -23 59t-60 23
q-94 0 -207 -167l-11 -16h19zM279 1256q5 8 27 43l1 2v3v423v4h4h76h4v-4v-282v-25l18 18q41 44 83 65.5t88 21.5q78 0 127 -47.5t49 -120.5q-1 -194 -328 -194h-249h-4v4v81v4h4h92h5z" />
    <glyph glyph-name="uniFB8A" unicode="&#x698;" horiz-adv-x="810" arabic-form="isolated" 
d="M349 1096l100 100l100 -100l-100 -100zM521 834l100 100l100 -100l-100 -100zM181 834l100 100l100 -100l-100 -100zM583 459q69 -186 69 -354q0 -255 -144 -411.5t-439 -217.5l-38 98q252 54 382 186.5t132 339.5q0 148 -67 321z" />
    <glyph glyph-name="uniFB8B" unicode="&#x698;" horiz-adv-x="860" arabic-form="final" 
d="M349 1096l100 100l100 -100l-100 -100zM521 834l100 100l100 -100l-100 -100zM181 834l100 100l100 -100l-100 -100zM545 100q0 148 -68 321l104 38l52 -163q56 -176 208 -176h39v-120h-31q-70 0 -112.5 21.5t-83.5 72.5l-6 -66q-16 -216 -160.5 -355.5t-417.5 -195.5
l-38 97q252 55 382 187t132 339z" />
    <glyph glyph-name="uniFB8C" unicode="&#x691;" horiz-adv-x="810" arabic-form="isolated" 
d="M411 816q241 0 241 100q0 36 -23 59t-60 23q-94 0 -207 -167l-11 -16h19zM263 819q5 8 27 43l1 2v3v423v4h4h76h4v-4v-282v-25l18 18q41 44 83 65.5t88 21.5q78 0 127 -47.5t49 -120.5q-1 -194 -328 -194h-249h-4v4v81v4h4h92h5zM583 459q69 -186 69 -354
q0 -255 -144 -411.5t-439 -217.5l-38 98q252 54 382 186.5t132 339.5q0 148 -67 321z" />
    <glyph glyph-name="uniFB8D" unicode="&#x691;" horiz-adv-x="860" arabic-form="final" 
d="M545 100q0 148 -68 321l104 38l52 -163q56 -176 208 -176h39v-120h-31q-70 0 -112.5 21.5t-83.5 72.5l-6 -66q-16 -216 -160.5 -355.5t-417.5 -195.5l-38 97q252 55 382 187t132 339zM421 816q241 0 241 100q0 36 -23 59t-60 23q-94 0 -207 -167l-11 -16h19zM273 819
q5 8 27 43l1 2v3v423v4h4h76h4v-4v-282v-25l18 18q41 44 83 65.5t88 21.5q78 0 127 -47.5t49 -120.5q-1 -194 -328 -194h-249h-4v4v81v4h4h92h5z" />
    <glyph glyph-name="uniFB8E" unicode="&#x6a9;" horiz-adv-x="1865" arabic-form="isolated" 
d="M267 633q-24 -77 -24 -154q1 -121 71 -202t199.5 -119t316.5 -38h200q466 0 466 222q0 56 -28 105t-85 104q-22 20 -43 39t-43.5 38t-39.5 33t-41 33t-36.5 29t-38.5 30.5t-35 27.5q-101 78 -101 161q0 54 29 91.5t92 61.5l649 241v-107l-655 -243l-49 -18l40 -33
q68 -57 85.5 -72t71 -60.5t73.5 -63t55 -49t56.5 -52.5t40.5 -41q61 -67 90 -132.5t29 -139.5q0 -162 -141 -243.5t-440 -81.5h-191q-355 0 -533.5 115t-178.5 339q0 108 41 216z" />
    <glyph glyph-name="uniFB8F" unicode="&#x6a9;" horiz-adv-x="1941" arabic-form="final" 
d="M267 633q-24 -77 -24 -154q1 -181 151.5 -270t433.5 -89h202q466 0 466 223q0 56 -28.5 105t-85.5 103q-103 96 -276 230q-101 78 -101 161q0 107 120 153l649 241v-107l-655 -243l-49 -18l40 -33q23 -19 55.5 -46.5t53.5 -45t49 -41t47 -40.5t42 -37t40.5 -35.5t35 -32
t32.5 -31.5t28 -29q79 -85 122 -205q46 -131 125.5 -200.5t188.5 -71.5h32v-120h-32q-195 2 -321 167l-26 34l-23 -35q-110 -166 -529 -166h-192q-354 0 -532 115t-178 339q0 108 41 216z" />
    <glyph glyph-name="uniFB90" unicode="&#x6a9;" horiz-adv-x="950" arabic-form="initial" 
d="M196 935q16 -13 54.5 -46t54 -46t48 -40.5t48 -41t41.5 -36t41 -36.5t34 -31.5t33.5 -32t27.5 -28.5q61 -67 89.5 -131.5t28.5 -139.5q0 -167 -122.5 -246.5t-407.5 -79.5h-186v120h185q209 0 312.5 53.5t103.5 169.5q0 56 -28.5 105t-85.5 103q-92 85 -276 230
q-101 78 -101 161q0 107 120 153l649 241v-107l-654 -243l-49 -18z" />
    <glyph glyph-name="uniFB91" unicode="&#x6a9;" horiz-adv-x="1027" arabic-form="medial" 
d="M644 165q-55 -83 -165.5 -124t-312.5 -41h-186v120h185q209 0 312.5 53.5t103.5 169.5q0 56 -28.5 105t-85.5 103q-92 85 -276 230q-101 78 -101 161q0 107 120 153l649 241v-107l-654 -243l-49 -18l40 -33q16 -14 54.5 -46.5t54 -45.5t48 -40.5t48 -41t41 -36t41 -36.5
t34.5 -31.5t33.5 -32t27.5 -28.5q80 -86 122 -205q46 -131 125.5 -201t189.5 -71h32v-120h-32q-198 2 -322 167l-26 34z" />
    <glyph glyph-name="uniFB92" unicode="&#x6af;" horiz-adv-x="1865" arabic-form="isolated" 
d="M1776.08 1511.6l-741.474 -276.046v79.1758l741.474 276.047v-79.1768zM267 633q-24 -77 -24 -154q1 -121 71 -202t199.5 -119t316.5 -38h200q466 0 466 222q0 56 -28 105t-85 104q-22 20 -43 39t-43.5 38t-39.5 33t-41 33t-36.5 29t-38.5 30.5t-35 27.5
q-101 78 -101 161q0 54 29 91.5t92 61.5l649 241v-107l-655 -243l-49 -18l40 -33q68 -57 85.5 -72t71 -60.5t73.5 -63t55 -49t56.5 -52.5t40.5 -41q61 -67 90 -132.5t29 -139.5q0 -162 -141 -243.5t-440 -81.5h-191q-355 0 -533.5 115t-178.5 339q0 108 41 216z" />
    <glyph glyph-name="uniFB93" unicode="&#x6af;" horiz-adv-x="1941" arabic-form="final" 
d="M1776.08 1511.6l-741.474 -276.046v79.1758l741.474 276.047v-79.1768zM267 633q-24 -77 -24 -154q1 -181 151.5 -270t433.5 -89h202q466 0 466 223q0 56 -28.5 105t-85.5 103q-103 96 -276 230q-101 78 -101 161q0 107 120 153l649 241v-107l-655 -243l-49 -18l40 -33
q23 -19 55.5 -46.5t53.5 -45t49 -41t47 -40.5t42 -37t40.5 -35.5t35 -32t32.5 -31.5t28 -29q79 -85 122 -205q46 -131 125.5 -200.5t188.5 -71.5h32v-120h-32q-195 2 -321 167l-26 34l-23 -35q-110 -166 -529 -166h-192q-354 0 -532 115t-178 339q0 108 41 216z" />
    <glyph glyph-name="uniFB94" unicode="&#x6af;" horiz-adv-x="950" arabic-form="initial" 
d="M196 935q16 -13 54.5 -46t54 -46t48 -40.5t48 -41t41.5 -36t41 -36.5t34 -31.5t33.5 -32t27.5 -28.5q61 -67 89.5 -131.5t28.5 -139.5q0 -167 -122.5 -246.5t-407.5 -79.5h-186v120h185q209 0 312.5 53.5t103.5 169.5q0 56 -28.5 105t-85.5 103q-92 85 -276 230
q-101 78 -101 161q0 107 120 153l649 241v-107l-654 -243l-49 -18zM861.082 1514.6l-741.474 -276.046v79.1758l741.474 276.047v-79.1768z" />
    <glyph glyph-name="uniFB95" unicode="&#x6af;" horiz-adv-x="1027" arabic-form="medial" 
d="M861.082 1514.6l-741.474 -276.046v79.1758l741.474 276.047v-79.1768zM644 165q-55 -83 -165.5 -124t-312.5 -41h-186v120h185q209 0 312.5 53.5t103.5 169.5q0 56 -28.5 105t-85.5 103q-92 85 -276 230q-101 78 -101 161q0 107 120 153l649 241v-107l-654 -243l-49 -18
l40 -33q16 -14 54.5 -46.5t54 -45.5t48 -40.5t48 -41t41 -36t41 -36.5t34.5 -31.5t33.5 -32t27.5 -28.5q80 -86 122 -205q46 -131 125.5 -201t189.5 -71h32v-120h-32q-198 2 -322 167l-26 34z" />
    <glyph glyph-name="uniFB9E" unicode="&#x6ba;" horiz-adv-x="1447" arabic-form="isolated" 
d="M1128 491l110 38q81 -217 81 -419q0 -273 -157 -416.5t-441 -143.5q-302 0 -447.5 135t-145.5 411q0 191 77 390l100 -41q-65 -183 -65 -344q0 -215 125 -326.5t363 -111.5q233 0 355.5 122t123.5 355q0 173 -79 351z" />
    <glyph glyph-name="uniFB9F" unicode="&#x6ba;" horiz-adv-x="1528" arabic-form="final" 
d="M1207 70q0 172 -79 351l109 38l63 -197q45 -141 206 -142h42v-120h-42q-37 1 -64 6t-49 17.5t-34.5 22.5t-35.5 31l-10 10l-1 -58q-4 -267 -159.5 -408t-431.5 -141q-302 0 -447.5 134.5t-145.5 411.5q0 191 77 390l100 -41q-65 -182 -65 -344q0 -216 125 -327t363 -111
q234 0 356 121.5t123 355.5z" />
    <glyph glyph-name="uniFBA7" unicode="&#x6c1;" horiz-adv-x="919" arabic-form="final" 
d="M219 -13l-88 22q9 77 30.5 149.5t49.5 130.5t62 106.5t69 81t70.5 50.5t66.5 18q44 0 78 -23.5t56 -61t41 -82.5t40.5 -90.5t47.5 -83t67.5 -61t96.5 -23.5h33v-120h-32q-63 0 -112.5 22t-80.5 57.5t-55 78.5t-42 86t-36 78.5t-43 57.5t-56 22q-82 0 -157.5 -118.5
t-105.5 -296.5z" />
    <glyph glyph-name="uniFBA8" unicode="&#x6c1;" horiz-adv-x="592" arabic-form="initial" 
d="M353.026 -153.496q-33.8389 -32.3984 -55.4375 -61.917t-35.6387 -68.0371q-14.0391 -38.5186 -14.0391 -81.7168v-21.5996h21.5986q45.3584 0 60.4775 -16.1992q15.1201 -16.1992 15.1201 -58.6777q0 -80.6367 -75.5977 -80.6367q-49.6777 0 -70.917 25.1992
t-21.2393 78.4766q0 173.513 155.514 301.668zM425 672q39 -147 39 -286q0 -386 -365 -386h-119v120h119q127 0 190.5 64.5t63.5 198.5q0 119 -31 263z" />
    <glyph glyph-name="uniFBA9" unicode="&#x6c1;" horiz-adv-x="1002" arabic-form="medial" 
d="M208 47q-57 -28 -89 -37.5t-76 -9.5h-63v120h65q49 0 89 7.5t68.5 18t61 33t53.5 40.5t57 52l69 -77l-2 -2q-35 -30 -57 -67q-26 -45 -34 -95t1.5 -97.5t30.5 -94.5t51 -87t65 -73t72 -55l45 -27v53q0 231 93.5 351t279.5 120h34v-120h-36q-140 0 -211.5 -93.5
t-71.5 -266.5q0 -43 3 -80l-96 -94q-164 84 -259 223t-100 332l-1 46z" />
    <glyph glyph-name="uniFBAA" unicode="&#x6be;" horiz-adv-x="1487" arabic-form="isolated" 
d="M47 120h72v-120h-24zM917 453q0 -162 -127 -275l-25 -21l-24 -22l32 -5l30 -4q87 -11 177 -11q124 0 194 51t70 154q0 25 -11 53t-31.5 55.5t-47.5 55.5t-61 55.5t-70 53.5t-77 51.5t-79.5 48t-78.5 44.5q-61 32 -119 59l46 85q330 -162 487 -300t157 -258
q0 -153 -95.5 -233t-266.5 -80q-89 0 -200.5 20.5t-183.5 44.5l-5 2l-5 2l-5 -2l-5 -2q-86 -32 -195.5 -53.5t-204.5 -21.5h-95v120h83q152 0 289 19q-38 28 -66.5 55.5t-53 63t-37 80.5t-12.5 98q0 133 90 214t222 81q81 0 151 -38q68 -36 110.5 -100.5t42.5 -139.5z
M632 182q90 36 140 104t51 147q0 62 -26 107.5t-71 68.5t-104 23q-92 0 -151.5 -53.5t-59.5 -140.5q0 -82 52.5 -151t146.5 -105l6 -2l5 -2l6 2z" />
    <glyph glyph-name="uniFBAB" unicode="&#x6be;" horiz-adv-x="1120" arabic-form="final" 
d="M47 120h72v-120h-24zM728 -534q-155 79 -244.5 204.5t-118.5 304.5l-5 25h-25h-237v120h224h29l1 29q5 108 17.5 193.5t36 161.5t57.5 125.5t85.5 78t117.5 28.5q107 0 169.5 -74.5t62.5 -204.5q0 -83 -34.5 -165.5t-90 -146t-130 -104t-150.5 -42.5l-35 -1l6 -34
q39 -222 223 -340l46 -30v55q0 231 93.5 351t279.5 120h34v-120h-36q-140 0 -211.5 -93.5t-71.5 -266.5q0 -43 3 -80zM486 119q130 4 221.5 102.5t91.5 235.5q0 73 -37 119t-98 46q-54 0 -93 -32t-62.5 -96.5t-36 -146.5t-17.5 -197l-2 -32z" />
    <glyph glyph-name="uniFBAC" unicode="&#x6be;" horiz-adv-x="1369" arabic-form="initial" 
d="M799 453q0 -162 -127 -275l-25 -21l-24 -22l32 -5l30 -4q87 -11 177 -11q124 0 194 51t70 154q0 25 -11 53t-31.5 55.5t-47.5 55.5t-61 55.5t-70 53.5t-77 51.5t-79.5 48t-78.5 44.5q-61 32 -119 59l46 85q330 -162 487 -300t157 -258q0 -153 -95.5 -233t-266.5 -80
q-89 0 -200.5 20.5t-183.5 44.5l-5 2l-5 2l-5 -2l-5 -2q-86 -32 -195.5 -53.5t-204.5 -21.5h-95v120h83q152 0 289 19q-38 28 -66.5 55.5t-53 63t-37 80.5t-12.5 98q0 133 90 214t222 81q81 0 151 -38q68 -36 110.5 -100.5t42.5 -139.5zM514 182q90 36 140 104t51 147
q0 62 -26 107.5t-71 68.5t-104 23q-92 0 -151.5 -53.5t-59.5 -140.5q0 -82 52.5 -151t146.5 -105l6 -2l5 -2l6 2z" />
    <glyph glyph-name="uniFBAD" unicode="&#x6be;" horiz-adv-x="1002" arabic-form="medial" 
d="M610 -534q-155 79 -244.5 204.5t-118.5 304.5l-5 25h-25h-237v120h224h29l1 29q5 108 17.5 193.5t36 161.5t57.5 125.5t85.5 78t117.5 28.5q107 0 169.5 -74.5t62.5 -204.5q0 -83 -34.5 -165.5t-90 -146t-130 -104t-150.5 -42.5l-35 -1l6 -34q39 -222 223 -340l46 -30v55
q0 231 93.5 351t279.5 120h34v-120h-36q-140 0 -211.5 -93.5t-71.5 -266.5q0 -43 3 -80zM368 119q130 4 221.5 102.5t91.5 235.5q0 73 -37 119t-98 46q-54 0 -93 -32t-62.5 -96.5t-36 -146.5t-17.5 -197l-2 -32z" />
    <glyph glyph-name="uniFBAE" unicode="&#x6d2;" horiz-adv-x="1744" arabic-form="isolated" 
d="M796 467q-4 4 -26 34.5t-29.5 40.5t-28 36t-33.5 40.5t-31.5 34.5t-36.5 35l-25 23l-20 -28q-20 -30 -40.5 -61.5t-32 -50t-30.5 -44.5t-43 -55q-39 -46 -77.5 -82.5t-58 -50.5t-31.5 -31t-12 -39q0 -44 50.5 -76.5t136 -49.5t180 -25t200.5 -8q385 0 803 62l4 -117
q-419 -54 -805 -54q-87 0 -164.5 4.5t-157 15t-142.5 29.5t-113 46t-77.5 67t-27.5 90q0 41 20 74.5t48 57t77.5 71.5t90.5 101q39 51 73.5 101t50 74.5t32 45t30 27.5t34.5 7q38 0 98 -53t108 -114t80 -113z" />
    <glyph glyph-name="uniFBAF" unicode="&#x6d2;" horiz-adv-x="1576" arabic-form="final" 
d="M1200.77 0v120h395.005v-120h-395.005zM656 0q-77 0 -155.5 -22.5t-134 -54t-90.5 -66t-35 -58.5q0 -44 50.5 -76.5t136 -49.5t180 -25t200.5 -8q80 0 157 4.5t132.5 11t106.5 15t80 15.5t54 14l24 -106q-52 -13 -115.5 -25t-188 -25t-248.5 -13q-87 0 -164.5 4.5
t-157 15t-142.5 29.5t-113 46t-77.5 67t-27.5 90q0 47 45.5 106t117.5 110t171.5 86t197.5 35h567v-120h-571z" />
    <glyph glyph-name="uniFBB0" unicode="&#x6d3;" horiz-adv-x="1744" arabic-form="isolated" 
d="M548 1125q-35 28 -50 63t-15 89q0 87 54.5 140t131.5 53q62 0 121 -34l1 -86q-54 27 -108 27q-30 0 -55 -11t-42.5 -37.5t-17.5 -64.5q2 -77 98 -113q15 -5 25 -5q5 0 11 2l115 23v-86l-367 -89v82l91 21l20 4l11 3l-8 6zM796 467q-4 4 -26 34.5t-29.5 40.5t-28 36
t-33.5 40.5t-31.5 34.5t-36.5 35l-25 23l-20 -28q-20 -30 -40.5 -61.5t-32 -50t-30.5 -44.5t-43 -55q-39 -46 -77.5 -82.5t-58 -50.5t-31.5 -31t-12 -39q0 -44 50.5 -76.5t136 -49.5t180 -25t200.5 -8q385 0 803 62l4 -117q-419 -54 -805 -54q-87 0 -164.5 4.5t-157 15
t-142.5 29.5t-113 46t-77.5 67t-27.5 90q0 41 20 74.5t48 57t77.5 71.5t90.5 101q39 51 73.5 101t50 74.5t32 45t30 27.5t34.5 7q38 0 98 -53t108 -114t80 -113z" />
    <glyph glyph-name="uniFBB1" unicode="&#x6d3;" horiz-adv-x="1576" arabic-form="final" 
d="M1200.77 0v120h395.005v-120h-395.005zM656 0q-77 0 -155.5 -22.5t-134 -54t-90.5 -66t-35 -58.5q0 -44 50.5 -76.5t136 -49.5t180 -25t200.5 -8q80 0 157 4.5t132.5 11t106.5 15t80 15.5t54 14l24 -106q-52 -13 -115.5 -25t-188 -25t-248.5 -13q-87 0 -164.5 4.5
t-157 15t-142.5 29.5t-113 46t-77.5 67t-27.5 90q0 47 45.5 106t117.5 110t171.5 86t197.5 35h567v-120h-571zM540 497q-35 28 -50 63t-15 89q0 87 54.5 140t131.5 53q62 0 121 -34l1 -86q-54 27 -108 27q-30 0 -55 -11t-42.5 -37.5t-17.5 -64.5q2 -77 98 -113q15 -5 25 -5
q5 0 11 2l115 23v-86l-367 -89v82l91 21l20 4l11 3l-8 6z" />
    <glyph glyph-name="uniFBDA" unicode="&#x6c6;" horiz-adv-x="938" arabic-form="final" 
d="M358 949l-181 304h100l137 -235l9 -15l9 15l138 235h100l-182 -304h-130zM874.878 0v120h83.4893v-120h-83.4893zM432 660q141 0 220 -124t97 -388l2 -28h28h117v-120h-129h-25l-4 -25q-37 -194 -174 -321t-377 -178l-38 98q203 44 327.5 144t163.5 244l10 38h-39h-149
q-174 0 -254 65t-80 201q0 164 88 279t216 115zM646 152q-25 383 -228 383q-83 0 -134 -78t-51 -176q0 -80 58.5 -120.5t160.5 -40.5h164h32z" />
    <glyph glyph-name="uniFBE8" unicode="&#x649;" horiz-adv-x="672" arabic-form="initial" 
d="M505 672q39 -147 39 -286q0 -208 -97 -297t-318 -89h-149v120h149q161 0 232.5 55.5t71.5 207.5q0 119 -31 263z" />
    <glyph glyph-name="uniFBE9" unicode="&#x649;" horiz-adv-x="767" arabic-form="medial" 
d="M756 0q-93 1 -147.5 32t-89.5 95l-22 42l-28 -39q-46 -63 -132.5 -96.5t-207.5 -33.5h-149v120h151q157 0 229 53t73 184q0 73 -6 175l104 13l14 -216q6 -99 60 -152.5t151 -56.5h31v-120h-31z" />
    <glyph glyph-name="uniFBFC" unicode="&#x6cc;" horiz-adv-x="1477" arabic-form="isolated" 
d="M322 428q-83 -211 -83 -376q0 -216 124 -327.5t361 -112.5q91 0 181 19.5t168 57t126 100t48 139.5q0 29 -14 48t-37.5 27t-41 10.5t-36.5 2.5h-144q-110 0 -163 53t-53 164q0 92 35.5 170.5t95.5 131t138.5 82.5t164.5 30q15 0 29 -1t34 -2.5t41 -6t42 -11.5l-21 -109
q-34 8 -64.5 11t-60.5 3q-70 0 -132 -24.5t-103.5 -65t-65.5 -91.5t-24 -104q0 -114 117 -114h180q92 0 138.5 -44.5t46.5 -119.5q0 -220 -169.5 -343.5t-460.5 -123.5q-301 0 -446 135t-145 413q0 188 94 420z" />
    <glyph glyph-name="uniFBFD" unicode="&#x6cc;" horiz-adv-x="1559" arabic-form="final" 
d="M1434.1 0v120h144.993v-120h-144.993zM286 318q-46 -142 -46 -288q0 -214 122.5 -325.5t356.5 -111.5q122 0 238 31t196.5 94.5t80.5 144.5q0 62 -53.5 99.5t-140.5 37.5h-123q-15 0 -23 8.5t-13 30.5l-16 67q-3 14 9 14h583v-120h-119h-48q46 -71 46 -144
q0 -159 -168.5 -267t-447.5 -108q-302 0 -446.5 135.5t-144.5 414.5q0 75 15.5 166t41.5 162z" />
    <glyph glyph-name="uniFBFE" unicode="&#x6cc;" horiz-adv-x="672" arabic-form="initial" 
d="M299 -303l108 108l108 -108l-108 -109zM-33 -303l108 108l108 -108l-108 -109zM505 672q39 -147 39 -286q0 -208 -97 -297t-318 -89h-149v120h149q161 0 232.5 55.5t71.5 207.5q0 119 -31 263z" />
    <glyph glyph-name="uniFBFF" unicode="&#x6cc;" horiz-adv-x="767" arabic-form="medial" 
d="M299 -303l108 108l108 -108l-108 -109zM-33 -303l108 108l108 -108l-108 -109zM756 0q-93 1 -147.5 32t-89.5 95l-22 42l-28 -39q-46 -63 -132.5 -96.5t-207.5 -33.5h-149v120h151q157 0 229 53t73 184q0 73 -6 175l104 13l14 -216q6 -99 60 -152.5t151 -56.5h31v-120
h-31z" />
    <glyph glyph-name="uniFDFC" unicode="&#xfdfc;" horiz-adv-x="3189" arabic-form="isolated" 
d="M2058 -274l108 108l108 -108l-108 -109zM1726 -274l108 108l108 -108l-108 -109zM297 311q-58 -156 -58 -305q0 -202 111.5 -307.5t324.5 -105.5q202 0 307.5 114t105.5 331l3 1268h108l-1 -1229q0 -305 -129.5 -451t-394.5 -146q-278 0 -412 129.5t-134 397.5
q0 169 69 345zM2971 400q69 -186 69 -354q0 -255 -144 -411.5t-439 -217.5l-38 98q252 54 382 186.5t132 339.5q0 148 -67 321zM2386 672q39 -147 39 -286q0 -208 -97 -297t-318 -89h-149v120h149q161 0 232.5 55.5t71.5 207.5q0 119 -31 263zM1872 0q-174 2 -256 88
t-82 287v931h109v-932q0 -251 229 -254h31v-120h-31z" />
    <glyph glyph-name="uniFE80" unicode="&#x621;" horiz-adv-x="830" arabic-form="isolated" 
d="M461 204q40 9 116 26t104 24l17 -108q-233 -37 -570 -216v107q91 61 176 93l64 24l-60 31q-83 42 -121.5 95t-38.5 124q0 140 82 222t213 82q112 0 189 -67l-33 -81q-72 41 -143 41q-91 0 -148.5 -53t-57.5 -143q0 -112 192 -199l9 -5z" />
    <glyph glyph-name="uniFE81" unicode="&#x622;" horiz-adv-x="465" arabic-form="isolated" 
d="M129 1437q-32 0 -64.5 -14.5t-59 -36t-53.5 -52.5l-74 59q104 141 217 141q36 0 112 -26t123 -26q67 0 169 47l49 -82q-101 -57 -192 -57q-36 0 -109.5 23.5t-117.5 23.5zM178 1174.32h109v-1173.42h-109v1173.42z" />
    <glyph glyph-name="uniFE82" unicode="&#x622;" horiz-adv-x="527" arabic-form="final" 
d="M225 1437q-32 0 -64.5 -14.5t-59 -36t-53.5 -52.5l-74 59q104 141 217 141q36 0 112 -26t123 -26q67 0 169 47l49 -82q-101 -57 -192 -57q-36 0 -109.5 23.5t-117.5 23.5zM516 0q-174 2 -256 88t-82 286v733h109v-733q0 -251 229 -254h31v-120h-31z" />
    <glyph glyph-name="uniFE83" unicode="&#x623;" horiz-adv-x="465" arabic-form="isolated" 
d="M183 1117.57h109v-1114.71h-109v1114.71zM135 1394q-35 28 -50 63t-15 89q0 87 54.5 140t131.5 53q62 0 121 -34l1 -86q-54 27 -108 27q-30 0 -55 -11t-42.5 -37.5t-17.5 -64.5q2 -77 98 -113q15 -5 25 -5q5 0 11 2l115 23v-86l-367 -89v82l91 21l20 4l11 3l-8 6z" />
    <glyph glyph-name="uniFE84" unicode="&#x623;" horiz-adv-x="527" arabic-form="final" 
d="M135 1394q-35 28 -50 63t-15 89q0 87 54.5 140t131.5 53q62 0 121 -34l1 -86q-54 27 -108 27q-30 0 -55 -11t-42.5 -37.5t-17.5 -64.5q2 -77 98 -113q15 -5 25 -5q5 0 11 2l115 23v-86l-367 -89v82l91 21l20 4l11 3l-8 6zM516 0q-174 2 -256 88t-82 286v733h109v-733
q0 -251 229 -254h31v-120h-31z" />
    <glyph glyph-name="uniFE85" unicode="&#x624;" horiz-adv-x="880" arabic-form="isolated" 
d="M323 991q-35 28 -50 63t-15 89q0 87 54.5 140t131.5 53q62 0 121 -34l1 -86q-54 27 -108 27q-30 0 -55 -11t-42.5 -37.5t-17.5 -64.5q2 -77 98 -113q15 -5 25 -5q5 0 11 2l115 23v-86l-367 -89v82l91 21l20 4l11 3l-8 6zM612 13q-116 -15 -155 -15q-171 0 -250 65.5
t-79 202.5q0 165 86 279.5t214 114.5q103 0 178.5 -74.5t110.5 -191t35 -258.5q0 -266 -141.5 -433t-423.5 -227l-38 98q205 44 330 147t166 254l12 43zM646 171q-23 364 -226 364q-85 0 -136 -78t-51 -176q0 -83 60 -126t165 -43q73 0 167 28l22 7z" />
    <glyph glyph-name="uniFE86" unicode="&#x624;" horiz-adv-x="938" arabic-form="final" 
d="M874.878 0v120h83.4893v-120h-83.4893zM432 660q141 0 220 -124t97 -388l2 -28h28h117v-120h-129h-25l-4 -25q-37 -194 -174 -321t-377 -178l-38 98q203 44 327.5 144t163.5 244l10 38h-39h-149q-174 0 -254 65t-80 201q0 164 88 279t216 115zM646 152q-25 383 -228 383
q-83 0 -134 -78t-51 -176q0 -80 58.5 -120.5t160.5 -40.5h164h32zM323 991q-35 28 -50 63t-15 89q0 87 54.5 140t131.5 53q62 0 121 -34l1 -86q-54 27 -108 27q-30 0 -55 -11t-42.5 -37.5t-17.5 -64.5q2 -77 98 -113q15 -5 25 -5q5 0 11 2l115 23v-86l-367 -89v82l91 21
l20 4l11 3l-8 6z" />
    <glyph glyph-name="uniFE87" unicode="&#x625;" horiz-adv-x="465" arabic-form="isolated" 
d="M120 -480q-35 28 -50 63t-15 89q0 87 54.5 140t131.5 53q62 0 121 -34l1 -86q-54 27 -108 27q-30 0 -55 -11t-42.5 -37.5t-17.5 -64.5q2 -77 98 -113q15 -5 25 -5q5 0 11 2l115 23v-86l-367 -89v82l91 21l20 4l11 3l-8 6zM179 1306h109v-1305h-109v1305z" />
    <glyph glyph-name="uniFE88" unicode="&#x625;" horiz-adv-x="527" arabic-form="final" 
d="M516 0q-174 2 -256 88t-82 287v931h109v-932q0 -251 229 -254h31v-120h-31zM219 -494q-35 28 -50 63t-15 89q0 87 54.5 140t131.5 53q62 0 121 -34l1 -86q-54 27 -108 27q-30 0 -55 -11t-42.5 -37.5t-17.5 -64.5q2 -77 98 -113q15 -5 25 -5q5 0 11 2l115 23v-86l-367 -89
v82l91 21l20 4l11 3l-8 6z" />
    <glyph glyph-name="uniFE89" unicode="&#x626;" horiz-adv-x="1477" arabic-form="isolated" 
d="M497 799q-35 28 -50 63t-15 89q0 87 54.5 140t131.5 53q62 0 121 -34l1 -86q-54 27 -108 27q-30 0 -55 -11t-42.5 -37.5t-17.5 -64.5q2 -77 98 -113q15 -5 25 -5q5 0 11 2l115 23v-86l-367 -89v82l91 21l20 4l11 3l-8 6zM322 428q-83 -211 -83 -376q0 -216 124 -327.5
t361 -112.5q91 0 181 19.5t168 57t126 100t48 139.5q0 29 -14 48t-37.5 27t-41 10.5t-36.5 2.5h-144q-110 0 -163 53t-53 164q0 92 35.5 170.5t95.5 131t138.5 82.5t164.5 30q15 0 29 -1t34 -2.5t41 -6t42 -11.5l-21 -109q-34 8 -64.5 11t-60.5 3q-70 0 -132 -24.5
t-103.5 -65t-65.5 -91.5t-24 -104q0 -114 117 -114h180q92 0 138.5 -44.5t46.5 -119.5q0 -220 -169.5 -343.5t-460.5 -123.5q-301 0 -446 135t-145 413q0 188 94 420z" />
    <glyph glyph-name="uniFE8A" unicode="&#x626;" horiz-adv-x="1559" arabic-form="final" 
d="M1434.1 0v120h144.993v-120h-144.993zM286 318q-46 -142 -46 -288q0 -214 122.5 -325.5t356.5 -111.5q122 0 238 31t196.5 94.5t80.5 144.5q0 62 -53.5 99.5t-140.5 37.5h-123q-15 0 -23 8.5t-13 30.5l-16 67q-3 14 9 14h583v-120h-119h-48q46 -71 46 -144
q0 -159 -168.5 -267t-447.5 -108q-302 0 -446.5 135.5t-144.5 414.5q0 75 15.5 166t41.5 162zM526 606q-35 28 -50 63t-15 89q0 87 54.5 140t131.5 53q62 0 121 -34l1 -86q-54 27 -108 27q-30 0 -55 -11t-42.5 -37.5t-17.5 -64.5q2 -77 98 -113q15 -5 25 -5q5 0 11 2l115 23
v-86l-367 -89v82l91 21l20 4l11 3l-8 6z" />
    <glyph glyph-name="uniFE8B" unicode="&#x626;" horiz-adv-x="592" arabic-form="initial" 
d="M425 672q39 -147 39 -286q0 -386 -365 -386h-119v120h119q127 0 190.5 64.5t63.5 198.5q0 119 -31 263zM194 973q-35 28 -50 63t-15 89q0 87 54.5 140t131.5 53q62 0 121 -34l1 -86q-54 27 -108 27q-30 0 -55 -11t-42.5 -37.5t-17.5 -64.5q2 -77 98 -113q15 -5 25 -5
q5 0 11 2l115 23v-86l-367 -89v82l91 21l20 4l11 3l-8 6z" />
    <glyph glyph-name="uniFE8C" unicode="&#x626;" horiz-adv-x="687" arabic-form="medial" 
d="M676 0q-90 1 -146.5 32.5t-91.5 94.5l-22 42l-28 -38q-95 -131 -287 -131h-121v120h121q252 0 252 247q0 45 -7 165l105 12l14 -214q6 -99 60 -153t151 -57h31v-120h-31zM221 867q-35 28 -50 63t-15 89q0 87 54.5 140t131.5 53q62 0 121 -34l1 -86q-54 27 -108 27
q-30 0 -55 -11t-42.5 -37.5t-17.5 -64.5q2 -77 98 -113q15 -5 25 -5q5 0 11 2l115 23v-86l-367 -89v82l91 21l20 4l11 3l-8 6z" />
    <glyph glyph-name="uniFE8D" unicode="&#x627;" horiz-adv-x="465" arabic-form="isolated" 
d="M178 1306h109v-1305h-109v1305z" />
    <glyph glyph-name="uniFE8E" unicode="&#x627;" horiz-adv-x="527" arabic-form="final" 
d="M516 0q-174 2 -256 88t-82 287v931h109v-932q0 -251 229 -254h31v-120h-31z" />
    <glyph glyph-name="uniFE8F" unicode="&#x628;" horiz-adv-x="1777" arabic-form="isolated" 
d="M813 -303l113 113l114 -114l-113 -113zM975 0h-135q-355 0 -533.5 115t-178.5 339q0 108 41 216l98 -37q-24 -77 -24 -154q1 -121 71 -202t199.5 -119t316.5 -38h138q215 0 307 17q204 37 248 183q13 44 13 98q0 28 -3.5 64.5t-10.5 77t-16 86.5l104 26q39 -130 39 -239
q0 -80 -16.5 -143t-44.5 -108t-75 -77.5t-99 -53t-125.5 -32t-146 -15.5t-167.5 -4z" />
    <glyph glyph-name="uniFE90" unicode="&#x628;" horiz-adv-x="1878" arabic-form="final" 
d="M789 -303l113 113l114 -114l-113 -113zM985 0h-145q-355 0 -533.5 115t-178.5 339q0 108 41 216l98 -37q-24 -77 -24 -154q1 -121 71 -202t199.5 -119t316.5 -38h150q201 0 331.5 33t191.5 107q42 50 42 142q0 45 -5 130l101 12l14 -216q7 -99 60 -152.5t151 -55.5h32
v-120h-32q-96 1 -159 40.5t-104 121.5l-20 37l-29 -30q-78 -83 -223.5 -126t-345.5 -43z" />
    <glyph glyph-name="uniFE91" unicode="&#x628;" horiz-adv-x="592" arabic-form="initial" 
d="M91 -303l113 113l114 -114l-113 -113zM425 672q39 -147 39 -286q0 -386 -365 -386h-119v120h119q127 0 190.5 64.5t63.5 198.5q0 119 -31 263z" />
    <glyph glyph-name="uniFE92" unicode="&#x628;" horiz-adv-x="687" arabic-form="medial" 
d="M91 -303l113 113l114 -114l-113 -113zM676 0q-90 1 -146.5 32.5t-91.5 94.5l-22 42l-28 -38q-95 -131 -287 -131h-121v120h121q252 0 252 247q0 45 -7 165l105 12l14 -214q6 -99 60 -153t151 -57h31v-120h-31z" />
    <glyph glyph-name="uniFE93" unicode="&#x629;" horiz-adv-x="922" arabic-form="isolated" 
d="M427 628q-65 -58 -106.5 -108t-63.5 -100t-22 -101q0 -98 57.5 -148.5t167.5 -50.5q111 0 169 51t58 149q0 72 -54.5 145t-166.5 163l-20 16zM375 860q419 -313 419 -546q0 -136 -88.5 -222t-244.5 -88q-109 0 -183.5 35.5t-112 105t-37.5 169.5q0 192 210 398l23 22
l-24 22l-24 20zM492 1228l108 108l108 -108l-108 -109zM160 1228l108 108l108 -108l-108 -109z" />
    <glyph glyph-name="uniFE94" unicode="&#x629;" horiz-adv-x="1038" arabic-form="final" 
d="M637 1221l108 108l108 -108l-108 -109zM305 1221l108 108l108 -108l-108 -109zM128 382q0 89 50 164.5t159 141t277 117.5l25 8l-4 26l-3 16l100 21l77 -557q13 -93 69.5 -146t148.5 -53h31v-120h-35q-128 0 -198.5 53.5t-94.5 160.5l-11 48l-38 -32q-113 -98 -250 -98
q-138 0 -220.5 63t-82.5 187zM621 701q-188 -69 -283.5 -141.5t-95.5 -165.5q0 -74 50 -114t133 -40q99 0 182.5 57.5t83.5 154.5q0 33 -4 62l-26 164l-6 36z" />
    <glyph glyph-name="uniFE95" unicode="&#x62a;" horiz-adv-x="1777" arabic-form="isolated" 
d="M975 0h-135q-355 0 -533.5 115t-178.5 339q0 108 41 216l98 -37q-24 -77 -24 -154q1 -121 71 -202t199.5 -119t316.5 -38h138q215 0 307 17q204 37 248 183q13 44 13 98q0 28 -3.5 64.5t-10.5 77t-16 86.5l104 26q39 -130 39 -239q0 -80 -16.5 -143t-44.5 -108t-75 -77.5
t-99 -53t-125.5 -32t-146 -15.5t-167.5 -4zM953 860l108 108l108 -108l-108 -109zM621 860l108 108l108 -108l-108 -109z" />
    <glyph glyph-name="uniFE96" unicode="&#x62a;" horiz-adv-x="1878" arabic-form="final" 
d="M968 859l108 108l108 -108l-108 -109zM636 859l108 108l108 -108l-108 -109zM985 0h-145q-355 0 -533.5 115t-178.5 339q0 108 41 216l98 -37q-24 -77 -24 -154q1 -121 71 -202t199.5 -119t316.5 -38h150q201 0 331.5 33t191.5 107q42 50 42 142q0 45 -5 130l101 12
l14 -216q7 -99 60 -152.5t151 -55.5h32v-120h-32q-96 1 -159 40.5t-104 121.5l-20 37l-29 -30q-78 -83 -223.5 -126t-345.5 -43z" />
    <glyph glyph-name="uniFE97" unicode="&#x62a;" horiz-adv-x="695" arabic-form="initial" 
d="M367 1040l108 108l108 -108l-108 -109zM35 1040l108 108l108 -108l-108 -109zM505 672q39 -147 39 -286q0 -208 -97 -297t-318 -89h-149v120h149q161 0 232.5 55.5t71.5 207.5q0 119 -31 263z" />
    <glyph glyph-name="uniFE98" unicode="&#x62a;" horiz-adv-x="767" arabic-form="medial" 
d="M369 957l108 108l108 -108l-108 -109zM37 957l108 108l108 -108l-108 -109zM756 0q-93 1 -147.5 32t-89.5 95l-22 42l-28 -39q-46 -63 -132.5 -96.5t-207.5 -33.5h-149v120h151q157 0 229 53t73 184q0 73 -6 175l104 13l14 -216q6 -99 60 -152.5t151 -56.5h31v-120h-31z
" />
    <glyph glyph-name="uniFE99" unicode="&#x62b;" horiz-adv-x="1777" arabic-form="isolated" 
d="M975 0h-135q-355 0 -533.5 115t-178.5 339q0 108 41 216l98 -37q-24 -77 -24 -154q1 -121 71 -202t199.5 -119t316.5 -38h138q215 0 307 17q204 37 248 183q13 44 13 98q0 28 -3.5 64.5t-10.5 77t-16 86.5l104 26q39 -130 39 -239q0 -80 -16.5 -143t-44.5 -108t-75 -77.5
t-99 -53t-125.5 -32t-146 -15.5t-167.5 -4zM794 1047l100 100l100 -100l-100 -100zM966 785l100 100l100 -100l-100 -100zM626 785l100 100l100 -100l-100 -100z" />
    <glyph glyph-name="uniFE9A" unicode="&#x62b;" horiz-adv-x="1878" arabic-form="final" 
d="M805 1048l100 100l100 -100l-100 -100zM977 786l100 100l100 -100l-100 -100zM637 786l100 100l100 -100l-100 -100zM985 0h-145q-355 0 -533.5 115t-178.5 339q0 108 41 216l98 -37q-24 -77 -24 -154q1 -121 71 -202t199.5 -119t316.5 -38h150q201 0 331.5 33t191.5 107
q42 50 42 142q0 45 -5 130l101 12l14 -216q7 -99 60 -152.5t151 -55.5h32v-120h-32q-96 1 -159 40.5t-104 121.5l-20 37l-29 -30q-78 -83 -223.5 -126t-345.5 -43z" />
    <glyph glyph-name="uniFE9B" unicode="&#x62b;" horiz-adv-x="678" arabic-form="initial" 
d="M199 1272l100 100l100 -100l-100 -100zM371 1010l100 100l100 -100l-100 -100zM31 1010l100 100l100 -100l-100 -100zM505 672q39 -147 39 -286q0 -208 -97 -297t-318 -89h-149v120h149q161 0 232.5 55.5t71.5 207.5q0 119 -31 263z" />
    <glyph glyph-name="uniFE9C" unicode="&#x62b;" horiz-adv-x="767" arabic-form="medial" 
d="M200 1174l100 100l100 -100l-100 -100zM372 912l100 100l100 -100l-100 -100zM32 912l100 100l100 -100l-100 -100zM756 0q-93 1 -147.5 32t-89.5 95l-22 42l-28 -39q-46 -63 -132.5 -96.5t-207.5 -33.5h-149v120h151q157 0 229 53t73 184q0 73 -6 175l104 13l14 -216
q6 -99 60 -152.5t151 -56.5h31v-120h-31z" />
    <glyph glyph-name="uniFE9D" unicode="&#x62c;" horiz-adv-x="1347" arabic-form="isolated" 
d="M847 548q-35 14 -91 37l-42.5 17t-40.5 16t-35.5 14t-34 13t-29.5 10.5t-29 9t-24 6t-23.5 4.5t-20.5 1q-43 0 -86 -17.5t-77 -45t-62 -63.5l-12 -15l-100 50q61 98 148.5 153.5t189.5 55.5q97 0 290 -93q145 -71 245 -106.5t183 -44.5l-9 -114q-197 -19 -369.5 -69.5
t-302.5 -126.5t-205 -181t-75 -224q0 -200 144.5 -300.5t418.5 -100.5q201 0 393 82l23 -110q-188 -83 -430 -83q-308 0 -481.5 124.5t-173.5 371.5q0 115 45.5 218.5t133 191t224 155.5t311.5 107l94 21zM690 -78l113 113l114 -114l-113 -113z" />
    <glyph glyph-name="uniFE9E" unicode="&#x62c;" horiz-adv-x="1378" arabic-form="final" 
d="M595 -119l113 113l114 -114l-113 -113zM1214 -594q-188 -83 -430 -83q-308 0 -481.5 124.5t-173.5 371.5q0 91 28.5 175.5t86.5 161t142 140t200 113.5t257 82l94 21l-90 36q-35 14 -91 37l-42.5 17t-40.5 16t-35.5 14t-34 13t-29.5 10.5t-29 9t-24 6t-23.5 4.5t-20.5 1
q-43 0 -86 -17.5t-77 -45t-62 -63.5l-12 -15l-100 50q61 98 148.5 153.5t189.5 55.5q97 0 290 -93q145 -71 245 -106.5t183 -44.5q-1 -15 -3 -36t-3.5 -41.5t-2.5 -36.5q-29 -2 -61 -5.5t-54.5 -6.5t-55.5 -7l-26 -4v-26q0 -77 20 -129t61 -82t96 -43t133 -13h98v-120h-95
q-111 0 -184.5 17t-123.5 58.5t-72.5 109.5t-22.5 172v39l-38 -10q-200 -56 -341.5 -141.5t-213.5 -189.5t-72 -220q0 -200 144.5 -300.5t418.5 -100.5q201 0 393 82z" />
    <glyph glyph-name="uniFE9F" unicode="&#x62c;" horiz-adv-x="1334" arabic-form="initial" 
d="M521 -303l113 113l114 -114l-113 -113zM-20 0v120h163q78 0 154 12t138.5 29t144.5 52t142 64.5t162 81.5l78 41l64 34l-69 22q-10 3 -27 10t-60 25.5t-96 39.5q-92 37 -125 50t-79.5 27t-74.5 14q-43 0 -86 -17.5t-77 -45t-62 -63.5l-12 -15l-100 50q61 98 148.5 153.5
t189.5 55.5q97 0 290 -93q146 -71 246 -106.5t184 -44.5l-2 -116q-60 -11 -141 -47t-226 -112q-105 -56 -179 -90.5t-164.5 -67.5t-179.5 -48t-184 -15h-160z" />
    <glyph glyph-name="uniFEA0" unicode="&#x62c;" horiz-adv-x="1351" arabic-form="medial" 
d="M521 -303l113 113l114 -114l-113 -113zM1214 380q-42 -6 -87.5 -20.5t-97.5 -39.5l-18 -9q2 -54 22 -91t59.5 -59t93.5 -31.5t131 -9.5h54v-120h-58q-180 0 -268 54t-102 173l-6 43l-38 -21q-106 -57 -190.5 -97t-182.5 -77.5t-194.5 -56t-191.5 -18.5h-160v120h163
q78 0 154 12t138.5 29t144.5 52t142 64.5t162 81.5l78 41l64 34l-69 22q-10 3 -27 10t-60 25.5t-96 39.5q-92 37 -125 50t-79.5 27t-74.5 14q-43 0 -86 -17.5t-77 -45t-62 -63.5l-12 -15l-100 50q61 98 148.5 153.5t189.5 55.5q97 0 290 -93q146 -71 246 -106.5t184 -44.5z
" />
    <glyph glyph-name="uniFEA1" unicode="&#x62d;" horiz-adv-x="1347" arabic-form="isolated" 
d="M847 548q-35 14 -91 37l-42.5 17t-40.5 16t-35.5 14t-34 13t-29.5 10.5t-29 9t-24 6t-23.5 4.5t-20.5 1q-43 0 -86 -17.5t-77 -45t-62 -63.5l-12 -15l-100 50q61 98 148.5 153.5t189.5 55.5q97 0 290 -93q145 -71 245 -106.5t183 -44.5l-9 -114q-197 -19 -369.5 -69.5
t-302.5 -126.5t-205 -181t-75 -224q0 -200 144.5 -300.5t418.5 -100.5q201 0 393 82l23 -110q-188 -83 -430 -83q-308 0 -481.5 124.5t-173.5 371.5q0 115 45.5 218.5t133 191t224 155.5t311.5 107l94 21z" />
    <glyph glyph-name="uniFEA2" unicode="&#x62d;" horiz-adv-x="1378" arabic-form="final" 
d="M1214 -594q-188 -83 -430 -83q-308 0 -481.5 124.5t-173.5 371.5q0 91 28.5 175.5t86.5 161t142 140t200 113.5t257 82l94 21l-90 36q-35 14 -91 37l-42.5 17t-40.5 16t-35.5 14t-34 13t-29.5 10.5t-29 9t-24 6t-23.5 4.5t-20.5 1q-43 0 -86 -17.5t-77 -45t-62 -63.5
l-12 -15l-100 50q61 98 148.5 153.5t189.5 55.5q97 0 290 -93q145 -71 245 -106.5t183 -44.5q-1 -15 -3 -36t-3.5 -41.5t-2.5 -36.5q-29 -2 -61 -5.5t-54.5 -6.5t-55.5 -7l-26 -4v-26q0 -77 20 -129t61 -82t96 -43t133 -13h98v-120h-95q-111 0 -184.5 17t-123.5 58.5
t-72.5 109.5t-22.5 172v39l-38 -10q-200 -56 -341.5 -141.5t-213.5 -189.5t-72 -220q0 -200 144.5 -300.5t418.5 -100.5q201 0 393 82z" />
    <glyph glyph-name="uniFEA3" unicode="&#x62d;" horiz-adv-x="1334" arabic-form="initial" 
d="M-20 0v120h163q78 0 154 12t138.5 29t144.5 52t142 64.5t162 81.5l78 41l64 34l-69 22q-10 3 -27 10t-60 25.5t-96 39.5q-92 37 -125 50t-79.5 27t-74.5 14q-43 0 -86 -17.5t-77 -45t-62 -63.5l-12 -15l-100 50q61 98 148.5 153.5t189.5 55.5q97 0 290 -93
q146 -71 246 -106.5t184 -44.5l-2 -116q-60 -11 -141 -47t-226 -112q-105 -56 -179 -90.5t-164.5 -67.5t-179.5 -48t-184 -15h-160z" />
    <glyph glyph-name="uniFEA4" unicode="&#x62d;" horiz-adv-x="1351" arabic-form="medial" 
d="M1214 380q-42 -6 -87.5 -20.5t-97.5 -39.5l-18 -9q2 -54 22 -91t59.5 -59t93.5 -31.5t131 -9.5h54v-120h-58q-180 0 -268 54t-102 173l-6 43l-38 -21q-106 -57 -190.5 -97t-182.5 -77.5t-194.5 -56t-191.5 -18.5h-160v120h163q78 0 154 12t138.5 29t144.5 52t142 64.5
t162 81.5l78 41l64 34l-69 22q-10 3 -27 10t-60 25.5t-96 39.5q-92 37 -125 50t-79.5 27t-74.5 14q-43 0 -86 -17.5t-77 -45t-62 -63.5l-12 -15l-100 50q61 98 148.5 153.5t189.5 55.5q97 0 290 -93q146 -71 246 -106.5t184 -44.5z" />
    <glyph glyph-name="uniFEA5" unicode="&#x62e;" horiz-adv-x="1347" arabic-form="isolated" 
d="M452 1184l113 113l114 -114l-113 -113zM847 548q-35 14 -91 37l-42.5 17t-40.5 16t-35.5 14t-34 13t-29.5 10.5t-29 9t-24 6t-23.5 4.5t-20.5 1q-43 0 -86 -17.5t-77 -45t-62 -63.5l-12 -15l-100 50q61 98 148.5 153.5t189.5 55.5q97 0 290 -93q145 -71 245 -106.5
t183 -44.5l-9 -114q-197 -19 -369.5 -69.5t-302.5 -126.5t-205 -181t-75 -224q0 -200 144.5 -300.5t418.5 -100.5q201 0 393 82l23 -110q-188 -83 -430 -83q-308 0 -481.5 124.5t-173.5 371.5q0 115 45.5 218.5t133 191t224 155.5t311.5 107l94 21z" />
    <glyph glyph-name="uniFEA6" unicode="&#x62e;" horiz-adv-x="1378" arabic-form="final" 
d="M452 1184l113 113l114 -114l-113 -113zM1214 -594q-188 -83 -430 -83q-308 0 -481.5 124.5t-173.5 371.5q0 91 28.5 175.5t86.5 161t142 140t200 113.5t257 82l94 21l-90 36q-35 14 -91 37l-42.5 17t-40.5 16t-35.5 14t-34 13t-29.5 10.5t-29 9t-24 6t-23.5 4.5t-20.5 1
q-43 0 -86 -17.5t-77 -45t-62 -63.5l-12 -15l-100 50q61 98 148.5 153.5t189.5 55.5q97 0 290 -93q145 -71 245 -106.5t183 -44.5q-1 -15 -3 -36t-3.5 -41.5t-2.5 -36.5q-29 -2 -61 -5.5t-54.5 -6.5t-55.5 -7l-26 -4v-26q0 -77 20 -129t61 -82t96 -43t133 -13h98v-120h-95
q-111 0 -184.5 17t-123.5 58.5t-72.5 109.5t-22.5 172v39l-38 -10q-200 -56 -341.5 -141.5t-213.5 -189.5t-72 -220q0 -200 144.5 -300.5t418.5 -100.5q201 0 393 82z" />
    <glyph glyph-name="uniFEA7" unicode="&#x62e;" horiz-adv-x="1334" arabic-form="initial" 
d="M461 1132l113 113l114 -114l-113 -113zM-20 0v120h163q78 0 154 12t138.5 29t144.5 52t142 64.5t162 81.5l78 41l64 34l-69 22q-10 3 -27 10t-60 25.5t-96 39.5q-92 37 -125 50t-79.5 27t-74.5 14q-43 0 -86 -17.5t-77 -45t-62 -63.5l-12 -15l-100 50q61 98 148.5 153.5
t189.5 55.5q97 0 290 -93q146 -71 246 -106.5t184 -44.5l-2 -116q-60 -11 -141 -47t-226 -112q-105 -56 -179 -90.5t-164.5 -67.5t-179.5 -48t-184 -15h-160z" />
    <glyph glyph-name="uniFEA8" unicode="&#x62e;" horiz-adv-x="1351" arabic-form="medial" 
d="M461 1132l113 113l114 -114l-113 -113zM1214 380q-42 -6 -87.5 -20.5t-97.5 -39.5l-18 -9q2 -54 22 -91t59.5 -59t93.5 -31.5t131 -9.5h54v-120h-58q-180 0 -268 54t-102 173l-6 43l-38 -21q-106 -57 -190.5 -97t-182.5 -77.5t-194.5 -56t-191.5 -18.5h-160v120h163
q78 0 154 12t138.5 29t144.5 52t142 64.5t162 81.5l78 41l64 34l-69 22q-10 3 -27 10t-60 25.5t-96 39.5q-92 37 -125 50t-79.5 27t-74.5 14q-43 0 -86 -17.5t-77 -45t-62 -63.5l-12 -15l-100 50q61 98 148.5 153.5t189.5 55.5q97 0 290 -93q146 -71 246 -106.5t184 -44.5z
" />
    <glyph glyph-name="uniFEA9" unicode="&#x62f;" horiz-adv-x="963" arabic-form="isolated" 
d="M128 141q108 -20 189 -20q402 0 402 213q0 105 -102 218.5t-300 241.5l65 98q453 -278 453 -555q0 -167 -122.5 -251t-382.5 -84q-104 0 -202 19v120z" />
    <glyph glyph-name="uniFEAA" unicode="&#x62f;" horiz-adv-x="1055" arabic-form="final" 
d="M128 142q96 -21 179 -21q377 0 377 196q0 32 -21.5 92.5t-72.5 179.5l-108 255l106 49l196 -502q58 -148 115.5 -209.5t133.5 -61.5h42v-120h-42q-148 0 -236 148l-21 36l-28 -32q-127 -151 -426 -151q-106 0 -194 19v122z" />
    <glyph glyph-name="uniFEAB" unicode="&#x630;" horiz-adv-x="963" arabic-form="isolated" 
d="M234 1280l113 113l114 -114l-113 -113zM128 141q108 -20 189 -20q402 0 402 213q0 105 -102 218.5t-300 241.5l65 98q453 -278 453 -555q0 -167 -122.5 -251t-382.5 -84q-104 0 -202 19v120z" />
    <glyph glyph-name="uniFEAC" unicode="&#x630;" horiz-adv-x="1055" arabic-form="final" 
d="M383 1274l113 113l114 -114l-113 -113zM128 142q96 -21 179 -21q377 0 377 196q0 32 -21.5 92.5t-72.5 179.5l-108 255l106 49l196 -502q58 -148 115.5 -209.5t133.5 -61.5h42v-120h-42q-148 0 -236 148l-21 36l-28 -32q-127 -151 -426 -151q-106 0 -194 19v122z" />
    <glyph glyph-name="uniFEAD" unicode="&#x631;" horiz-adv-x="780" arabic-form="isolated" 
d="M583 459q69 -186 69 -354q0 -255 -144 -411.5t-439 -217.5l-38 98q252 54 382 186.5t132 339.5q0 148 -67 321z" />
    <glyph glyph-name="uniFEAE" unicode="&#x631;" horiz-adv-x="860" arabic-form="final" 
d="M545 100q0 148 -68 321l104 38l52 -163q56 -176 208 -176h39v-120h-31q-70 0 -112.5 21.5t-83.5 72.5l-6 -66q-16 -216 -160.5 -355.5t-417.5 -195.5l-38 97q252 55 382 187t132 339z" />
    <glyph glyph-name="uniFEAF" unicode="&#x632;" horiz-adv-x="780" arabic-form="isolated" 
d="M346 892l113 113l114 -114l-113 -113zM583 459q69 -186 69 -354q0 -255 -144 -411.5t-439 -217.5l-38 98q252 54 382 186.5t132 339.5q0 148 -67 321z" />
    <glyph glyph-name="uniFEB0" unicode="&#x632;" horiz-adv-x="860" arabic-form="final" 
d="M347 890l113 113l114 -114l-113 -113zM546 100q0 148 -68 321l104 38l52 -163q56 -176 208 -176h39v-120h-31q-70 0 -112.5 21.5t-83.5 72.5l-6 -66q-16 -216 -160.5 -355.5t-417.5 -195.5l-38 97q252 55 382 187t132 339z" />
    <glyph glyph-name="uniFEB1" unicode="&#x633;" horiz-adv-x="2456" arabic-form="isolated" 
d="M1531 0q-104 0 -170 52l-48 37l-1 -61q-4 -272 -158 -409q-156 -139 -433 -139q-302 0 -447.5 134.5t-145.5 411.5q0 191 77 390l100 -41q-65 -182 -65 -344q0 -216 124.5 -327t363.5 -111q235 0 356.5 121.5t122.5 355.5q0 173 -79 351l109 38l49 -154q59 -184 247 -185
q109 0 162 63t53 176q0 38 -8 152l105 12l14 -194q6 -90 53 -149.5t135 -59.5q84 0 126.5 67.5t42.5 184.5q0 98 -37 243l111 29q38 -132 38 -257q0 -179 -67.5 -282.5t-212.5 -104.5q-154 0 -215 124l-22 45l-29 -40q-94 -129 -251 -129z" />
    <glyph glyph-name="uniFEB2" unicode="&#x633;" horiz-adv-x="2553" arabic-form="final" 
d="M1531 0q-104 0 -170 52l-48 37l-1 -61q-4 -272 -158 -409q-156 -139 -433 -139q-302 0 -447.5 134.5t-145.5 411.5q0 191 77 390l100 -41q-65 -182 -65 -344q0 -216 124.5 -327t363.5 -111q235 0 356.5 121.5t122.5 355.5q0 173 -79 351l109 38l49 -154q59 -184 247 -185
q109 0 162 63t53 176q0 38 -8 152l105 12l14 -194q6 -89 53.5 -149t135.5 -60q84 0 126.5 63.5t42.5 173.5q0 57 -8 175l105 12l14 -215q7 -100 62 -154t151 -55h32v-120h-32q-63 1 -105.5 11t-70.5 33.5t-44 50.5t-34 74q-21 -40 -33.5 -60.5t-33.5 -45.5t-42.5 -36
t-53.5 -19t-75 -8q-155 0 -216 124l-22 45l-29 -40q-94 -129 -251 -129z" />
    <glyph glyph-name="uniFEB3" unicode="&#x633;" horiz-adv-x="1562" arabic-form="initial" 
d="M1153 120q84 0 126.5 67.5t42.5 184.5q0 101 -37 243l111 29q38 -132 38 -257q0 -179 -67 -282.5t-213 -104.5q-155 0 -216 124l-22 45l-29 -40q-94 -129 -251 -129q-61 0 -103 10t-71.5 34t-47.5 51.5t-39 73.5l-29 -50q-36 -62 -108 -90.5t-189 -28.5h-69v120h71
q133 0 202.5 56t69.5 183q0 42 -8 152l105 12l14 -194q7 -92 59.5 -150.5t144.5 -58.5q109 0 162 63t53 176q0 38 -8 152l105 12l14 -194q6 -89 53.5 -149t135.5 -60z" />
    <glyph glyph-name="uniFEB4" unicode="&#x633;" horiz-adv-x="1658" arabic-form="medial" 
d="M346 118q-36 -62 -108 -90t-189 -28h-69v120h71q133 0 202.5 56t69.5 183q0 43 -8 152l105 12l14 -194q7 -92 59.5 -150.5t144.5 -58.5q109 0 162 63t53 176q0 38 -8 152l105 12l14 -194q6 -89 53.5 -149t135.5 -60q84 0 126.5 63.5t42.5 173.5q0 57 -8 175l105 12
l14 -215q7 -100 62 -154t151 -55h32v-120h-32q-63 1 -105.5 11t-70.5 33.5t-44 50.5t-34 74q-21 -40 -33.5 -60.5t-33.5 -45.5t-42.5 -36t-53.5 -19t-75 -8q-155 0 -216 124l-22 45l-29 -40q-94 -129 -251 -129q-61 0 -103 10t-71.5 33t-47.5 51.5t-38 74.5z" />
    <glyph glyph-name="uniFEB5" unicode="&#x634;" horiz-adv-x="2456" arabic-form="isolated" 
d="M1644 1184l100 100l100 -100l-100 -100zM1816 922l100 100l100 -100l-100 -100zM1476 922l100 100l100 -100l-100 -100zM1531 0q-104 0 -170 52l-48 37l-1 -61q-4 -272 -158 -409q-156 -139 -433 -139q-302 0 -447.5 134.5t-145.5 411.5q0 191 77 390l100 -41
q-65 -182 -65 -344q0 -216 124.5 -327t363.5 -111q235 0 356.5 121.5t122.5 355.5q0 173 -79 351l109 38l49 -154q59 -184 247 -185q109 0 162 63t53 176q0 38 -8 152l105 12l14 -194q6 -90 53 -149.5t135 -59.5q84 0 126.5 67.5t42.5 184.5q0 98 -37 243l111 29
q38 -132 38 -257q0 -179 -67.5 -282.5t-212.5 -104.5q-154 0 -215 124l-22 45l-29 -40q-94 -129 -251 -129z" />
    <glyph glyph-name="uniFEB6" unicode="&#x634;" horiz-adv-x="2553" arabic-form="final" 
d="M1644 1184l100 100l100 -100l-100 -100zM1816 922l100 100l100 -100l-100 -100zM1476 922l100 100l100 -100l-100 -100zM1531 0q-104 0 -170 52l-48 37l-1 -61q-4 -272 -158 -409q-156 -139 -433 -139q-302 0 -447.5 134.5t-145.5 411.5q0 191 77 390l100 -41
q-65 -182 -65 -344q0 -216 124.5 -327t363.5 -111q235 0 356.5 121.5t122.5 355.5q0 173 -79 351l109 38l49 -154q59 -184 247 -185q109 0 162 63t53 176q0 38 -8 152l105 12l14 -194q6 -89 53.5 -149t135.5 -60q84 0 126.5 63.5t42.5 173.5q0 57 -8 175l105 12l14 -215
q7 -100 62 -154t151 -55h32v-120h-32q-63 1 -105.5 11t-70.5 33.5t-44 50.5t-34 74q-21 -40 -33.5 -60.5t-33.5 -45.5t-42.5 -36t-53.5 -19t-75 -8q-155 0 -216 124l-22 45l-29 -40q-94 -129 -251 -129z" />
    <glyph glyph-name="uniFEB7" unicode="&#x634;" horiz-adv-x="1562" arabic-form="initial" 
d="M750 1184l100 100l100 -100l-100 -100zM922 922l100 100l100 -100l-100 -100zM582 922l100 100l100 -100l-100 -100zM1153 120q84 0 126.5 67.5t42.5 184.5q0 101 -37 243l111 29q38 -132 38 -257q0 -179 -67 -282.5t-213 -104.5q-155 0 -216 124l-22 45l-29 -40
q-94 -129 -251 -129q-61 0 -103 10t-71.5 34t-47.5 51.5t-39 73.5l-29 -50q-36 -62 -108 -90.5t-189 -28.5h-69v120h71q133 0 202.5 56t69.5 183q0 42 -8 152l105 12l14 -194q7 -92 59.5 -150.5t144.5 -58.5q109 0 162 63t53 176q0 38 -8 152l105 12l14 -194
q6 -89 53.5 -149t135.5 -60z" />
    <glyph glyph-name="uniFEB8" unicode="&#x634;" horiz-adv-x="1658" arabic-form="medial" 
d="M750 1184l100 100l100 -100l-100 -100zM922 922l100 100l100 -100l-100 -100zM582 922l100 100l100 -100l-100 -100zM346 118q-36 -62 -108 -90t-189 -28h-69v120h71q133 0 202.5 56t69.5 183q0 43 -8 152l105 12l14 -194q7 -92 59.5 -150.5t144.5 -58.5q109 0 162 63
t53 176q0 38 -8 152l105 12l14 -194q6 -89 53.5 -149t135.5 -60q84 0 126.5 63.5t42.5 173.5q0 57 -8 175l105 12l14 -215q7 -100 62 -154t151 -55h32v-120h-32q-63 1 -105.5 11t-70.5 33.5t-44 50.5t-34 74q-21 -40 -33.5 -60.5t-33.5 -45.5t-42.5 -36t-53.5 -19t-75 -8
q-155 0 -216 124l-22 45l-29 -40q-94 -129 -251 -129q-61 0 -103 10t-71.5 33t-47.5 51.5t-38 74.5z" />
    <glyph glyph-name="uniFEB9" unicode="&#x635;" horiz-adv-x="2575" arabic-form="isolated" 
d="M1753 121q137 0 241 14.5t180 45.5t115.5 81.5t39.5 120.5q0 95 -63.5 158.5t-161.5 63.5q-85 0 -173.5 -52.5t-174 -148.5t-176.5 -238l-30 -46h55zM1207 70q0 173 -79 351l109 38l49 -154q15 -46 32 -77.5t42 -53t56 -25.5l19 -2l10 17q331 563 653 563
q152 0 250.5 -96t98.5 -239q-1 -194 -169 -293t-521 -99h-51q-122 0 -209.5 14t-141.5 40l-42 20l-1 -47q-4 -271 -158.5 -409t-432.5 -138q-302 0 -447.5 134.5t-145.5 411.5q0 191 77 390l100 -41q-65 -183 -65 -344q0 -216 125 -327t363 -111q234 0 356 121.5t123 355.5z
" />
    <glyph glyph-name="uniFEBA" unicode="&#x635;" horiz-adv-x="2610" arabic-form="final" 
d="M1753 121q137 0 241 14.5t180 45.5t115.5 81.5t39.5 120.5q0 95 -63.5 158.5t-161.5 63.5q-85 0 -173.5 -52.5t-174 -148.5t-176.5 -238l-30 -46h55zM1207 70q0 173 -79 351l109 38l49 -154q46 -146 130 -156l19 -2l10 17q333 563 651 563q156 0 253.5 -94.5t97.5 -240.5
q0 -53 -20.5 -107.5t-54.5 -100.5l-26 -35l42 -12q60 -17 210 -17h32v-120h-32q-215 1 -320 86l-16 13l-18 -10q-75 -42 -200 -65.5t-287 -23.5h-51q-122 0 -209.5 14t-141.5 40l-42 20l-1 -47q-4 -271 -158.5 -409t-432.5 -138q-302 0 -447.5 134.5t-145.5 411.5
q0 191 77 390l100 -41q-65 -183 -65 -344q0 -216 125 -327t363 -111q234 0 356 121.5t123 355.5z" />
    <glyph glyph-name="uniFEBB" unicode="&#x635;" horiz-adv-x="1654" arabic-form="initial" 
d="M832 121q137 0 241 14.5t180 45.5t115.5 81.5t39.5 120.5q0 95 -63.5 158.5t-161.5 63.5q-126 0 -256 -111.5t-268 -327.5l-30 -46h55zM524 164q334 563 651 563q156 0 253.5 -94.5t97.5 -240.5q-1 -194 -169 -293t-521 -99h-51q-349 0 -432 132l-23 37l-26 -35
q-54 -72 -115.5 -103t-168.5 -31h-41l1 120h40q138 0 195.5 58.5t57.5 179.5q0 48 -7 174l105 12l16 -215q12 -155 103 -179l22 -6z" />
    <glyph glyph-name="uniFEBC" unicode="&#x635;" horiz-adv-x="1689" arabic-form="medial" 
d="M832 121q137 0 241 14.5t180 45.5t115.5 81.5t39.5 120.5q0 95 -63.5 158.5t-161.5 63.5q-126 0 -256 -111.5t-268 -327.5l-30 -46h55zM524 164q335 563 652 563q156 0 253 -95t97 -242q0 -103 -75 -206l-23 -31q49 -20 95 -26.5t154 -6.5h32v-120h-32q-215 1 -320 86
l-16 13l-18 -10q-75 -42 -200 -65.5t-287 -23.5h-51q-346 0 -432 133l-23 37l-26 -35q-54 -72 -115.5 -103.5t-168.5 -31.5h-40v120h39q138 0 196 58.5t58 178.5q0 49 -7 175l105 12l16 -215q12 -155 103 -179l22 -6z" />
    <glyph glyph-name="uniFEBD" unicode="&#x636;" horiz-adv-x="2575" arabic-form="isolated" 
d="M1945 1144l113 113l114 -114l-113 -113zM1753 121q137 0 241 14.5t180 45.5t115.5 81.5t39.5 120.5q0 95 -63.5 158.5t-161.5 63.5q-85 0 -173.5 -52.5t-174 -148.5t-176.5 -238l-30 -46h55zM1207 70q0 173 -79 351l109 38l49 -154q15 -46 32 -77.5t42 -53t56 -25.5
l19 -2l10 17q331 563 653 563q152 0 250.5 -96t98.5 -239q-1 -194 -169 -293t-521 -99h-51q-122 0 -209.5 14t-141.5 40l-42 20l-1 -47q-4 -271 -158.5 -409t-432.5 -138q-302 0 -447.5 134.5t-145.5 411.5q0 191 77 390l100 -41q-65 -183 -65 -344q0 -216 125 -327
t363 -111q234 0 356 121.5t123 355.5z" />
    <glyph glyph-name="uniFEBE" unicode="&#x636;" horiz-adv-x="2610" arabic-form="final" 
d="M1945 1144l113 113l114 -114l-113 -113zM1753 121q137 0 241 14.5t180 45.5t115.5 81.5t39.5 120.5q0 95 -63.5 158.5t-161.5 63.5q-85 0 -173.5 -52.5t-174 -148.5t-176.5 -238l-30 -46h55zM1207 70q0 173 -79 351l109 38l49 -154q46 -146 130 -156l19 -2l10 17
q333 563 651 563q156 0 253.5 -94.5t97.5 -240.5q0 -53 -20.5 -107.5t-54.5 -100.5l-26 -35l42 -12q60 -17 210 -17h32v-120h-32q-215 1 -320 86l-16 13l-18 -10q-75 -42 -200 -65.5t-287 -23.5h-51q-122 0 -209.5 14t-141.5 40l-42 20l-1 -47q-4 -271 -158.5 -409
t-432.5 -138q-302 0 -447.5 134.5t-145.5 411.5q0 191 77 390l100 -41q-65 -183 -65 -344q0 -216 125 -327t363 -111q234 0 356 121.5t123 355.5z" />
    <glyph glyph-name="uniFEBF" unicode="&#x636;" horiz-adv-x="1654" arabic-form="initial" 
d="M1024 1144l113 113l114 -114l-113 -113zM832 121q137 0 241 14.5t180 45.5t115.5 81.5t39.5 120.5q0 95 -63.5 158.5t-161.5 63.5q-126 0 -256 -111.5t-268 -327.5l-30 -46h55zM524 164q334 563 651 563q156 0 253.5 -94.5t97.5 -240.5q-1 -194 -169 -293t-521 -99h-51
q-349 0 -432 132l-23 37l-26 -35q-54 -72 -115.5 -103t-168.5 -31h-41l1 120h40q138 0 195.5 58.5t57.5 179.5q0 48 -7 174l105 12l16 -215q12 -155 103 -179l22 -6z" />
    <glyph glyph-name="uniFEC0" unicode="&#x636;" horiz-adv-x="1689" arabic-form="medial" 
d="M1024 1144l113 113l114 -114l-113 -113zM832 121q137 0 241 14.5t180 45.5t115.5 81.5t39.5 120.5q0 95 -63.5 158.5t-161.5 63.5q-126 0 -256 -111.5t-268 -327.5l-30 -46h55zM524 164q335 563 652 563q156 0 253 -95t97 -242q0 -103 -75 -206l-23 -31q49 -20 95 -26.5
t154 -6.5h32v-120h-32q-215 1 -320 86l-16 13l-18 -10q-75 -42 -200 -65.5t-287 -23.5h-51q-346 0 -432 133l-23 37l-26 -35q-54 -72 -115.5 -103.5t-168.5 -31.5h-40v120h39q138 0 196 58.5t58 178.5q0 49 -7 175l105 12l16 -215q12 -155 103 -179l22 -6z" />
    <glyph glyph-name="uniFEC1" unicode="&#x637;" horiz-adv-x="1471" arabic-form="isolated" 
d="M649 122q137 0 241 14.5t180 45.5t115.5 81.5t39.5 120.5q0 95 -63.5 158.5t-161.5 63.5q-126 0 -256 -111.5t-268 -327.5l-30 -46h55zM346 134q9 16 72 116l5 7v9v1040h109v-800v-85l53 66q195 240 406 240q104 0 184.5 -43t124 -119t43.5 -173q-1 -194 -169.5 -293
t-520.5 -99h-525v120h192h17z" />
    <glyph glyph-name="uniFEC2" unicode="&#x637;" horiz-adv-x="1510" arabic-form="final" 
d="M649 122q137 0 241 14.5t180 45.5t115.5 81.5t39.5 120.5q0 95 -63 158.5t-161 63.5q-85 0 -173.5 -52.5t-174.5 -148.5t-177 -238l-30 -46h55zM1498 120h32v-120h-32q-120 0 -194 22.5t-124 62.5l-15 13l-18 -9q-75 -40 -207 -64.5t-287 -24.5h-525v120h192h17l9 14
q9 16 22.5 37.5t27 42t23.5 36.5l4 8v8v1040h109v-800v-85l53 66q193 240 407 240q155 0 252.5 -94.5t97.5 -240.5q0 -101 -75 -210l-16 -24q16 -12 33 -19t30.5 -11t47.5 -5.5t55 -2t81 -0.5z" />
    <glyph glyph-name="uniFEC3" unicode="&#x637;" horiz-adv-x="1293" arabic-form="initial" 
d="M471 122q137 0 241 14.5t180 45.5t115.5 81.5t39.5 120.5q0 95 -63.5 158.5t-161.5 63.5q-126 0 -256 -111.5t-268 -327.5l-30 -46h55zM407 487q196 240 412 240q153 0 249.5 -95.5t96.5 -239.5q0 -195 -167.5 -293.5t-521.5 -98.5h-496v120h160h16l9 14q11 17 36.5 55.5
t38.5 59.5l5 7v9v1041h109v-800v-84z" />
    <glyph glyph-name="uniFEC4" unicode="&#x637;" horiz-adv-x="1332" arabic-form="medial" 
d="M471 122q137 0 241 14.5t180 45.5t115.5 81.5t39.5 120.5q0 95 -63.5 158.5t-161.5 63.5q-126 0 -256 -111.5t-268 -327.5l-30 -46h55zM1321 120h31v-120h-31q-120 0 -194 22.5t-125 63.5l-15 13l-18 -9q-76 -40 -207.5 -65t-285.5 -25h-496v120h162h17l9 14q9 16 72 116
l5 7v9v1040h109v-800v-84l53 65q198 240 409 240q154 0 251.5 -95t97.5 -240q0 -100 -76 -210l-16 -24q36 -27 78.5 -32.5t169.5 -5.5z" />
    <glyph glyph-name="uniFEC5" unicode="&#x638;" horiz-adv-x="1471" arabic-form="isolated" 
d="M857 1144l113 113l114 -114l-113 -113zM649 122q137 0 241 14.5t180 45.5t115.5 81.5t39.5 120.5q0 95 -63.5 158.5t-161.5 63.5q-126 0 -256 -111.5t-268 -327.5l-30 -46h55zM346 134q9 16 72 116l5 7v9v1040h109v-800v-85l53 66q195 240 406 240q104 0 184.5 -43
t124 -119t43.5 -173q-1 -194 -169.5 -293t-520.5 -99h-525v120h192h17z" />
    <glyph glyph-name="uniFEC6" unicode="&#x638;" horiz-adv-x="1510" arabic-form="final" 
d="M856 1144l113 113l114 -114l-113 -113zM649 122q137 0 241 14.5t180 45.5t115.5 81.5t39.5 120.5q0 95 -63 158.5t-161 63.5q-85 0 -173.5 -52.5t-174.5 -148.5t-177 -238l-30 -46h55zM1498 120h32v-120h-32q-120 0 -194 22.5t-124 62.5l-15 13l-18 -9
q-75 -40 -207 -64.5t-287 -24.5h-525v120h192h17l9 14q9 16 22.5 37.5t27 42t23.5 36.5l4 8v8v1040h109v-800v-85l53 66q193 240 407 240q155 0 252.5 -94.5t97.5 -240.5q0 -101 -75 -210l-16 -24q16 -12 33 -19t30.5 -11t47.5 -5.5t55 -2t81 -0.5z" />
    <glyph glyph-name="uniFEC7" unicode="&#x638;" horiz-adv-x="1297" arabic-form="initial" 
d="M681 1144l113 113l114 -114l-113 -113zM471 122q137 0 241 14.5t180 45.5t115.5 81.5t39.5 120.5q0 95 -63.5 158.5t-161.5 63.5q-126 0 -256 -111.5t-268 -327.5l-30 -46h55zM407 487q196 240 412 240q153 0 249.5 -95.5t96.5 -239.5q0 -195 -167.5 -293.5t-521.5 -98.5
h-496v120h160h16l9 14q11 17 36.5 55.5t38.5 59.5l5 7v9v1041h109v-800v-84z" />
    <glyph glyph-name="uniFEC8" unicode="&#x638;" horiz-adv-x="1332" arabic-form="medial" 
d="M681 1144l113 113l114 -114l-113 -113zM471 122q137 0 241 14.5t180 45.5t115.5 81.5t39.5 120.5q0 95 -63.5 158.5t-161.5 63.5q-126 0 -256 -111.5t-268 -327.5l-30 -46h55zM1321 120h31v-120h-31q-120 0 -194 22.5t-125 63.5l-15 13l-18 -9q-76 -40 -207.5 -65
t-285.5 -25h-496v120h162h17l9 14q9 16 72 116l5 7v9v1040h109v-800v-84l53 65q198 240 409 240q154 0 251.5 -95t97.5 -240q0 -100 -76 -210l-16 -24q36 -27 78.5 -32.5t169.5 -5.5z" />
    <glyph glyph-name="uniFEC9" unicode="&#x639;" horiz-adv-x="1306" arabic-form="isolated" 
d="M954 795q-138 76 -239 76q-102 0 -176 -63.5t-74 -167.5q0 -23 3 -43t10.5 -40t13.5 -33.5t20 -33t20.5 -28.5t25 -31.5t23.5 -30.5l12 -14l17 3q179 32 302 32q69 0 147 -7l-15 -113q-32 1 -73 1q-361 0 -549 -126t-188 -363q0 -179 140.5 -277t391.5 -98q193 0 385 82
l23 -111q-182 -83 -419 -83q-183 0 -322.5 52t-222 162t-82.5 266q0 111 32.5 208.5t106 181t182.5 132.5l37 16l-26 31q-108 125 -108 278q0 132 106.5 234t246.5 102q135 0 291 -101z" />
    <glyph glyph-name="uniFECA" unicode="&#x639;" horiz-adv-x="1199" arabic-form="final" 
d="M1035 -602q-150 -61 -346 -61q-258 0 -409.5 112.5t-151.5 322.5q0 278 334 490l42 26l-43 25q-133 78 -198 151t-65 135q0 56 61.5 100t155.5 65.5t201 21.5q111 0 201 -18.5t148.5 -61t58.5 -103.5q0 -54 -72.5 -132.5t-218.5 -170.5l-39 -24l38 -26q99 -66 199 -98
t228 -32h60v-120h-60q-135 0 -262.5 49t-277.5 155l-15 10l-17 -9q-352 -198 -352 -433q0 -150 124 -237t335 -87q155 0 318 61zM618 361q42 22 63.5 34.5t55 31.5t51 30.5t41 27.5t35 27.5t24 25t17 26t4.5 24.5q0 20 -10 34.5t-32.5 23.5t-45 14.5t-62 8t-67.5 3t-77 0.5
q-70 0 -115 -3t-90 -12t-67 -29t-22 -51q0 -20 14 -41t34 -39t59 -43t71.5 -43.5t90.5 -49.5l14 -8z" />
    <glyph glyph-name="uniFECB" unicode="&#x639;" horiz-adv-x="1057" arabic-form="initial" 
d="M929 139q-456 -139 -844 -139h-105v120h297h62l-38 49q-50 63 -75 117t-25 130q0 167 105.5 280t278.5 113q184 0 307 -114l-42 -93q-117 84 -233 85q-130 0 -218 -79.5t-88 -197.5q0 -22 6.5 -49t23 -63t53 -71t87.5 -58q31 -15 57 -9l391 98v-119z" />
    <glyph glyph-name="uniFECC" unicode="&#x639;" horiz-adv-x="1141" arabic-form="medial" 
d="M728 174q51 -30 124.5 -42t192.5 -12h46v-120h-46q-95 0 -174.5 15.5t-135.5 40t-111 62.5l-17 11l-17 -11q-80 -56 -197.5 -87t-305.5 -31h-107v120h110q163 0 252 11.5t134 44.5l38 26l-40 24q-141 83 -209 156t-68 147q0 59 59 102.5t150.5 64t200.5 20.5
q103 0 193 -20.5t150 -64.5t60 -102q0 -38 -31 -86.5t-96 -105.5t-156 -111l-43 -27zM618 274q5 2 15 8q32 17 51 28t54.5 32.5t58 39t47 39.5t36.5 43.5t12 41.5q0 25 -15.5 43t-40 28t-64 16t-77.5 7.5t-91 1.5q-68 0 -112 -3t-88.5 -12t-66.5 -29.5t-22 -51.5
q0 -95 276 -233l14 -7zM1069.38 0v120h91.5479v-120h-91.5479z" />
    <glyph glyph-name="uniFECD" unicode="&#x63a;" horiz-adv-x="1306" arabic-form="isolated" 
d="M567 1362l113 113l114 -114l-113 -113zM954 795q-138 76 -239 76q-102 0 -176 -63.5t-74 -167.5q0 -23 3 -43t10.5 -40t13.5 -33.5t20 -33t20.5 -28.5t25 -31.5t23.5 -30.5l12 -14l17 3q179 32 302 32q69 0 147 -7l-15 -113q-32 1 -73 1q-361 0 -549 -126t-188 -363
q0 -179 140.5 -277t391.5 -98q193 0 385 82l23 -111q-182 -83 -419 -83q-183 0 -322.5 52t-222 162t-82.5 266q0 111 32.5 208.5t106 181t182.5 132.5l37 16l-26 31q-108 125 -108 278q0 132 106.5 234t246.5 102q135 0 291 -101z" />
    <glyph glyph-name="uniFECE" unicode="&#x63a;" horiz-adv-x="1199" arabic-form="final" 
d="M489 1171l113 113l114 -114l-113 -113zM1035 -602q-150 -61 -346 -61q-258 0 -409.5 112.5t-151.5 322.5q0 278 334 490l42 26l-43 25q-133 78 -198 151t-65 135q0 56 61.5 100t155.5 65.5t201 21.5q111 0 201 -18.5t148.5 -61t58.5 -103.5q0 -54 -72.5 -132.5
t-218.5 -170.5l-39 -24l38 -26q99 -66 199 -98t228 -32h60v-120h-60q-135 0 -262.5 49t-277.5 155l-15 10l-17 -9q-352 -198 -352 -433q0 -150 124 -237t335 -87q155 0 318 61zM618 361q42 22 63.5 34.5t55 31.5t51 30.5t41 27.5t35 27.5t24 25t17 26t4.5 24.5
q0 20 -10 34.5t-32.5 23.5t-45 14.5t-62 8t-67.5 3t-77 0.5q-70 0 -115 -3t-90 -12t-67 -29t-22 -51q0 -20 14 -41t34 -39t59 -43t71.5 -43.5t90.5 -49.5l14 -8z" />
    <glyph glyph-name="uniFECF" unicode="&#x63a;" horiz-adv-x="1063" arabic-form="initial" 
d="M452 1216l113 113l114 -114l-113 -113zM929 139q-456 -139 -844 -139h-105v120h297h62l-38 49q-50 63 -75 117t-25 130q0 167 105.5 280t278.5 113q184 0 307 -114l-42 -93q-117 84 -233 85q-130 0 -218 -79.5t-88 -197.5q0 -22 6.5 -49t23 -63t53 -71t87.5 -58
q31 -15 57 -9l391 98v-119z" />
    <glyph glyph-name="uniFED0" unicode="&#x63a;" horiz-adv-x="1141" arabic-form="medial" 
d="M486 1129l113 113l114 -114l-113 -113zM728 174q51 -30 124.5 -42t192.5 -12h46v-120h-46q-95 0 -174.5 15.5t-135.5 40t-111 62.5l-17 11l-17 -11q-80 -56 -197.5 -87t-305.5 -31h-107v120h110q163 0 252 11.5t134 44.5l38 26l-40 24q-141 83 -209 156t-68 147
q0 59 59 102.5t150.5 64t200.5 20.5q103 0 193 -20.5t150 -64.5t60 -102q0 -38 -31 -86.5t-96 -105.5t-156 -111l-43 -27zM618 274q5 2 15 8q32 17 51 28t54.5 32.5t58 39t47 39.5t36.5 43.5t12 41.5q0 25 -15.5 43t-40 28t-64 16t-77.5 7.5t-91 1.5q-68 0 -112 -3
t-88.5 -12t-66.5 -29.5t-22 -51.5q0 -95 276 -233l14 -7zM1069.38 0v120h91.5479v-120h-91.5479z" />
    <glyph glyph-name="uniFED1" unicode="&#x641;" horiz-adv-x="1781" arabic-form="isolated" 
d="M1189 1344l113 113l114 -114l-113 -113zM1520 389q-89 -28 -192 -28q-154 0 -225 60t-71 187q0 100 36 184.5t104.5 136.5t155.5 52q81 0 144 -44t102 -121t59 -174.5t20 -210.5q0 -92 -11.5 -158.5t-39 -115t-66 -78.5t-100.5 -48t-134 -24.5t-175 -6.5h-290
q-709 0 -709 454q0 108 41 216l98 -37q-24 -77 -24 -154q0 -180 155.5 -269.5t434.5 -89.5h315q79 0 138 5.5t113 21.5t87.5 42.5t53 69t19.5 101.5v41zM1544 532q-43 333 -222 333q-79 0 -134.5 -70.5t-55.5 -167.5q0 -77 55.5 -116.5t151.5 -39.5q86 0 183 28l25 7z" />
    <glyph glyph-name="uniFED2" unicode="&#x641;" horiz-adv-x="1962" arabic-form="final" 
d="M1379 1167l113 113l114 -114l-113 -113zM1501 681q-64 0 -133 -78t-69 -143q0 -64 72 -157t135 -93q45 0 95 47.5t82 108.5t32 102q0 61 -69.5 137t-144.5 76zM960 120q194 0 261.5 2.5t104.5 12.5l51 13l-37 37q-79 80 -114 143t-35 138q0 62 44 139t118.5 134t149.5 57
q81 0 157.5 -52.5t120 -125.5t43.5 -137q0 -82 -34 -144t-118 -153l-32 -34l45 -14q28 -10 69.5 -13t133.5 -3h94v-120h-92q-124 0 -210.5 25t-158.5 78l-17 13l-18 -12q-77 -52 -207 -78t-314 -26h-125q-355 0 -533.5 115t-178.5 339q0 110 41 216l98 -37q-24 -77 -24 -154
q1 -181 152.5 -270t434.5 -89h130z" />
    <glyph glyph-name="uniFED3" unicode="&#x641;" horiz-adv-x="918" arabic-form="initial" 
d="M321 1344l113 113l114 -114l-113 -113zM658 390q-90 -28 -192 -28q-153 0 -224.5 58.5t-72.5 180.5q0 107 35.5 193t104 137t157.5 51q107 0 181.5 -77t108.5 -198.5t34 -274.5q0 -92 -11 -158.5t-38.5 -115.5t-66 -79t-100.5 -48t-134 -24.5t-175 -6.5h-285v120h296
q56 0 101 2.5t89.5 10t78.5 19t63 30t48 43.5t30 59t11 77v41zM681 533q-6 45 -14 85t-25 87.5t-40 81t-60 56.5t-83 23q-80 0 -134.5 -70.5t-54.5 -167.5q0 -78 56 -117t153 -39q86 0 181 28l24 7z" />
    <glyph glyph-name="uniFED4" unicode="&#x641;" horiz-adv-x="972" arabic-form="medial" 
d="M384 1167l113 113l114 -114l-113 -113zM511 681q-64 0 -133 -78t-69 -143q0 -64 72 -157t135 -93q45 0 95 47.5t82 108.5t32 102q0 61 -69.5 137t-144.5 76zM693 136q29 -11 71.5 -13.5t133.5 -2.5h94v-120h-92q-229 0 -369 103l-18 13l-18 -13q-140 -103 -381 -103h-134
v120h134q111 0 156 3t71 15l38 18l-30 30q-79 80 -113.5 142.5t-34.5 137.5q0 62 43.5 139t118 134t149.5 57q62 0 122.5 -31.5t103.5 -78.5t69.5 -102.5t26.5 -102.5q0 -78 -37 -148.5t-114 -147.5l-33 -33z" />
    <glyph glyph-name="uniFED5" unicode="&#x642;" horiz-adv-x="1437" arabic-form="isolated" 
d="M1015 1060l108 108l108 -108l-108 -109zM683 1060l108 108l108 -108l-108 -109zM1193 250q-5 37 -11 70t-17.5 73.5t-28.5 72.5t-39.5 59.5t-54.5 43t-71 15.5q-79 0 -134.5 -71t-55.5 -167q0 -77 55.5 -117t150.5 -40q88 0 184 28l25 7zM305 435q-65 -183 -65 -344
q0 -215 123.5 -326.5t361.5 -111.5q103 0 183.5 19t136.5 54.5t92.5 88t54 117.5t18.5 147l1 40l-39 -11q-49 -14 -98 -21.5t-103 -7.5q-149 0 -219.5 59t-70.5 181q0 153 83 266.5t214 113.5q86 0 151.5 -46t104 -127t57 -181.5t18.5 -218.5q0 -304 -139.5 -445
t-448.5 -141q-304 0 -448.5 134.5t-144.5 411.5q0 191 77 390z" />
    <glyph glyph-name="uniFED6" unicode="&#x642;" horiz-adv-x="1530" arabic-form="final" 
d="M1449.87 0v120h99.9844v-120h-99.9844zM1011 1011l108 108l108 -108l-108 -109zM679 1011l108 108l108 -108l-108 -109zM305 375q-65 -183 -65 -344q0 -216 123.5 -327t364.5 -111q159 0 261 43.5t152.5 124.5t62.5 207l3 33h-33h-151q-174 0 -254 65t-80 201
q0 165 87.5 279.5t216.5 114.5q90 0 154 -53t106 -168t57 -293l2 -27h28h130v-120h-132h-27l-3 -27q-14 -128 -51.5 -218t-107 -153t-175 -92.5t-253.5 -29.5q-304 0 -448.5 134.5t-144.5 411.5q0 191 77 390zM1206 153q-5 71 -15.5 129t-28.5 106t-43.5 80.5t-60.5 50
t-79 17.5q-83 0 -134 -78t-51 -176q0 -80 58.5 -120.5t160.5 -40.5h163h32z" />
    <glyph glyph-name="uniFED7" unicode="&#x642;" horiz-adv-x="918" arabic-form="initial" 
d="M484 1341l108 108l108 -108l-108 -109zM152 1341l108 108l108 -108l-108 -109zM658 390q-90 -28 -192 -28q-153 0 -224.5 58.5t-72.5 180.5q0 107 35.5 193t104 137t157.5 51q107 0 181.5 -77t108.5 -198.5t34 -274.5q0 -92 -11 -158.5t-38.5 -115.5t-66 -79t-100.5 -48
t-134 -24.5t-175 -6.5h-285v120h296q56 0 101 2.5t89.5 10t78.5 19t63 30t48 43.5t30 59t11 77v41zM681 533q-6 45 -14 85t-25 87.5t-40 81t-60 56.5t-83 23q-80 0 -134.5 -70.5t-54.5 -167.5q0 -78 56 -117t153 -39q86 0 181 28l24 7z" />
    <glyph glyph-name="uniFED8" unicode="&#x642;" horiz-adv-x="972" arabic-form="medial" 
d="M559 1159l108 108l108 -108l-108 -109zM227 1159l108 108l108 -108l-108 -109zM511 681q-64 0 -133 -78t-69 -143q0 -64 72 -157t135 -93q45 0 95 47.5t82 108.5t32 102q0 61 -69.5 137t-144.5 76zM693 136q29 -11 71.5 -13.5t133.5 -2.5h94v-120h-92q-229 0 -369 103
l-18 13l-18 -13q-140 -103 -381 -103h-134v120h134q111 0 156 3t71 15l38 18l-30 30q-79 80 -113.5 142.5t-34.5 137.5q0 62 43.5 139t118 134t149.5 57q62 0 122.5 -31.5t103.5 -78.5t69.5 -102.5t26.5 -102.5q0 -78 -37 -148.5t-114 -147.5l-33 -33z" />
    <glyph glyph-name="uniFED9" unicode="&#x643;" horiz-adv-x="1831" arabic-form="isolated" 
d="M723 541q79 -9 116 -9h36.5t34 1t35 3.5t29.5 7t28 11.5t19.5 17t14.5 25t4 33q0 27 -8.5 44t-26 25t-36 11t-47.5 3q-69 0 -111.5 38.5t-42.5 127.5q0 81 50.5 129t153.5 48q43 0 95 -9v-65q-51 6 -90 6q-72 0 -111 -27.5t-39 -72.5q0 -47 27.5 -74t85.5 -27
q61 0 95 -15.5t48.5 -48t14.5 -89.5q0 -97 -56.5 -133.5t-195.5 -36.5q-40 0 -123 13v64zM978 120q141 0 240.5 13t163 36.5t99.5 64t49.5 89t13.5 117.5v866h109v-864q0 -95 -14.5 -160t-55.5 -122t-115 -90t-193 -51.5t-290 -18.5h-145q-355 0 -533.5 115t-178.5 339
q0 108 41 216l98 -37q-24 -77 -24 -154q1 -121 71 -202t199.5 -119t316.5 -38h148z" />
    <glyph glyph-name="uniFEDA" unicode="&#x643;" horiz-adv-x="1891" arabic-form="final" 
d="M723 541q79 -9 116 -9h36.5t34 1t35 3.5t29.5 7t28 11.5t19.5 17t14.5 25t4 33q0 27 -8.5 44t-26 25t-36 11t-47.5 3q-69 0 -111.5 38.5t-42.5 127.5q0 81 50.5 129t153.5 48q43 0 95 -9v-65q-51 6 -90 6q-72 0 -111 -27.5t-39 -72.5q0 -47 27.5 -74t85.5 -27
q61 0 95 -15.5t48.5 -48t14.5 -89.5q0 -97 -56.5 -133.5t-195.5 -36.5q-40 0 -123 13v64zM978 120q141 0 240.5 13t163 36.5t99.5 64t49.5 89t13.5 117.5v866h109v-864q0 -64 4.5 -108.5t18 -87.5t37.5 -69t65 -41.5t98 -15.5h35v-120h-33q-39 0 -71 3t-56.5 10.5t-43 15.5
t-34 24t-25.5 29t-20 36.5t-16 41.5t-16 49q-49 -63 -94.5 -99.5t-115 -63t-163.5 -36.5t-238 -10h-145q-355 0 -533.5 115t-178.5 339q0 108 41 216l98 -37q-24 -77 -24 -154q1 -121 71 -202t199.5 -119t316.5 -38h148z" />
    <glyph glyph-name="uniFEDB" unicode="&#x643;" horiz-adv-x="950" arabic-form="initial" 
d="M196 935q16 -13 54.5 -46t54 -46t48 -40.5t48 -41t41.5 -36t41 -36.5t34 -31.5t33.5 -32t27.5 -28.5q61 -67 89.5 -131.5t28.5 -139.5q0 -167 -122.5 -246.5t-407.5 -79.5h-186v120h185q209 0 312.5 53.5t103.5 169.5q0 56 -28.5 105t-85.5 103q-92 85 -276 230
q-101 78 -101 161q0 107 120 153l649 241v-107l-654 -243l-49 -18z" />
    <glyph glyph-name="uniFEDC" unicode="&#x643;" horiz-adv-x="1027" arabic-form="medial" 
d="M644 165q-55 -83 -165.5 -124t-312.5 -41h-186v120h185q209 0 312.5 53.5t103.5 169.5q0 56 -28.5 105t-85.5 103q-92 85 -276 230q-101 78 -101 161q0 107 120 153l649 241v-107l-654 -243l-49 -18l40 -33q16 -14 54.5 -46.5t54 -45.5t48 -40.5t48 -41t41 -36t41 -36.5
t34.5 -31.5t33.5 -32t27.5 -28.5q80 -86 122 -205q46 -131 125.5 -201t189.5 -71h32v-120h-32q-198 2 -322 167l-26 34z" />
    <glyph glyph-name="uniFEDD" unicode="&#x644;" horiz-adv-x="1377" arabic-form="isolated" 
d="M297 311q-58 -156 -58 -305q0 -202 111.5 -307.5t324.5 -105.5q202 0 307.5 114t105.5 331l3 1268h108l-1 -1229q0 -305 -129.5 -451t-394.5 -146q-278 0 -412 129.5t-134 397.5q0 169 69 345z" />
    <glyph glyph-name="uniFEDE" unicode="&#x644;" horiz-adv-x="1439" arabic-form="final" 
d="M297 311q-58 -156 -58 -305q0 -202 111.5 -307.5t324.5 -105.5q135 0 227.5 51t139.5 150.5t47 243.5l2 1268h108l-1 -943q0 -119 54 -181t176 -62h31v-120h-31q-38 0 -70 6.5t-54 16.5t-42.5 26.5t-33.5 31.5t-29 37l-1 -70q-4 -285 -132.5 -426.5t-391.5 -141.5
q-279 0 -412.5 129t-133.5 396q0 171 69 347z" />
    <glyph glyph-name="uniFEDF" unicode="&#x644;" horiz-adv-x="608" arabic-form="initial" 
d="M-20 0v120h81q140 0 200 64t60 189v933h109v-932q0 -196 -82.5 -285t-287.5 -89h-80z" />
    <glyph glyph-name="uniFEE0" unicode="&#x644;" horiz-adv-x="670" arabic-form="medial" 
d="M343 130q-47 -68 -114.5 -99t-185.5 -31h-63v120h65q274 0 276 239v947h109v-947q0 -239 228 -239h32v-120h-32q-98 0 -157 31t-109 100l-24 34z" />
    <glyph glyph-name="uniFEE1" unicode="&#x645;" horiz-adv-x="1230" arabic-form="isolated" 
d="M542 242q190 -147 301 -147q74 1 113 46t39 124q0 105 -58 178t-156 73q-163 0 -249 -240l-8 -20zM140 -655q-9 164 -9 292q0 79 3 143.5t10.5 127.5t20 112t32.5 93t47 74.5t64 52t83 30.5l16 3l6 15q139 352 367 353q95 0 169 -48.5t113.5 -131.5t39.5 -184
q0 -141 -65.5 -220.5t-193.5 -79.5q-93 0 -229 78q-38 23 -104 58q-49 25 -91 25q-52 0 -87 -32.5t-54 -97t-26.5 -146.5t-7.5 -197q0 -168 12 -320h-116z" />
    <glyph glyph-name="uniFEE2" unicode="&#x645;" horiz-adv-x="1296" arabic-form="final" 
d="M140 -655q-9 164 -9 292q0 79 3 143.5t10.5 127.5t20 112t32.5 93t47 74.5t64 52t83 30.5l16 3l6 15q140 353 367 353q253 0 316 -307q14 -66 38.5 -112.5t62.5 -73.5t88 -28h31v-120h-31q-116 1 -176 91l-27 39l-24 -41q-35 -61 -83 -86.5t-129 -25.5q-104 0 -232 78
q-38 23 -105 58q-49 25 -90 25q-52 0 -87 -32.5t-54 -97t-26.5 -146.5t-7.5 -197q0 -168 12 -320h-116zM541 242q190 -147 301 -147q74 1 113 46t39 124q0 105 -58 178t-156 73q-163 0 -249 -240l-8 -20z" />
    <glyph glyph-name="uniFEE3" unicode="&#x645;" horiz-adv-x="1048" arabic-form="initial" 
d="M365 256q143 -163 276 -163q82 0 127 44.5t45 124.5q0 109 -57 181t-155 72q-160 0 -241 -229l-6 -16zM280 134q-116 -134 -257 -134h-1h-42v120h42q41 1 77.5 17.5t61.5 39.5t50 59.5t39.5 64.5t32.5 68q64 140 141.5 206t172.5 66q143 0 233 -105.5t90 -258.5
q0 -147 -67 -223t-198 -76q-89 0 -167.5 38.5t-163.5 119.5l-23 21z" />
    <glyph glyph-name="uniFEE4" unicode="&#x645;" horiz-adv-x="1112" arabic-form="medial" 
d="M365 256q141 -163 280 -163q81 0 126 43.5t45 121.5q0 108 -59.5 182.5t-159.5 74.5q-155 0 -237 -229l-6 -16zM881 90q-27 -40 -58 -64.5t-72 -36t-98 -11.5q-170 0 -329 157l-23 23l-21 -24q-116 -134 -257 -134h-1h-42v120h42q41 1 78 18t62.5 40t50.5 59.5t39 64.5
t31 67q123 272 314 272q67 0 121.5 -23t93 -65.5t64.5 -97t40 -121.5q20 -99 66 -155.5t118 -58.5h32v-120h-32q-109 2 -169 91l-25 37z" />
    <glyph glyph-name="uniFEE5" unicode="&#x646;" horiz-adv-x="1447" arabic-form="isolated" 
d="M593 682l113 113l114 -114l-113 -113zM1128 491l110 38q81 -217 81 -419q0 -273 -157 -416.5t-441 -143.5q-302 0 -447.5 135t-145.5 411q0 191 77 390l100 -41q-65 -183 -65 -344q0 -215 125 -326.5t363 -111.5q233 0 355.5 122t123.5 355q0 173 -79 351z" />
    <glyph glyph-name="uniFEE6" unicode="&#x646;" horiz-adv-x="1528" arabic-form="final" 
d="M594 609l113 113l114 -114l-113 -113zM1207 70q0 172 -79 351l109 38l63 -197q45 -141 206 -142h42v-120h-42q-37 1 -64 6t-49 17.5t-34.5 22.5t-35.5 31l-10 10l-1 -58q-4 -267 -159.5 -408t-431.5 -141q-302 0 -447.5 134.5t-145.5 411.5q0 191 77 390l100 -41
q-65 -182 -65 -344q0 -216 125 -327t363 -111q234 0 356 121.5t123 355.5z" />
    <glyph glyph-name="uniFEE7" unicode="&#x646;" horiz-adv-x="592" arabic-form="initial" 
d="M158 1040l113 113l114 -114l-113 -113zM425 672q39 -147 39 -286q0 -386 -365 -386h-119v120h119q127 0 190.5 64.5t63.5 198.5q0 119 -31 263z" />
    <glyph glyph-name="uniFEE8" unicode="&#x646;" horiz-adv-x="687" arabic-form="medial" 
d="M213 955l113 113l114 -114l-113 -113zM676 0q-90 1 -146.5 32.5t-91.5 94.5l-22 42l-28 -38q-95 -131 -287 -131h-121v120h121q252 0 252 247q0 45 -7 165l105 12l14 -214q6 -99 60 -153t151 -57h31v-120h-31z" />
    <glyph glyph-name="uniFEE9" unicode="&#x647;" horiz-adv-x="922" arabic-form="isolated" 
d="M427 628q-65 -58 -106.5 -108t-63.5 -100t-22 -101q0 -98 57.5 -148.5t167.5 -50.5q111 0 169 51t58 149q0 72 -54.5 145t-166.5 163l-20 16zM375 860q419 -313 419 -546q0 -136 -88.5 -222t-244.5 -88q-109 0 -183.5 35.5t-112 105t-37.5 169.5q0 192 210 398l23 22
l-24 22l-24 20z" />
    <glyph glyph-name="uniFEEA" unicode="&#x647;" horiz-adv-x="1038" arabic-form="final" 
d="M128 382q0 89 50 164.5t159 141t277 117.5l25 8l-4 26l-3 16l100 21l77 -557q13 -93 69.5 -146t148.5 -53h31v-120h-35q-128 0 -198.5 53.5t-94.5 160.5l-11 48l-38 -32q-113 -98 -250 -98q-138 0 -220.5 63t-82.5 187zM621 701q-188 -69 -283.5 -141.5t-95.5 -165.5
q0 -74 50 -114t133 -40q99 0 182.5 57.5t83.5 154.5q0 33 -4 62l-26 164l-6 36z" />
    <glyph glyph-name="uniFEEB" unicode="&#x647;" horiz-adv-x="1369" arabic-form="initial" 
d="M799 453q0 -162 -127 -275l-25 -21l-24 -22l32 -5l30 -4q87 -11 177 -11q124 0 194 51t70 154q0 25 -11 53t-31.5 55.5t-47.5 55.5t-61 55.5t-70 53.5t-77 51.5t-79.5 48t-78.5 44.5q-61 32 -119 59l46 85q330 -162 487 -300t157 -258q0 -153 -95.5 -233t-266.5 -80
q-89 0 -200.5 20.5t-183.5 44.5l-5 2l-5 2l-5 -2l-5 -2q-86 -32 -195.5 -53.5t-204.5 -21.5h-95v120h83q152 0 289 19q-38 28 -66.5 55.5t-53 63t-37 80.5t-12.5 98q0 133 90 214t222 81q81 0 151 -38q68 -36 110.5 -100.5t42.5 -139.5zM514 182q90 36 140 104t51 147
q0 62 -26 107.5t-71 68.5t-104 23q-92 0 -151.5 -53.5t-59.5 -140.5q0 -82 52.5 -151t146.5 -105l6 -2l5 -2l6 2z" />
    <glyph glyph-name="uniFEEC" unicode="&#x647;" horiz-adv-x="1002" arabic-form="medial" 
d="M610 -534q-155 79 -244.5 204.5t-118.5 304.5l-5 25h-25h-237v120h224h29l1 29q5 108 17.5 193.5t36 161.5t57.5 125.5t85.5 78t117.5 28.5q107 0 169.5 -74.5t62.5 -204.5q0 -83 -34.5 -165.5t-90 -146t-130 -104t-150.5 -42.5l-35 -1l6 -34q39 -222 223 -340l46 -30v55
q0 231 93.5 351t279.5 120h34v-120h-36q-140 0 -211.5 -93.5t-71.5 -266.5q0 -43 3 -80zM368 119q130 4 221.5 102.5t91.5 235.5q0 73 -37 119t-98 46q-54 0 -93 -32t-62.5 -96.5t-36 -146.5t-17.5 -197l-2 -32z" />
    <glyph glyph-name="uniFEED" unicode="&#x648;" horiz-adv-x="880" arabic-form="isolated" 
d="M612 13q-116 -15 -155 -15q-171 0 -250 65.5t-79 202.5q0 165 86 279.5t214 114.5q103 0 178.5 -74.5t110.5 -191t35 -258.5q0 -266 -141.5 -433t-423.5 -227l-38 98q205 44 330 147t166 254l12 43zM646 171q-23 364 -226 364q-85 0 -136 -78t-51 -176q0 -83 60 -126
t165 -43q73 0 167 28l22 7z" />
    <glyph glyph-name="uniFEEE" unicode="&#x648;" horiz-adv-x="938" arabic-form="final" 
d="M874.878 0v120h83.4893v-120h-83.4893zM432 660q141 0 220 -124t97 -388l2 -28h28h117v-120h-129h-25l-4 -25q-37 -194 -174 -321t-377 -178l-38 98q203 44 327.5 144t163.5 244l10 38h-39h-149q-174 0 -254 65t-80 201q0 164 88 279t216 115zM646 152q-25 383 -228 383
q-83 0 -134 -78t-51 -176q0 -80 58.5 -120.5t160.5 -40.5h164h32z" />
    <glyph glyph-name="uniFEEF" unicode="&#x649;" horiz-adv-x="1477" arabic-form="isolated" 
d="M322 428q-83 -211 -83 -376q0 -216 124 -327.5t361 -112.5q91 0 181 19.5t168 57t126 100t48 139.5q0 29 -14 48t-37.5 27t-41 10.5t-36.5 2.5h-144q-110 0 -163 53t-53 164q0 92 35.5 170.5t95.5 131t138.5 82.5t164.5 30q15 0 29 -1t34 -2.5t41 -6t42 -11.5l-21 -109
q-34 8 -64.5 11t-60.5 3q-70 0 -132 -24.5t-103.5 -65t-65.5 -91.5t-24 -104q0 -114 117 -114h180q92 0 138.5 -44.5t46.5 -119.5q0 -220 -169.5 -343.5t-460.5 -123.5q-301 0 -446 135t-145 413q0 188 94 420z" />
    <glyph glyph-name="uniFEF0" unicode="&#x649;" horiz-adv-x="1559" arabic-form="final" 
d="M1434.1 0v120h144.993v-120h-144.993zM286 318q-46 -142 -46 -288q0 -214 122.5 -325.5t356.5 -111.5q122 0 238 31t196.5 94.5t80.5 144.5q0 62 -53.5 99.5t-140.5 37.5h-123q-15 0 -23 8.5t-13 30.5l-16 67q-3 14 9 14h583v-120h-119h-48q46 -71 46 -144
q0 -159 -168.5 -267t-447.5 -108q-302 0 -446.5 135.5t-144.5 414.5q0 75 15.5 166t41.5 162z" />
    <glyph glyph-name="uniFEF1" unicode="&#x64a;" horiz-adv-x="1477" arabic-form="isolated" 
d="M777 -789l108 108l108 -108l-108 -109zM445 -789l108 108l108 -108l-108 -109zM322 428q-83 -211 -83 -376q0 -216 124 -327.5t361 -112.5q91 0 181 19.5t168 57t126 100t48 139.5q0 29 -14 48t-37.5 27t-41 10.5t-36.5 2.5h-144q-110 0 -163 53t-53 164q0 92 35.5 170.5
t95.5 131t138.5 82.5t164.5 30q15 0 29 -1t34 -2.5t41 -6t42 -11.5l-21 -109q-34 8 -64.5 11t-60.5 3q-70 0 -132 -24.5t-103.5 -65t-65.5 -91.5t-24 -104q0 -114 117 -114h180q92 0 138.5 -44.5t46.5 -119.5q0 -220 -169.5 -343.5t-460.5 -123.5q-301 0 -446 135t-145 413
q0 188 94 420z" />
    <glyph glyph-name="uniFEF2" unicode="&#x64a;" horiz-adv-x="1559" arabic-form="final" 
d="M769 -805l108 108l108 -108l-108 -109zM437 -805l108 108l108 -108l-108 -109zM1434.1 0v120h144.993v-120h-144.993zM286 318q-46 -142 -46 -288q0 -214 122.5 -325.5t356.5 -111.5q122 0 238 31t196.5 94.5t80.5 144.5q0 62 -53.5 99.5t-140.5 37.5h-123q-15 0 -23 8.5
t-13 30.5l-16 67q-3 14 9 14h583v-120h-119h-48q46 -71 46 -144q0 -159 -168.5 -267t-447.5 -108q-302 0 -446.5 135.5t-144.5 414.5q0 75 15.5 166t41.5 162z" />
    <glyph glyph-name="uniFEF3" unicode="&#x64a;" horiz-adv-x="672" arabic-form="initial" 
d="M299 -303l108 108l108 -108l-108 -109zM-33 -303l108 108l108 -108l-108 -109zM505 672q39 -147 39 -286q0 -208 -97 -297t-318 -89h-149v120h149q161 0 232.5 55.5t71.5 207.5q0 119 -31 263z" />
    <glyph glyph-name="uniFEF4" unicode="&#x64a;" horiz-adv-x="767" arabic-form="medial" 
d="M299 -303l108 108l108 -108l-108 -109zM-33 -303l108 108l108 -108l-108 -109zM756 0q-93 1 -147.5 32t-89.5 95l-22 42l-28 -39q-46 -63 -132.5 -96.5t-207.5 -33.5h-149v120h151q157 0 229 53t73 184q0 73 -6 175l104 13l14 -216q6 -99 60 -152.5t151 -56.5h31v-120
h-31z" />
    <glyph glyph-name=".notdef" horiz-adv-x="908" 
d="M808 0h-708v1456h708v-1456zM754 84v1287l-274 -643zM154 1359v-1263l268 632zM194 54h515l-258 606zM451 796l258 606h-515z" />
    <glyph glyph-name="uni0000" 
 />
    <glyph glyph-name="uni0000" 
 />
    <glyph glyph-name="uni000D" unicode="&#xd;" horiz-adv-x="498" 
 />
    <glyph glyph-name="uni0002" 
 />
    <glyph glyph-name="space" unicode=" " horiz-adv-x="560" 
 />
    <glyph glyph-name="exclam" unicode="!" horiz-adv-x="632" 
d="M213 104q0 42 30.5 73t72.5 31t72.5 -31t30.5 -73t-30.5 -72.5t-72.5 -30.5q-44 0 -73.5 29.5t-29.5 73.5zM252 1296h132l-13 -864h-105z" />
    <glyph glyph-name="quotedbl" unicode="&#x22;" horiz-adv-x="588" 
d="M243 1396l-20 -313h-80l3 453h97v-140zM479 1396l-20 -313h-81l4 453h97v-140z" />
    <glyph glyph-name="numbersign" unicode="#" horiz-adv-x="1191" 
d="M753 410h-314l-77 -410h-99l77 410h-255v93h272l83 441h-279v96h297l79 416h99l-79 -416h315l79 416h100l-79 -416h229v-96h-247l-83 -441h255v-93h-273l-77 -410h-100zM456 503h315l83 441h-315z" />
    <glyph glyph-name="dollar" unicode="$" horiz-adv-x="1135" 
d="M901 359q0 111 -72 181.5t-254 133.5q-226 71 -317 168.5t-91 252.5q0 163 100 264.5t272 115.5v202h102v-202q176 -16 272.5 -132t96.5 -315h-119q0 157 -81.5 249.5t-222.5 92.5q-142 0 -221.5 -74.5t-79.5 -198.5q0 -120 73 -187.5t248.5 -127t255 -114t119 -129
t39.5 -178.5q0 -164 -102.5 -264.5t-281.5 -114.5v-190h-101v189q-201 13 -311 126.5t-110 310.5h120q0 -156 91 -244.5t254 -88.5q142 0 231.5 76t89.5 198z" />
    <glyph glyph-name="percent" unicode="%" horiz-adv-x="1513" 
d="M109 1176q0 130 80.5 215.5t204.5 85.5t204.5 -85.5t80.5 -221.5v-71q0 -128 -79.5 -213.5t-203.5 -85.5q-123 0 -205 84t-82 222v70zM206 1099q0 -93 51.5 -153t138.5 -60q85 0 135.5 60.5t50.5 156.5v73q0 93 -52 153.5t-136 60.5q-83 0 -135.5 -60t-52.5 -160v-71z
M842 357q0 130 80.5 215t203.5 85t204.5 -84.5t81.5 -222.5v-71q0 -130 -80.5 -215t-203.5 -85t-204.5 84.5t-81.5 220.5v73zM938 279q0 -94 51.5 -154t138.5 -60q86 0 136.5 60.5t50.5 158.5v73q0 96 -51.5 154.5t-137.5 58.5q-84 0 -136 -59t-52 -158v-74zM434 121l-75 48
l711 1138l75 -48z" />
    <glyph glyph-name="ampersand" unicode="&#x26;" horiz-adv-x="1260" 
d="M404 794q-87 105 -126.5 187.5t-39.5 163.5q0 153 91 242t244 89q139 0 225 -80.5t86 -204.5q0 -144 -166 -283l-160 -124l400 -466q91 147 91 333h111q0 -248 -128 -419l199 -232h-144l-126 146q-79 -78 -182.5 -122t-218.5 -44q-208 0 -330 106.5t-122 284.5
q0 106 62.5 200.5t219.5 212.5zM560 81q91 0 176.5 38.5t153.5 109.5l-407 472l-14 15l-46 -35q-196 -160 -196 -310q0 -131 90 -210.5t243 -79.5zM358 1149q0 -122 135 -288l131 100q64 46 105 101t41 129q0 78 -54 130.5t-144 52.5q-98 0 -156 -63t-58 -162z" />
    <glyph glyph-name="quotesingle" unicode="'" horiz-adv-x="348" 
d="M226 1395l-17 -305h-90q5 296 5 446h102v-141z" />
    <glyph glyph-name="parenleft" unicode="(" horiz-adv-x="653" 
d="M140 588q0 218 56 423.5t164 376t232 244.5l29 -81q-66 -47 -131 -137t-116 -214t-82.5 -278.5t-31.5 -350.5q0 -209 47.5 -402t130.5 -340.5t183 -221.5l-29 -77q-127 76 -235 245.5t-162.5 373t-54.5 439.5z" />
    <glyph glyph-name="parenright" unicode=")" horiz-adv-x="667" 
d="M514 573q0 -220 -54.5 -423.5t-161.5 -372.5t-236 -247l-29 77q98 70 181.5 217t131.5 342.5t48 424.5q0 207 -48 399.5t-132.5 344t-180.5 220.5l29 77q126 -77 233 -246t163 -375t56 -438z" />
    <glyph glyph-name="asterisk" unicode="*" horiz-adv-x="869" 
d="M361 1000l-332 108l32 101l332 -123l-4 370h104l-8 -373l324 127l33 -101l-333 -115l223 -294l-85 -63l-214 305l-204 -303l-85 61z" />
    <glyph glyph-name="plus" unicode="+" horiz-adv-x="1156" 
d="M630 740h443v-112h-443v-482h-121v482h-434v112h434v466h121v-466z" />
    <glyph glyph-name="comma" unicode="," horiz-adv-x="392" 
d="M131 -272l-71 52q91 122 94 253v155h117v-125q0 -208 -140 -335z" />
    <glyph glyph-name="hyphen" unicode="-" horiz-adv-x="586" 
d="M528 592h-479v101h479v-101z" />
    <glyph glyph-name="period" unicode="." horiz-adv-x="632" 
d="M213 104q0 42 30.5 73t72.5 31t72.5 -31t30.5 -73t-30.5 -72.5t-72.5 -30.5q-44 0 -73.5 29.5t-29.5 73.5z" />
    <glyph glyph-name="slash" unicode="/" horiz-adv-x="813" 
d="M139 -125h-109l608 1581h108z" />
    <glyph glyph-name="zero" unicode="0" horiz-adv-x="1135" 
d="M1015 607q0 -308 -113 -467.5t-333 -159.5q-216 0 -331 156.5t-118 455.5v261q0 307 114 465t333 158q216 0 330 -152.5t118 -449.5v-267zM895 868q0 250 -81.5 378t-246.5 128q-162 0 -244 -125t-84 -369v-286q0 -249 84.5 -381t245.5 -132q160 0 242.5 129t83.5 378
v280z" />
    <glyph glyph-name="one" unicode="1" horiz-adv-x="1135" 
d="M694 0h-120v1312l-396 -147v112l496 184h20v-1461z" />
    <glyph glyph-name="two" unicode="2" horiz-adv-x="1135" 
d="M1049 0h-912v92l499 566q124 143 172 236t48 181q0 138 -81 218.5t-223 80.5q-147 0 -237.5 -94t-90.5 -244h-119q0 123 55.5 224t158 158.5t233.5 57.5q200 0 312.5 -105t112.5 -286q0 -102 -63.5 -223t-223.5 -302l-406 -459h765v-101z" />
    <glyph glyph-name="three" unicode="3" horiz-adv-x="1135" 
d="M403 793h124q103 0 180 36.5t117.5 100t40.5 146.5q0 140 -79 219t-227 79q-140 0 -229.5 -82.5t-89.5 -217.5h-120q0 113 57 206.5t158 144.5t224 51q198 0 312 -108t114 -296q0 -105 -66.5 -193.5t-182.5 -132.5q136 -38 206 -130.5t70 -220.5q0 -187 -122 -301
t-326 -114q-130 0 -238.5 52t-168 145.5t-59.5 217.5h120q0 -139 97 -226.5t249 -87.5q155 0 241.5 79.5t86.5 230.5q0 146 -93.5 223t-275.5 77h-120v102z" />
    <glyph glyph-name="four" unicode="4" horiz-adv-x="1135" 
d="M872 469h227v-101h-227v-368h-120v368h-685v68l674 1020h131v-987zM214 469h538v832l-53 -92z" />
    <glyph glyph-name="five" unicode="5" horiz-adv-x="1135" 
d="M218 746l71 710h728v-111h-625l-51 -492q117 80 274 80q197 0 314 -128t117 -341q0 -230 -114 -357t-321 -127q-190 0 -308 106t-135 297h115q17 -149 101 -225.5t227 -76.5q156 0 235.5 99t79.5 282q0 160 -89 261t-243 101q-85 0 -148 -21.5t-133 -83.5z" />
    <glyph glyph-name="six" unicode="6" horiz-adv-x="1135" 
d="M843 1467v-105h-14q-261 0 -411 -153.5t-166 -426.5q60 83 153 128.5t208 45.5q192 0 305.5 -132.5t113.5 -346.5q0 -142 -53 -256t-152 -177.5t-226 -63.5q-209 0 -340 151.5t-131 391.5v120q0 391 178 605.5t505 218.5h30zM594 853q-114 0 -212.5 -67.5t-131.5 -171.5
v-102q0 -190 97.5 -310t253.5 -120q140 0 226.5 111t86.5 280q0 172 -86.5 276t-233.5 104z" />
    <glyph glyph-name="seven" unicode="7" horiz-adv-x="1135" 
d="M1034 1387l-622 -1387h-125l618 1354h-828v102h957v-69z" />
    <glyph glyph-name="eight" unicode="8" horiz-adv-x="1135" 
d="M995 1081q0 -113 -66 -202.5t-174 -131.5q126 -43 202 -139t76 -222q0 -187 -127 -296.5t-336 -109.5q-211 0 -337.5 109t-126.5 297q0 124 73 221t200 140q-108 42 -172 131.5t-64 202.5q0 181 116.5 288t308.5 107t309.5 -108t117.5 -287zM913 385q0 136 -97 223.5
t-248 87.5t-247 -86t-96 -225t93 -221.5t252 -82.5q155 0 249 82t94 222zM875 1082q0 125 -86.5 208.5t-220.5 83.5q-136 0 -220.5 -80.5t-84.5 -211.5q0 -128 84.5 -206t221.5 -78q135 0 220.5 78.5t85.5 205.5z" />
    <glyph glyph-name="nine" unicode="9" horiz-adv-x="1135" 
d="M884 674q-64 -94 -159 -145.5t-206 -51.5q-124 0 -219 64t-147 177t-52 247q0 144 55.5 262t155 183.5t229.5 65.5q219 0 341 -153.5t122 -435.5v-108q0 -394 -168 -592t-513 -198h-22l1 104h42q261 4 397 148t143 433zM534 580q120 0 215.5 71.5t135.5 185.5v69
q0 222 -92.5 344.5t-249.5 122.5q-142 0 -233 -114.5t-91 -288.5q0 -167 87.5 -278.5t227.5 -111.5z" />
    <glyph glyph-name="colon" unicode=":" horiz-adv-x="632" 
d="M213 724q0 42 30.5 73t72.5 31t72.5 -31t30.5 -73t-30.5 -72.5t-72.5 -30.5q-44 0 -73.5 29.5t-29.5 73.5zM213 104q0 42 30.5 73t72.5 31t72.5 -31t30.5 -73t-30.5 -72.5t-72.5 -30.5q-44 0 -73.5 29.5t-29.5 73.5z" />
    <glyph glyph-name="semicolon" unicode=";" horiz-adv-x="399" 
d="M186 1027q0 42 30.5 73t72.5 31t72.5 -31t30.5 -73t-30.5 -72.5t-72.5 -30.5q-44 0 -73.5 29.5t-29.5 73.5zM131 -272l-71 52q91 122 94 253v155h117v-125q0 -208 -140 -335z" />
    <glyph glyph-name="less" unicode="&#x3c;" horiz-adv-x="1047" 
d="M208 655l696 -300v-126l-827 379v97l827 378v-126z" />
    <glyph glyph-name="equal" unicode="=" horiz-adv-x="1133" 
d="M983 829h-834v106h834v-106zM983 418h-834v106h834v-106z" />
    <glyph glyph-name="greater" unicode="&#x3e;" horiz-adv-x="1061" 
d="M835 659l-711 303v123l845 -378v-97l-845 -379v124z" />
    <glyph glyph-name="question" unicode="?" horiz-adv-x="930" 
d="M376 404q2 118 32 190t129 169.5t127.5 138t44 89t15.5 110.5q0 125 -66.5 196.5t-185.5 71.5q-120 0 -193.5 -68.5t-75.5 -185.5h-119q2 164 111 262.5t277 98.5q172 0 271.5 -100.5t99.5 -272.5q0 -108 -49 -202.5t-186 -220.5q-113 -95 -113 -276h-119zM360 70
q0 34 21.5 57.5t60.5 23.5q38 0 60.5 -23.5t22.5 -57.5q0 -33 -22.5 -55.5t-60.5 -22.5q-39 0 -60.5 22.5t-21.5 55.5z" />
    <glyph glyph-name="at" unicode="@" horiz-adv-x="1870" 
d="M1754 513q-5 -147 -54 -272.5t-135.5 -193t-200.5 -67.5q-97 0 -158 51t-81 143q-108 -194 -298 -194q-140 0 -209 121t-51 326q15 163 74.5 290.5t155 199t204.5 71.5q77 0 135 -21.5t135 -86.5l-51 -570q-10 -116 29.5 -180t126.5 -64q123 0 199.5 120.5t85.5 326.5
q19 405 -154 609.5t-524 204.5q-211 0 -380.5 -105.5t-267.5 -298.5t-110 -445t66.5 -443.5t237 -294.5t377.5 -103q92 0 181 22t149 57l31 -80q-57 -38 -159 -63.5t-206 -25.5q-250 0 -430 112.5t-269.5 324t-77.5 494.5q12 278 122.5 492.5t302.5 332t437 117.5
q255 0 432 -106.5t262 -311.5t73 -489zM673 286q11 -100 56 -154.5t119 -54.5q185 0 273 255l45 516q-67 49 -158 49q-111 0 -192.5 -88.5t-119.5 -244t-23 -278.5z" />
    <glyph glyph-name="A" unicode="A" horiz-adv-x="1279" 
d="M970 408h-661l-150 -408h-129l551 1456h117l551 -1456h-128zM347 513h584l-292 793z" />
    <glyph glyph-name="B" unicode="B" horiz-adv-x="1255" 
d="M184 0v1456h430q234 0 355 -96.5t121 -284.5q0 -113 -61.5 -196.5t-168.5 -119.5q127 -28 204.5 -125t77.5 -224q0 -193 -124.5 -301.5t-346.5 -108.5h-487zM307 700v-596h369q158 0 250.5 80.5t92.5 223.5q0 135 -88.5 213.5t-244.5 78.5h-379zM307 803h336
q154 3 238.5 72.5t84.5 202.5q0 140 -87.5 206.5t-264.5 66.5h-307v-548z" />
    <glyph glyph-name="C" unicode="C" horiz-adv-x="1330" 
d="M1215 454q-25 -230 -164.5 -352t-371.5 -122q-162 0 -286.5 81t-192.5 229.5t-69 339.5v189q0 194 68 344t195.5 231.5t293.5 81.5q234 0 369.5 -126.5t157.5 -349.5h-124q-46 371 -403 371q-198 0 -315.5 -148t-117.5 -409v-178q0 -252 114.5 -402t309.5 -150
q193 0 291 92.5t121 277.5h124z" />
    <glyph glyph-name="D" unicode="D" horiz-adv-x="1341" 
d="M184 0v1456h407q179 0 321 -81.5t221.5 -233.5t79.5 -346v-134q0 -195 -79 -346t-222.5 -233t-329.5 -82h-398zM307 1351v-1247h276q230 0 369 152.5t139 412.5v128q0 251 -137 402t-361 152h-286z" />
    <glyph glyph-name="E" unicode="E" horiz-adv-x="1165" 
d="M988 698h-681v-594h783v-104h-906v1456h901v-105h-778v-549h681v-104z" />
    <glyph glyph-name="F" unicode="F" horiz-adv-x="1152" 
d="M986 680h-679v-680h-123v1456h902v-105h-779v-566h679v-105z" />
    <glyph glyph-name="G" unicode="G" horiz-adv-x="1400" 
d="M1235 173q-64 -91 -200.5 -142t-305.5 -51q-171 0 -304 82t-206 232t-74 344v184q0 303 153 478.5t411 175.5q225 0 362 -114.5t163 -315.5h-123q-27 160 -130.5 242.5t-270.5 82.5q-204 0 -323 -145t-119 -409v-172q0 -166 56.5 -293.5t162 -197.5t242.5 -70
q159 0 273 50q74 33 110 77v376h-391v104h514v-518z" />
    <glyph glyph-name="H" unicode="H" horiz-adv-x="1449" 
d="M1263 0h-124v698h-832v-698h-123v1456h123v-654h832v654h124v-1456z" />
    <glyph glyph-name="I" unicode="I" horiz-adv-x="545" 
d="M334 0h-123v1456h123v-1456z" />
    <glyph glyph-name="J" unicode="J" horiz-adv-x="1127" 
d="M827 1456h124v-1023q0 -207 -119.5 -330t-320.5 -123q-212 0 -326 111t-114 310h123q0 -158 83 -237.5t234 -79.5q139 0 226.5 92t89.5 250v1030z" />
    <glyph glyph-name="K" unicode="K" horiz-adv-x="1292" 
d="M512 723l-205 -202v-521h-123v1456h123v-785l746 785h155l-610 -648l657 -808h-150z" />
    <glyph glyph-name="L" unicode="L" horiz-adv-x="1079" 
d="M308 104h719v-104h-843v1456h124v-1352z" />
    <glyph glyph-name="M" unicode="M" horiz-adv-x="1772" 
d="M347 1456l537 -1285l539 1285h164v-1456h-123v634l10 650l-542 -1284h-95l-540 1279l10 -641v-638h-123v1456h163z" />
    <glyph glyph-name="N" unicode="N" horiz-adv-x="1454" 
d="M1268 0h-123l-837 1246v-1246h-124v1456h124l838 -1247v1247h122v-1456z" />
    <glyph glyph-name="O" unicode="O" horiz-adv-x="1386" 
d="M1260 649q0 -201 -69.5 -353t-198.5 -234t-298 -82q-255 0 -412 182.5t-157 492.5v150q0 199 70.5 352.5t199.5 236t297 82.5t296.5 -81t198.5 -229t73 -343v-174zM1137 807q0 263 -119 412t-326 149q-203 0 -323.5 -149.5t-120.5 -417.5v-152q0 -259 120 -410.5
t326 -151.5q209 0 326 149.5t117 416.5v154z" />
    <glyph glyph-name="P" unicode="P" horiz-adv-x="1261" 
d="M307 593v-593h-123v1456h496q227 0 358.5 -116t131.5 -319q0 -205 -126.5 -316.5t-366.5 -111.5h-370zM307 697h373q179 0 273 85t94 237q0 151 -93.5 240.5t-265.5 91.5h-381v-654z" />
    <glyph glyph-name="Q" unicode="Q" horiz-adv-x="1386" 
d="M1256 649q0 -208 -73.5 -362.5t-209.5 -233.5l265 -231l-85 -76l-297 257q-82 -23 -167 -23q-166 0 -295.5 82t-200.5 232.5t-72 347.5v163q0 199 70.5 352.5t199.5 236t296 82.5q170 0 299 -82t199.5 -235t70.5 -353v-157zM1133 807q0 263 -119 412t-327 149
q-202 0 -322.5 -149.5t-120.5 -417.5v-152q0 -259 119.5 -410.5t325.5 -151.5q208 0 326 149t118 416v155z" />
    <glyph glyph-name="R" unicode="R" horiz-adv-x="1300" 
d="M728 606h-423v-606h-124v1456h473q233 0 364 -113t131 -316q0 -140 -82 -247t-220 -148l364 -619v-13h-131zM305 711h377q155 0 249 88t94 228q0 154 -98 239t-275 85h-347v-640z" />
    <glyph glyph-name="S" unicode="S" horiz-adv-x="1213" 
d="M1008 358q0 121 -85 191.5t-311 134t-330 138.5q-148 106 -148 278q0 167 137.5 271.5t351.5 104.5q145 0 259.5 -56t177.5 -156t63 -223h-124q0 149 -102 239.5t-274 90.5q-167 0 -266 -74.5t-99 -194.5q0 -111 89 -181t285 -123.5t297 -111t152 -137.5t51 -189
q0 -172 -137.5 -276t-362.5 -104q-154 0 -282.5 55t-195 154t-66.5 227h123q0 -154 115 -243t306 -89q170 0 273 75t103 199z" />
    <glyph glyph-name="T" unicode="T" horiz-adv-x="1223" 
d="M1172 1351h-499v-1351h-123v1351h-498v105h1120v-105z" />
    <glyph glyph-name="U" unicode="U" horiz-adv-x="1346" 
d="M1187 1456v-994q-1 -147 -65 -256t-180.5 -167.5t-267.5 -58.5q-230 0 -368.5 125.5t-143.5 347.5v1003h122v-985q0 -184 105 -285.5t285 -101.5t284.5 102t104.5 284v986h124z" />
    <glyph glyph-name="V" unicode="V" horiz-adv-x="1263" 
d="M623 180l8 -31l9 31l458 1276h135l-542 -1456h-118l-542 1456h134z" />
    <glyph glyph-name="W" unicode="W" horiz-adv-x="1836" 
d="M453 393l45 -226l55 216l316 1073h111l312 -1073l54 -218l48 228l263 1063h126l-373 -1456h-118l-330 1139l-37 144l-36 -144l-338 -1139h-118l-372 1456h126z" />
    <glyph glyph-name="X" unicode="X" horiz-adv-x="1253" 
d="M627 840l410 616h147l-482 -718l497 -738h-148l-424 636l-426 -636h-146l498 738l-483 718h147z" />
    <glyph glyph-name="Y" unicode="Y" horiz-adv-x="1226" 
d="M611 662l445 794h142l-526 -908v-548h-123v548l-525 908h146z" />
    <glyph glyph-name="Z" unicode="Z" horiz-adv-x="1225" 
d="M239 104h899v-104h-1048v93l864 1258h-838v105h990v-88z" />
    <glyph glyph-name="bracketleft" unicode="[" horiz-adv-x="491" 
d="M493 1562h-210v-1772h210v-102h-330v1976h330v-102z" />
    <glyph glyph-name="backslash" unicode="\" horiz-adv-x="807" 
d="M48 1456h117l608 -1581h-117z" />
    <glyph glyph-name="bracketright" unicode="]" horiz-adv-x="491" 
d="M0 1664h331v-1976h-331v102h211v1772h-211v102z" />
    <glyph glyph-name="asciicircum" unicode="^" horiz-adv-x="852" 
d="M421 1298l-228 -569h-116l299 727h90l298 -727h-116z" />
    <glyph glyph-name="underscore" unicode="_" horiz-adv-x="884" 
d="M882 -101h-881v101h881v-101z" />
    <glyph glyph-name="grave" unicode="`" horiz-adv-x="585" 
d="M438 1256h-109l-226 280h144z" />
    <glyph glyph-name="a" unicode="a" horiz-adv-x="1097" 
d="M839 0q-18 51 -23 151q-63 -82 -160.5 -126.5t-206.5 -44.5q-156 0 -252.5 87t-96.5 220q0 158 131.5 250t366.5 92h217v123q0 116 -71.5 182.5t-208.5 66.5q-125 0 -207 -64t-82 -154l-120 1q0 129 120 223.5t295 94.5q181 0 285.5 -90.5t107.5 -252.5v-512
q0 -157 33 -235v-12h-128zM463 86q120 0 214.5 58t137.5 155v238h-214q-179 -2 -280 -65.5t-101 -174.5q0 -91 67.5 -151t175.5 -60z" />
    <glyph glyph-name="b" unicode="b" horiz-adv-x="1135" 
d="M1027 530q0 -253 -112 -401.5t-301 -148.5q-226 0 -342 168l-5 -148h-112v1536h119v-611q114 177 338 177q192 0 303.5 -146.5t111.5 -407.5v-18zM907 551q0 214 -83 330.5t-234 116.5q-115 0 -195 -56.5t-121 -165.5v-488q90 -204 318 -204q148 0 231.5 117t83.5 350z
" />
    <glyph glyph-name="c" unicode="c" horiz-adv-x="1055" 
d="M556 81q125 0 209.5 70.5t91.5 182.5h115q-5 -99 -62 -180.5t-151.5 -127.5t-202.5 -46q-213 0 -337.5 148t-124.5 398v36q0 160 56 283t160.5 190t244.5 67q178 0 293.5 -106t123.5 -279h-115q-8 127 -91.5 205t-210.5 78q-162 0 -251.5 -117t-89.5 -328v-35
q0 -207 89.5 -323t252.5 -116z" />
    <glyph glyph-name="d" unicode="d" horiz-adv-x="1138" 
d="M108 551q0 252 112.5 401.5t305.5 149.5q219 0 334 -173v607h119v-1536h-112l-5 144q-115 -164 -338 -164q-187 0 -301.5 150.5t-114.5 406.5v14zM229 530q0 -207 83 -326.5t234 -119.5q221 0 314 195v508q-93 211 -312 211q-151 0 -235 -118.5t-84 -349.5z" />
    <glyph glyph-name="e" unicode="e" horiz-adv-x="1058" 
d="M575 -20q-138 0 -249.5 68t-173.5 189.5t-62 272.5v43q0 156 60.5 281t168.5 196.5t234 71.5q197 0 312.5 -134.5t115.5 -367.5v-67h-772v-23q0 -184 105.5 -306.5t265.5 -122.5q96 0 169.5 35t133.5 112l75 -57q-132 -191 -383 -191zM553 1000q-135 0 -227.5 -99
t-112.5 -266h649v13q-5 156 -89 254t-220 98z" />
    <glyph glyph-name="f" unicode="f" horiz-adv-x="678" 
d="M242 0v984h-179v98h179v131q0 166 84.5 255t235.5 89q68 0 127 -17l-9 -100q-50 12 -109 12q-99 0 -154 -61.5t-55 -174.5v-134h258v-98h-258v-984h-120z" />
    <glyph glyph-name="g" unicode="g" horiz-adv-x="1136" 
d="M108 551q0 254 112.5 402.5t305.5 148.5q221 0 336 -176l6 156h112v-1060q0 -209 -117 -331t-317 -122q-113 0 -215.5 50.5t-161.5 134.5l67 72q127 -156 302 -156q150 0 234 88.5t87 245.5v136q-115 -160 -335 -160q-188 0 -302 150t-114 405v16zM229 530
q0 -207 83 -326.5t234 -119.5q221 0 313 198v503q-42 104 -121 158.5t-190 54.5q-151 0 -235 -118.5t-84 -349.5z" />
    <glyph glyph-name="h" unicode="h" horiz-adv-x="1124" 
d="M275 899q59 97 151 150t201 53q174 0 259 -98t86 -294v-710h-119v711q-1 145 -61.5 216t-193.5 71q-111 0 -196.5 -69.5t-126.5 -187.5v-741h-119v1536h119v-637z" />
    <glyph glyph-name="i" unicode="i" horiz-adv-x="459" 
d="M290 0h-120v1082h120v-1082zM149 1395q0 34 22 57.5t60 23.5t60.5 -23.5t22.5 -57.5t-22.5 -57t-60.5 -23t-60 23t-22 57z" />
    <glyph glyph-name="j" unicode="j" horiz-adv-x="467" 
d="M285 1082v-1211q0 -150 -72 -229t-212 -79q-54 0 -105 19l2 99q44 -13 90 -13q178 0 178 205v1209h119zM226 1476q39 0 61 -23.5t22 -57.5t-22 -57t-61 -23q-38 0 -59.5 23t-21.5 57t21.5 57.5t59.5 23.5z" />
    <glyph glyph-name="k" unicode="k" horiz-adv-x="1003" 
d="M413 545l-137 -132v-413h-120v1536h120v-983l113 122l414 407h151l-459 -456l499 -626h-143z" />
    <glyph glyph-name="l" unicode="l" horiz-adv-x="459" 
d="M290 0h-120v1536h120v-1536z" />
    <glyph glyph-name="m" unicode="m" horiz-adv-x="1815" 
d="M265 1082l4 -176q60 98 150 147t200 49q256 0 325 -210q58 101 155 155.5t214 54.5q348 0 355 -380v-722h-120v713q-1 145 -62.5 215t-200.5 70q-129 -2 -218 -83.5t-99 -198.5v-716h-120v722q-1 139 -65.5 207.5t-198.5 68.5q-113 0 -194 -64.5t-120 -191.5v-742h-120
v1082h115z" />
    <glyph glyph-name="n" unicode="n" horiz-adv-x="1125" 
d="M270 1082l4 -185q61 100 152 152.5t201 52.5q174 0 259 -98t86 -294v-710h-119v711q-1 145 -61.5 216t-193.5 71q-111 0 -196.5 -69.5t-126.5 -187.5v-741h-119v1082h114z" />
    <glyph glyph-name="o" unicode="o" horiz-adv-x="1147" 
d="M90 557q0 156 60.5 281t171 194.5t250.5 69.5q216 0 350 -151.5t134 -401.5v-25q0 -157 -60.5 -282.5t-170.5 -193.5t-251 -68q-215 0 -349.5 151.5t-134.5 401.5v24zM210 524q0 -194 100.5 -318.5t263.5 -124.5q162 0 262.5 124.5t100.5 328.5v23q0 124 -46 227
t-129 159.5t-190 56.5q-160 0 -261 -125.5t-101 -328.5v-22z" />
    <glyph glyph-name="p" unicode="p" horiz-adv-x="1135" 
d="M1026 530q0 -253 -112 -401.5t-300 -148.5q-222 0 -340 156v-552h-119v1498h111l6 -153q117 173 339 173q194 0 304.5 -147t110.5 -408v-17zM906 551q0 207 -85 327t-237 120q-110 0 -189 -53t-121 -154v-519q43 -93 123 -142t189 -49q151 0 235.5 120.5t84.5 349.5z" />
    <glyph glyph-name="q" unicode="q" horiz-adv-x="1142" 
d="M108 551q0 254 112.5 402.5t307.5 148.5q219 0 333 -167l6 147h112v-1498h-120v550q-118 -154 -333 -154q-190 0 -304 150t-114 405v16zM229 530q0 -210 84.5 -329.5t234.5 -119.5q215 0 311 187v530q-45 97 -124.5 149.5t-184.5 52.5q-151 0 -236 -119.5t-85 -350.5z
" />
    <glyph glyph-name="r" unicode="r" horiz-adv-x="689" 
d="M656 980q-38 7 -81 7q-112 0 -189.5 -62.5t-110.5 -181.5v-743h-119v1082h117l2 -172q95 192 305 192q50 0 79 -13z" />
    <glyph glyph-name="s" unicode="s" horiz-adv-x="1037" 
d="M804 275q0 89 -71.5 143t-215.5 84.5t-223.5 70t-118 96.5t-38.5 138q0 128 107 211.5t274 83.5q181 0 290.5 -89.5t109.5 -233.5h-120q0 95 -79.5 158t-200.5 63q-118 0 -189.5 -52.5t-71.5 -136.5q0 -81 59.5 -125.5t217 -81.5t236 -79t116.5 -101t38 -143
q0 -137 -110.5 -219t-288.5 -82q-189 0 -306.5 91.5t-117.5 231.5h120q7 -105 88.5 -163.5t215.5 -58.5q125 0 202 55t77 139z" />
    <glyph glyph-name="t" unicode="t" horiz-adv-x="658" 
d="M342 1359v-277h224v-98h-224v-721q0 -90 32.5 -134t108.5 -44q30 0 97 10l5 -98q-47 -17 -128 -17q-123 0 -179 71.5t-56 210.5v722h-199v98h199v277h120z" />
    <glyph glyph-name="u" unicode="u" horiz-adv-x="1125" 
d="M852 137q-108 -157 -345 -157q-173 0 -263 100.5t-92 297.5v704h119v-689q0 -309 250 -309q260 0 329 215v783h120v-1082h-116z" />
    <glyph glyph-name="v" unicode="v" horiz-adv-x="985" 
d="M493 165l329 917h123l-404 -1082h-97l-406 1082h123z" />
    <glyph glyph-name="w" unicode="w" horiz-adv-x="1544" 
d="M415 249l18 -93l24 98l260 828h102l257 -821l28 -114l23 105l222 830h124l-315 -1082h-102l-278 858l-13 59l-13 -60l-273 -857h-102l-314 1082h123z" />
    <glyph glyph-name="x" unicode="x" horiz-adv-x="996" 
d="M496 643l292 439h142l-367 -531l383 -551h-141l-308 458l-308 -458h-141l382 551l-367 531h141z" />
    <glyph glyph-name="y" unicode="y" horiz-adv-x="973" 
d="M499 172l316 910h129l-462 -1266l-24 -56q-89 -197 -275 -197q-43 0 -92 14l-1 99l62 -6q88 0 142.5 43.5t92.5 149.5l53 146l-408 1073h131z" />
    <glyph glyph-name="z" unicode="z" horiz-adv-x="996" 
d="M235 101h703v-101h-851v88l656 891h-636v103h787v-89z" />
    <glyph glyph-name="braceleft" unicode="{" horiz-adv-x="676" 
d="M637 -404q-168 50 -253 163t-85 300v221q0 263 -231 263v104q231 0 231 261v229q1 183 85 296t253 164l26 -79q-244 -78 -244 -391v-213q0 -246 -184 -319q184 -77 184 -318v-228q4 -292 247 -373z" />
    <glyph glyph-name="bar" unicode="|" horiz-adv-x="452" 
d="M279 -270h-101v1726h101v-1726z" />
    <glyph glyph-name="braceright" unicode="}" horiz-adv-x="676" 
d="M9 -324q243 81 247 373v224q0 253 193 321q-193 68 -193 319v213q0 316 -244 392l26 79q171 -51 254.5 -165.5t83.5 -300.5v-223q0 -261 231 -261v-104q-231 0 -231 -263v-221q0 -187 -85 -300t-253 -163z" />
    <glyph glyph-name="asciitilde" unicode="~" horiz-adv-x="1402" 
d="M1254 764q0 -149 -83.5 -245t-212.5 -96q-72 0 -134.5 27.5t-153.5 108t-135 101t-94 20.5q-89 0 -138.5 -59t-49.5 -171l-108 -1q0 149 81 243.5t215 94.5q74 0 140.5 -31t158.5 -113q67 -63 115 -88.5t103 -25.5q88 0 140 63t52 172h104z" />
    <glyph glyph-name="uni00A0" unicode="&#xa0;" horiz-adv-x="560" 
 />
    <glyph glyph-name="exclamdown" unicode="&#xa1;" horiz-adv-x="452" 
d="M174 690h111l7 -1049h-124zM305 1022q0 -34 -22 -57t-60 -23t-60.5 23t-22.5 57t22.5 57t60.5 23t60 -23t22 -57z" />
    <glyph glyph-name="cent" unicode="&#xa2;" horiz-adv-x="1115" 
d="M581 81q123 0 207.5 69.5t93.5 183.5h115q-8 -139 -110.5 -237t-250.5 -114v-228h-120v229q-185 23 -291 166t-106 376v36q0 222 105.5 367.5t291.5 168.5v220h120v-219q155 -16 255 -121t106 -261h-115q-8 127 -91.5 205t-210.5 78q-162 0 -251.5 -117t-89.5 -328v-35
q0 -207 89.5 -323t252.5 -116z" />
    <glyph glyph-name="sterling" unicode="&#xa3;" horiz-adv-x="1170" 
d="M404 645l9 -277q2 -174 -64 -264h745v-104h-997v104h98q51 13 77 107q20 74 18 156l-9 278h-188v104h184l-9 290q0 200 110.5 318.5t295.5 118.5q182 0 287.5 -105.5t105.5 -282.5h-123q0 135 -75 209t-204 74q-125 0 -199 -88.5t-74 -243.5l9 -290h344v-104h-341z" />
    <glyph glyph-name="currency" unicode="&#xa4;" horiz-adv-x="1481" 
d="M1131 133q-78 -72 -178 -112.5t-213 -40.5q-226 0 -391 152l-155 -158l-85 86l159 161q-124 168 -124 387q0 227 133 398l-168 171l85 87l167 -170q165 140 379 140t379 -142l170 173l86 -88l-171 -175q130 -170 130 -394q0 -215 -122 -384l163 -164l-86 -87zM257 608
q0 -138 64.5 -258t177.5 -189.5t241 -69.5q129 0 241 70t176 189.5t64 257.5q0 139 -65.5 258.5t-176.5 187.5t-239 68t-240 -68t-177.5 -187.5t-65.5 -258.5z" />
    <glyph glyph-name="yen" unicode="&#xa5;" horiz-adv-x="1056" 
d="M527 731l365 725h138l-399 -751h313v-89h-358v-204h358v-88h-358v-324h-123v324h-354v88h354v204h-354v89h313l-398 751h139z" />
    <glyph glyph-name="brokenbar" unicode="&#xa6;" horiz-adv-x="444" 
d="M159 -270v771h120v-771h-120zM279 698h-120v758h120v-758z" />
    <glyph glyph-name="section" unicode="&#xa7;" horiz-adv-x="1239" 
d="M1119 431q0 -100 -61.5 -169.5t-170.5 -102.5q91 -48 139.5 -118t48.5 -180q0 -164 -126 -260t-343 -96q-109 0 -205.5 28t-164.5 85q-134 114 -134 318l120 2q0 -156 103.5 -243.5t280.5 -87.5q160 0 254 69.5t94 182.5q0 77 -34.5 124t-114.5 86t-257 87t-264 99.5
t-131.5 123t-44.5 172.5q0 100 58.5 170.5t164.5 103.5q-86 47 -132 117t-46 178q0 161 129 258.5t342 97.5q224 0 348.5 -113t124.5 -318h-120q0 146 -96 237.5t-257 91.5q-165 0 -258 -68.5t-93 -183.5q0 -79 31 -126t107 -85t235 -83q196 -51 290.5 -102.5t138.5 -122.5
t44 -172zM454 771q-108 -13 -167 -71t-59 -147q0 -83 35.5 -131t116 -86t283.5 -94l92 -28q112 13 178 70.5t66 143.5q0 98 -67 157t-240 115z" />
    <glyph glyph-name="dieresis" unicode="&#xa8;" horiz-adv-x="881" 
d="M137 1396q0 34 22 57.5t60 23.5t60.5 -23.5t22.5 -57.5q0 -33 -22.5 -56t-60.5 -23t-60 23t-22 56zM575 1395q0 34 22 57.5t60 23.5t60.5 -23.5t22.5 -57.5q0 -33 -22.5 -56t-60.5 -23t-60 23t-22 56z" />
    <glyph glyph-name="copyright" unicode="&#xa9;" horiz-adv-x="1637" 
d="M1121 607q0 -152 -82 -233t-232 -81t-241.5 106t-91.5 287v90q0 174 92 280.5t241 106.5t232 -80.5t83 -232.5h-99q0 224 -216 224q-106 0 -170 -81t-64 -222v-91q0 -134 63 -215.5t171 -81.5q106 0 160.5 53t54.5 171h99zM192 729q0 -176 81.5 -330t228.5 -244t315 -90
q167 0 312 89t228.5 242.5t83.5 332.5q0 178 -83 330.5t-228.5 241t-312.5 88.5q-171 0 -318 -91t-227 -243t-80 -326zM107 729q0 202 93.5 375t259 272.5t357.5 99.5t357 -99.5t258.5 -272.5t93.5 -375q0 -197 -90 -369t-255.5 -276.5t-363.5 -104.5q-197 0 -362.5 103.5
t-256.5 275.5t-91 371z" />
    <glyph glyph-name="ordfeminine" unicode="&#xaa;" horiz-adv-x="906" 
d="M649 705q-15 43 -21 94q-87 -108 -222 -108q-117 0 -183 58.5t-66 158.5q0 110 83.5 171t245.5 61h139v61q0 85 -40 132t-121 47q-90 0 -141.5 -35.5t-51.5 -107.5l-107 6q0 102 83 167.5t217 65.5q124 0 197 -71.5t73 -205.5v-315q0 -92 26 -179h-111zM426 786
q53 0 110.5 30t88.5 74v168h-129q-230 0 -230 -146q0 -126 160 -126z" />
    <glyph glyph-name="guillemotleft" unicode="&#xab;" horiz-adv-x="946" 
d="M518 425q0 33 9.5 75t31 97.5t65 124.5t102.5 138l50 -45q-161 -215 -161 -389q0 -175 161 -391l-50 -45q-60 70 -103 138.5t-64.5 124.5t-31 97.5t-9.5 74.5zM140 425q0 33 9.5 75t31 97.5t65 124.5t102.5 138l50 -45q-161 -215 -161 -389q0 -175 161 -391l-50 -45
q-60 70 -103 138.5t-64.5 124.5t-31 97.5t-9.5 74.5z" />
    <glyph glyph-name="logicalnot" unicode="&#xac;" horiz-adv-x="1117" 
d="M936 386h-120v284h-692v106h812v-390z" />
    <glyph glyph-name="uni00AD" unicode="&#xad;" horiz-adv-x="586" 
d="M528 592h-479v101h479v-101z" />
    <glyph glyph-name="registered" unicode="&#xae;" horiz-adv-x="1642" 
d="M102 729q0 202 93.5 375t259 272.5t357.5 99.5t357.5 -99.5t259 -272.5t93.5 -375q0 -199 -91 -371t-256.5 -275.5t-362.5 -103.5t-362.5 103.5t-256.5 275.5t-91 371zM187 729q0 -179 83.5 -333t229 -242.5t312.5 -88.5t313 88.5t228.5 243t82.5 332.5q0 176 -81 328
t-226.5 242t-316.5 90q-168 0 -313.5 -88.5t-228.5 -241t-83 -330.5zM650 666v-345h-98v839h258q147 0 226 -61.5t79 -186.5q0 -133 -141 -197q72 -26 100 -80.5t28 -130.5t4 -110t13 -57v-16h-102q-14 36 -14 182q0 89 -37.5 126t-127.5 37h-188zM650 757h181
q81 0 133.5 42t52.5 111q0 85 -43.5 121.5t-149.5 38.5h-174v-313z" />
    <glyph glyph-name="macron" unicode="&#xaf;" horiz-adv-x="874" 
d="M756 1343h-619v97h619v-97z" />
    <glyph glyph-name="degree" unicode="&#xb0;" horiz-adv-x="774" 
d="M630 1226q0 -104 -71 -175t-171 -71q-101 0 -173 71.5t-72 174.5t73 176.5t172 73.5t170.5 -73.5t71.5 -176.5zM233 1226q0 -67 44.5 -111t110.5 -44t109 44t43 111q0 69 -43 114t-109 45q-65 0 -110 -45t-45 -114z" />
    <glyph glyph-name="plusminus" unicode="&#xb1;" horiz-adv-x="1085" 
d="M609 829h391v-102h-391v-438h-111v438h-414v102h414v438h111v-438zM963 0h-835v101h835v-101z" />
    <glyph glyph-name="acute" unicode="&#xb4;" horiz-adv-x="576" 
d="M315 1536h145l-231 -280h-105z" />
    <glyph glyph-name="mu" unicode="&#xb5;" horiz-adv-x="1140" 
d="M281 1082v-636q0 -180 63 -272.5t200 -92.5q132 0 209 57.5t106 173.5v770h120v-1082h-109l-7 154q-98 -174 -311 -174q-184 0 -271 125v-521h-119v1498h119z" />
    <glyph glyph-name="paragraph" unicode="&#xb6;" horiz-adv-x="973" 
d="M681 0v520h-108q-150 0 -261 58t-170 164.5t-59 245.5q0 213 133 340.5t361 127.5h224v-1456h-120z" />
    <glyph glyph-name="periodcentered" unicode="&#xb7;" horiz-adv-x="503" 
d="M163 717q0 35 22 59t62 24t63 -24t23 -59t-23 -58.5t-63 -23.5t-62 23.5t-22 58.5z" />
    <glyph glyph-name="cedilla" unicode="&#xb8;" horiz-adv-x="498" 
d="M246 0l-12 -64q165 -21 165 -171q0 -92 -79 -146t-215 -54l-7 78q89 0 145.5 32.5t56.5 87.5q0 58 -43.5 80t-132.5 30l29 127h93z" />
    <glyph glyph-name="ordmasculine" unicode="&#xba;" horiz-adv-x="922" 
d="M135 1132q0 153 88.5 248.5t234.5 95.5q147 0 235.5 -95.5t88.5 -253.5v-94q0 -153 -88 -248t-234 -95q-147 0 -236 94.5t-89 253.5v94zM243 1033q0 -114 56.5 -181t160.5 -67q99 0 156.5 66t57.5 186v95q0 115 -58 181.5t-158 66.5t-157.5 -68t-57.5 -185v-94z" />
    <glyph glyph-name="guillemotright" unicode="&#xbb;" horiz-adv-x="946" 
d="M428 425q0 -33 -9.5 -75t-31.5 -97.5t-65 -124.5t-102 -138l-50 45q161 216 161 391q0 174 -161 389l50 45q60 -70 103.5 -138.5t64.5 -124.5t30.5 -97.5t9.5 -74.5zM806 425q0 -33 -9.5 -75t-31.5 -97.5t-65 -124.5t-102 -138l-50 45q161 216 161 391q0 174 -161 389
l50 45q60 -70 103.5 -138.5t64.5 -124.5t30.5 -97.5t9.5 -74.5z" />
    <glyph glyph-name="questiondown" unicode="&#xbf;" horiz-adv-x="940" 
d="M551 687q-2 -123 -27 -182t-119 -153t-117 -124q-81 -105 -81 -236q0 -129 67 -199t195 -70q119 0 190 70t73 187h120q-2 -166 -107 -264.5t-276 -98.5q-178 0 -279.5 100t-101.5 273q0 111 53 212t196 236q85 71 92 180l2 69h120zM567 1022q0 -34 -22 -57.5t-60 -23.5
t-60.5 23.5t-22.5 57.5q0 33 22.5 56t60.5 23t60 -23t22 -56z" />
    <glyph glyph-name="multiply" unicode="&#xd7;" horiz-adv-x="1072" 
d="M93 179l358 365l-343 350l79 80l342 -350l343 350l79 -80l-343 -350l358 -365l-79 -79l-358 364l-357 -364z" />
    <glyph glyph-name="divide" unicode="&#xf7;" horiz-adv-x="1164" 
d="M1070 644h-998v116h998v-116zM495 1088q0 35 22 59t62 24t63 -24t23 -59t-23 -58.5t-63 -23.5t-62 23.5t-22 58.5zM495 291q0 35 22 59t62 24t63 -24t23 -59t-23 -58t-63 -23t-62 23t-22 58z" />
    <glyph glyph-name="uni02BC" unicode="&#x2bc;" horiz-adv-x="364" 
d="M133 1099l-71 52q90 121 93 254v131h118v-101q0 -209 -140 -336z" />
    <glyph glyph-name="circumflex" unicode="&#x2c6;" horiz-adv-x="880" 
d="M715 1268v-10h-111l-168 183l-167 -183h-109v13l238 255h76z" />
    <glyph glyph-name="caron" unicode="&#x2c7;" horiz-adv-x="836" 
d="M422 1326l172 194h107v-12l-236 -261h-86l-236 262v11h107z" />
    <glyph glyph-name="uni02C9" unicode="&#x2c9;" horiz-adv-x="875" 
d="M756 1343h-619v97h619v-97z" />
    <glyph glyph-name="breve" unicode="&#x2d8;" horiz-adv-x="865" 
d="M716 1490q0 -115 -78.5 -186t-210.5 -71q-130 0 -209.5 70.5t-79.5 186.5h102q0 -83 49.5 -127t137.5 -44t137.5 46t49.5 125h102z" />
    <glyph glyph-name="dotaccent" unicode="&#x2d9;" horiz-adv-x="459" 
d="M148 1382q0 34 22 57.5t60 23.5q39 0 61 -23.5t22 -57.5q0 -33 -22 -56t-61 -23q-38 0 -60 23t-22 56z" />
    <glyph glyph-name="ring" unicode="&#x2da;" horiz-adv-x="635" 
d="M117 1395q0 80 56.5 135t136.5 55q79 0 136 -55t57 -135q0 -79 -55 -133t-138 -54t-138 54t-55 133zM194 1395q0 -50 33 -83t83 -33q49 0 83 32.5t34 83.5q0 53 -35 86t-82 33q-49 0 -82.5 -34t-33.5 -85z" />
    <glyph glyph-name="ogonek" unicode="&#x2db;" horiz-adv-x="512" 
d="M347 0q-105 -80 -142 -132.5t-37 -101.5q0 -84 85 -84q54 0 105 33l15 -84q-65 -44 -143 -44q-80 0 -125 44.5t-45 124.5q0 74 62 148.5t166 132.5z" />
    <glyph glyph-name="tilde" unicode="&#x2dc;" horiz-adv-x="891" 
d="M779 1485q0 -96 -56.5 -154.5t-138.5 -58.5q-76 0 -148.5 55t-129.5 55q-47 0 -78.5 -31t-31.5 -87l-90 3q0 92 54.5 152t140.5 60q48 0 82 -17t64 -38t60.5 -38t71.5 -17q46 0 78.5 33t32.5 89z" />
    <glyph glyph-name="hungarumlaut" unicode="&#x2dd;" horiz-adv-x="773" 
d="M633 1535h144l-279 -303h-121zM323 1535h137l-231 -303h-109z" />
    <glyph glyph-name="uni02F3" unicode="&#x2f3;" horiz-adv-x="622" 
d="M157 -230q0 61 45 102t109 41q63 0 107 -41.5t44 -101.5q0 -59 -44 -99t-107 -40t-108.5 39.5t-45.5 99.5zM230 -230q0 -31 23.5 -51t57.5 -20t57 20t23 51q0 32 -23 53t-57 21t-57.5 -21t-23.5 -53z" />
    <glyph glyph-name="gravecomb" unicode="&#x300;" 
d="M-465 1256h-109l-226 280h145z" />
    <glyph glyph-name="acutecomb" unicode="&#x301;" 
d="M-424 1536h145l-232 -280h-104z" />
    <glyph glyph-name="tildecomb" unicode="&#x303;" 
d="M-181 1485q0 -96 -56.5 -154.5t-138.5 -58.5q-76 0 -148.5 55t-129.5 55q-47 0 -78.5 -31t-31.5 -87l-90 3q0 92 54.5 152t140.5 60q48 0 82 -17t64 -38t60.5 -38t71.5 -17q46 0 78.5 33t32.5 89z" />
    <glyph glyph-name="hookabovecomb" unicode="&#x309;" 
d="M-625 1234v125q87 7 127 26.5t40 67.5q0 45 -54.5 70t-146.5 25l7 77q137 0 215.5 -47t78.5 -126q0 -66 -45.5 -107.5t-130.5 -48.5l-1 -62h-90z" />
    <glyph glyph-name="uni030F" unicode="&#x30f;" 
d="M-554 1252h-121l-302 266h153zM-311 1252h-109l-250 266h141z" />
    <glyph glyph-name="dotbelowcomb" unicode="&#x323;" 
d="M-672 -231q0 34 22 57.5t60 23.5q39 0 61 -23.5t22 -57.5q0 -33 -22 -56t-61 -23q-38 0 -60 23t-22 56z" />
    <glyph glyph-name="uni060C" unicode="&#x60c;" horiz-adv-x="669" 
d="M457 541q-47 -45 -77 -86t-49.5 -94.5t-19.5 -113.5v-30h30q63 0 84 -22.5t21 -81.5q0 -112 -105 -112q-69 0 -98.5 35t-29.5 109q0 241 216 419z" />
    <glyph glyph-name="uni060D" unicode="&#x60d;" horiz-adv-x="828" 
d="M630 1390l86 -26l-537 -1568l-86 26z" />
    <glyph glyph-name="uni0610" unicode="&#x610;" 
d="M458 1357q286 0 286 128q0 45 -30.5 76t-78.5 31q-119 0 -260 -220l-10 -15h18h75zM150 1196q9 18 15 38.5t9 43.5t3 48q0 30 -5 61t-14 60.5t-23 59.5l66 22l26 -82q23 -71 61 -75l7 -1l3 5q169 287 334 287q39 0 73 -13.5t57.5 -36.5t37.5 -55t14 -69
q-1 -203 -354 -203h-26q-121 0 -179 28l-14 7l-1 -16q-1 -84 -32 -145z" />
    <glyph glyph-name="uni0611" unicode="&#x611;" 
d="M244 1275q-2 -61 -35 -124l-59 35q14 27 20.5 59.5t6.5 71.5q0 89 -41 180l65 23l26 -83q23 -71 61 -75h1h95h21l-13 16q-18 23 -28.5 39.5t-18.5 42.5t-8 56q0 35 9.5 68t28 60t44 47t59 31.5t72.5 11.5q21 0 41 -3t37.5 -8t34 -13t31.5 -18.5t29 -24.5l-28 -61
q-64 49 -128 49q-44 0 -80.5 -18.5t-57 -51.5t-20.5 -73q0 -11 3 -24.5t11.5 -32.5t27.5 -37t46 -30q14 -7 26 -4l219 55v-77q-249 -77 -451 -77h-37h-10v-10z" />
    <glyph glyph-name="uni0612" unicode="&#x612;" 
d="M452 1008q-166 2 -260.5 71.5t-94.5 205.5q0 86 43.5 159.5t133.5 129.5t218 85l31 7l-30 12q-19 8 -49 20q-7 3 -19 8q-104 42 -132 42q-32 0 -63.5 -19t-53.5 -48l-10 -12l-66 32l3 5q34 56 83.5 87.5t107.5 31.5q55 0 161 -52q154 -75 238 -82l-5 -74
q-146 -13 -263 -56t-187.5 -113t-70.5 -154q0 -104 74.5 -157.5t216.5 -55.5zM872 1594q40 -106 40 -202q0 -285 -329 -351l-25 65q282 59 283 283q0 83 -39 180z" />
    <glyph glyph-name="uni0615" unicode="&#x615;" 
d="M401 1355q283 0 283 126q0 45 -30.5 75.5t-77.5 30.5q-118 0 -258 -217l-10 -16l19 1h74zM245 1359q4 8 36 58l1 2v3v465h65v-345v-28l18 22q99 122 207 122q53 0 94.5 -22.5t64 -61.5t22.5 -89q-2 -201 -351 -201h-267v70h101h6z" />
    <glyph glyph-name="uni061B" unicode="&#x61b;" horiz-adv-x="669" 
d="M241 104q0 42 30.5 73t72.5 31t72.5 -31t30.5 -73t-30.5 -72.5t-72.5 -30.5q-44 0 -73.5 29.5t-29.5 73.5zM457 973q-72 -69 -109 -137.5t-37 -156.5v-30h30q63 0 84 -22.5t21 -81.5q0 -112 -105 -112q-69 0 -98.5 35t-29.5 109q0 241 216 419z" />
    <glyph glyph-name="uni061F" unicode="&#x61f;" horiz-adv-x="924" 
d="M422 104q0 42 30.5 73t72.5 31t72.5 -31t30.5 -73t-30.5 -72.5t-72.5 -30.5q-44 0 -73.5 29.5t-29.5 73.5zM129 981q0 143 99.5 234t240.5 91q113 0 183.5 -36.5t104.5 -109.5t38 -189h-96q-7 102 -60.5 158.5t-158.5 56.5q-102 0 -166 -57t-64 -157q0 -43 17.5 -79.5
t45.5 -65t62.5 -56t70 -60t65 -69.5t50.5 -91t26 -119h-125q-5 63 -25.5 113.5t-50.5 84t-64.5 62.5t-68.5 56.5t-62 58t-45 75t-17 99.5z" />
    <glyph glyph-name="uni0621" unicode="&#x621;" horiz-adv-x="830" 
d="M461 204q40 9 116 26t104 24l17 -108q-233 -37 -570 -216v107q91 61 176 93l64 24l-60 31q-83 42 -121.5 95t-38.5 124q0 140 82 222t213 82q112 0 189 -67l-33 -81q-72 41 -143 41q-91 0 -148.5 -53t-57.5 -143q0 -112 192 -199l9 -5z" />
    <glyph glyph-name="uni0627" unicode="&#x627;" horiz-adv-x="465" 
d="M178 1306h109v-1305h-109v1305z" />
    <glyph glyph-name="uni0628" unicode="&#x628;" horiz-adv-x="1777" 
d="M813 -303l113 113l114 -114l-113 -113zM975 0h-135q-355 0 -533.5 115t-178.5 339q0 108 41 216l98 -37q-24 -77 -24 -154q1 -121 71 -202t199.5 -119t316.5 -38h138q215 0 307 17q204 37 248 183q13 44 13 98q0 28 -3.5 64.5t-10.5 77t-16 86.5l104 26q39 -130 39 -239
q0 -80 -16.5 -143t-44.5 -108t-75 -77.5t-99 -53t-125.5 -32t-146 -15.5t-167.5 -4z" />
    <glyph glyph-name="uni0629" unicode="&#x629;" horiz-adv-x="922" 
d="M427 628q-65 -58 -106.5 -108t-63.5 -100t-22 -101q0 -98 57.5 -148.5t167.5 -50.5q111 0 169 51t58 149q0 72 -54.5 145t-166.5 163l-20 16zM375 860q419 -313 419 -546q0 -136 -88.5 -222t-244.5 -88q-109 0 -183.5 35.5t-112 105t-37.5 169.5q0 192 210 398l23 22
l-24 22l-24 20zM492 1228l108 108l108 -108l-108 -109zM160 1228l108 108l108 -108l-108 -109z" />
    <glyph glyph-name="uni062A" unicode="&#x62a;" horiz-adv-x="1777" 
d="M975 0h-135q-355 0 -533.5 115t-178.5 339q0 108 41 216l98 -37q-24 -77 -24 -154q1 -121 71 -202t199.5 -119t316.5 -38h138q215 0 307 17q204 37 248 183q13 44 13 98q0 28 -3.5 64.5t-10.5 77t-16 86.5l104 26q39 -130 39 -239q0 -80 -16.5 -143t-44.5 -108t-75 -77.5
t-99 -53t-125.5 -32t-146 -15.5t-167.5 -4zM953 860l108 108l108 -108l-108 -109zM621 860l108 108l108 -108l-108 -109z" />
    <glyph glyph-name="uni062B" unicode="&#x62b;" horiz-adv-x="1777" 
d="M975 0h-135q-355 0 -533.5 115t-178.5 339q0 108 41 216l98 -37q-24 -77 -24 -154q1 -121 71 -202t199.5 -119t316.5 -38h138q215 0 307 17q204 37 248 183q13 44 13 98q0 28 -3.5 64.5t-10.5 77t-16 86.5l104 26q39 -130 39 -239q0 -80 -16.5 -143t-44.5 -108t-75 -77.5
t-99 -53t-125.5 -32t-146 -15.5t-167.5 -4zM794 1047l100 100l100 -100l-100 -100zM966 785l100 100l100 -100l-100 -100zM626 785l100 100l100 -100l-100 -100z" />
    <glyph glyph-name="uni062C" unicode="&#x62c;" horiz-adv-x="1347" 
d="M847 548q-35 14 -91 37l-42.5 17t-40.5 16t-35.5 14t-34 13t-29.5 10.5t-29 9t-24 6t-23.5 4.5t-20.5 1q-43 0 -86 -17.5t-77 -45t-62 -63.5l-12 -15l-100 50q61 98 148.5 153.5t189.5 55.5q97 0 290 -93q145 -71 245 -106.5t183 -44.5l-9 -114q-197 -19 -369.5 -69.5
t-302.5 -126.5t-205 -181t-75 -224q0 -200 144.5 -300.5t418.5 -100.5q201 0 393 82l23 -110q-188 -83 -430 -83q-308 0 -481.5 124.5t-173.5 371.5q0 115 45.5 218.5t133 191t224 155.5t311.5 107l94 21zM690 -78l113 113l114 -114l-113 -113z" />
    <glyph glyph-name="uni062D" unicode="&#x62d;" horiz-adv-x="1347" 
d="M847 548q-35 14 -91 37l-42.5 17t-40.5 16t-35.5 14t-34 13t-29.5 10.5t-29 9t-24 6t-23.5 4.5t-20.5 1q-43 0 -86 -17.5t-77 -45t-62 -63.5l-12 -15l-100 50q61 98 148.5 153.5t189.5 55.5q97 0 290 -93q145 -71 245 -106.5t183 -44.5l-9 -114q-197 -19 -369.5 -69.5
t-302.5 -126.5t-205 -181t-75 -224q0 -200 144.5 -300.5t418.5 -100.5q201 0 393 82l23 -110q-188 -83 -430 -83q-308 0 -481.5 124.5t-173.5 371.5q0 115 45.5 218.5t133 191t224 155.5t311.5 107l94 21z" />
    <glyph glyph-name="uni062E" unicode="&#x62e;" horiz-adv-x="1347" 
d="M452 1184l113 113l114 -114l-113 -113zM847 548q-35 14 -91 37l-42.5 17t-40.5 16t-35.5 14t-34 13t-29.5 10.5t-29 9t-24 6t-23.5 4.5t-20.5 1q-43 0 -86 -17.5t-77 -45t-62 -63.5l-12 -15l-100 50q61 98 148.5 153.5t189.5 55.5q97 0 290 -93q145 -71 245 -106.5
t183 -44.5l-9 -114q-197 -19 -369.5 -69.5t-302.5 -126.5t-205 -181t-75 -224q0 -200 144.5 -300.5t418.5 -100.5q201 0 393 82l23 -110q-188 -83 -430 -83q-308 0 -481.5 124.5t-173.5 371.5q0 115 45.5 218.5t133 191t224 155.5t311.5 107l94 21z" />
    <glyph glyph-name="uni062F" unicode="&#x62f;" horiz-adv-x="963" 
d="M128 141q108 -20 189 -20q402 0 402 213q0 105 -102 218.5t-300 241.5l65 98q453 -278 453 -555q0 -167 -122.5 -251t-382.5 -84q-104 0 -202 19v120z" />
    <glyph glyph-name="uni0630" unicode="&#x630;" horiz-adv-x="963" 
d="M234 1280l113 113l114 -114l-113 -113zM128 141q108 -20 189 -20q402 0 402 213q0 105 -102 218.5t-300 241.5l65 98q453 -278 453 -555q0 -167 -122.5 -251t-382.5 -84q-104 0 -202 19v120z" />
    <glyph glyph-name="uni0631" unicode="&#x631;" horiz-adv-x="780" 
d="M583 459q69 -186 69 -354q0 -255 -144 -411.5t-439 -217.5l-38 98q252 54 382 186.5t132 339.5q0 148 -67 321z" />
    <glyph glyph-name="uni0632" unicode="&#x632;" horiz-adv-x="780" 
d="M346 892l113 113l114 -114l-113 -113zM583 459q69 -186 69 -354q0 -255 -144 -411.5t-439 -217.5l-38 98q252 54 382 186.5t132 339.5q0 148 -67 321z" />
    <glyph glyph-name="uni0633" unicode="&#x633;" horiz-adv-x="2456" 
d="M1531 0q-104 0 -170 52l-48 37l-1 -61q-4 -272 -158 -409q-156 -139 -433 -139q-302 0 -447.5 134.5t-145.5 411.5q0 191 77 390l100 -41q-65 -182 -65 -344q0 -216 124.5 -327t363.5 -111q235 0 356.5 121.5t122.5 355.5q0 173 -79 351l109 38l49 -154q59 -184 247 -185
q109 0 162 63t53 176q0 38 -8 152l105 12l14 -194q6 -90 53 -149.5t135 -59.5q84 0 126.5 67.5t42.5 184.5q0 98 -37 243l111 29q38 -132 38 -257q0 -179 -67.5 -282.5t-212.5 -104.5q-154 0 -215 124l-22 45l-29 -40q-94 -129 -251 -129z" />
    <glyph glyph-name="uni0634" unicode="&#x634;" horiz-adv-x="2456" 
d="M1644 1184l100 100l100 -100l-100 -100zM1816 922l100 100l100 -100l-100 -100zM1476 922l100 100l100 -100l-100 -100zM1531 0q-104 0 -170 52l-48 37l-1 -61q-4 -272 -158 -409q-156 -139 -433 -139q-302 0 -447.5 134.5t-145.5 411.5q0 191 77 390l100 -41
q-65 -182 -65 -344q0 -216 124.5 -327t363.5 -111q235 0 356.5 121.5t122.5 355.5q0 173 -79 351l109 38l49 -154q59 -184 247 -185q109 0 162 63t53 176q0 38 -8 152l105 12l14 -194q6 -90 53 -149.5t135 -59.5q84 0 126.5 67.5t42.5 184.5q0 98 -37 243l111 29
q38 -132 38 -257q0 -179 -67.5 -282.5t-212.5 -104.5q-154 0 -215 124l-22 45l-29 -40q-94 -129 -251 -129z" />
    <glyph glyph-name="uni0635" unicode="&#x635;" horiz-adv-x="2575" 
d="M1753 121q137 0 241 14.5t180 45.5t115.5 81.5t39.5 120.5q0 95 -63.5 158.5t-161.5 63.5q-85 0 -173.5 -52.5t-174 -148.5t-176.5 -238l-30 -46h55zM1207 70q0 173 -79 351l109 38l49 -154q15 -46 32 -77.5t42 -53t56 -25.5l19 -2l10 17q331 563 653 563
q152 0 250.5 -96t98.5 -239q-1 -194 -169 -293t-521 -99h-51q-122 0 -209.5 14t-141.5 40l-42 20l-1 -47q-4 -271 -158.5 -409t-432.5 -138q-302 0 -447.5 134.5t-145.5 411.5q0 191 77 390l100 -41q-65 -183 -65 -344q0 -216 125 -327t363 -111q234 0 356 121.5t123 355.5z
" />
    <glyph glyph-name="uni0636" unicode="&#x636;" horiz-adv-x="2575" 
d="M1945 1144l113 113l114 -114l-113 -113zM1753 121q137 0 241 14.5t180 45.5t115.5 81.5t39.5 120.5q0 95 -63.5 158.5t-161.5 63.5q-85 0 -173.5 -52.5t-174 -148.5t-176.5 -238l-30 -46h55zM1207 70q0 173 -79 351l109 38l49 -154q15 -46 32 -77.5t42 -53t56 -25.5
l19 -2l10 17q331 563 653 563q152 0 250.5 -96t98.5 -239q-1 -194 -169 -293t-521 -99h-51q-122 0 -209.5 14t-141.5 40l-42 20l-1 -47q-4 -271 -158.5 -409t-432.5 -138q-302 0 -447.5 134.5t-145.5 411.5q0 191 77 390l100 -41q-65 -183 -65 -344q0 -216 125 -327
t363 -111q234 0 356 121.5t123 355.5z" />
    <glyph glyph-name="uni0637" unicode="&#x637;" horiz-adv-x="1471" 
d="M649 122q137 0 241 14.5t180 45.5t115.5 81.5t39.5 120.5q0 95 -63.5 158.5t-161.5 63.5q-126 0 -256 -111.5t-268 -327.5l-30 -46h55zM346 134q9 16 72 116l5 7v9v1040h109v-800v-85l53 66q195 240 406 240q104 0 184.5 -43t124 -119t43.5 -173q-1 -194 -169.5 -293
t-520.5 -99h-525v120h192h17z" />
    <glyph glyph-name="uni0638" unicode="&#x638;" horiz-adv-x="1471" 
d="M857 1144l113 113l114 -114l-113 -113zM649 122q137 0 241 14.5t180 45.5t115.5 81.5t39.5 120.5q0 95 -63.5 158.5t-161.5 63.5q-126 0 -256 -111.5t-268 -327.5l-30 -46h55zM346 134q9 16 72 116l5 7v9v1040h109v-800v-85l53 66q195 240 406 240q104 0 184.5 -43
t124 -119t43.5 -173q-1 -194 -169.5 -293t-520.5 -99h-525v120h192h17z" />
    <glyph glyph-name="uni0639" unicode="&#x639;" horiz-adv-x="1306" 
d="M954 795q-138 76 -239 76q-102 0 -176 -63.5t-74 -167.5q0 -23 3 -43t10.5 -40t13.5 -33.5t20 -33t20.5 -28.5t25 -31.5t23.5 -30.5l12 -14l17 3q179 32 302 32q69 0 147 -7l-15 -113q-32 1 -73 1q-361 0 -549 -126t-188 -363q0 -179 140.5 -277t391.5 -98q193 0 385 82
l23 -111q-182 -83 -419 -83q-183 0 -322.5 52t-222 162t-82.5 266q0 111 32.5 208.5t106 181t182.5 132.5l37 16l-26 31q-108 125 -108 278q0 132 106.5 234t246.5 102q135 0 291 -101z" />
    <glyph glyph-name="uni063A" unicode="&#x63a;" horiz-adv-x="1306" 
d="M567 1362l113 113l114 -114l-113 -113zM954 795q-138 76 -239 76q-102 0 -176 -63.5t-74 -167.5q0 -23 3 -43t10.5 -40t13.5 -33.5t20 -33t20.5 -28.5t25 -31.5t23.5 -30.5l12 -14l17 3q179 32 302 32q69 0 147 -7l-15 -113q-32 1 -73 1q-361 0 -549 -126t-188 -363
q0 -179 140.5 -277t391.5 -98q193 0 385 82l23 -111q-182 -83 -419 -83q-183 0 -322.5 52t-222 162t-82.5 266q0 111 32.5 208.5t106 181t182.5 132.5l37 16l-26 31q-108 125 -108 278q0 132 106.5 234t246.5 102q135 0 291 -101z" />
    <glyph glyph-name="uni0640" unicode="&#x640;" horiz-adv-x="286" 
d="M-20 0v120h326v-120h-326z" />
    <glyph glyph-name="uni0641" unicode="&#x641;" horiz-adv-x="1781" 
d="M1189 1344l113 113l114 -114l-113 -113zM1520 389q-89 -28 -192 -28q-154 0 -225 60t-71 187q0 100 36 184.5t104.5 136.5t155.5 52q81 0 144 -44t102 -121t59 -174.5t20 -210.5q0 -92 -11.5 -158.5t-39 -115t-66 -78.5t-100.5 -48t-134 -24.5t-175 -6.5h-290
q-709 0 -709 454q0 108 41 216l98 -37q-24 -77 -24 -154q0 -180 155.5 -269.5t434.5 -89.5h315q79 0 138 5.5t113 21.5t87.5 42.5t53 69t19.5 101.5v41zM1544 532q-43 333 -222 333q-79 0 -134.5 -70.5t-55.5 -167.5q0 -77 55.5 -116.5t151.5 -39.5q86 0 183 28l25 7z" />
    <glyph glyph-name="uni0642" unicode="&#x642;" horiz-adv-x="1437" 
d="M1015 1060l108 108l108 -108l-108 -109zM683 1060l108 108l108 -108l-108 -109zM1193 250q-5 37 -11 70t-17.5 73.5t-28.5 72.5t-39.5 59.5t-54.5 43t-71 15.5q-79 0 -134.5 -71t-55.5 -167q0 -77 55.5 -117t150.5 -40q88 0 184 28l25 7zM305 435q-65 -183 -65 -344
q0 -215 123.5 -326.5t361.5 -111.5q103 0 183.5 19t136.5 54.5t92.5 88t54 117.5t18.5 147l1 40l-39 -11q-49 -14 -98 -21.5t-103 -7.5q-149 0 -219.5 59t-70.5 181q0 153 83 266.5t214 113.5q86 0 151.5 -46t104 -127t57 -181.5t18.5 -218.5q0 -304 -139.5 -445
t-448.5 -141q-304 0 -448.5 134.5t-144.5 411.5q0 191 77 390z" />
    <glyph glyph-name="uni0643" unicode="&#x643;" horiz-adv-x="1831" 
d="M723 541q79 -9 116 -9h36.5t34 1t35 3.5t29.5 7t28 11.5t19.5 17t14.5 25t4 33q0 27 -8.5 44t-26 25t-36 11t-47.5 3q-69 0 -111.5 38.5t-42.5 127.5q0 81 50.5 129t153.5 48q43 0 95 -9v-65q-51 6 -90 6q-72 0 -111 -27.5t-39 -72.5q0 -47 27.5 -74t85.5 -27
q61 0 95 -15.5t48.5 -48t14.5 -89.5q0 -97 -56.5 -133.5t-195.5 -36.5q-40 0 -123 13v64zM978 120q141 0 240.5 13t163 36.5t99.5 64t49.5 89t13.5 117.5v866h109v-864q0 -95 -14.5 -160t-55.5 -122t-115 -90t-193 -51.5t-290 -18.5h-145q-355 0 -533.5 115t-178.5 339
q0 108 41 216l98 -37q-24 -77 -24 -154q1 -121 71 -202t199.5 -119t316.5 -38h148z" />
    <glyph glyph-name="uni0644" unicode="&#x644;" horiz-adv-x="1377" 
d="M297 311q-58 -156 -58 -305q0 -202 111.5 -307.5t324.5 -105.5q202 0 307.5 114t105.5 331l3 1268h108l-1 -1229q0 -305 -129.5 -451t-394.5 -146q-278 0 -412 129.5t-134 397.5q0 169 69 345z" />
    <glyph glyph-name="uni0645" unicode="&#x645;" horiz-adv-x="1230" 
d="M542 242q190 -147 301 -147q74 1 113 46t39 124q0 105 -58 178t-156 73q-163 0 -249 -240l-8 -20zM140 -655q-9 164 -9 292q0 79 3 143.5t10.5 127.5t20 112t32.5 93t47 74.5t64 52t83 30.5l16 3l6 15q139 352 367 353q95 0 169 -48.5t113.5 -131.5t39.5 -184
q0 -141 -65.5 -220.5t-193.5 -79.5q-93 0 -229 78q-38 23 -104 58q-49 25 -91 25q-52 0 -87 -32.5t-54 -97t-26.5 -146.5t-7.5 -197q0 -168 12 -320h-116z" />
    <glyph glyph-name="uni0646" unicode="&#x646;" horiz-adv-x="1447" 
d="M593 682l113 113l114 -114l-113 -113zM1128 491l110 38q81 -217 81 -419q0 -273 -157 -416.5t-441 -143.5q-302 0 -447.5 135t-145.5 411q0 191 77 390l100 -41q-65 -183 -65 -344q0 -215 125 -326.5t363 -111.5q233 0 355.5 122t123.5 355q0 173 -79 351z" />
    <glyph glyph-name="uni0647" unicode="&#x647;" horiz-adv-x="922" 
d="M427 628q-65 -58 -106.5 -108t-63.5 -100t-22 -101q0 -98 57.5 -148.5t167.5 -50.5q111 0 169 51t58 149q0 72 -54.5 145t-166.5 163l-20 16zM375 860q419 -313 419 -546q0 -136 -88.5 -222t-244.5 -88q-109 0 -183.5 35.5t-112 105t-37.5 169.5q0 192 210 398l23 22
l-24 22l-24 20z" />
    <glyph glyph-name="uni0648" unicode="&#x648;" horiz-adv-x="880" 
d="M612 13q-116 -15 -155 -15q-171 0 -250 65.5t-79 202.5q0 165 86 279.5t214 114.5q103 0 178.5 -74.5t110.5 -191t35 -258.5q0 -266 -141.5 -433t-423.5 -227l-38 98q205 44 330 147t166 254l12 43zM646 171q-23 364 -226 364q-85 0 -136 -78t-51 -176q0 -83 60 -126
t165 -43q73 0 167 28l22 7z" />
    <glyph glyph-name="uni0649" unicode="&#x649;" horiz-adv-x="1477" 
d="M322 428q-83 -211 -83 -376q0 -216 124 -327.5t361 -112.5q91 0 181 19.5t168 57t126 100t48 139.5q0 29 -14 48t-37.5 27t-41 10.5t-36.5 2.5h-144q-110 0 -163 53t-53 164q0 92 35.5 170.5t95.5 131t138.5 82.5t164.5 30q15 0 29 -1t34 -2.5t41 -6t42 -11.5l-21 -109
q-34 8 -64.5 11t-60.5 3q-70 0 -132 -24.5t-103.5 -65t-65.5 -91.5t-24 -104q0 -114 117 -114h180q92 0 138.5 -44.5t46.5 -119.5q0 -220 -169.5 -343.5t-460.5 -123.5q-301 0 -446 135t-145 413q0 188 94 420z" />
    <glyph glyph-name="uni064A" unicode="&#x64a;" horiz-adv-x="1477" 
d="M777 -789l108 108l108 -108l-108 -109zM445 -789l108 108l108 -108l-108 -109zM322 428q-83 -211 -83 -376q0 -216 124 -327.5t361 -112.5q91 0 181 19.5t168 57t126 100t48 139.5q0 29 -14 48t-37.5 27t-41 10.5t-36.5 2.5h-144q-110 0 -163 53t-53 164q0 92 35.5 170.5
t95.5 131t138.5 82.5t164.5 30q15 0 29 -1t34 -2.5t41 -6t42 -11.5l-21 -109q-34 8 -64.5 11t-60.5 3q-70 0 -132 -24.5t-103.5 -65t-65.5 -91.5t-24 -104q0 -114 117 -114h180q92 0 138.5 -44.5t46.5 -119.5q0 -220 -169.5 -343.5t-460.5 -123.5q-301 0 -446 135t-145 413
q0 188 94 420z" />
    <glyph glyph-name="uni064B" unicode="&#x64b;" 
d="M337 1091v82l435 178v-81zM337 1303v82l435 178v-81z" />
    <glyph glyph-name="uni064C" unicode="&#x64c;" 
d="M499 1629q0 68 42.5 110t110.5 42t110 -41.5t42 -111.5q0 -55 -26 -117l-5 -12l12 -2q18 -3 35 -4v-55q-32 2 -64 8l-8 1l-3 -7q-92 -219 -273 -219q-91 0 -140.5 77t-53.5 214l59 10q4 -110 38 -176.5t98 -66.5q59 0 111 41.5t98 122.5l6 10l-12 4q-87 31 -132 70.5
t-45 101.5zM718 1519q28 65 28 108q0 40 -26.5 67t-63.5 27q-42 0 -69.5 -26.5t-27.5 -69.5q0 -24 13 -43t37.5 -32t46 -21t50.5 -16l9 -2z" />
    <glyph glyph-name="uni064D" unicode="&#x64d;" 
d="M342 -431v82l436 178v-82zM342 -219v82l436 178v-82z" />
    <glyph glyph-name="uni064E" unicode="&#x64e;" 
d="M306 1364v82l436 178v-82z" />
    <glyph glyph-name="uni064F" unicode="&#x64f;" 
d="M713 1437q-12 0 -23.5 1t-22.5 2t-22 3l-7 1l-3 -5q-45 -63 -135 -100t-210 -45v58q66 7 120 19t96.5 32t66.5 45l13 14l-18 3q-73 13 -125.5 56.5t-52.5 104.5q0 69 42.5 110.5t110.5 41.5t110.5 -42t42.5 -111q0 -54 -25 -115l-5 -12l12 -2q20 -3 35 -4v-55zM609 1516
q28 65 28 108q0 40 -26 66.5t-64 26.5q-42 0 -69.5 -26t-27.5 -69q0 -24 13 -43t37.5 -32t46 -21t50.5 -16l9 -2z" />
    <glyph glyph-name="uni0650" unicode="&#x650;" 
d="M353 -331v82l435 178v-81z" />
    <glyph glyph-name="uni0651" unicode="&#x651;" 
d="M598 1748q2 -59 3 -73q4 -50 23.5 -80.5t56.5 -30.5q77 0 77 111q0 35 -15 110l69 11q15 -56 15 -111q0 -98 -34 -145t-103 -48q-31 0 -60 14.5t-40 36.5l-12 24l-7 -26q-12 -49 -50.5 -71t-88.5 -22q-19 0 -34.5 3.5t-29 10t-23.5 16.5t-18 23.5t-13 31t-7.5 38
t-2.5 45.5q0 46 10 89l59 -10q-7 -37 -7 -75q0 -45 20 -69.5t58 -24.5q20 0 35.5 5t25.5 12t17 22t11 28t6 36.5t2 41v48.5v29h57z" />
    <glyph glyph-name="uni0652" unicode="&#x652;" 
d="M490 1462q0 -43 30.5 -73t73.5 -30t73 30t30 73t-30 73.5t-73 30.5t-73.5 -30.5t-30.5 -73.5zM431 1462q0 67 48 115t115 48t115 -48t48 -115t-48 -115t-115 -48t-115 48t-48 115z" />
    <glyph glyph-name="uni0653" unicode="&#x653;" 
d="M373 1675q-32 0 -64.5 -14.5t-59 -36t-53.5 -52.5l-74 59q104 141 217 141q36 0 112 -26t123 -26q67 0 169 47l49 -82q-101 -57 -192 -57q-36 0 -109.5 23.5t-117.5 23.5z" />
    <glyph glyph-name="uni0654" unicode="&#x654;" 
d="M463 1837q-35 28 -50 63t-15 89q0 87 54.5 140t131.5 53q62 0 121 -34l1 -86q-54 27 -108 27q-30 0 -55 -11t-42.5 -37.5t-17.5 -64.5q2 -77 98 -113q15 -5 25 -5q5 0 11 2l115 23v-86l-367 -89v82l91 21l20 4l11 3l-8 6z" />
    <glyph glyph-name="uni0655" unicode="&#x655;" 
d="M463 -315q-35 28 -50 63t-15 89q0 87 54.5 140t131.5 53q62 0 121 -34l1 -86q-54 27 -108 27q-30 0 -55 -11t-42.5 -37.5t-17.5 -64.5q2 -77 98 -113q15 -5 25 -5q5 0 11 2l115 23v-86l-367 -89v82l91 21l20 4l11 3l-8 6z" />
    <glyph glyph-name="uni0656" unicode="&#x656;" 
d="M603 -383v342h68v-342h-68z" />
    <glyph glyph-name="uni0657" unicode="&#x657;" 
d="M275 1795q55 -2 119 -9h5l3 3l1 1l1 1q144 205 371 231v-59q-92 -16 -166 -61t-131 -118l-9 -11l14 -5q72 -21 118.5 -63t46.5 -106q0 -65 -41.5 -108t-105.5 -43q-67 0 -113 43t-46 112q0 6 0.5 12.5t1.5 14t2 15.5t3 16.5t4 17.5t5 19t7 21l3 12l-12 1q-49 4 -81 4v59z
M501 1506q40 0 63 25.5t23 65.5q0 20 -9 38t-23.5 31t-35 23.5t-39.5 17.5t-41 12l-8 2l-3 -8q-28 -66 -28 -108q0 -43 29.5 -71t71.5 -28z" />
    <glyph glyph-name="uni0658" unicode="&#x658;" 
d="M826 1529q-13 -111 -73 -179t-162 -68q-52 0 -94 19t-71 53t-46.5 78t-23.5 97h81q25 -165 154 -165q71 0 106 44t47 121h82z" />
    <glyph glyph-name="uni065A" unicode="&#x65a;" 
d="M508 1454l-181 304h100l137 -235l9 -15l9 15l138 235h100l-182 -304h-130z" />
    <glyph glyph-name="uni0660" unicode="&#x660;" horiz-adv-x="799" 
d="M217 489l181 182l184 -183l-182 -182z" />
    <glyph glyph-name="uni0661" unicode="&#x661;" horiz-adv-x="651" 
d="M258 1252q189 -437 189 -1037v-215h-110v218q0 613 -178 998z" />
    <glyph glyph-name="uni0662" unicode="&#x662;" horiz-adv-x="1114" 
d="M337 218q0 613 -178 998l96 35q11 -29 26 -68.5t29.5 -76t25.5 -67.5q26 -67 63.5 -111.5t93.5 -68.5t131 -24q117 0 176.5 78t59.5 207q0 51 -12 134l108 12q10 -83 10 -136q0 -197 -87.5 -302.5t-252.5 -105.5q-105 0 -225 60l7 -53q39 -273 39 -514v-215h-110v218z
" />
    <glyph glyph-name="uni0663" unicode="&#x663;" horiz-adv-x="1411" 
d="M337 218q0 613 -178 998l96 35q13 -38 31.5 -88.5t36 -98.5t31.5 -87q24 -69 79 -105t133 -37q160 0 162 296q0 6 1 69l95 8q3 -62 3 -71q12 -302 172 -302q47 0 80 21t49 56.5t23 72t7 79.5q0 91 -16 190l108 13q6 -49 9.5 -96t3.5 -101q0 -164 -67 -256t-201 -92
q-114 0 -200 101l-23 27l-23 -28q-83 -100 -181 -100q-47 0 -96 19t-70 42l8 -62q37 -267 37 -506v-215h-110v218z" />
    <glyph glyph-name="uni0664" unicode="&#x664;" horiz-adv-x="1006" 
d="M738 614q-77 -31 -134 -56.5t-111 -53.5t-90 -53.5t-64.5 -53t-41.5 -56.5t-13 -60q0 -39 22 -68.5t58.5 -47t92.5 -28t114 -14t133 -3.5h162l2 -120h-171q-275 1 -405.5 71t-130.5 206q0 98 92 182t288 172l84 37l-90 19q-150 32 -220.5 99t-70.5 177q0 90 55 157.5
t147.5 102.5t209.5 36q52 0 110 -6l-9 -118q-33 3 -63 3q-315 0 -315 -192q0 -45 25.5 -80t74 -58t111.5 -37.5t146 -22.5z" />
    <glyph glyph-name="uni0665" unicode="&#x665;" horiz-adv-x="1177" 
d="M540 969q-136 -145 -208.5 -283.5t-72.5 -247.5q0 -136 88 -228t248 -92q152 0 238 94.5t86 232.5q0 125 -89.5 262.5t-248.5 264.5l-22 18zM477 1217q146 -106 246.5 -198.5t171.5 -189t103.5 -196t32.5 -211.5q0 -185 -117.5 -303.5t-322.5 -118.5q-144 0 -246.5 57.5
t-150 151t-47.5 212.5q0 155 71.5 299t223.5 321l20 24l-25 20l-35 27z" />
    <glyph glyph-name="uni0666" unicode="&#x666;" horiz-adv-x="1175" 
d="M860 0q-116 486 -127 1047l-1 38l-37 -10q-79 -22 -140.5 -29t-150.5 -7q-90 0 -144.5 12t-136.5 48v132q84 -36 154.5 -50.5t172.5 -14.5q52 0 99 4t94 12.5t93.5 21.5t98.5 32q14 -770 145 -1236h-120z" />
    <glyph glyph-name="uni0667" unicode="&#x667;" horiz-adv-x="1246" 
d="M567 0q-65 361 -175 666.5t-249 527.5l101 55q270 -474 380 -1115q107 641 378 1115l101 -55q-139 -222 -248.5 -528t-174.5 -666h-113z" />
    <glyph glyph-name="uni0668" unicode="&#x668;" horiz-adv-x="1246" 
d="M567 1245h113q65 -361 174.5 -666.5t248.5 -527.5l-101 -55q-268 470 -378 1125q-112 -656 -380 -1125l-101 55q139 223 249 528.5t175 665.5z" />
    <glyph glyph-name="uni0669" unicode="&#x669;" horiz-adv-x="1026" 
d="M137 900q0 89 43 170.5t118.5 133.5t163.5 52q71 0 124.5 -21t89 -58.5t58.5 -96.5t34 -126t16 -155q23 -465 32 -799h-108q-2 78 -8.5 313t-8.5 300l-1 39l-38 -11q-79 -24 -169 -24q-183 0 -264.5 65t-81.5 218zM461 1145q-92 0 -155 -76t-63 -169q0 -173 243 -173
q39 0 88.5 8.5t81.5 17.5l22 7l-1 24q-5 73 -8.5 111.5t-17 90t-36.5 84.5q-51 75 -154 75z" />
    <glyph glyph-name="uni066A" unicode="&#x66a;" horiz-adv-x="1033" 
d="M757 1282l77 -35l-557 -1232l-77 35zM667 163q0 43 30.5 73.5t72.5 30.5t72.5 -30.5t30.5 -73.5q0 -42 -30.5 -72.5t-72.5 -30.5q-44 0 -73.5 29.5t-29.5 73.5zM160 1129q0 43 30.5 73.5t72.5 30.5t72.5 -30.5t30.5 -73.5q0 -42 -30.5 -72.5t-72.5 -30.5
q-44 0 -73.5 29.5t-29.5 73.5z" />
    <glyph glyph-name="uni066B" unicode="&#x66b;" horiz-adv-x="772" 
d="M550 644l71 -31l-438 -1012l-74 33z" />
    <glyph glyph-name="uni066C" unicode="&#x66c;" horiz-adv-x="560" 
d="M177 -261l-53 40q43 65 67 134.5t26 138.5v137h111v-115q0 -92 -44.5 -184.5t-106.5 -150.5z" />
    <glyph glyph-name="uni066D" unicode="&#x66d;" horiz-adv-x="1436" 
d="M243 979h340h22l7 21l106 324l106 -324l7 -21h22h340l-275 -202l-17 -13l6 -20l106 -323l-277 200l-18 13l-18 -13l-277 -200l106 323l6 20l-17 13z" />
    <glyph glyph-name="uni066E" unicode="&#x66e;" horiz-adv-x="1777" 
d="M975 0h-135q-355 0 -533.5 115t-178.5 339q0 108 41 216l98 -37q-24 -77 -24 -154q1 -121 71 -202t199.5 -119t316.5 -38h138q215 0 307 17q204 37 248 183q13 44 13 98q0 28 -3.5 64.5t-10.5 77t-16 86.5l104 26q39 -130 39 -239q0 -80 -16.5 -143t-44.5 -108t-75 -77.5
t-99 -53t-125.5 -32t-146 -15.5t-167.5 -4z" />
    <glyph glyph-name="uni066F" unicode="&#x66f;" horiz-adv-x="1437" 
d="M1193 250q-5 37 -11 70t-17.5 73.5t-28.5 72.5t-39.5 59.5t-54.5 43t-71 15.5q-79 0 -134.5 -71t-55.5 -167q0 -77 55.5 -117t150.5 -40q88 0 184 28l25 7zM305 435q-65 -183 -65 -344q0 -215 123.5 -326.5t361.5 -111.5q103 0 183.5 19t136.5 54.5t92.5 88t54 117.5
t18.5 147l1 40l-39 -11q-49 -14 -98 -21.5t-103 -7.5q-149 0 -219.5 59t-70.5 181q0 153 83 266.5t214 113.5q86 0 151.5 -46t104 -127t57 -181.5t18.5 -218.5q0 -304 -139.5 -445t-448.5 -141q-304 0 -448.5 134.5t-144.5 411.5q0 191 77 390z" />
    <glyph glyph-name="uni0670" unicode="&#x670;" 
d="M603 1578v342h68v-342h-68z" />
    <glyph glyph-name="uni0671" unicode="&#x671;" horiz-adv-x="465" 
d="M202 1366q132 0 183 19t51 77q0 42 -27.5 70t-71.5 28q-55 0 -100 -40.5t-111 -142.5l-7 -12h14zM-37 1357l14 65q39 -33 65 -43l6 -2l4 5q54 92 98.5 145.5t88.5 78t94 24.5q38 0 70 -12t54.5 -34t35 -52.5t12.5 -65.5q0 -95 -66.5 -132.5t-234.5 -37.5h-24
q-175 0 -217 61zM178 1117.57h109v-1114.71h-109v1114.71z" />
    <glyph glyph-name="uni0674" unicode="&#x674;" horiz-adv-x="551" 
d="M196 1981q-35 28 -50 63t-15 89q0 87 54.5 140t131.5 53q62 0 121 -34l1 -86q-54 27 -108 27q-30 0 -55 -11t-42.5 -37.5t-17.5 -64.5q2 -77 98 -113q15 -5 25 -5q5 0 11 2l115 23v-86l-367 -89v82l91 21l20 4l11 3l-8 6z" />
    <glyph glyph-name="uni0679" unicode="&#x679;" horiz-adv-x="1777" 
d="M862 821q241 0 241 100q0 36 -23 59t-60 23q-94 0 -207 -167l-11 -16h19zM714 824q5 8 27 43l1 2v3v423v4h4h76h4v-4v-282v-25l18 18q41 44 83 65.5t88 21.5q78 0 127 -47.5t49 -120.5q-1 -194 -328 -194h-249h-4v4v81v4h4h92h5zM975 0h-135q-355 0 -533.5 115
t-178.5 339q0 108 41 216l98 -37q-24 -77 -24 -154q1 -121 71 -202t199.5 -119t316.5 -38h138q215 0 307 17q204 37 248 183q13 44 13 98q0 28 -3.5 64.5t-10.5 77t-16 86.5l104 26q39 -130 39 -239q0 -80 -16.5 -143t-44.5 -108t-75 -77.5t-99 -53t-125.5 -32t-146 -15.5
t-167.5 -4z" />
    <glyph glyph-name="uni067C" unicode="&#x67c;" horiz-adv-x="1777" 
d="M809 -95q0 -37 26 -62.5t63 -25.5t62.5 25.5t25.5 62.5t-25.5 63t-62.5 26t-63 -26t-26 -63zM734 -95q0 68 48.5 116t116 48t115.5 -48.5t48 -115.5t-48 -115.5t-115.5 -48.5t-116 48t-48.5 116zM975 0h-135q-355 0 -533.5 115t-178.5 339q0 108 41 216l98 -37
q-24 -77 -24 -154q1 -121 71 -202t199.5 -119t316.5 -38h138q215 0 307 17q204 37 248 183q13 44 13 98q0 28 -3.5 64.5t-10.5 77t-16 86.5l104 26q39 -130 39 -239q0 -80 -16.5 -143t-44.5 -108t-75 -77.5t-99 -53t-125.5 -32t-146 -15.5t-167.5 -4zM953 860l108 108
l108 -108l-108 -109zM621 860l108 108l108 -108l-108 -109z" />
    <glyph glyph-name="uni067E" unicode="&#x67e;" horiz-adv-x="1777" 
d="M806 -530l100 100l100 -100l-100 -100zM978 -268l100 100l100 -100l-100 -100zM638 -268l100 100l100 -100l-100 -100zM975 0h-135q-355 0 -533.5 115t-178.5 339q0 108 41 216l98 -37q-24 -77 -24 -154q1 -121 71 -202t199.5 -119t316.5 -38h138q215 0 307 17
q204 37 248 183q13 44 13 98q0 28 -3.5 64.5t-10.5 77t-16 86.5l104 26q39 -130 39 -239q0 -80 -16.5 -143t-44.5 -108t-75 -77.5t-99 -53t-125.5 -32t-146 -15.5t-167.5 -4z" />
    <glyph glyph-name="uni0681" unicode="&#x681;" horiz-adv-x="1347" 
d="M847 548q-35 14 -91 37l-42.5 17t-40.5 16t-35.5 14t-34 13t-29.5 10.5t-29 9t-24 6t-23.5 4.5t-20.5 1q-43 0 -86 -17.5t-77 -45t-62 -63.5l-12 -15l-100 50q61 98 148.5 153.5t189.5 55.5q97 0 290 -93q145 -71 245 -106.5t183 -44.5l-9 -114q-197 -19 -369.5 -69.5
t-302.5 -126.5t-205 -181t-75 -224q0 -200 144.5 -300.5t418.5 -100.5q201 0 393 82l23 -110q-188 -83 -430 -83q-308 0 -481.5 124.5t-173.5 371.5q0 115 45.5 218.5t133 191t224 155.5t311.5 107l94 21zM535 1151q-35 28 -50 63t-15 89q0 87 54.5 140t131.5 53
q62 0 121 -34l1 -86q-54 27 -108 27q-30 0 -55 -11t-42.5 -37.5t-17.5 -64.5q2 -77 98 -113q15 -5 25 -5q5 0 11 2l115 23v-86l-367 -89v82l91 21l20 4l11 3l-8 6z" />
    <glyph glyph-name="uni0685" unicode="&#x685;" horiz-adv-x="1347" 
d="M536 1385l100 100l100 -100l-100 -100zM708 1123l100 100l100 -100l-100 -100zM368 1123l100 100l100 -100l-100 -100zM847 548q-35 14 -91 37l-42.5 17t-40.5 16t-35.5 14t-34 13t-29.5 10.5t-29 9t-24 6t-23.5 4.5t-20.5 1q-43 0 -86 -17.5t-77 -45t-62 -63.5l-12 -15
l-100 50q61 98 148.5 153.5t189.5 55.5q97 0 290 -93q145 -71 245 -106.5t183 -44.5l-9 -114q-197 -19 -369.5 -69.5t-302.5 -126.5t-205 -181t-75 -224q0 -200 144.5 -300.5t418.5 -100.5q201 0 393 82l23 -110q-188 -83 -430 -83q-308 0 -481.5 124.5t-173.5 371.5
q0 115 45.5 218.5t133 191t224 155.5t311.5 107l94 21z" />
    <glyph glyph-name="uni0686" unicode="&#x686;" horiz-adv-x="1347" 
d="M712 -240l100 100l100 -100l-100 -100zM884 22l100 100l100 -100l-100 -100zM544 22l100 100l100 -100l-100 -100zM847 548q-35 14 -91 37l-42.5 17t-40.5 16t-35.5 14t-34 13t-29.5 10.5t-29 9t-24 6t-23.5 4.5t-20.5 1q-43 0 -86 -17.5t-77 -45t-62 -63.5l-12 -15
l-100 50q61 98 148.5 153.5t189.5 55.5q97 0 290 -93q145 -71 245 -106.5t183 -44.5l-9 -114q-197 -19 -369.5 -69.5t-302.5 -126.5t-205 -181t-75 -224q0 -200 144.5 -300.5t418.5 -100.5q201 0 393 82l23 -110q-188 -83 -430 -83q-308 0 -481.5 124.5t-173.5 371.5
q0 115 45.5 218.5t133 191t224 155.5t311.5 107l94 21z" />
    <glyph glyph-name="uni0688" unicode="&#x688;" horiz-adv-x="963" 
d="M377 1263q241 0 241 100q0 36 -23 59t-60 23q-94 0 -207 -167l-11 -16h19zM229 1266q5 8 27 43l1 2v3v423v4h4h76h4v-4v-282v-25l18 18q41 44 83 65.5t88 21.5q78 0 127 -47.5t49 -120.5q-1 -194 -328 -194h-249h-4v4v81v4h4h92h5zM128 141q108 -20 189 -20
q402 0 402 213q0 105 -102 218.5t-300 241.5l65 98q453 -278 453 -555q0 -167 -122.5 -251t-382.5 -84q-104 0 -202 19v120z" />
    <glyph glyph-name="uni0689" unicode="&#x689;" horiz-adv-x="963" 
d="M341 -91q0 -37 26 -62.5t63 -25.5t62.5 25.5t25.5 62.5t-25.5 63t-62.5 26t-63 -26t-26 -63zM266 -91q0 68 48.5 116t116 48t115.5 -48.5t48 -115.5t-48 -115.5t-115.5 -48.5t-116 48t-48.5 116zM128 141q108 -20 189 -20q402 0 402 213q0 105 -102 218.5t-300 241.5
l65 98q453 -278 453 -555q0 -167 -122.5 -251t-382.5 -84q-104 0 -202 19v120z" />
    <glyph glyph-name="uni0691" unicode="&#x691;" horiz-adv-x="810" 
d="M411 816q241 0 241 100q0 36 -23 59t-60 23q-94 0 -207 -167l-11 -16h19zM263 819q5 8 27 43l1 2v3v423v4h4h76h4v-4v-282v-25l18 18q41 44 83 65.5t88 21.5q78 0 127 -47.5t49 -120.5q-1 -194 -328 -194h-249h-4v4v81v4h4h92h5zM583 459q69 -186 69 -354
q0 -255 -144 -411.5t-439 -217.5l-38 98q252 54 382 186.5t132 339.5q0 148 -67 321z" />
    <glyph glyph-name="uni0693" unicode="&#x693;" horiz-adv-x="780" 
d="M425 -438q0 -37 26 -62.5t63 -25.5t62.5 25.5t25.5 62.5t-25.5 63t-62.5 26t-63 -26t-26 -63zM350 -438q0 68 48.5 116t116 48t115.5 -48.5t48 -115.5t-48 -115.5t-115.5 -48.5t-116 48t-48.5 116zM583 459q69 -186 69 -354q0 -255 -144 -411.5t-439 -217.5l-38 98
q252 54 382 186.5t132 339.5q0 148 -67 321z" />
    <glyph glyph-name="uni0695" unicode="&#x695;" horiz-adv-x="780" 
d="M259 -915l-181 304h100l137 -235l9 -15l9 15l138 235h100l-182 -304h-130zM583 459q69 -186 69 -354q0 -255 -144 -411.5t-439 -217.5l-38 98q252 54 382 186.5t132 339.5q0 148 -67 321z" />
    <glyph glyph-name="uni0696" unicode="&#x696;" horiz-adv-x="780" 
d="M424 -616l113 113l114 -114l-113 -113zM86 12l113 113l114 -114l-113 -113zM583 459q69 -186 69 -354q0 -255 -144 -411.5t-439 -217.5l-38 98q252 54 382 186.5t132 339.5q0 148 -67 321z" />
    <glyph glyph-name="uni0698" unicode="&#x698;" horiz-adv-x="810" 
d="M349 1096l100 100l100 -100l-100 -100zM521 834l100 100l100 -100l-100 -100zM181 834l100 100l100 -100l-100 -100zM583 459q69 -186 69 -354q0 -255 -144 -411.5t-439 -217.5l-38 98q252 54 382 186.5t132 339.5q0 148 -67 321z" />
    <glyph glyph-name="uni069A" unicode="&#x69a;" horiz-adv-x="2456" 
d="M1694 -298l113 113l114 -114l-113 -113zM1634 946l113 113l114 -114l-113 -113zM1531 0q-104 0 -170 52l-48 37l-1 -61q-4 -272 -158 -409q-156 -139 -433 -139q-302 0 -447.5 134.5t-145.5 411.5q0 191 77 390l100 -41q-65 -182 -65 -344q0 -216 124.5 -327t363.5 -111
q235 0 356.5 121.5t122.5 355.5q0 173 -79 351l109 38l49 -154q59 -184 247 -185q109 0 162 63t53 176q0 38 -8 152l105 12l14 -194q6 -90 53 -149.5t135 -59.5q84 0 126.5 67.5t42.5 184.5q0 98 -37 243l111 29q38 -132 38 -257q0 -179 -67.5 -282.5t-212.5 -104.5
q-154 0 -215 124l-22 45l-29 -40q-94 -129 -251 -129z" />
    <glyph glyph-name="uni06A1" unicode="&#x6a1;" horiz-adv-x="1781" 
d="M1520 389q-89 -28 -192 -28q-154 0 -225 60t-71 187q0 100 36 184.5t104.5 136.5t155.5 52q81 0 144 -44t102 -121t59 -174.5t20 -210.5q0 -92 -11.5 -158.5t-39 -115t-66 -78.5t-100.5 -48t-134 -24.5t-175 -6.5h-290q-709 0 -709 454q0 108 41 216l98 -37
q-24 -77 -24 -154q0 -180 155.5 -269.5t434.5 -89.5h315q79 0 138 5.5t113 21.5t87.5 42.5t53 69t19.5 101.5v41zM1544 532q-43 333 -222 333q-79 0 -134.5 -70.5t-55.5 -167.5q0 -77 55.5 -116.5t151.5 -39.5q86 0 183 28l25 7z" />
    <glyph glyph-name="uni06A4" unicode="&#x6a4;" horiz-adv-x="1781" 
d="M1200 1569l100 100l100 -100l-100 -100zM1372 1307l100 100l100 -100l-100 -100zM1032 1307l100 100l100 -100l-100 -100zM1520 389q-89 -28 -192 -28q-154 0 -225 60t-71 187q0 100 36 184.5t104.5 136.5t155.5 52q81 0 144 -44t102 -121t59 -174.5t20 -210.5
q0 -92 -11.5 -158.5t-39 -115t-66 -78.5t-100.5 -48t-134 -24.5t-175 -6.5h-290q-709 0 -709 454q0 108 41 216l98 -37q-24 -77 -24 -154q0 -180 155.5 -269.5t434.5 -89.5h315q79 0 138 5.5t113 21.5t87.5 42.5t53 69t19.5 101.5v41zM1544 532q-43 333 -222 333
q-79 0 -134.5 -70.5t-55.5 -167.5q0 -77 55.5 -116.5t151.5 -39.5q86 0 183 28l25 7z" />
    <glyph glyph-name="uni06A9" unicode="&#x6a9;" horiz-adv-x="1865" 
d="M267 633q-24 -77 -24 -154q1 -121 71 -202t199.5 -119t316.5 -38h200q466 0 466 222q0 56 -28 105t-85 104q-22 20 -43 39t-43.5 38t-39.5 33t-41 33t-36.5 29t-38.5 30.5t-35 27.5q-101 78 -101 161q0 54 29 91.5t92 61.5l649 241v-107l-655 -243l-49 -18l40 -33
q68 -57 85.5 -72t71 -60.5t73.5 -63t55 -49t56.5 -52.5t40.5 -41q61 -67 90 -132.5t29 -139.5q0 -162 -141 -243.5t-440 -81.5h-191q-355 0 -533.5 115t-178.5 339q0 108 41 216z" />
    <glyph glyph-name="uni06AB" unicode="&#x6ab;" horiz-adv-x="1865" 
d="M1515 1061q0 -37 26 -62.5t63 -25.5t62.5 25.5t25.5 62.5t-25.5 63t-62.5 26t-63 -26t-26 -63zM1440 1061q0 68 48.5 116t116 48t115.5 -48.5t48 -115.5t-48 -115.5t-115.5 -48.5t-116 48t-48.5 116zM267 633q-24 -77 -24 -154q1 -121 71 -202t199.5 -119t316.5 -38h200
q466 0 466 222q0 56 -28 105t-85 104q-22 20 -43 39t-43.5 38t-39.5 33t-41 33t-36.5 29t-38.5 30.5t-35 27.5q-101 78 -101 161q0 54 29 91.5t92 61.5l649 241v-107l-655 -243l-49 -18l40 -33q68 -57 85.5 -72t71 -60.5t73.5 -63t55 -49t56.5 -52.5t40.5 -41
q61 -67 90 -132.5t29 -139.5q0 -162 -141 -243.5t-440 -81.5h-191q-355 0 -533.5 115t-178.5 339q0 108 41 216z" />
    <glyph glyph-name="uni06AF" unicode="&#x6af;" horiz-adv-x="1865" 
d="M1776.08 1511.6l-741.474 -276.046v79.1758l741.474 276.047v-79.1768zM267 633q-24 -77 -24 -154q1 -121 71 -202t199.5 -119t316.5 -38h200q466 0 466 222q0 56 -28 105t-85 104q-22 20 -43 39t-43.5 38t-39.5 33t-41 33t-36.5 29t-38.5 30.5t-35 27.5
q-101 78 -101 161q0 54 29 91.5t92 61.5l649 241v-107l-655 -243l-49 -18l40 -33q68 -57 85.5 -72t71 -60.5t73.5 -63t55 -49t56.5 -52.5t40.5 -41q61 -67 90 -132.5t29 -139.5q0 -162 -141 -243.5t-440 -81.5h-191q-355 0 -533.5 115t-178.5 339q0 108 41 216z" />
    <glyph glyph-name="uni06B5" unicode="&#x6b5;" horiz-adv-x="1377" 
d="M533 1064l-181 304h100l137 -235l9 -15l9 15l138 235h100l-182 -304h-130zM297 311q-58 -156 -58 -305q0 -202 111.5 -307.5t324.5 -105.5q202 0 307.5 114t105.5 331l3 1268h108l-1 -1229q0 -305 -129.5 -451t-394.5 -146q-278 0 -412 129.5t-134 397.5q0 169 69 345z
" />
    <glyph glyph-name="uni06BA" unicode="&#x6ba;" horiz-adv-x="1447" 
d="M1128 491l110 38q81 -217 81 -419q0 -273 -157 -416.5t-441 -143.5q-302 0 -447.5 135t-145.5 411q0 191 77 390l100 -41q-65 -183 -65 -344q0 -215 125 -326.5t363 -111.5q233 0 355.5 122t123.5 355q0 173 -79 351z" />
    <glyph glyph-name="uni06BC" unicode="&#x6bc;" horiz-adv-x="1447" 
d="M645 -547q0 -37 26 -62.5t63 -25.5t62.5 25.5t25.5 62.5t-25.5 63t-62.5 26t-63 -26t-26 -63zM570 -547q0 68 48.5 116t116 48t115.5 -48.5t48 -115.5t-48 -115.5t-115.5 -48.5t-116 48t-48.5 116zM593 682l113 113l114 -114l-113 -113zM1128 491l110 38q81 -217 81 -419
q0 -273 -157 -416.5t-441 -143.5q-302 0 -447.5 135t-145.5 411q0 191 77 390l100 -41q-65 -183 -65 -344q0 -215 125 -326.5t363 -111.5q233 0 355.5 122t123.5 355q0 173 -79 351z" />
    <glyph glyph-name="uni06BE" unicode="&#x6be;" horiz-adv-x="1369" 
d="M799 453q0 -162 -127 -275l-25 -21l-24 -22l32 -5l30 -4q87 -11 177 -11q124 0 194 51t70 154q0 25 -11 53t-31.5 55.5t-47.5 55.5t-61 55.5t-70 53.5t-77 51.5t-79.5 48t-78.5 44.5q-61 32 -119 59l46 85q330 -162 487 -300t157 -258q0 -153 -95.5 -233t-266.5 -80
q-89 0 -200.5 20.5t-183.5 44.5l-5 2l-5 2l-5 -2l-5 -2q-86 -32 -195.5 -53.5t-204.5 -21.5h-95v120h83q152 0 289 19q-38 28 -66.5 55.5t-53 63t-37 80.5t-12.5 98q0 133 90 214t222 81q81 0 151 -38q68 -36 110.5 -100.5t42.5 -139.5zM514 182q90 36 140 104t51 147
q0 62 -26 107.5t-71 68.5t-104 23q-92 0 -151.5 -53.5t-59.5 -140.5q0 -82 52.5 -151t146.5 -105l6 -2l5 -2l6 2z" />
    <glyph glyph-name="uni06C1" unicode="&#x6c1;" horiz-adv-x="922" 
d="M427 628q-65 -58 -106.5 -108t-63.5 -100t-22 -101q0 -98 57.5 -148.5t167.5 -50.5q111 0 169 51t58 149q0 72 -54.5 145t-166.5 163l-20 16zM375 860q419 -313 419 -546q0 -136 -88.5 -222t-244.5 -88q-109 0 -183.5 35.5t-112 105t-37.5 169.5q0 192 210 398l23 22
l-24 22l-24 20z" />
    <glyph glyph-name="uni06C2" unicode="&#x6c2;" horiz-adv-x="922" 
d="M328 1211q-35 28 -50 63t-15 89q0 87 54.5 140t131.5 53q62 0 121 -34l1 -86q-54 27 -108 27q-30 0 -55 -11t-42.5 -37.5t-17.5 -64.5q2 -77 98 -113q15 -5 25 -5q5 0 11 2l115 23v-86l-367 -89v82l91 21l20 4l11 3l-8 6zM427 628q-65 -58 -106.5 -108t-63.5 -100
t-22 -101q0 -98 57.5 -148.5t167.5 -50.5q111 0 169 51t58 149q0 72 -54.5 145t-166.5 163l-20 16zM375 860q419 -313 419 -546q0 -136 -88.5 -222t-244.5 -88q-109 0 -183.5 35.5t-112 105t-37.5 169.5q0 192 210 398l23 22l-24 22l-24 20z" />
    <glyph glyph-name="uni06C3" unicode="&#x6c3;" horiz-adv-x="922" 
d="M427 628q-65 -58 -106.5 -108t-63.5 -100t-22 -101q0 -98 57.5 -148.5t167.5 -50.5q111 0 169 51t58 149q0 72 -54.5 145t-166.5 163l-20 16zM375 860q419 -313 419 -546q0 -136 -88.5 -222t-244.5 -88q-109 0 -183.5 35.5t-112 105t-37.5 169.5q0 192 210 398l23 22
l-24 22l-24 20zM492 1218l108 108l108 -108l-108 -109zM160 1218l108 108l108 -108l-108 -109z" />
    <glyph glyph-name="uni06C6" unicode="&#x6c6;" horiz-adv-x="880" 
d="M358 949l-181 304h100l137 -235l9 -15l9 15l138 235h100l-182 -304h-130zM612 13q-116 -15 -155 -15q-171 0 -250 65.5t-79 202.5q0 165 86 279.5t214 114.5q103 0 178.5 -74.5t110.5 -191t35 -258.5q0 -266 -141.5 -433t-423.5 -227l-38 98q205 44 330 147t166 254
l12 43zM646 171q-23 364 -226 364q-85 0 -136 -78t-51 -176q0 -83 60 -126t165 -43q73 0 167 28l22 7z" />
    <glyph glyph-name="uni06CA" unicode="&#x6ca;" horiz-adv-x="880" 
d="M475 1031l108 108l108 -108l-108 -109zM143 1031l108 108l108 -108l-108 -109zM612 13q-116 -15 -155 -15q-171 0 -250 65.5t-79 202.5q0 165 86 279.5t214 114.5q103 0 178.5 -74.5t110.5 -191t35 -258.5q0 -266 -141.5 -433t-423.5 -227l-38 98q205 44 330 147t166 254
l12 43zM646 171q-23 364 -226 364q-85 0 -136 -78t-51 -176q0 -83 60 -126t165 -43q73 0 167 28l22 7z" />
    <glyph glyph-name="uni06CC" unicode="&#x6cc;" horiz-adv-x="1477" 
d="M322 428q-83 -211 -83 -376q0 -216 124 -327.5t361 -112.5q91 0 181 19.5t168 57t126 100t48 139.5q0 29 -14 48t-37.5 27t-41 10.5t-36.5 2.5h-144q-110 0 -163 53t-53 164q0 92 35.5 170.5t95.5 131t138.5 82.5t164.5 30q15 0 29 -1t34 -2.5t41 -6t42 -11.5l-21 -109
q-34 8 -64.5 11t-60.5 3q-70 0 -132 -24.5t-103.5 -65t-65.5 -91.5t-24 -104q0 -114 117 -114h180q92 0 138.5 -44.5t46.5 -119.5q0 -220 -169.5 -343.5t-460.5 -123.5q-301 0 -446 135t-145 413q0 188 94 420z" />
    <glyph glyph-name="uni06CD" unicode="&#x6cd;" horiz-adv-x="1681" 
d="M343 360l-244 -98l21 98l290 116l116 -48q-83 -211 -83 -376q0 -216 124 -327.5t361 -112.5q91 0 181 19.5t168 57t126 100t48 139.5q0 29 -14 48t-37.5 27t-41 10.5t-36.5 2.5h-144q-110 0 -163 53t-53 164q0 92 35.5 170.5t95.5 131t138.5 82.5t164.5 30q15 0 29 -1
t34 -2.5t41 -6t42 -11.5l-21 -109q-34 8 -64.5 11t-60.5 3q-70 0 -132 -24.5t-103.5 -65t-65.5 -91.5t-24 -104q0 -114 117 -114h180q92 0 138.5 -44.5t46.5 -119.5q0 -220 -169.5 -343.5t-460.5 -123.5q-301 0 -446 135t-145 413q0 73 10.5 129t40.5 145l20 61z" />
    <glyph glyph-name="uni06CE" unicode="&#x6ce;" horiz-adv-x="1477" 
d="M586 757l-181 304h100l137 -235l9 -15l9 15l138 235h100l-182 -304h-130zM322 428q-83 -211 -83 -376q0 -216 124 -327.5t361 -112.5q91 0 181 19.5t168 57t126 100t48 139.5q0 29 -14 48t-37.5 27t-41 10.5t-36.5 2.5h-144q-110 0 -163 53t-53 164q0 92 35.5 170.5
t95.5 131t138.5 82.5t164.5 30q15 0 29 -1t34 -2.5t41 -6t42 -11.5l-21 -109q-34 8 -64.5 11t-60.5 3q-70 0 -132 -24.5t-103.5 -65t-65.5 -91.5t-24 -104q0 -114 117 -114h180q92 0 138.5 -44.5t46.5 -119.5q0 -220 -169.5 -343.5t-460.5 -123.5q-301 0 -446 135t-145 413
q0 188 94 420z" />
    <glyph glyph-name="uni06D0" unicode="&#x6d0;" horiz-adv-x="1477" 
d="M741 -769l-108 108l108 108l109 -108zM741 -1051l-108 108l108 108l109 -108zM322 428q-83 -211 -83 -376q0 -216 124 -327.5t361 -112.5q91 0 181 19.5t168 57t126 100t48 139.5q0 29 -14 48t-37.5 27t-41 10.5t-36.5 2.5h-144q-110 0 -163 53t-53 164q0 92 35.5 170.5
t95.5 131t138.5 82.5t164.5 30q15 0 29 -1t34 -2.5t41 -6t42 -11.5l-21 -109q-34 8 -64.5 11t-60.5 3q-70 0 -132 -24.5t-103.5 -65t-65.5 -91.5t-24 -104q0 -114 117 -114h180q92 0 138.5 -44.5t46.5 -119.5q0 -220 -169.5 -343.5t-460.5 -123.5q-301 0 -446 135t-145 413
q0 188 94 420z" />
    <glyph glyph-name="uni06D2" unicode="&#x6d2;" horiz-adv-x="1744" 
d="M796 467q-4 4 -26 34.5t-29.5 40.5t-28 36t-33.5 40.5t-31.5 34.5t-36.5 35l-25 23l-20 -28q-20 -30 -40.5 -61.5t-32 -50t-30.5 -44.5t-43 -55q-39 -46 -77.5 -82.5t-58 -50.5t-31.5 -31t-12 -39q0 -44 50.5 -76.5t136 -49.5t180 -25t200.5 -8q385 0 803 62l4 -117
q-419 -54 -805 -54q-87 0 -164.5 4.5t-157 15t-142.5 29.5t-113 46t-77.5 67t-27.5 90q0 41 20 74.5t48 57t77.5 71.5t90.5 101q39 51 73.5 101t50 74.5t32 45t30 27.5t34.5 7q38 0 98 -53t108 -114t80 -113z" />
    <glyph glyph-name="uni06D3" unicode="&#x6d3;" horiz-adv-x="1744" 
d="M548 1125q-35 28 -50 63t-15 89q0 87 54.5 140t131.5 53q62 0 121 -34l1 -86q-54 27 -108 27q-30 0 -55 -11t-42.5 -37.5t-17.5 -64.5q2 -77 98 -113q15 -5 25 -5q5 0 11 2l115 23v-86l-367 -89v82l91 21l20 4l11 3l-8 6zM796 467q-4 4 -26 34.5t-29.5 40.5t-28 36
t-33.5 40.5t-31.5 34.5t-36.5 35l-25 23l-20 -28q-20 -30 -40.5 -61.5t-32 -50t-30.5 -44.5t-43 -55q-39 -46 -77.5 -82.5t-58 -50.5t-31.5 -31t-12 -39q0 -44 50.5 -76.5t136 -49.5t180 -25t200.5 -8q385 0 803 62l4 -117q-419 -54 -805 -54q-87 0 -164.5 4.5t-157 15
t-142.5 29.5t-113 46t-77.5 67t-27.5 90q0 41 20 74.5t48 57t77.5 71.5t90.5 101q39 51 73.5 101t50 74.5t32 45t30 27.5t34.5 7q38 0 98 -53t108 -114t80 -113z" />
    <glyph glyph-name="uni06D4" unicode="&#x6d4;" horiz-adv-x="632" 
d="M98 0v180h436v-180h-436z" />
    </font>
</defs>
</svg>
